<svg width="2576" height="574" viewBox="0 0 2576 574" fill="none" xmlns="http://www.w3.org/2000/svg">
<rect x="2" y="2" width="2572" height="570" rx="18" fill="white" stroke="black" stroke-width="4"/>
<path d="M184 215.608L185.925 218.082L187.85 220.603L189.775 223.142L191.701 225.667L193.626 228.149L195.551 230.558L197.476 232.863L199.401 235.038L201.326 237.057L203.251 238.894L205.176 240.527L207.102 241.938L209.027 243.108L210.952 244.024L212.877 244.675L214.802 245.053L216.727 245.152L218.652 244.973L220.578 244.517L222.503 243.789L224.428 242.799L226.353 241.559L228.278 240.083L230.203 238.389L232.128 236.498L234.053 234.432L235.979 232.217L237.904 229.879L239.829 227.446L241.754 224.949L245.604 219.879L247.529 217.369L249.455 214.915L251.38 212.547L253.305 210.294L255.23 208.183L257.155 206.239L259.08 204.487L261.005 202.947L262.93 201.637L264.856 200.574L266.781 199.771L268.706 199.236L270.631 198.977L272.556 198.997L274.481 199.296L276.406 199.869L278.332 200.71L280.257 201.809L282.182 203.153L284.107 204.725L286.032 206.506L287.957 208.475L289.882 210.608L291.807 212.879L293.733 215.261L295.658 217.725L297.583 220.241L299.508 222.779L301.433 225.308L303.358 227.799L305.283 230.219L307.209 232.541L309.134 234.737L311.059 236.779L312.984 238.643L314.909 240.307L316.834 241.751L318.759 242.956L320.684 243.91L322.61 244.599L324.535 245.016L326.46 245.155L328.385 245.016L330.31 244.599L332.235 243.91L334.16 242.956L336.086 241.751L338.011 240.307L339.936 238.643L341.861 236.779L343.786 234.737L345.711 232.541L347.636 230.219L349.561 227.799L351.487 225.308L353.412 222.779L355.337 220.241L357.262 217.725L359.187 215.261L361.112 212.879L363.037 210.608L364.963 208.475L366.888 206.506L368.813 204.725L370.738 203.153L372.663 201.809L374.588 200.71L376.513 199.869L378.439 199.296L380.364 198.997L382.289 198.977L384.214 199.236L386.139 199.771L388.064 200.574L389.989 201.637L391.914 202.947L393.84 204.487L395.765 206.239L397.69 208.183L399.615 210.294L401.54 212.547L403.465 214.915L405.39 217.369L407.316 219.879L411.166 224.949L413.091 227.446L415.016 229.879L416.941 232.217L418.866 234.432L420.791 236.498L422.717 238.389L424.642 240.083L426.567 241.559L428.492 242.799L430.417 243.789L432.342 244.517L434.267 244.973L436.193 245.152L438.118 245.053L440.043 244.675L441.968 244.024L443.893 243.108L445.818 241.938L447.743 240.527L449.668 238.894L451.594 237.057L453.519 235.038L455.444 232.863L457.369 230.558L459.294 228.149L461.219 225.667L463.144 223.142L465.07 220.603L466.995 218.082L468.92 215.608L470.845 213.213L472.77 210.924L474.695 208.77L476.62 206.776L478.545 204.967L480.471 203.364L482.396 201.987L484.321 200.852L486.246 199.973L488.171 199.361L490.096 199.023L492.021 198.963L493.947 199.182L495.872 199.678L497.797 200.443L499.722 201.47L501.647 202.745L503.572 204.253L505.497 205.977L507.422 207.894L509.348 209.983L511.273 212.217L513.198 214.57L515.123 217.014L517.048 219.518L520.898 224.588L522.824 227.093L524.749 229.536L526.674 231.89L528.599 234.124L530.524 236.213L532.449 238.13L534.374 239.854L536.299 241.362L538.225 242.637L540.15 243.664L542.075 244.429L544 244.925L545.925 245.144L547.85 245.084L549.775 244.746L551.701 244.134L553.626 243.255L555.551 242.12L557.476 240.743L559.401 239.14L561.326 237.331L563.251 235.337L565.176 233.183L567.102 230.894L569.027 228.499L570.952 226.025L572.877 223.504L574.802 220.965L576.727 218.44L578.652 215.958L580.578 213.549L582.503 211.244L584.428 209.068L586.353 207.05L588.278 205.213L590.203 203.579L592.128 202.169L594.053 200.999L595.979 200.083L597.904 199.432L599.829 199.054L601.754 198.955L603.679 199.134L605.604 199.59L607.529 200.318L609.455 201.308L611.38 202.548L613.305 204.024L615.23 205.718L617.155 207.609L619.08 209.675L621.005 211.89L622.93 214.228L624.856 216.66L626.781 219.158L630.631 224.228L632.556 226.738L634.481 229.192L636.406 231.56L638.331 233.813L640.257 235.924L642.182 237.868L644.107 239.62L646.032 241.16L647.957 242.47L649.882 243.533L651.807 244.336L653.733 244.871L655.658 245.129L657.583 245.109L659.508 244.811L661.433 244.238L663.358 243.397L665.283 242.298L667.208 240.954L669.134 239.382L671.059 237.601L672.984 235.632L674.909 233.499L676.834 231.228L678.759 228.846L680.684 226.382L682.61 223.866L684.535 221.328L686.46 218.798L688.385 216.308L690.31 213.888L692.235 211.566L694.16 209.37L696.085 207.328L698.011 205.464L699.936 203.8L701.861 202.356L703.786 201.15L705.711 200.197L707.636 199.508L709.561 199.091L711.487 198.952L713.412 199.091L715.337 199.508L717.262 200.197L719.187 201.15L721.112 202.356L723.037 203.8L724.962 205.464L726.888 207.328L728.813 209.37L730.738 211.566L732.663 213.888L734.588 216.308L736.513 218.798L738.438 221.328L740.364 223.866L742.289 226.382L744.214 228.846L746.139 231.228L748.064 233.499L749.989 235.632L751.914 237.601L753.839 239.382L755.765 240.954L757.69 242.298L759.615 243.397L761.54 244.238L763.465 244.811L765.39 245.109L767.315 245.129L769.241 244.871L771.166 244.336L773.091 243.533L775.016 242.47L776.941 241.16L778.866 239.62L780.791 237.868L782.716 235.924L784.642 233.813L786.567 231.56L788.492 229.192L790.417 226.738L792.342 224.228L796.192 219.158L798.118 216.66L800.043 214.228" stroke="#0055D5" stroke-width="14" stroke-miterlimit="10" stroke-linecap="round" stroke-linejoin="round"/>
<rect x="794.268" y="172" width="15.4011" height="102.032" rx="7.70053" fill="#0055D5"/>
<path d="M1142.61 231.403C1146.47 231.464 1149.65 228.38 1149.72 224.515C1149.78 220.649 1146.69 217.466 1142.83 217.405L1142.61 231.403ZM809.668 224.404L809.688 231.404C1083.85 230.634 1122.47 231.083 1142.61 231.403L1142.72 224.404L1142.83 217.405C1122.53 217.083 1083.77 216.634 809.648 217.404L809.668 224.404Z" fill="#DAE2FF"/>
<path d="M1382.1 216.704L1384.02 219.178L1385.95 221.699L1387.87 224.238L1389.8 226.764L1391.72 229.246L1393.65 231.654L1395.57 233.96L1397.5 236.135L1399.42 238.153L1401.35 239.99L1403.27 241.624L1405.2 243.034L1407.12 244.205L1409.05 245.121L1410.97 245.771L1412.9 246.149L1414.82 246.248L1416.75 246.069L1418.67 245.613L1420.6 244.885L1422.52 243.896L1424.45 242.655L1426.37 241.179L1428.3 239.485L1430.23 237.594L1432.15 235.528L1434.08 233.313L1436 230.975L1437.93 228.543L1439.85 226.045L1443.7 220.976L1445.63 218.465L1447.55 216.011L1449.48 213.643L1451.4 211.39L1453.33 209.279L1455.25 207.336L1457.18 205.583L1459.1 204.043L1461.03 202.733L1462.95 201.67L1464.88 200.867L1466.8 200.332L1468.73 200.074L1470.65 200.094L1472.58 200.392L1474.5 200.965L1476.43 201.807L1478.35 202.906L1480.28 204.249L1482.2 205.821L1484.13 207.602L1486.05 209.571L1487.98 211.704L1489.9 213.975L1491.83 216.357L1493.75 218.821L1495.68 221.337L1497.6 223.875L1499.53 226.405L1501.45 228.895L1503.38 231.315L1505.31 233.638L1507.23 235.833L1509.16 237.875L1511.08 239.74L1513.01 241.403L1514.93 242.847L1516.86 244.053L1518.78 245.006L1520.71 245.695L1522.63 246.112L1524.56 246.251L1526.48 246.112L1528.41 245.695L1530.33 245.006L1532.26 244.053L1534.18 242.847L1536.11 241.403L1538.03 239.74L1539.96 237.875L1541.88 235.833L1543.81 233.638L1545.73 231.315L1547.66 228.895L1549.58 226.405L1551.51 223.875L1553.43 221.337L1555.36 218.821L1557.28 216.357L1559.21 213.975L1561.13 211.704L1563.06 209.571L1564.98 207.602L1566.91 205.821L1568.83 204.249L1570.76 202.906L1572.68 201.807L1574.61 200.965L1576.54 200.392L1578.46 200.094L1580.39 200.074L1582.31 200.332L1584.24 200.867L1586.16 201.67L1588.09 202.733L1590.01 204.043L1591.94 205.583L1593.86 207.336L1595.79 209.279L1597.71 211.39L1599.64 213.643L1601.56 216.011L1603.49 218.465L1605.41 220.976L1609.26 226.045L1611.19 228.543L1613.11 230.975L1615.04 233.313L1616.96 235.528L1618.89 237.594L1620.81 239.485L1622.74 241.179L1624.66 242.655L1626.59 243.896L1628.51 244.885L1630.44 245.613L1632.36 246.069L1634.29 246.248L1636.21 246.149L1638.14 245.771L1640.06 245.121L1641.99 244.205L1643.91 243.034L1645.84 241.624L1647.77 239.99L1649.69 238.153L1651.62 236.135L1653.54 233.96L1655.47 231.654L1657.39 229.246L1659.32 226.764L1661.24 224.238L1663.17 221.699L1665.09 219.178L1667.02 216.704L1668.94 214.309L1670.87 212.02L1672.79 209.866L1674.72 207.872L1676.64 206.063L1678.57 204.46L1680.49 203.083L1682.42 201.948L1684.34 201.069L1686.27 200.457L1688.19 200.119L1690.12 200.059L1692.04 200.278L1693.97 200.774L1695.89 201.539L1697.82 202.566L1699.74 203.841L1701.67 205.35L1703.59 207.073L1705.52 208.991L1707.44 211.079L1709.37 213.313L1711.29 215.667L1713.22 218.11L1715.14 220.615L1719 225.685L1720.92 228.189L1722.85 230.633L1724.77 232.986L1726.7 235.22L1728.62 237.309L1730.55 239.226L1732.47 240.95L1734.4 242.458L1736.32 243.733L1738.25 244.76L1740.17 245.525L1742.1 246.021L1744.02 246.24L1745.95 246.18L1747.87 245.842L1749.8 245.23L1751.72 244.351L1753.65 243.216L1755.57 241.839L1757.5 240.236L1759.42 238.427L1761.35 236.433L1763.27 234.279L1765.2 231.99L1767.12 229.595L1769.05 227.121L1770.97 224.6L1772.9 222.061L1774.82 219.536L1776.75 217.054L1778.67 214.645L1780.6 212.34L1782.52 210.165L1784.45 208.146L1786.37 206.309L1788.3 204.676L1790.23 203.265L1792.15 202.095L1794.08 201.179L1796 200.528L1797.93 200.151L1799.85 200.051L1801.78 200.23L1803.7 200.686L1805.63 201.414L1807.55 202.404L1809.48 203.644L1811.4 205.12L1813.33 206.814L1815.25 208.706L1817.18 210.771L1819.1 212.986L1821.03 215.324L1822.95 217.757L1824.88 220.254L1828.73 225.324L1830.65 227.834L1832.58 230.288L1834.5 232.656L1836.43 234.909L1838.35 237.02L1840.28 238.964L1842.2 240.716L1844.13 242.257L1846.05 243.566L1847.98 244.629L1849.9 245.432L1851.83 245.967L1853.75 246.226L1855.68 246.206L1857.6 245.907L1859.53 245.334L1861.45 244.493L1863.38 243.394L1865.31 242.05L1867.23 240.478L1869.16 238.697L1871.08 236.728L1873.01 234.596L1874.93 232.324L1876.86 229.942L1878.78 227.478L1880.71 224.962L1882.63 222.424L1884.56 219.895L1886.48 217.405L1888.41 214.984L1890.33 212.662L1892.26 210.466L1894.18 208.424L1896.11 206.56L1898.03 204.896L1899.96 203.452L1901.88 202.247L1903.81 201.294L1905.73 200.604L1907.66 200.188L1909.58 200.048L1911.51 200.188L1913.43 200.604L1915.36 201.294L1917.28 202.247L1919.21 203.452L1921.13 204.896L1923.06 206.56L1924.98 208.424L1926.91 210.466L1928.83 212.662L1930.76 214.984L1932.68 217.405L1934.61 219.895L1936.54 222.424L1938.46 224.962L1940.39 227.478L1942.31 229.942L1944.24 232.324L1946.16 234.596L1948.09 236.728L1950.01 238.697L1951.94 240.478L1953.86 242.05L1955.79 243.394L1957.71 244.493L1959.64 245.334L1961.56 245.907L1963.49 246.206L1965.41 246.226L1967.34 245.967L1969.26 245.432L1971.19 244.629L1973.11 243.566L1975.04 242.257L1976.96 240.716L1978.89 238.964L1980.81 237.02L1982.74 234.909L1984.66 232.656L1986.59 230.288L1988.51 227.834L1990.44 225.324L1994.29 220.254L1996.21 217.757L1998.14 215.324" stroke="#E1E2EC" stroke-width="14" stroke-miterlimit="10" stroke-linecap="round" stroke-linejoin="round"/>
<rect x="1992.36" y="173.096" width="15.4011" height="102.032" rx="7.70053" fill="#E1E2EC"/>
<path d="M2340.7 232.499C2344.57 232.56 2347.75 229.477 2347.81 225.611C2347.87 221.746 2344.79 218.562 2340.92 218.501L2340.7 232.499ZM2007.77 225.5L2007.79 232.5C2281.94 231.73 2320.57 232.18 2340.7 232.499L2340.81 225.5L2340.92 218.501C2320.63 218.179 2281.86 217.73 2007.75 218.5L2007.77 225.5Z" fill="#DAE2FF"/>
<path d="M190.467 351.356C188.976 351.356 187.797 350.975 186.931 350.212C186.081 349.432 185.657 348.375 185.657 347.04C185.657 345.688 186.107 344.631 187.009 343.868C187.927 343.088 189.184 342.698 190.779 342.698H194.757V341.372C194.757 340.592 194.514 339.986 194.029 339.552C193.543 339.119 192.859 338.902 191.975 338.902C191.195 338.902 190.545 339.076 190.025 339.422C189.505 339.752 189.201 340.194 189.115 340.748H186.359C186.515 339.466 187.104 338.443 188.127 337.68C189.167 336.918 190.475 336.536 192.053 336.536C193.751 336.536 195.095 336.97 196.083 337.836C197.071 338.686 197.565 339.847 197.565 341.32V351.096H194.835V348.47H194.367L194.835 347.95C194.835 348.99 194.436 349.822 193.639 350.446C192.841 351.053 191.784 351.356 190.467 351.356ZM191.299 349.198C192.304 349.198 193.127 348.947 193.769 348.444C194.427 347.924 194.757 347.266 194.757 346.468V344.596H190.831C190.103 344.596 189.522 344.796 189.089 345.194C188.673 345.593 188.465 346.139 188.465 346.832C188.465 347.56 188.716 348.141 189.219 348.574C189.721 348.99 190.415 349.198 191.299 349.198ZM207.591 351.356C206.412 351.356 205.372 351.14 204.471 350.706C203.587 350.256 202.902 349.614 202.417 348.782C201.949 347.933 201.715 346.945 201.715 345.818V342.074C201.715 340.93 201.949 339.942 202.417 339.11C202.902 338.278 203.587 337.646 204.471 337.212C205.372 336.762 206.412 336.536 207.591 336.536C209.307 336.536 210.685 336.987 211.725 337.888C212.765 338.79 213.311 340.02 213.363 341.58H210.555C210.503 340.766 210.217 340.133 209.697 339.682C209.177 339.232 208.475 339.006 207.591 339.006C206.637 339.006 205.883 339.275 205.329 339.812C204.774 340.332 204.497 341.078 204.497 342.048V345.818C204.497 346.789 204.774 347.543 205.329 348.08C205.883 348.618 206.637 348.886 207.591 348.886C208.475 348.886 209.177 348.661 209.697 348.21C210.217 347.76 210.503 347.127 210.555 346.312H213.363C213.311 347.872 212.765 349.103 211.725 350.004C210.685 350.906 209.307 351.356 207.591 351.356ZM224.636 351.096C223.336 351.096 222.322 350.741 221.594 350.03C220.866 349.32 220.502 348.332 220.502 347.066V339.344H216.55V336.796H220.502V332.766H223.31V336.796H228.9V339.344H223.31V347.066C223.31 348.054 223.787 348.548 224.74 348.548H228.64V351.096H224.636ZM232.972 351.096V348.548H237.99V339.344H233.622V336.796H240.72V348.548H245.322V351.096H232.972ZM239.082 334.326C238.476 334.326 237.99 334.17 237.626 333.858C237.262 333.529 237.08 333.096 237.08 332.558C237.08 332.004 237.262 331.57 237.626 331.258C237.99 330.929 238.476 330.764 239.082 330.764C239.689 330.764 240.174 330.929 240.538 331.258C240.902 331.57 241.084 332.004 241.084 332.558C241.084 333.096 240.902 333.529 240.538 333.858C240.174 334.17 239.689 334.326 239.082 334.326ZM252.41 351.096L247.678 336.796H250.538L253.476 345.948C253.667 346.486 253.831 347.032 253.97 347.586C254.126 348.124 254.239 348.548 254.308 348.86C254.395 348.548 254.507 348.124 254.646 347.586C254.802 347.032 254.958 346.486 255.114 345.948L258 336.796H260.834L256.102 351.096H252.41ZM269.846 351.356C268.685 351.356 267.662 351.131 266.778 350.68C265.911 350.212 265.244 349.562 264.776 348.73C264.308 347.898 264.074 346.928 264.074 345.818V342.074C264.074 340.948 264.308 339.977 264.776 339.162C265.244 338.33 265.911 337.689 266.778 337.238C267.662 336.77 268.685 336.536 269.846 336.536C271.025 336.536 272.047 336.77 272.914 337.238C273.781 337.689 274.448 338.33 274.916 339.162C275.384 339.977 275.618 340.948 275.618 342.074V344.622H266.778V345.818C266.778 346.876 267.038 347.682 267.558 348.236C268.095 348.791 268.867 349.068 269.872 349.068C270.687 349.068 271.345 348.93 271.848 348.652C272.351 348.358 272.663 347.933 272.784 347.378H275.566C275.358 348.592 274.734 349.562 273.694 350.29C272.654 351.001 271.371 351.356 269.846 351.356ZM272.914 342.932V342.048C272.914 341.008 272.654 340.202 272.134 339.63C271.614 339.058 270.851 338.772 269.846 338.772C268.858 338.772 268.095 339.058 267.558 339.63C267.038 340.202 266.778 341.017 266.778 342.074V342.724L273.122 342.698L272.914 342.932ZM284.032 351.096V334.69H278.962V332.09H291.91V334.69H286.84V351.096H284.032ZM295.878 351.096V336.796H298.582V339.526H299.258L298.4 341.216C298.4 339.674 298.738 338.512 299.414 337.732C300.09 336.935 301.095 336.536 302.43 336.536C303.955 336.536 305.16 337.013 306.044 337.966C306.945 338.902 307.396 340.194 307.396 341.84V342.802H304.51V342.074C304.51 341.052 304.25 340.272 303.73 339.734C303.227 339.18 302.516 338.902 301.598 338.902C300.679 338.902 299.96 339.18 299.44 339.734C298.937 340.289 298.686 341.069 298.686 342.074V351.096H295.878ZM315.185 351.356C313.695 351.356 312.516 350.975 311.649 350.212C310.8 349.432 310.375 348.375 310.375 347.04C310.375 345.688 310.826 344.631 311.727 343.868C312.646 343.088 313.903 342.698 315.497 342.698H319.475V341.372C319.475 340.592 319.233 339.986 318.747 339.552C318.262 339.119 317.577 338.902 316.693 338.902C315.913 338.902 315.263 339.076 314.743 339.422C314.223 339.752 313.92 340.194 313.833 340.748H311.077C311.233 339.466 311.823 338.443 312.845 337.68C313.885 336.918 315.194 336.536 316.771 336.536C318.47 336.536 319.813 336.97 320.801 337.836C321.789 338.686 322.283 339.847 322.283 341.32V351.096H319.553V348.47H319.085L319.553 347.95C319.553 348.99 319.155 349.822 318.357 350.446C317.56 351.053 316.503 351.356 315.185 351.356ZM316.017 349.198C317.023 349.198 317.846 348.947 318.487 348.444C319.146 347.924 319.475 347.266 319.475 346.468V344.596H315.549C314.821 344.596 314.241 344.796 313.807 345.194C313.391 345.593 313.183 346.139 313.183 346.832C313.183 347.56 313.435 348.141 313.937 348.574C314.44 348.99 315.133 349.198 316.017 349.198ZM332.309 351.356C331.131 351.356 330.091 351.14 329.189 350.706C328.305 350.256 327.621 349.614 327.135 348.782C326.667 347.933 326.433 346.945 326.433 345.818V342.074C326.433 340.93 326.667 339.942 327.135 339.11C327.621 338.278 328.305 337.646 329.189 337.212C330.091 336.762 331.131 336.536 332.309 336.536C334.025 336.536 335.403 336.987 336.443 337.888C337.483 338.79 338.029 340.02 338.081 341.58H335.273C335.221 340.766 334.935 340.133 334.415 339.682C333.895 339.232 333.193 339.006 332.309 339.006C331.356 339.006 330.602 339.275 330.047 339.812C329.493 340.332 329.215 341.078 329.215 342.048V345.818C329.215 346.789 329.493 347.543 330.047 348.08C330.602 348.618 331.356 348.886 332.309 348.886C333.193 348.886 333.895 348.661 334.415 348.21C334.935 347.76 335.221 347.127 335.273 346.312H338.081C338.029 347.872 337.483 349.103 336.443 350.004C335.403 350.906 334.025 351.356 332.309 351.356ZM342.257 351.096V332.116H345.065V342.542H347.587L351.383 336.796H354.555L350.005 343.66L354.633 351.096H351.409L347.587 344.96H345.065V351.096H342.257ZM363.489 351.356C362.31 351.356 361.279 351.14 360.395 350.706C359.528 350.256 358.852 349.614 358.367 348.782C357.899 347.933 357.665 346.945 357.665 345.818V337.394C357.665 336.25 357.899 335.262 358.367 334.43C358.852 333.598 359.528 332.966 360.395 332.532C361.279 332.082 362.31 331.856 363.489 331.856C364.668 331.856 365.69 332.082 366.557 332.532C367.424 332.983 368.091 333.624 368.559 334.456C369.044 335.271 369.287 336.25 369.287 337.394H366.479C366.479 336.406 366.219 335.652 365.699 335.132C365.179 334.612 364.442 334.352 363.489 334.352C362.536 334.352 361.79 334.612 361.253 335.132C360.733 335.652 360.473 336.398 360.473 337.368V345.818C360.473 346.789 360.733 347.543 361.253 348.08C361.79 348.6 362.536 348.86 363.489 348.86C364.442 348.86 365.179 348.6 365.699 348.08C366.219 347.543 366.479 346.789 366.479 345.818H369.287C369.287 346.945 369.044 347.924 368.559 348.756C368.091 349.588 367.424 350.23 366.557 350.68C365.69 351.131 364.668 351.356 363.489 351.356ZM378.975 351.33C377.796 351.33 376.773 351.105 375.907 350.654C375.04 350.204 374.373 349.562 373.905 348.73C373.437 347.898 373.203 346.919 373.203 345.792V342.1C373.203 340.956 373.437 339.977 373.905 339.162C374.373 338.33 375.04 337.689 375.907 337.238C376.773 336.788 377.796 336.562 378.975 336.562C380.153 336.562 381.176 336.788 382.043 337.238C382.909 337.689 383.577 338.33 384.045 339.162C384.513 339.977 384.747 340.956 384.747 342.1V345.792C384.747 346.919 384.513 347.898 384.045 348.73C383.577 349.562 382.909 350.204 382.043 350.654C381.176 351.105 380.153 351.33 378.975 351.33ZM378.975 348.86C379.928 348.86 380.665 348.6 381.185 348.08C381.705 347.543 381.965 346.78 381.965 345.792V342.1C381.965 341.095 381.705 340.332 381.185 339.812C380.665 339.292 379.928 339.032 378.975 339.032C378.039 339.032 377.302 339.292 376.765 339.812C376.245 340.332 375.985 341.095 375.985 342.1V345.792C375.985 346.78 376.245 347.543 376.765 348.08C377.302 348.6 378.039 348.86 378.975 348.86ZM396.619 351.096C395.735 351.096 394.963 350.923 394.305 350.576C393.646 350.212 393.126 349.701 392.745 349.042C392.381 348.384 392.199 347.621 392.199 346.754V334.664H387.519V332.116H395.007V346.754C395.007 347.309 395.163 347.751 395.475 348.08C395.787 348.392 396.211 348.548 396.749 348.548H401.169V351.096H396.619ZM410.154 351.33C408.976 351.33 407.953 351.105 407.086 350.654C406.22 350.204 405.552 349.562 405.084 348.73C404.616 347.898 404.382 346.919 404.382 345.792V342.1C404.382 340.956 404.616 339.977 405.084 339.162C405.552 338.33 406.22 337.689 407.086 337.238C407.953 336.788 408.976 336.562 410.154 336.562C411.333 336.562 412.356 336.788 413.222 337.238C414.089 337.689 414.756 338.33 415.224 339.162C415.692 339.977 415.926 340.956 415.926 342.1V345.792C415.926 346.919 415.692 347.898 415.224 348.73C414.756 349.562 414.089 350.204 413.222 350.654C412.356 351.105 411.333 351.33 410.154 351.33ZM410.154 348.86C411.108 348.86 411.844 348.6 412.364 348.08C412.884 347.543 413.144 346.78 413.144 345.792V342.1C413.144 341.095 412.884 340.332 412.364 339.812C411.844 339.292 411.108 339.032 410.154 339.032C409.218 339.032 408.482 339.292 407.944 339.812C407.424 340.332 407.164 341.095 407.164 342.1V345.792C407.164 346.78 407.424 347.543 407.944 348.08C408.482 348.6 409.218 348.86 410.154 348.86ZM420.596 351.096V336.796H423.3V339.526H423.976L423.118 341.216C423.118 339.674 423.456 338.512 424.132 337.732C424.808 336.935 425.814 336.536 427.148 336.536C428.674 336.536 429.878 337.013 430.762 337.966C431.664 338.902 432.114 340.194 432.114 341.84V342.802H429.228V342.074C429.228 341.052 428.968 340.272 428.448 339.734C427.946 339.18 427.235 338.902 426.316 338.902C425.398 338.902 424.678 339.18 424.158 339.734C423.656 340.289 423.404 341.069 423.404 342.074V351.096H420.596Z" fill="#001849"/>
<path d="M309.097 317.596V268.096" stroke="black" stroke-width="4" stroke-linecap="round"/>
<path d="M953.203 334.096V331.548H958.221V322.344H953.853V319.796H960.951V331.548H965.553V334.096H953.203ZM959.313 317.326C958.706 317.326 958.221 317.17 957.857 316.858C957.493 316.529 957.311 316.096 957.311 315.558C957.311 315.004 957.493 314.57 957.857 314.258C958.221 313.929 958.706 313.764 959.313 313.764C959.919 313.764 960.405 313.929 960.769 314.258C961.133 314.57 961.315 315.004 961.315 315.558C961.315 316.096 961.133 316.529 960.769 316.858C960.405 317.17 959.919 317.326 959.313 317.326ZM968.871 334.096V319.796H971.653V322.526H972.329L971.653 323.176C971.653 322.032 971.991 321.14 972.667 320.498C973.343 319.857 974.279 319.536 975.475 319.536C976.896 319.536 978.031 319.996 978.881 320.914C979.73 321.816 980.155 323.038 980.155 324.58V334.096H977.347V324.892C977.347 323.956 977.095 323.237 976.593 322.734C976.09 322.232 975.405 321.98 974.539 321.98C973.655 321.98 972.953 322.249 972.433 322.786C971.93 323.306 971.679 324.069 971.679 325.074V334.096H968.871ZM988.646 334.356C987.156 334.356 985.977 333.975 985.11 333.212C984.261 332.432 983.836 331.375 983.836 330.04C983.836 328.688 984.287 327.631 985.188 326.868C986.107 326.088 987.364 325.698 988.958 325.698H992.936V324.372C992.936 323.592 992.694 322.986 992.208 322.552C991.723 322.119 991.038 321.902 990.154 321.902C989.374 321.902 988.724 322.076 988.204 322.422C987.684 322.752 987.381 323.194 987.294 323.748H984.538C984.694 322.466 985.284 321.443 986.306 320.68C987.346 319.918 988.655 319.536 990.232 319.536C991.931 319.536 993.274 319.97 994.262 320.836C995.25 321.686 995.744 322.847 995.744 324.32V334.096H993.014V331.47H992.546L993.014 330.95C993.014 331.99 992.616 332.822 991.818 333.446C991.021 334.053 989.964 334.356 988.646 334.356ZM989.478 332.198C990.484 332.198 991.307 331.947 991.948 331.444C992.607 330.924 992.936 330.266 992.936 329.468V327.596H989.01C988.282 327.596 987.702 327.796 987.268 328.194C986.852 328.593 986.644 329.139 986.644 329.832C986.644 330.56 986.896 331.141 987.398 331.574C987.901 331.99 988.594 332.198 989.478 332.198ZM1005.77 334.356C1004.59 334.356 1003.55 334.14 1002.65 333.706C1001.77 333.256 1001.08 332.614 1000.6 331.782C1000.13 330.933 999.894 329.945 999.894 328.818V325.074C999.894 323.93 1000.13 322.942 1000.6 322.11C1001.08 321.278 1001.77 320.646 1002.65 320.212C1003.55 319.762 1004.59 319.536 1005.77 319.536C1007.49 319.536 1008.86 319.987 1009.9 320.888C1010.94 321.79 1011.49 323.02 1011.54 324.58H1008.73C1008.68 323.766 1008.4 323.133 1007.88 322.682C1007.36 322.232 1006.65 322.006 1005.77 322.006C1004.82 322.006 1004.06 322.275 1003.51 322.812C1002.95 323.332 1002.68 324.078 1002.68 325.048V328.818C1002.68 329.789 1002.95 330.543 1003.51 331.08C1004.06 331.618 1004.82 331.886 1005.77 331.886C1006.65 331.886 1007.36 331.661 1007.88 331.21C1008.4 330.76 1008.68 330.127 1008.73 329.312H1011.54C1011.49 330.872 1010.94 332.103 1009.9 333.004C1008.86 333.906 1007.49 334.356 1005.77 334.356ZM1022.82 334.096C1021.52 334.096 1020.5 333.741 1019.77 333.03C1019.05 332.32 1018.68 331.332 1018.68 330.066V322.344H1014.73V319.796H1018.68V315.766H1021.49V319.796H1027.08V322.344H1021.49V330.066C1021.49 331.054 1021.97 331.548 1022.92 331.548H1026.82V334.096H1022.82ZM1031.15 334.096V331.548H1036.17V322.344H1031.8V319.796H1038.9V331.548H1043.5V334.096H1031.15ZM1037.26 317.326C1036.66 317.326 1036.17 317.17 1035.81 316.858C1035.44 316.529 1035.26 316.096 1035.26 315.558C1035.26 315.004 1035.44 314.57 1035.81 314.258C1036.17 313.929 1036.66 313.764 1037.26 313.764C1037.87 313.764 1038.35 313.929 1038.72 314.258C1039.08 314.57 1039.26 315.004 1039.26 315.558C1039.26 316.096 1039.08 316.529 1038.72 316.858C1038.35 317.17 1037.87 317.326 1037.26 317.326ZM1050.59 334.096L1045.86 319.796H1048.72L1051.66 328.948C1051.85 329.486 1052.01 330.032 1052.15 330.586C1052.31 331.124 1052.42 331.548 1052.49 331.86C1052.57 331.548 1052.69 331.124 1052.83 330.586C1052.98 330.032 1053.14 329.486 1053.29 328.948L1056.18 319.796H1059.01L1054.28 334.096H1050.59ZM1068.03 334.356C1066.86 334.356 1065.84 334.131 1064.96 333.68C1064.09 333.212 1063.42 332.562 1062.96 331.73C1062.49 330.898 1062.25 329.928 1062.25 328.818V325.074C1062.25 323.948 1062.49 322.977 1062.96 322.162C1063.42 321.33 1064.09 320.689 1064.96 320.238C1065.84 319.77 1066.86 319.536 1068.03 319.536C1069.2 319.536 1070.23 319.77 1071.09 320.238C1071.96 320.689 1072.63 321.33 1073.1 322.162C1073.56 322.977 1073.8 323.948 1073.8 325.074V327.622H1064.96V328.818C1064.96 329.876 1065.22 330.682 1065.74 331.236C1066.27 331.791 1067.05 332.068 1068.05 332.068C1068.87 332.068 1069.52 331.93 1070.03 331.652C1070.53 331.358 1070.84 330.933 1070.96 330.378H1073.75C1073.54 331.592 1072.91 332.562 1071.87 333.29C1070.83 334.001 1069.55 334.356 1068.03 334.356ZM1071.09 325.932V325.048C1071.09 324.008 1070.83 323.202 1070.31 322.63C1069.79 322.058 1069.03 321.772 1068.03 321.772C1067.04 321.772 1066.27 322.058 1065.74 322.63C1065.22 323.202 1064.96 324.017 1064.96 325.074V325.724L1071.3 325.698L1071.09 325.932ZM1082.21 334.096V317.69H1077.14V315.09H1090.09V317.69H1085.02V334.096H1082.21ZM1094.06 334.096V319.796H1096.76V322.526H1097.44L1096.58 324.216C1096.58 322.674 1096.92 321.512 1097.59 320.732C1098.27 319.935 1099.27 319.536 1100.61 319.536C1102.13 319.536 1103.34 320.013 1104.22 320.966C1105.12 321.902 1105.58 323.194 1105.58 324.84V325.802H1102.69V325.074C1102.69 324.052 1102.43 323.272 1101.91 322.734C1101.41 322.18 1100.7 321.902 1099.78 321.902C1098.86 321.902 1098.14 322.18 1097.62 322.734C1097.12 323.289 1096.87 324.069 1096.87 325.074V334.096H1094.06ZM1113.37 334.356C1111.87 334.356 1110.7 333.975 1109.83 333.212C1108.98 332.432 1108.56 331.375 1108.56 330.04C1108.56 328.688 1109.01 327.631 1109.91 326.868C1110.83 326.088 1112.08 325.698 1113.68 325.698H1117.66V324.372C1117.66 323.592 1117.41 322.986 1116.93 322.552C1116.44 322.119 1115.76 321.902 1114.87 321.902C1114.09 321.902 1113.44 322.076 1112.92 322.422C1112.4 322.752 1112.1 323.194 1112.01 323.748H1109.26C1109.41 322.466 1110 321.443 1111.03 320.68C1112.07 319.918 1113.37 319.536 1114.95 319.536C1116.65 319.536 1117.99 319.97 1118.98 320.836C1119.97 321.686 1120.46 322.847 1120.46 324.32V334.096H1117.73V331.47H1117.27L1117.73 330.95C1117.73 331.99 1117.33 332.822 1116.54 333.446C1115.74 334.053 1114.68 334.356 1113.37 334.356ZM1114.2 332.198C1115.2 332.198 1116.03 331.947 1116.67 331.444C1117.33 330.924 1117.66 330.266 1117.66 329.468V327.596H1113.73C1113 327.596 1112.42 327.796 1111.99 328.194C1111.57 328.593 1111.36 329.139 1111.36 329.832C1111.36 330.56 1111.61 331.141 1112.12 331.574C1112.62 331.99 1113.31 332.198 1114.2 332.198ZM1130.49 334.356C1129.31 334.356 1128.27 334.14 1127.37 333.706C1126.48 333.256 1125.8 332.614 1125.31 331.782C1124.85 330.933 1124.61 329.945 1124.61 328.818V325.074C1124.61 323.93 1124.85 322.942 1125.31 322.11C1125.8 321.278 1126.48 320.646 1127.37 320.212C1128.27 319.762 1129.31 319.536 1130.49 319.536C1132.2 319.536 1133.58 319.987 1134.62 320.888C1135.66 321.79 1136.21 323.02 1136.26 324.58H1133.45C1133.4 323.766 1133.11 323.133 1132.59 322.682C1132.07 322.232 1131.37 322.006 1130.49 322.006C1129.54 322.006 1128.78 322.275 1128.23 322.812C1127.67 323.332 1127.39 324.078 1127.39 325.048V328.818C1127.39 329.789 1127.67 330.543 1128.23 331.08C1128.78 331.618 1129.54 331.886 1130.49 331.886C1131.37 331.886 1132.07 331.661 1132.59 331.21C1133.11 330.76 1133.4 330.127 1133.45 329.312H1136.26C1136.21 330.872 1135.66 332.103 1134.62 333.004C1133.58 333.906 1132.2 334.356 1130.49 334.356ZM1140.44 334.096V315.116H1143.24V325.542H1145.77L1149.56 319.796H1152.73L1148.18 326.66L1152.81 334.096H1149.59L1145.77 327.96H1143.24V334.096H1140.44ZM1161.67 334.356C1160.49 334.356 1159.46 334.14 1158.57 333.706C1157.71 333.256 1157.03 332.614 1156.55 331.782C1156.08 330.933 1155.84 329.945 1155.84 328.818V320.394C1155.84 319.25 1156.08 318.262 1156.55 317.43C1157.03 316.598 1157.71 315.966 1158.57 315.532C1159.46 315.082 1160.49 314.856 1161.67 314.856C1162.85 314.856 1163.87 315.082 1164.74 315.532C1165.6 315.983 1166.27 316.624 1166.74 317.456C1167.22 318.271 1167.47 319.25 1167.47 320.394H1164.66C1164.66 319.406 1164.4 318.652 1163.88 318.132C1163.36 317.612 1162.62 317.352 1161.67 317.352C1160.72 317.352 1159.97 317.612 1159.43 318.132C1158.91 318.652 1158.65 319.398 1158.65 320.368V328.818C1158.65 329.789 1158.91 330.543 1159.43 331.08C1159.97 331.6 1160.72 331.86 1161.67 331.86C1162.62 331.86 1163.36 331.6 1163.88 331.08C1164.4 330.543 1164.66 329.789 1164.66 328.818H1167.47C1167.47 329.945 1167.22 330.924 1166.74 331.756C1166.27 332.588 1165.6 333.23 1164.74 333.68C1163.87 334.131 1162.85 334.356 1161.67 334.356ZM1177.15 334.33C1175.98 334.33 1174.95 334.105 1174.09 333.654C1173.22 333.204 1172.55 332.562 1172.08 331.73C1171.62 330.898 1171.38 329.919 1171.38 328.792V325.1C1171.38 323.956 1171.62 322.977 1172.08 322.162C1172.55 321.33 1173.22 320.689 1174.09 320.238C1174.95 319.788 1175.98 319.562 1177.15 319.562C1178.33 319.562 1179.36 319.788 1180.22 320.238C1181.09 320.689 1181.76 321.33 1182.22 322.162C1182.69 322.977 1182.93 323.956 1182.93 325.1V328.792C1182.93 329.919 1182.69 330.898 1182.22 331.73C1181.76 332.562 1181.09 333.204 1180.22 333.654C1179.36 334.105 1178.33 334.33 1177.15 334.33ZM1177.15 331.86C1178.11 331.86 1178.84 331.6 1179.36 331.08C1179.88 330.543 1180.14 329.78 1180.14 328.792V325.1C1180.14 324.095 1179.88 323.332 1179.36 322.812C1178.84 322.292 1178.11 322.032 1177.15 322.032C1176.22 322.032 1175.48 322.292 1174.94 322.812C1174.42 323.332 1174.16 324.095 1174.16 325.1V328.792C1174.16 329.78 1174.42 330.543 1174.94 331.08C1175.48 331.6 1176.22 331.86 1177.15 331.86ZM1194.8 334.096C1193.91 334.096 1193.14 333.923 1192.48 333.576C1191.83 333.212 1191.31 332.701 1190.92 332.042C1190.56 331.384 1190.38 330.621 1190.38 329.754V317.664H1185.7V315.116H1193.19V329.754C1193.19 330.309 1193.34 330.751 1193.65 331.08C1193.97 331.392 1194.39 331.548 1194.93 331.548H1199.35V334.096H1194.8ZM1208.33 334.33C1207.16 334.33 1206.13 334.105 1205.27 333.654C1204.4 333.204 1203.73 332.562 1203.26 331.73C1202.8 330.898 1202.56 329.919 1202.56 328.792V325.1C1202.56 323.956 1202.8 322.977 1203.26 322.162C1203.73 321.33 1204.4 320.689 1205.27 320.238C1206.13 319.788 1207.16 319.562 1208.33 319.562C1209.51 319.562 1210.54 319.788 1211.4 320.238C1212.27 320.689 1212.94 321.33 1213.4 322.162C1213.87 322.977 1214.11 323.956 1214.11 325.1V328.792C1214.11 329.919 1213.87 330.898 1213.4 331.73C1212.94 332.562 1212.27 333.204 1211.4 333.654C1210.54 334.105 1209.51 334.33 1208.33 334.33ZM1208.33 331.86C1209.29 331.86 1210.02 331.6 1210.54 331.08C1211.06 330.543 1211.32 329.78 1211.32 328.792V325.1C1211.32 324.095 1211.06 323.332 1210.54 322.812C1210.02 322.292 1209.29 322.032 1208.33 322.032C1207.4 322.032 1206.66 322.292 1206.12 322.812C1205.6 323.332 1205.34 324.095 1205.34 325.1V328.792C1205.34 329.78 1205.6 330.543 1206.12 331.08C1206.66 331.6 1207.4 331.86 1208.33 331.86ZM1218.78 334.096V319.796H1221.48V322.526H1222.16L1221.3 324.216C1221.3 322.674 1221.64 321.512 1222.31 320.732C1222.99 319.935 1223.99 319.536 1225.33 319.536C1226.85 319.536 1228.06 320.013 1228.94 320.966C1229.84 321.902 1230.29 323.194 1230.29 324.84V325.802H1227.41V325.074C1227.41 324.052 1227.15 323.272 1226.63 322.734C1226.13 322.18 1225.41 321.902 1224.5 321.902C1223.58 321.902 1222.86 322.18 1222.34 322.734C1221.84 323.289 1221.58 324.069 1221.58 325.074V334.096H1218.78Z" fill="#001849"/>
<path d="M1092.1 294.596V245.096" stroke="black" stroke-width="4" stroke-linecap="round"/>
<path d="M733.457 377.096C732.157 377.096 731.143 376.741 730.415 376.03C729.687 375.32 729.323 374.332 729.323 373.066V365.344H725.371V362.796H729.323V358.766H732.131V362.796H737.721V365.344H732.131V373.066C732.131 374.054 732.607 374.548 733.561 374.548H737.461V377.096H733.457ZM741.871 377.096V358.116H744.679V362.796L744.653 365.526H745.329L744.653 366.176C744.653 365.032 744.991 364.14 745.667 363.498C746.343 362.857 747.279 362.536 748.475 362.536C749.896 362.536 751.031 362.996 751.881 363.914C752.73 364.816 753.155 366.038 753.155 367.58V377.096H750.347V367.892C750.347 366.956 750.095 366.228 749.593 365.708C749.09 365.188 748.405 364.928 747.539 364.928C746.655 364.928 745.953 365.206 745.433 365.76C744.93 366.298 744.679 367.069 744.679 368.074V377.096H741.871ZM763.05 377.356C761.334 377.356 759.965 376.862 758.942 375.874C757.92 374.869 757.408 373.508 757.408 371.792V362.796H760.216V371.792C760.216 372.78 760.468 373.552 760.97 374.106C761.473 374.644 762.166 374.912 763.05 374.912C763.952 374.912 764.654 374.644 765.156 374.106C765.676 373.552 765.936 372.78 765.936 371.792V362.796H768.744V371.792C768.744 373.508 768.224 374.869 767.184 375.874C766.162 376.862 764.784 377.356 763.05 377.356ZM772.4 377.096V362.796H774.74V364.616H775.26L774.87 365.162C774.87 364.365 775.087 363.732 775.52 363.264C775.954 362.779 776.534 362.536 777.262 362.536C778.042 362.536 778.64 362.84 779.056 363.446C779.49 364.053 779.706 364.885 779.706 365.942L779.082 364.616H780.07L779.654 365.162C779.654 364.365 779.871 363.732 780.304 363.264C780.755 362.779 781.353 362.536 782.098 362.536C782.982 362.536 783.676 362.874 784.178 363.55C784.681 364.209 784.932 365.093 784.932 366.202V377.096H782.436V366.28C782.436 365.743 782.315 365.327 782.072 365.032C781.847 364.738 781.518 364.59 781.084 364.59C780.651 364.59 780.313 364.738 780.07 365.032C779.845 365.31 779.732 365.717 779.732 366.254V377.096H777.626V366.28C777.626 365.726 777.505 365.31 777.262 365.032C777.02 364.738 776.673 364.59 776.222 364.59C775.789 364.59 775.46 364.738 775.234 365.032C775.026 365.31 774.922 365.717 774.922 366.254V377.096H772.4ZM795.27 377.356C794.091 377.356 793.155 377.036 792.462 376.394C791.769 375.736 791.422 374.843 791.422 373.716L792.02 374.366H791.422V377.096H788.64V358.116H791.448V362.198L791.37 365.526H792.02L791.422 366.176C791.422 365.05 791.769 364.166 792.462 363.524C793.173 362.866 794.109 362.536 795.27 362.536C796.709 362.536 797.861 363.022 798.728 363.992C799.595 364.963 800.028 366.28 800.028 367.944V371.974C800.028 373.621 799.595 374.93 798.728 375.9C797.861 376.871 796.709 377.356 795.27 377.356ZM794.308 374.912C795.227 374.912 795.946 374.652 796.466 374.132C796.986 373.595 797.246 372.824 797.246 371.818V368.074C797.246 367.069 796.986 366.306 796.466 365.786C795.946 365.249 795.227 364.98 794.308 364.98C793.424 364.98 792.722 365.258 792.202 365.812C791.699 366.35 791.448 367.104 791.448 368.074V371.818C791.448 372.789 791.699 373.552 792.202 374.106C792.722 374.644 793.424 374.912 794.308 374.912ZM809.95 377.356C808.771 377.356 807.74 377.14 806.856 376.706C805.989 376.256 805.313 375.614 804.828 374.782C804.36 373.933 804.126 372.945 804.126 371.818V363.394C804.126 362.25 804.36 361.262 804.828 360.43C805.313 359.598 805.989 358.966 806.856 358.532C807.74 358.082 808.771 357.856 809.95 357.856C811.129 357.856 812.151 358.082 813.018 358.532C813.885 358.983 814.552 359.624 815.02 360.456C815.505 361.271 815.748 362.25 815.748 363.394H812.94C812.94 362.406 812.68 361.652 812.16 361.132C811.64 360.612 810.903 360.352 809.95 360.352C808.997 360.352 808.251 360.612 807.714 361.132C807.194 361.652 806.934 362.398 806.934 363.368V371.818C806.934 372.789 807.194 373.543 807.714 374.08C808.251 374.6 808.997 374.86 809.95 374.86C810.903 374.86 811.64 374.6 812.16 374.08C812.68 373.543 812.94 372.789 812.94 371.818H815.748C815.748 372.945 815.505 373.924 815.02 374.756C814.552 375.588 813.885 376.23 813.018 376.68C812.151 377.131 811.129 377.356 809.95 377.356ZM825.436 377.33C824.257 377.33 823.234 377.105 822.368 376.654C821.501 376.204 820.834 375.562 820.366 374.73C819.898 373.898 819.664 372.919 819.664 371.792V368.1C819.664 366.956 819.898 365.977 820.366 365.162C820.834 364.33 821.501 363.689 822.368 363.238C823.234 362.788 824.257 362.562 825.436 362.562C826.614 362.562 827.637 362.788 828.504 363.238C829.37 363.689 830.038 364.33 830.506 365.162C830.974 365.977 831.208 366.956 831.208 368.1V371.792C831.208 372.919 830.974 373.898 830.506 374.73C830.038 375.562 829.37 376.204 828.504 376.654C827.637 377.105 826.614 377.33 825.436 377.33ZM825.436 374.86C826.389 374.86 827.126 374.6 827.646 374.08C828.166 373.543 828.426 372.78 828.426 371.792V368.1C828.426 367.095 828.166 366.332 827.646 365.812C827.126 365.292 826.389 365.032 825.436 365.032C824.5 365.032 823.763 365.292 823.226 365.812C822.706 366.332 822.446 367.095 822.446 368.1V371.792C822.446 372.78 822.706 373.543 823.226 374.08C823.763 374.6 824.5 374.86 825.436 374.86ZM843.08 377.096C842.196 377.096 841.424 376.923 840.766 376.576C840.107 376.212 839.587 375.701 839.206 375.042C838.842 374.384 838.66 373.621 838.66 372.754V360.664H833.98V358.116H841.468V372.754C841.468 373.309 841.624 373.751 841.936 374.08C842.248 374.392 842.672 374.548 843.21 374.548H847.63V377.096H843.08ZM856.615 377.33C855.437 377.33 854.414 377.105 853.547 376.654C852.681 376.204 852.013 375.562 851.545 374.73C851.077 373.898 850.843 372.919 850.843 371.792V368.1C850.843 366.956 851.077 365.977 851.545 365.162C852.013 364.33 852.681 363.689 853.547 363.238C854.414 362.788 855.437 362.562 856.615 362.562C857.794 362.562 858.817 362.788 859.683 363.238C860.55 363.689 861.217 364.33 861.685 365.162C862.153 365.977 862.387 366.956 862.387 368.1V371.792C862.387 372.919 862.153 373.898 861.685 374.73C861.217 375.562 860.55 376.204 859.683 376.654C858.817 377.105 857.794 377.33 856.615 377.33ZM856.615 374.86C857.569 374.86 858.305 374.6 858.825 374.08C859.345 373.543 859.605 372.78 859.605 371.792V368.1C859.605 367.095 859.345 366.332 858.825 365.812C858.305 365.292 857.569 365.032 856.615 365.032C855.679 365.032 854.943 365.292 854.405 365.812C853.885 366.332 853.625 367.095 853.625 368.1V371.792C853.625 372.78 853.885 373.543 854.405 374.08C854.943 374.6 855.679 374.86 856.615 374.86ZM867.057 377.096V362.796H869.761V365.526H870.437L869.579 367.216C869.579 365.674 869.917 364.512 870.593 363.732C871.269 362.935 872.275 362.536 873.609 362.536C875.135 362.536 876.339 363.013 877.223 363.966C878.125 364.902 878.575 366.194 878.575 367.84V368.802H875.689V368.074C875.689 367.052 875.429 366.272 874.909 365.734C874.407 365.18 873.696 364.902 872.777 364.902C871.859 364.902 871.139 365.18 870.619 365.734C870.117 366.289 869.865 367.069 869.865 368.074V377.096H867.057Z" fill="#001849"/>
<path d="M802.097 342.596V293.096" stroke="black" stroke-width="4" stroke-linecap="round"/>
<path d="M1338.88 351.356C1337.44 351.356 1336.29 350.871 1335.42 349.9C1334.56 348.93 1334.12 347.621 1334.12 345.974V341.944C1334.12 340.28 1334.56 338.963 1335.42 337.992C1336.29 337.022 1337.44 336.536 1338.88 336.536C1340.06 336.536 1341 336.866 1341.69 337.524C1342.38 338.166 1342.73 339.05 1342.73 340.176L1342.13 339.526H1342.78L1342.7 336.198V332.116H1345.51V351.096H1342.73V348.366H1342.13L1342.73 347.716C1342.73 348.843 1342.38 349.736 1341.69 350.394C1341 351.036 1340.06 351.356 1338.88 351.356ZM1339.84 348.912C1340.73 348.912 1341.42 348.644 1341.92 348.106C1342.44 347.552 1342.7 346.789 1342.7 345.818V342.074C1342.7 341.104 1342.44 340.35 1341.92 339.812C1341.42 339.258 1340.73 338.98 1339.84 338.98C1338.93 338.98 1338.21 339.249 1337.69 339.786C1337.17 340.306 1336.91 341.069 1336.91 342.074V345.818C1336.91 346.824 1337.17 347.595 1337.69 348.132C1338.21 348.652 1338.93 348.912 1339.84 348.912ZM1349.79 351.096V348.548H1354.81V339.344H1350.44V336.796H1357.54V348.548H1362.14V351.096H1349.79ZM1355.9 334.326C1355.3 334.326 1354.81 334.17 1354.45 333.858C1354.08 333.529 1353.9 333.096 1353.9 332.558C1353.9 332.004 1354.08 331.57 1354.45 331.258C1354.81 330.929 1355.3 330.764 1355.9 330.764C1356.51 330.764 1356.99 330.929 1357.36 331.258C1357.72 331.57 1357.9 332.004 1357.9 332.558C1357.9 333.096 1357.72 333.529 1357.36 333.858C1356.99 334.17 1356.51 334.326 1355.9 334.326ZM1370.58 351.33C1369.56 351.33 1368.66 351.166 1367.88 350.836C1367.12 350.507 1366.51 350.056 1366.06 349.484C1365.63 348.895 1365.37 348.202 1365.3 347.404H1368.11C1368.18 347.872 1368.43 348.254 1368.87 348.548C1369.3 348.826 1369.87 348.964 1370.58 348.964H1371.7C1372.55 348.964 1373.19 348.791 1373.62 348.444C1374.06 348.098 1374.27 347.638 1374.27 347.066C1374.27 346.512 1374.08 346.078 1373.68 345.766C1373.3 345.437 1372.72 345.22 1371.96 345.116L1370.11 344.83C1368.59 344.588 1367.46 344.154 1366.73 343.53C1366.02 342.889 1365.67 341.944 1365.67 340.696C1365.67 339.379 1366.09 338.365 1366.94 337.654C1367.81 336.926 1369.08 336.562 1370.76 336.562H1371.75C1373.24 336.562 1374.43 336.909 1375.31 337.602C1376.22 338.278 1376.73 339.188 1376.85 340.332H1374.04C1373.97 339.916 1373.74 339.578 1373.34 339.318C1372.96 339.058 1372.43 338.928 1371.75 338.928H1370.76C1369.95 338.928 1369.35 339.084 1368.97 339.396C1368.61 339.691 1368.42 340.133 1368.42 340.722C1368.42 341.242 1368.59 341.632 1368.92 341.892C1369.25 342.152 1369.76 342.334 1370.45 342.438L1372.35 342.75C1373.96 342.976 1375.14 343.426 1375.89 344.102C1376.65 344.761 1377.03 345.723 1377.03 346.988C1377.03 348.358 1376.58 349.424 1375.68 350.186C1374.79 350.949 1373.47 351.33 1371.7 351.33H1370.58ZM1385.24 351.356C1383.75 351.356 1382.57 350.975 1381.7 350.212C1380.85 349.432 1380.43 348.375 1380.43 347.04C1380.43 345.688 1380.88 344.631 1381.78 343.868C1382.7 343.088 1383.95 342.698 1385.55 342.698H1389.53V341.372C1389.53 340.592 1389.28 339.986 1388.8 339.552C1388.31 339.119 1387.63 338.902 1386.74 338.902C1385.96 338.902 1385.31 339.076 1384.79 339.422C1384.27 339.752 1383.97 340.194 1383.88 340.748H1381.13C1381.28 339.466 1381.87 338.443 1382.9 337.68C1383.94 336.918 1385.24 336.536 1386.82 336.536C1388.52 336.536 1389.86 336.97 1390.85 337.836C1391.84 338.686 1392.33 339.847 1392.33 341.32V351.096H1389.6V348.47H1389.14L1389.6 347.95C1389.6 348.99 1389.21 349.822 1388.41 350.446C1387.61 351.053 1386.55 351.356 1385.24 351.356ZM1386.07 349.198C1387.07 349.198 1387.9 348.947 1388.54 348.444C1389.2 347.924 1389.53 347.266 1389.53 346.468V344.596H1385.6C1384.87 344.596 1384.29 344.796 1383.86 345.194C1383.44 345.593 1383.23 346.139 1383.23 346.832C1383.23 347.56 1383.49 348.141 1383.99 348.574C1384.49 348.99 1385.18 349.198 1386.07 349.198ZM1403.27 351.356C1402.09 351.356 1401.16 351.036 1400.46 350.394C1399.77 349.736 1399.42 348.843 1399.42 347.716L1400.02 348.366H1399.42V351.096H1396.64V332.116H1399.45V336.198L1399.37 339.526H1400.02L1399.42 340.176C1399.42 339.05 1399.77 338.166 1400.46 337.524C1401.17 336.866 1402.11 336.536 1403.27 336.536C1404.71 336.536 1405.86 337.022 1406.73 337.992C1407.59 338.963 1408.03 340.28 1408.03 341.944V345.974C1408.03 347.621 1407.59 348.93 1406.73 349.9C1405.86 350.871 1404.71 351.356 1403.27 351.356ZM1402.31 348.912C1403.23 348.912 1403.95 348.652 1404.47 348.132C1404.99 347.595 1405.25 346.824 1405.25 345.818V342.074C1405.25 341.069 1404.99 340.306 1404.47 339.786C1403.95 339.249 1403.23 338.98 1402.31 338.98C1401.42 338.98 1400.72 339.258 1400.2 339.812C1399.7 340.35 1399.45 341.104 1399.45 342.074V345.818C1399.45 346.789 1399.7 347.552 1400.2 348.106C1400.72 348.644 1401.42 348.912 1402.31 348.912ZM1419.9 351.096C1419.02 351.096 1418.24 350.923 1417.59 350.576C1416.93 350.212 1416.41 349.701 1416.03 349.042C1415.66 348.384 1415.48 347.621 1415.48 346.754V334.664H1410.8V332.116H1418.29V346.754C1418.29 347.309 1418.44 347.751 1418.76 348.08C1419.07 348.392 1419.49 348.548 1420.03 348.548H1424.45V351.096H1419.9ZM1433.44 351.356C1432.27 351.356 1431.25 351.131 1430.37 350.68C1429.5 350.212 1428.83 349.562 1428.37 348.73C1427.9 347.898 1427.66 346.928 1427.66 345.818V342.074C1427.66 340.948 1427.9 339.977 1428.37 339.162C1428.83 338.33 1429.5 337.689 1430.37 337.238C1431.25 336.77 1432.27 336.536 1433.44 336.536C1434.61 336.536 1435.64 336.77 1436.5 337.238C1437.37 337.689 1438.04 338.33 1438.51 339.162C1438.97 339.977 1439.21 340.948 1439.21 342.074V344.622H1430.37V345.818C1430.37 346.876 1430.63 347.682 1431.15 348.236C1431.69 348.791 1432.46 349.068 1433.46 349.068C1434.28 349.068 1434.94 348.93 1435.44 348.652C1435.94 348.358 1436.25 347.933 1436.37 347.378H1439.16C1438.95 348.592 1438.32 349.562 1437.28 350.29C1436.24 351.001 1434.96 351.356 1433.44 351.356ZM1436.5 342.932V342.048C1436.5 341.008 1436.24 340.202 1435.72 339.63C1435.2 339.058 1434.44 338.772 1433.44 338.772C1432.45 338.772 1431.69 339.058 1431.15 339.63C1430.63 340.202 1430.37 341.017 1430.37 342.074V342.724L1436.71 342.698L1436.5 342.932ZM1448.01 351.356C1446.57 351.356 1445.42 350.871 1444.55 349.9C1443.69 348.93 1443.25 347.621 1443.25 345.974V341.944C1443.25 340.28 1443.69 338.963 1444.55 337.992C1445.42 337.022 1446.57 336.536 1448.01 336.536C1449.19 336.536 1450.13 336.866 1450.82 337.524C1451.51 338.166 1451.86 339.05 1451.86 340.176L1451.26 339.526H1451.91L1451.83 336.198V332.116H1454.64V351.096H1451.86V348.366H1451.26L1451.86 347.716C1451.86 348.843 1451.51 349.736 1450.82 350.394C1450.13 351.036 1449.19 351.356 1448.01 351.356ZM1448.97 348.912C1449.86 348.912 1450.55 348.644 1451.05 348.106C1451.57 347.552 1451.83 346.789 1451.83 345.818V342.074C1451.83 341.104 1451.57 340.35 1451.05 339.812C1450.55 339.258 1449.86 338.98 1448.97 338.98C1448.05 338.98 1447.34 339.249 1446.82 339.786C1446.3 340.306 1446.04 341.069 1446.04 342.074V345.818C1446.04 346.824 1446.3 347.595 1446.82 348.132C1447.34 348.652 1448.05 348.912 1448.97 348.912ZM1457.93 351.096L1462.77 332.116H1466.46L1471.3 351.096H1468.46L1467.32 346.286H1461.94L1460.79 351.096H1457.93ZM1462.46 343.972H1466.77L1465.47 338.486C1465.25 337.516 1465.06 336.675 1464.9 335.964C1464.76 335.236 1464.67 334.742 1464.62 334.482C1464.56 334.742 1464.47 335.236 1464.33 335.964C1464.19 336.675 1464 337.507 1463.76 338.46L1462.46 343.972ZM1480.31 351.356C1479.13 351.356 1478.09 351.14 1477.19 350.706C1476.31 350.256 1475.62 349.614 1475.14 348.782C1474.67 347.933 1474.43 346.945 1474.43 345.818V342.074C1474.43 340.93 1474.67 339.942 1475.14 339.11C1475.62 338.278 1476.31 337.646 1477.19 337.212C1478.09 336.762 1479.13 336.536 1480.31 336.536C1482.03 336.536 1483.4 336.987 1484.44 337.888C1485.48 338.79 1486.03 340.02 1486.08 341.58H1483.27C1483.22 340.766 1482.94 340.133 1482.42 339.682C1481.9 339.232 1481.19 339.006 1480.31 339.006C1479.36 339.006 1478.6 339.275 1478.05 339.812C1477.49 340.332 1477.22 341.078 1477.22 342.048V345.818C1477.22 346.789 1477.49 347.543 1478.05 348.08C1478.6 348.618 1479.36 348.886 1480.31 348.886C1481.19 348.886 1481.9 348.661 1482.42 348.21C1482.94 347.76 1483.22 347.127 1483.27 346.312H1486.08C1486.03 347.872 1485.48 349.103 1484.44 350.004C1483.4 350.906 1482.03 351.356 1480.31 351.356ZM1497.36 351.096C1496.06 351.096 1495.04 350.741 1494.31 350.03C1493.59 349.32 1493.22 348.332 1493.22 347.066V339.344H1489.27V336.796H1493.22V332.766H1496.03V336.796H1501.62V339.344H1496.03V347.066C1496.03 348.054 1496.51 348.548 1497.46 348.548H1501.36V351.096H1497.36ZM1505.69 351.096V348.548H1510.71V339.344H1506.34V336.796H1513.44V348.548H1518.04V351.096H1505.69ZM1511.8 334.326C1511.19 334.326 1510.71 334.17 1510.34 333.858C1509.98 333.529 1509.8 333.096 1509.8 332.558C1509.8 332.004 1509.98 331.57 1510.34 331.258C1510.71 330.929 1511.19 330.764 1511.8 330.764C1512.41 330.764 1512.89 330.929 1513.26 331.258C1513.62 331.57 1513.8 332.004 1513.8 332.558C1513.8 333.096 1513.62 333.529 1513.26 333.858C1512.89 334.17 1512.41 334.326 1511.8 334.326ZM1525.13 351.096L1520.4 336.796H1523.26L1526.19 345.948C1526.39 346.486 1526.55 347.032 1526.69 347.586C1526.84 348.124 1526.96 348.548 1527.03 348.86C1527.11 348.548 1527.23 348.124 1527.36 347.586C1527.52 347.032 1527.68 346.486 1527.83 345.948L1530.72 336.796H1533.55L1528.82 351.096H1525.13ZM1542.56 351.356C1541.4 351.356 1540.38 351.131 1539.5 350.68C1538.63 350.212 1537.96 349.562 1537.49 348.73C1537.03 347.898 1536.79 346.928 1536.79 345.818V342.074C1536.79 340.948 1537.03 339.977 1537.49 339.162C1537.96 338.33 1538.63 337.689 1539.5 337.238C1540.38 336.77 1541.4 336.536 1542.56 336.536C1543.74 336.536 1544.77 336.77 1545.63 337.238C1546.5 337.689 1547.17 338.33 1547.63 339.162C1548.1 339.977 1548.34 340.948 1548.34 342.074V344.622H1539.5V345.818C1539.5 346.876 1539.76 347.682 1540.28 348.236C1540.81 348.791 1541.59 349.068 1542.59 349.068C1543.41 349.068 1544.06 348.93 1544.57 348.652C1545.07 348.358 1545.38 347.933 1545.5 347.378H1548.28C1548.08 348.592 1547.45 349.562 1546.41 350.29C1545.37 351.001 1544.09 351.356 1542.56 351.356ZM1545.63 342.932V342.048C1545.63 341.008 1545.37 340.202 1544.85 339.63C1544.33 339.058 1543.57 338.772 1542.56 338.772C1541.58 338.772 1540.81 339.058 1540.28 339.63C1539.76 340.202 1539.5 341.017 1539.5 342.074V342.724L1545.84 342.698L1545.63 342.932ZM1556.75 351.096V334.69H1551.68V332.09H1564.63V334.69H1559.56V351.096H1556.75ZM1568.6 351.096V336.796H1571.3V339.526H1571.98L1571.12 341.216C1571.12 339.674 1571.46 338.512 1572.13 337.732C1572.81 336.935 1573.81 336.536 1575.15 336.536C1576.67 336.536 1577.88 337.013 1578.76 337.966C1579.66 338.902 1580.11 340.194 1580.11 341.84V342.802H1577.23V342.074C1577.23 341.052 1576.97 340.272 1576.45 339.734C1575.95 339.18 1575.24 338.902 1574.32 338.902C1573.4 338.902 1572.68 339.18 1572.16 339.734C1571.66 340.289 1571.4 341.069 1571.4 342.074V351.096H1568.6ZM1587.9 351.356C1586.41 351.356 1585.23 350.975 1584.37 350.212C1583.52 349.432 1583.09 348.375 1583.09 347.04C1583.09 345.688 1583.54 344.631 1584.45 343.868C1585.36 343.088 1586.62 342.698 1588.22 342.698H1592.19V341.372C1592.19 340.592 1591.95 339.986 1591.47 339.552C1590.98 339.119 1590.3 338.902 1589.41 338.902C1588.63 338.902 1587.98 339.076 1587.46 339.422C1586.94 339.752 1586.64 340.194 1586.55 340.748H1583.8C1583.95 339.466 1584.54 338.443 1585.56 337.68C1586.6 336.918 1587.91 336.536 1589.49 336.536C1591.19 336.536 1592.53 336.97 1593.52 337.836C1594.51 338.686 1595 339.847 1595 341.32V351.096H1592.27V348.47H1591.8L1592.27 347.95C1592.27 348.99 1591.87 349.822 1591.08 350.446C1590.28 351.053 1589.22 351.356 1587.9 351.356ZM1588.74 349.198C1589.74 349.198 1590.56 348.947 1591.21 348.444C1591.86 347.924 1592.19 347.266 1592.19 346.468V344.596H1588.27C1587.54 344.596 1586.96 344.796 1586.53 345.194C1586.11 345.593 1585.9 346.139 1585.9 346.832C1585.9 347.56 1586.15 348.141 1586.66 348.574C1587.16 348.99 1587.85 349.198 1588.74 349.198ZM1605.03 351.356C1603.85 351.356 1602.81 351.14 1601.91 350.706C1601.02 350.256 1600.34 349.614 1599.85 348.782C1599.39 347.933 1599.15 346.945 1599.15 345.818V342.074C1599.15 340.93 1599.39 339.942 1599.85 339.11C1600.34 338.278 1601.02 337.646 1601.91 337.212C1602.81 336.762 1603.85 336.536 1605.03 336.536C1606.74 336.536 1608.12 336.987 1609.16 337.888C1610.2 338.79 1610.75 340.02 1610.8 341.58H1607.99C1607.94 340.766 1607.65 340.133 1607.13 339.682C1606.61 339.232 1605.91 339.006 1605.03 339.006C1604.07 339.006 1603.32 339.275 1602.77 339.812C1602.21 340.332 1601.93 341.078 1601.93 342.048V345.818C1601.93 346.789 1602.21 347.543 1602.77 348.08C1603.32 348.618 1604.07 348.886 1605.03 348.886C1605.91 348.886 1606.61 348.661 1607.13 348.21C1607.65 347.76 1607.94 347.127 1607.99 346.312H1610.8C1610.75 347.872 1610.2 349.103 1609.16 350.004C1608.12 350.906 1606.74 351.356 1605.03 351.356ZM1614.98 351.096V332.116H1617.78V342.542H1620.31L1624.1 336.796H1627.27L1622.72 343.66L1627.35 351.096H1624.13L1620.31 344.96H1617.78V351.096H1614.98ZM1636.21 351.356C1635.03 351.356 1634 351.14 1633.11 350.706C1632.25 350.256 1631.57 349.614 1631.09 348.782C1630.62 347.933 1630.38 346.945 1630.38 345.818V337.394C1630.38 336.25 1630.62 335.262 1631.09 334.43C1631.57 333.598 1632.25 332.966 1633.11 332.532C1634 332.082 1635.03 331.856 1636.21 331.856C1637.39 331.856 1638.41 332.082 1639.28 332.532C1640.14 332.983 1640.81 333.624 1641.28 334.456C1641.76 335.271 1642.01 336.25 1642.01 337.394H1639.2C1639.2 336.406 1638.94 335.652 1638.42 335.132C1637.9 334.612 1637.16 334.352 1636.21 334.352C1635.25 334.352 1634.51 334.612 1633.97 335.132C1633.45 335.652 1633.19 336.398 1633.19 337.368V345.818C1633.19 346.789 1633.45 347.543 1633.97 348.08C1634.51 348.6 1635.25 348.86 1636.21 348.86C1637.16 348.86 1637.9 348.6 1638.42 348.08C1638.94 347.543 1639.2 346.789 1639.2 345.818H1642.01C1642.01 346.945 1641.76 347.924 1641.28 348.756C1640.81 349.588 1640.14 350.23 1639.28 350.68C1638.41 351.131 1637.39 351.356 1636.21 351.356ZM1651.69 351.33C1650.51 351.33 1649.49 351.105 1648.63 350.654C1647.76 350.204 1647.09 349.562 1646.62 348.73C1646.16 347.898 1645.92 346.919 1645.92 345.792V342.1C1645.92 340.956 1646.16 339.977 1646.62 339.162C1647.09 338.33 1647.76 337.689 1648.63 337.238C1649.49 336.788 1650.51 336.562 1651.69 336.562C1652.87 336.562 1653.89 336.788 1654.76 337.238C1655.63 337.689 1656.3 338.33 1656.76 339.162C1657.23 339.977 1657.47 340.956 1657.47 342.1V345.792C1657.47 346.919 1657.23 347.898 1656.76 348.73C1656.3 349.562 1655.63 350.204 1654.76 350.654C1653.89 351.105 1652.87 351.33 1651.69 351.33ZM1651.69 348.86C1652.65 348.86 1653.38 348.6 1653.9 348.08C1654.42 347.543 1654.68 346.78 1654.68 345.792V342.1C1654.68 341.095 1654.42 340.332 1653.9 339.812C1653.38 339.292 1652.65 339.032 1651.69 339.032C1650.76 339.032 1650.02 339.292 1649.48 339.812C1648.96 340.332 1648.7 341.095 1648.7 342.1V345.792C1648.7 346.78 1648.96 347.543 1649.48 348.08C1650.02 348.6 1650.76 348.86 1651.69 348.86ZM1669.34 351.096C1668.45 351.096 1667.68 350.923 1667.02 350.576C1666.36 350.212 1665.84 349.701 1665.46 349.042C1665.1 348.384 1664.92 347.621 1664.92 346.754V334.664H1660.24V332.116H1667.73V346.754C1667.73 347.309 1667.88 347.751 1668.19 348.08C1668.51 348.392 1668.93 348.548 1669.47 348.548H1673.89V351.096H1669.34ZM1682.87 351.33C1681.69 351.33 1680.67 351.105 1679.81 350.654C1678.94 350.204 1678.27 349.562 1677.8 348.73C1677.34 347.898 1677.1 346.919 1677.1 345.792V342.1C1677.1 340.956 1677.34 339.977 1677.8 339.162C1678.27 338.33 1678.94 337.689 1679.81 337.238C1680.67 336.788 1681.69 336.562 1682.87 336.562C1684.05 336.562 1685.07 336.788 1685.94 337.238C1686.81 337.689 1687.48 338.33 1687.94 339.162C1688.41 339.977 1688.65 340.956 1688.65 342.1V345.792C1688.65 346.919 1688.41 347.898 1687.94 348.73C1687.48 349.562 1686.81 350.204 1685.94 350.654C1685.07 351.105 1684.05 351.33 1682.87 351.33ZM1682.87 348.86C1683.83 348.86 1684.56 348.6 1685.08 348.08C1685.6 347.543 1685.86 346.78 1685.86 345.792V342.1C1685.86 341.095 1685.6 340.332 1685.08 339.812C1684.56 339.292 1683.83 339.032 1682.87 339.032C1681.94 339.032 1681.2 339.292 1680.66 339.812C1680.14 340.332 1679.88 341.095 1679.88 342.1V345.792C1679.88 346.78 1680.14 347.543 1680.66 348.08C1681.2 348.6 1681.94 348.86 1682.87 348.86ZM1693.32 351.096V336.796H1696.02V339.526H1696.7L1695.84 341.216C1695.84 339.674 1696.18 338.512 1696.85 337.732C1697.53 336.935 1698.53 336.536 1699.87 336.536C1701.39 336.536 1702.6 337.013 1703.48 337.966C1704.38 338.902 1704.83 340.194 1704.83 341.84V342.802H1701.95V342.074C1701.95 341.052 1701.69 340.272 1701.17 339.734C1700.66 339.18 1699.95 338.902 1699.04 338.902C1698.12 338.902 1697.4 339.18 1696.88 339.734C1696.37 340.289 1696.12 341.069 1696.12 342.074V351.096H1693.32Z" fill="#001849"/>
<path d="M1520.1 317.596V268.096" stroke="black" stroke-width="4" stroke-linecap="round"/>
<path d="M1992.88 352.356C1991.44 352.356 1990.29 351.871 1989.42 350.9C1988.56 349.93 1988.12 348.621 1988.12 346.974V342.944C1988.12 341.28 1988.56 339.963 1989.42 338.992C1990.29 338.022 1991.44 337.536 1992.88 337.536C1994.06 337.536 1995 337.866 1995.69 338.524C1996.38 339.166 1996.73 340.05 1996.73 341.176L1996.13 340.526H1996.78L1996.7 337.198V333.116H1999.51V352.096H1996.73V349.366H1996.13L1996.73 348.716C1996.73 349.843 1996.38 350.736 1995.69 351.394C1995 352.036 1994.06 352.356 1992.88 352.356ZM1993.84 349.912C1994.73 349.912 1995.42 349.644 1995.92 349.106C1996.44 348.552 1996.7 347.789 1996.7 346.818V343.074C1996.7 342.104 1996.44 341.35 1995.92 340.812C1995.42 340.258 1994.73 339.98 1993.84 339.98C1992.93 339.98 1992.21 340.249 1991.69 340.786C1991.17 341.306 1990.91 342.069 1990.91 343.074V346.818C1990.91 347.824 1991.17 348.595 1991.69 349.132C1992.21 349.652 1992.93 349.912 1993.84 349.912ZM2003.79 352.096V349.548H2008.81V340.344H2004.44V337.796H2011.54V349.548H2016.14V352.096H2003.79ZM2009.9 335.326C2009.3 335.326 2008.81 335.17 2008.45 334.858C2008.08 334.529 2007.9 334.096 2007.9 333.558C2007.9 333.004 2008.08 332.57 2008.45 332.258C2008.81 331.929 2009.3 331.764 2009.9 331.764C2010.51 331.764 2010.99 331.929 2011.36 332.258C2011.72 332.57 2011.9 333.004 2011.9 333.558C2011.9 334.096 2011.72 334.529 2011.36 334.858C2010.99 335.17 2010.51 335.326 2009.9 335.326ZM2024.58 352.33C2023.56 352.33 2022.66 352.166 2021.88 351.836C2021.12 351.507 2020.51 351.056 2020.06 350.484C2019.63 349.895 2019.37 349.202 2019.3 348.404H2022.11C2022.18 348.872 2022.43 349.254 2022.87 349.548C2023.3 349.826 2023.87 349.964 2024.58 349.964H2025.7C2026.55 349.964 2027.19 349.791 2027.62 349.444C2028.06 349.098 2028.27 348.638 2028.27 348.066C2028.27 347.512 2028.08 347.078 2027.68 346.766C2027.3 346.437 2026.72 346.22 2025.96 346.116L2024.11 345.83C2022.59 345.588 2021.46 345.154 2020.73 344.53C2020.02 343.889 2019.67 342.944 2019.67 341.696C2019.67 340.379 2020.09 339.365 2020.94 338.654C2021.81 337.926 2023.08 337.562 2024.76 337.562H2025.75C2027.24 337.562 2028.43 337.909 2029.31 338.602C2030.22 339.278 2030.73 340.188 2030.85 341.332H2028.04C2027.97 340.916 2027.74 340.578 2027.34 340.318C2026.96 340.058 2026.43 339.928 2025.75 339.928H2024.76C2023.95 339.928 2023.35 340.084 2022.97 340.396C2022.61 340.691 2022.42 341.133 2022.42 341.722C2022.42 342.242 2022.59 342.632 2022.92 342.892C2023.25 343.152 2023.76 343.334 2024.45 343.438L2026.35 343.75C2027.96 343.976 2029.14 344.426 2029.89 345.102C2030.65 345.761 2031.03 346.723 2031.03 347.988C2031.03 349.358 2030.58 350.424 2029.68 351.186C2028.79 351.949 2027.47 352.33 2025.7 352.33H2024.58ZM2039.24 352.356C2037.75 352.356 2036.57 351.975 2035.7 351.212C2034.85 350.432 2034.43 349.375 2034.43 348.04C2034.43 346.688 2034.88 345.631 2035.78 344.868C2036.7 344.088 2037.95 343.698 2039.55 343.698H2043.53V342.372C2043.53 341.592 2043.28 340.986 2042.8 340.552C2042.31 340.119 2041.63 339.902 2040.74 339.902C2039.96 339.902 2039.31 340.076 2038.79 340.422C2038.27 340.752 2037.97 341.194 2037.88 341.748H2035.13C2035.28 340.466 2035.87 339.443 2036.9 338.68C2037.94 337.918 2039.24 337.536 2040.82 337.536C2042.52 337.536 2043.86 337.97 2044.85 338.836C2045.84 339.686 2046.33 340.847 2046.33 342.32V352.096H2043.6V349.47H2043.14L2043.6 348.95C2043.6 349.99 2043.21 350.822 2042.41 351.446C2041.61 352.053 2040.55 352.356 2039.24 352.356ZM2040.07 350.198C2041.07 350.198 2041.9 349.947 2042.54 349.444C2043.2 348.924 2043.53 348.266 2043.53 347.468V345.596H2039.6C2038.87 345.596 2038.29 345.796 2037.86 346.194C2037.44 346.593 2037.23 347.139 2037.23 347.832C2037.23 348.56 2037.49 349.141 2037.99 349.574C2038.49 349.99 2039.18 350.198 2040.07 350.198ZM2057.27 352.356C2056.09 352.356 2055.16 352.036 2054.46 351.394C2053.77 350.736 2053.42 349.843 2053.42 348.716L2054.02 349.366H2053.42V352.096H2050.64V333.116H2053.45V337.198L2053.37 340.526H2054.02L2053.42 341.176C2053.42 340.05 2053.77 339.166 2054.46 338.524C2055.17 337.866 2056.11 337.536 2057.27 337.536C2058.71 337.536 2059.86 338.022 2060.73 338.992C2061.59 339.963 2062.03 341.28 2062.03 342.944V346.974C2062.03 348.621 2061.59 349.93 2060.73 350.9C2059.86 351.871 2058.71 352.356 2057.27 352.356ZM2056.31 349.912C2057.23 349.912 2057.95 349.652 2058.47 349.132C2058.99 348.595 2059.25 347.824 2059.25 346.818V343.074C2059.25 342.069 2058.99 341.306 2058.47 340.786C2057.95 340.249 2057.23 339.98 2056.31 339.98C2055.42 339.98 2054.72 340.258 2054.2 340.812C2053.7 341.35 2053.45 342.104 2053.45 343.074V346.818C2053.45 347.789 2053.7 348.552 2054.2 349.106C2054.72 349.644 2055.42 349.912 2056.31 349.912ZM2073.9 352.096C2073.02 352.096 2072.24 351.923 2071.59 351.576C2070.93 351.212 2070.41 350.701 2070.03 350.042C2069.66 349.384 2069.48 348.621 2069.48 347.754V335.664H2064.8V333.116H2072.29V347.754C2072.29 348.309 2072.44 348.751 2072.76 349.08C2073.07 349.392 2073.49 349.548 2074.03 349.548H2078.45V352.096H2073.9ZM2087.44 352.356C2086.27 352.356 2085.25 352.131 2084.37 351.68C2083.5 351.212 2082.83 350.562 2082.37 349.73C2081.9 348.898 2081.66 347.928 2081.66 346.818V343.074C2081.66 341.948 2081.9 340.977 2082.37 340.162C2082.83 339.33 2083.5 338.689 2084.37 338.238C2085.25 337.77 2086.27 337.536 2087.44 337.536C2088.61 337.536 2089.64 337.77 2090.5 338.238C2091.37 338.689 2092.04 339.33 2092.51 340.162C2092.97 340.977 2093.21 341.948 2093.21 343.074V345.622H2084.37V346.818C2084.37 347.876 2084.63 348.682 2085.15 349.236C2085.69 349.791 2086.46 350.068 2087.46 350.068C2088.28 350.068 2088.94 349.93 2089.44 349.652C2089.94 349.358 2090.25 348.933 2090.37 348.378H2093.16C2092.95 349.592 2092.32 350.562 2091.28 351.29C2090.24 352.001 2088.96 352.356 2087.44 352.356ZM2090.5 343.932V343.048C2090.5 342.008 2090.24 341.202 2089.72 340.63C2089.2 340.058 2088.44 339.772 2087.44 339.772C2086.45 339.772 2085.69 340.058 2085.15 340.63C2084.63 341.202 2084.37 342.017 2084.37 343.074V343.724L2090.71 343.698L2090.5 343.932ZM2102.01 352.356C2100.57 352.356 2099.42 351.871 2098.55 350.9C2097.69 349.93 2097.25 348.621 2097.25 346.974V342.944C2097.25 341.28 2097.69 339.963 2098.55 338.992C2099.42 338.022 2100.57 337.536 2102.01 337.536C2103.19 337.536 2104.13 337.866 2104.82 338.524C2105.51 339.166 2105.86 340.05 2105.86 341.176L2105.26 340.526H2105.91L2105.83 337.198V333.116H2108.64V352.096H2105.86V349.366H2105.26L2105.86 348.716C2105.86 349.843 2105.51 350.736 2104.82 351.394C2104.13 352.036 2103.19 352.356 2102.01 352.356ZM2102.97 349.912C2103.86 349.912 2104.55 349.644 2105.05 349.106C2105.57 348.552 2105.83 347.789 2105.83 346.818V343.074C2105.83 342.104 2105.57 341.35 2105.05 340.812C2104.55 340.258 2103.86 339.98 2102.97 339.98C2102.05 339.98 2101.34 340.249 2100.82 340.786C2100.3 341.306 2100.04 342.069 2100.04 343.074V346.818C2100.04 347.824 2100.3 348.595 2100.82 349.132C2101.34 349.652 2102.05 349.912 2102.97 349.912ZM2113.36 352.096V349.6H2117.19V335.612H2113.36V333.116H2123.87V335.612H2120.05V349.6H2123.87V352.096H2113.36ZM2128.59 352.096V337.796H2131.37V340.526H2132.05L2131.37 341.176C2131.37 340.032 2131.71 339.14 2132.39 338.498C2133.06 337.857 2134 337.536 2135.19 337.536C2136.61 337.536 2137.75 337.996 2138.6 338.914C2139.45 339.816 2139.87 341.038 2139.87 342.58V352.096H2137.07V342.892C2137.07 341.956 2136.81 341.237 2136.31 340.734C2135.81 340.232 2135.12 339.98 2134.26 339.98C2133.37 339.98 2132.67 340.249 2132.15 340.786C2131.65 341.306 2131.4 342.069 2131.4 343.074V352.096H2128.59ZM2148.37 352.356C2146.87 352.356 2145.7 351.975 2144.83 351.212C2143.98 350.432 2143.56 349.375 2143.56 348.04C2143.56 346.688 2144.01 345.631 2144.91 344.868C2145.83 344.088 2147.08 343.698 2148.68 343.698H2152.66V342.372C2152.66 341.592 2152.41 340.986 2151.93 340.552C2151.44 340.119 2150.76 339.902 2149.87 339.902C2149.09 339.902 2148.44 340.076 2147.92 340.422C2147.4 340.752 2147.1 341.194 2147.01 341.748H2144.26C2144.41 340.466 2145 339.443 2146.03 338.68C2147.07 337.918 2148.37 337.536 2149.95 337.536C2151.65 337.536 2152.99 337.97 2153.98 338.836C2154.97 339.686 2155.46 340.847 2155.46 342.32V352.096H2152.73V349.47H2152.27L2152.73 348.95C2152.73 349.99 2152.33 350.822 2151.54 351.446C2150.74 352.053 2149.68 352.356 2148.37 352.356ZM2149.2 350.198C2150.2 350.198 2151.03 349.947 2151.67 349.444C2152.33 348.924 2152.66 348.266 2152.66 347.468V345.596H2148.73C2148 345.596 2147.42 345.796 2146.99 346.194C2146.57 346.593 2146.36 347.139 2146.36 347.832C2146.36 348.56 2146.61 349.141 2147.12 349.574C2147.62 349.99 2148.31 350.198 2149.2 350.198ZM2165.49 352.356C2164.31 352.356 2163.27 352.14 2162.37 351.706C2161.48 351.256 2160.8 350.614 2160.31 349.782C2159.85 348.933 2159.61 347.945 2159.61 346.818V343.074C2159.61 341.93 2159.85 340.942 2160.31 340.11C2160.8 339.278 2161.48 338.646 2162.37 338.212C2163.27 337.762 2164.31 337.536 2165.49 337.536C2167.2 337.536 2168.58 337.987 2169.62 338.888C2170.66 339.79 2171.21 341.02 2171.26 342.58H2168.45C2168.4 341.766 2168.11 341.133 2167.59 340.682C2167.07 340.232 2166.37 340.006 2165.49 340.006C2164.54 340.006 2163.78 340.275 2163.23 340.812C2162.67 341.332 2162.39 342.078 2162.39 343.048V346.818C2162.39 347.789 2162.67 348.543 2163.23 349.08C2163.78 349.618 2164.54 349.886 2165.49 349.886C2166.37 349.886 2167.07 349.661 2167.59 349.21C2168.11 348.76 2168.4 348.127 2168.45 347.312H2171.26C2171.21 348.872 2170.66 350.103 2169.62 351.004C2168.58 351.906 2167.2 352.356 2165.49 352.356ZM2182.53 352.096C2181.23 352.096 2180.22 351.741 2179.49 351.03C2178.76 350.32 2178.4 349.332 2178.4 348.066V340.344H2174.45V337.796H2178.4V333.766H2181.21V337.796H2186.8V340.344H2181.21V348.066C2181.21 349.054 2181.69 349.548 2182.64 349.548H2186.54V352.096H2182.53ZM2190.87 352.096V349.548H2195.89V340.344H2191.52V337.796H2198.62V349.548H2203.22V352.096H2190.87ZM2196.98 335.326C2196.37 335.326 2195.89 335.17 2195.52 334.858C2195.16 334.529 2194.98 334.096 2194.98 333.558C2194.98 333.004 2195.16 332.57 2195.52 332.258C2195.89 331.929 2196.37 331.764 2196.98 331.764C2197.59 331.764 2198.07 331.929 2198.44 332.258C2198.8 332.57 2198.98 333.004 2198.98 333.558C2198.98 334.096 2198.8 334.529 2198.44 334.858C2198.07 335.17 2197.59 335.326 2196.98 335.326ZM2210.31 352.096L2205.58 337.796H2208.44L2211.37 346.948C2211.57 347.486 2211.73 348.032 2211.87 348.586C2212.02 349.124 2212.14 349.548 2212.21 349.86C2212.29 349.548 2212.41 349.124 2212.54 348.586C2212.7 348.032 2212.86 347.486 2213.01 346.948L2215.9 337.796H2218.73L2214 352.096H2210.31ZM2227.74 352.356C2226.58 352.356 2225.56 352.131 2224.68 351.68C2223.81 351.212 2223.14 350.562 2222.67 349.73C2222.21 348.898 2221.97 347.928 2221.97 346.818V343.074C2221.97 341.948 2222.21 340.977 2222.67 340.162C2223.14 339.33 2223.81 338.689 2224.68 338.238C2225.56 337.77 2226.58 337.536 2227.74 337.536C2228.92 337.536 2229.95 337.77 2230.81 338.238C2231.68 338.689 2232.35 339.33 2232.81 340.162C2233.28 340.977 2233.52 341.948 2233.52 343.074V345.622H2224.68V346.818C2224.68 347.876 2224.94 348.682 2225.46 349.236C2225.99 349.791 2226.77 350.068 2227.77 350.068C2228.59 350.068 2229.24 349.93 2229.75 349.652C2230.25 349.358 2230.56 348.933 2230.68 348.378H2233.46C2233.26 349.592 2232.63 350.562 2231.59 351.29C2230.55 352.001 2229.27 352.356 2227.74 352.356ZM2230.81 343.932V343.048C2230.81 342.008 2230.55 341.202 2230.03 340.63C2229.51 340.058 2228.75 339.772 2227.74 339.772C2226.76 339.772 2225.99 340.058 2225.46 340.63C2224.94 341.202 2224.68 342.017 2224.68 343.074V343.724L2231.02 343.698L2230.81 343.932ZM2241.93 352.096V335.69H2236.86V333.09H2249.81V335.69H2244.74V352.096H2241.93ZM2253.78 352.096V337.796H2256.48V340.526H2257.16L2256.3 342.216C2256.3 340.674 2256.64 339.512 2257.31 338.732C2257.99 337.935 2258.99 337.536 2260.33 337.536C2261.85 337.536 2263.06 338.013 2263.94 338.966C2264.84 339.902 2265.29 341.194 2265.29 342.84V343.802H2262.41V343.074C2262.41 342.052 2262.15 341.272 2261.63 340.734C2261.13 340.18 2260.41 339.902 2259.5 339.902C2258.58 339.902 2257.86 340.18 2257.34 340.734C2256.84 341.289 2256.58 342.069 2256.58 343.074V352.096H2253.78ZM2273.08 352.356C2271.59 352.356 2270.41 351.975 2269.55 351.212C2268.7 350.432 2268.27 349.375 2268.27 348.04C2268.27 346.688 2268.72 345.631 2269.63 344.868C2270.54 344.088 2271.8 343.698 2273.4 343.698H2277.37V342.372C2277.37 341.592 2277.13 340.986 2276.65 340.552C2276.16 340.119 2275.48 339.902 2274.59 339.902C2273.81 339.902 2273.16 340.076 2272.64 340.422C2272.12 340.752 2271.82 341.194 2271.73 341.748H2268.98C2269.13 340.466 2269.72 339.443 2270.74 338.68C2271.78 337.918 2273.09 337.536 2274.67 337.536C2276.37 337.536 2277.71 337.97 2278.7 338.836C2279.69 339.686 2280.18 340.847 2280.18 342.32V352.096H2277.45V349.47H2276.98L2277.45 348.95C2277.45 349.99 2277.05 350.822 2276.26 351.446C2275.46 352.053 2274.4 352.356 2273.08 352.356ZM2273.92 350.198C2274.92 350.198 2275.74 349.947 2276.39 349.444C2277.04 348.924 2277.37 348.266 2277.37 347.468V345.596H2273.45C2272.72 345.596 2272.14 345.796 2271.71 346.194C2271.29 346.593 2271.08 347.139 2271.08 347.832C2271.08 348.56 2271.33 349.141 2271.84 349.574C2272.34 349.99 2273.03 350.198 2273.92 350.198ZM2290.21 352.356C2289.03 352.356 2287.99 352.14 2287.09 351.706C2286.2 351.256 2285.52 350.614 2285.03 349.782C2284.57 348.933 2284.33 347.945 2284.33 346.818V343.074C2284.33 341.93 2284.57 340.942 2285.03 340.11C2285.52 339.278 2286.2 338.646 2287.09 338.212C2287.99 337.762 2289.03 337.536 2290.21 337.536C2291.92 337.536 2293.3 337.987 2294.34 338.888C2295.38 339.79 2295.93 341.02 2295.98 342.58H2293.17C2293.12 341.766 2292.83 341.133 2292.31 340.682C2291.79 340.232 2291.09 340.006 2290.21 340.006C2289.25 340.006 2288.5 340.275 2287.95 340.812C2287.39 341.332 2287.11 342.078 2287.11 343.048V346.818C2287.11 347.789 2287.39 348.543 2287.95 349.08C2288.5 349.618 2289.25 349.886 2290.21 349.886C2291.09 349.886 2291.79 349.661 2292.31 349.21C2292.83 348.76 2293.12 348.127 2293.17 347.312H2295.98C2295.93 348.872 2295.38 350.103 2294.34 351.004C2293.3 351.906 2291.92 352.356 2290.21 352.356ZM2300.16 352.096V333.116H2302.96V343.542H2305.49L2309.28 337.796H2312.45L2307.9 344.66L2312.53 352.096H2309.31L2305.49 345.96H2302.96V352.096H2300.16ZM2321.39 352.356C2320.21 352.356 2319.18 352.14 2318.29 351.706C2317.43 351.256 2316.75 350.614 2316.27 349.782C2315.8 348.933 2315.56 347.945 2315.56 346.818V338.394C2315.56 337.25 2315.8 336.262 2316.27 335.43C2316.75 334.598 2317.43 333.966 2318.29 333.532C2319.18 333.082 2320.21 332.856 2321.39 332.856C2322.57 332.856 2323.59 333.082 2324.46 333.532C2325.32 333.983 2325.99 334.624 2326.46 335.456C2326.94 336.271 2327.19 337.25 2327.19 338.394H2324.38C2324.38 337.406 2324.12 336.652 2323.6 336.132C2323.08 335.612 2322.34 335.352 2321.39 335.352C2320.43 335.352 2319.69 335.612 2319.15 336.132C2318.63 336.652 2318.37 337.398 2318.37 338.368V346.818C2318.37 347.789 2318.63 348.543 2319.15 349.08C2319.69 349.6 2320.43 349.86 2321.39 349.86C2322.34 349.86 2323.08 349.6 2323.6 349.08C2324.12 348.543 2324.38 347.789 2324.38 346.818H2327.19C2327.19 347.945 2326.94 348.924 2326.46 349.756C2325.99 350.588 2325.32 351.23 2324.46 351.68C2323.59 352.131 2322.57 352.356 2321.39 352.356ZM2336.87 352.33C2335.69 352.33 2334.67 352.105 2333.81 351.654C2332.94 351.204 2332.27 350.562 2331.8 349.73C2331.34 348.898 2331.1 347.919 2331.1 346.792V343.1C2331.1 341.956 2331.34 340.977 2331.8 340.162C2332.27 339.33 2332.94 338.689 2333.81 338.238C2334.67 337.788 2335.69 337.562 2336.87 337.562C2338.05 337.562 2339.07 337.788 2339.94 338.238C2340.81 338.689 2341.48 339.33 2341.94 340.162C2342.41 340.977 2342.65 341.956 2342.65 343.1V346.792C2342.65 347.919 2342.41 348.898 2341.94 349.73C2341.48 350.562 2340.81 351.204 2339.94 351.654C2339.07 352.105 2338.05 352.33 2336.87 352.33ZM2336.87 349.86C2337.83 349.86 2338.56 349.6 2339.08 349.08C2339.6 348.543 2339.86 347.78 2339.86 346.792V343.1C2339.86 342.095 2339.6 341.332 2339.08 340.812C2338.56 340.292 2337.83 340.032 2336.87 340.032C2335.94 340.032 2335.2 340.292 2334.66 340.812C2334.14 341.332 2333.88 342.095 2333.88 343.1V346.792C2333.88 347.78 2334.14 348.543 2334.66 349.08C2335.2 349.6 2335.94 349.86 2336.87 349.86ZM2354.52 352.096C2353.63 352.096 2352.86 351.923 2352.2 351.576C2351.54 351.212 2351.02 350.701 2350.64 350.042C2350.28 349.384 2350.1 348.621 2350.1 347.754V335.664H2345.42V333.116H2352.91V347.754C2352.91 348.309 2353.06 348.751 2353.37 349.08C2353.69 349.392 2354.11 349.548 2354.65 349.548H2359.07V352.096H2354.52ZM2368.05 352.33C2366.87 352.33 2365.85 352.105 2364.98 351.654C2364.12 351.204 2363.45 350.562 2362.98 349.73C2362.51 348.898 2362.28 347.919 2362.28 346.792V343.1C2362.28 341.956 2362.51 340.977 2362.98 340.162C2363.45 339.33 2364.12 338.689 2364.98 338.238C2365.85 337.788 2366.87 337.562 2368.05 337.562C2369.23 337.562 2370.25 337.788 2371.12 338.238C2371.99 338.689 2372.65 339.33 2373.12 340.162C2373.59 340.977 2373.82 341.956 2373.82 343.1V346.792C2373.82 347.919 2373.59 348.898 2373.12 349.73C2372.65 350.562 2371.99 351.204 2371.12 351.654C2370.25 352.105 2369.23 352.33 2368.05 352.33ZM2368.05 349.86C2369.01 349.86 2369.74 349.6 2370.26 349.08C2370.78 348.543 2371.04 347.78 2371.04 346.792V343.1C2371.04 342.095 2370.78 341.332 2370.26 340.812C2369.74 340.292 2369.01 340.032 2368.05 340.032C2367.12 340.032 2366.38 340.292 2365.84 340.812C2365.32 341.332 2365.06 342.095 2365.06 343.1V346.792C2365.06 347.78 2365.32 348.543 2365.84 349.08C2366.38 349.6 2367.12 349.86 2368.05 349.86ZM2378.49 352.096V337.796H2381.2V340.526H2381.87L2381.02 342.216C2381.02 340.674 2381.35 339.512 2382.03 338.732C2382.71 337.935 2383.71 337.536 2385.05 337.536C2386.57 337.536 2387.78 338.013 2388.66 338.966C2389.56 339.902 2390.01 341.194 2390.01 342.84V343.802H2387.13V343.074C2387.13 342.052 2386.87 341.272 2386.35 340.734C2385.84 340.18 2385.13 339.902 2384.21 339.902C2383.3 339.902 2382.58 340.18 2382.06 340.734C2381.55 341.289 2381.3 342.069 2381.3 343.074V352.096H2378.49Z" fill="#001849"/>
<path d="M2189.1 321.596V241.096" stroke="black" stroke-width="4" stroke-linecap="round"/>
<path d="M1781.88 429.356C1780.44 429.356 1779.29 428.871 1778.42 427.9C1777.56 426.93 1777.12 425.621 1777.12 423.974V419.944C1777.12 418.28 1777.56 416.963 1778.42 415.992C1779.29 415.022 1780.44 414.536 1781.88 414.536C1783.06 414.536 1784 414.866 1784.69 415.524C1785.38 416.166 1785.73 417.05 1785.73 418.176L1785.13 417.526H1785.78L1785.7 414.198V410.116H1788.51V429.096H1785.73V426.366H1785.13L1785.73 425.716C1785.73 426.843 1785.38 427.736 1784.69 428.394C1784 429.036 1783.06 429.356 1781.88 429.356ZM1782.84 426.912C1783.73 426.912 1784.42 426.644 1784.92 426.106C1785.44 425.552 1785.7 424.789 1785.7 423.818V420.074C1785.7 419.104 1785.44 418.35 1784.92 417.812C1784.42 417.258 1783.73 416.98 1782.84 416.98C1781.93 416.98 1781.21 417.249 1780.69 417.786C1780.17 418.306 1779.91 419.069 1779.91 420.074V423.818C1779.91 424.824 1780.17 425.595 1780.69 426.132C1781.21 426.652 1781.93 426.912 1782.84 426.912ZM1792.79 429.096V426.548H1797.81V417.344H1793.44V414.796H1800.54V426.548H1805.14V429.096H1792.79ZM1798.9 412.326C1798.3 412.326 1797.81 412.17 1797.45 411.858C1797.08 411.529 1796.9 411.096 1796.9 410.558C1796.9 410.004 1797.08 409.57 1797.45 409.258C1797.81 408.929 1798.3 408.764 1798.9 408.764C1799.51 408.764 1799.99 408.929 1800.36 409.258C1800.72 409.57 1800.9 410.004 1800.9 410.558C1800.9 411.096 1800.72 411.529 1800.36 411.858C1799.99 412.17 1799.51 412.326 1798.9 412.326ZM1813.58 429.33C1812.56 429.33 1811.66 429.166 1810.88 428.836C1810.12 428.507 1809.51 428.056 1809.06 427.484C1808.63 426.895 1808.37 426.202 1808.3 425.404H1811.11C1811.18 425.872 1811.43 426.254 1811.87 426.548C1812.3 426.826 1812.87 426.964 1813.58 426.964H1814.7C1815.55 426.964 1816.19 426.791 1816.62 426.444C1817.06 426.098 1817.27 425.638 1817.27 425.066C1817.27 424.512 1817.08 424.078 1816.68 423.766C1816.3 423.437 1815.72 423.22 1814.96 423.116L1813.11 422.83C1811.59 422.588 1810.46 422.154 1809.73 421.53C1809.02 420.889 1808.67 419.944 1808.67 418.696C1808.67 417.379 1809.09 416.365 1809.94 415.654C1810.81 414.926 1812.08 414.562 1813.76 414.562H1814.75C1816.24 414.562 1817.43 414.909 1818.31 415.602C1819.22 416.278 1819.73 417.188 1819.85 418.332H1817.04C1816.97 417.916 1816.74 417.578 1816.34 417.318C1815.96 417.058 1815.43 416.928 1814.75 416.928H1813.76C1812.95 416.928 1812.35 417.084 1811.97 417.396C1811.61 417.691 1811.42 418.133 1811.42 418.722C1811.42 419.242 1811.59 419.632 1811.92 419.892C1812.25 420.152 1812.76 420.334 1813.45 420.438L1815.35 420.75C1816.96 420.976 1818.14 421.426 1818.89 422.102C1819.65 422.761 1820.03 423.723 1820.03 424.988C1820.03 426.358 1819.58 427.424 1818.68 428.186C1817.79 428.949 1816.47 429.33 1814.7 429.33H1813.58ZM1828.24 429.356C1826.75 429.356 1825.57 428.975 1824.7 428.212C1823.85 427.432 1823.43 426.375 1823.43 425.04C1823.43 423.688 1823.88 422.631 1824.78 421.868C1825.7 421.088 1826.95 420.698 1828.55 420.698H1832.53V419.372C1832.53 418.592 1832.28 417.986 1831.8 417.552C1831.31 417.119 1830.63 416.902 1829.74 416.902C1828.96 416.902 1828.31 417.076 1827.79 417.422C1827.27 417.752 1826.97 418.194 1826.88 418.748H1824.13C1824.28 417.466 1824.87 416.443 1825.9 415.68C1826.94 414.918 1828.24 414.536 1829.82 414.536C1831.52 414.536 1832.86 414.97 1833.85 415.836C1834.84 416.686 1835.33 417.847 1835.33 419.32V429.096H1832.6V426.47H1832.14L1832.6 425.95C1832.6 426.99 1832.21 427.822 1831.41 428.446C1830.61 429.053 1829.55 429.356 1828.24 429.356ZM1829.07 427.198C1830.07 427.198 1830.9 426.947 1831.54 426.444C1832.2 425.924 1832.53 425.266 1832.53 424.468V422.596H1828.6C1827.87 422.596 1827.29 422.796 1826.86 423.194C1826.44 423.593 1826.23 424.139 1826.23 424.832C1826.23 425.56 1826.49 426.141 1826.99 426.574C1827.49 426.99 1828.18 427.198 1829.07 427.198ZM1846.27 429.356C1845.09 429.356 1844.16 429.036 1843.46 428.394C1842.77 427.736 1842.42 426.843 1842.42 425.716L1843.02 426.366H1842.42V429.096H1839.64V410.116H1842.45V414.198L1842.37 417.526H1843.02L1842.42 418.176C1842.42 417.05 1842.77 416.166 1843.46 415.524C1844.17 414.866 1845.11 414.536 1846.27 414.536C1847.71 414.536 1848.86 415.022 1849.73 415.992C1850.59 416.963 1851.03 418.28 1851.03 419.944V423.974C1851.03 425.621 1850.59 426.93 1849.73 427.9C1848.86 428.871 1847.71 429.356 1846.27 429.356ZM1845.31 426.912C1846.23 426.912 1846.95 426.652 1847.47 426.132C1847.99 425.595 1848.25 424.824 1848.25 423.818V420.074C1848.25 419.069 1847.99 418.306 1847.47 417.786C1846.95 417.249 1846.23 416.98 1845.31 416.98C1844.42 416.98 1843.72 417.258 1843.2 417.812C1842.7 418.35 1842.45 419.104 1842.45 420.074V423.818C1842.45 424.789 1842.7 425.552 1843.2 426.106C1843.72 426.644 1844.42 426.912 1845.31 426.912ZM1862.9 429.096C1862.02 429.096 1861.24 428.923 1860.59 428.576C1859.93 428.212 1859.41 427.701 1859.03 427.042C1858.66 426.384 1858.48 425.621 1858.48 424.754V412.664H1853.8V410.116H1861.29V424.754C1861.29 425.309 1861.44 425.751 1861.76 426.08C1862.07 426.392 1862.49 426.548 1863.03 426.548H1867.45V429.096H1862.9ZM1876.44 429.356C1875.27 429.356 1874.25 429.131 1873.37 428.68C1872.5 428.212 1871.83 427.562 1871.37 426.73C1870.9 425.898 1870.66 424.928 1870.66 423.818V420.074C1870.66 418.948 1870.9 417.977 1871.37 417.162C1871.83 416.33 1872.5 415.689 1873.37 415.238C1874.25 414.77 1875.27 414.536 1876.44 414.536C1877.61 414.536 1878.64 414.77 1879.5 415.238C1880.37 415.689 1881.04 416.33 1881.51 417.162C1881.97 417.977 1882.21 418.948 1882.21 420.074V422.622H1873.37V423.818C1873.37 424.876 1873.63 425.682 1874.15 426.236C1874.69 426.791 1875.46 427.068 1876.46 427.068C1877.28 427.068 1877.94 426.93 1878.44 426.652C1878.94 426.358 1879.25 425.933 1879.37 425.378H1882.16C1881.95 426.592 1881.32 427.562 1880.28 428.29C1879.24 429.001 1877.96 429.356 1876.44 429.356ZM1879.5 420.932V420.048C1879.5 419.008 1879.24 418.202 1878.72 417.63C1878.2 417.058 1877.44 416.772 1876.44 416.772C1875.45 416.772 1874.69 417.058 1874.15 417.63C1873.63 418.202 1873.37 419.017 1873.37 420.074V420.724L1879.71 420.698L1879.5 420.932ZM1891.01 429.356C1889.57 429.356 1888.42 428.871 1887.55 427.9C1886.69 426.93 1886.25 425.621 1886.25 423.974V419.944C1886.25 418.28 1886.69 416.963 1887.55 415.992C1888.42 415.022 1889.57 414.536 1891.01 414.536C1892.19 414.536 1893.13 414.866 1893.82 415.524C1894.51 416.166 1894.86 417.05 1894.86 418.176L1894.26 417.526H1894.91L1894.83 414.198V410.116H1897.64V429.096H1894.86V426.366H1894.26L1894.86 425.716C1894.86 426.843 1894.51 427.736 1893.82 428.394C1893.13 429.036 1892.19 429.356 1891.01 429.356ZM1891.97 426.912C1892.86 426.912 1893.55 426.644 1894.05 426.106C1894.57 425.552 1894.83 424.789 1894.83 423.818V420.074C1894.83 419.104 1894.57 418.35 1894.05 417.812C1893.55 417.258 1892.86 416.98 1891.97 416.98C1891.05 416.98 1890.34 417.249 1889.82 417.786C1889.3 418.306 1889.04 419.069 1889.04 420.074V423.818C1889.04 424.824 1889.3 425.595 1889.82 426.132C1890.34 426.652 1891.05 426.912 1891.97 426.912ZM1906.21 429.096V412.69H1901.14V410.09H1914.09V412.69H1909.02V429.096H1906.21ZM1917.59 429.096V410.116H1920.4V414.796L1920.37 417.526H1921.05L1920.37 418.176C1920.37 417.032 1920.71 416.14 1921.39 415.498C1922.06 414.857 1923 414.536 1924.19 414.536C1925.61 414.536 1926.75 414.996 1927.6 415.914C1928.45 416.816 1928.87 418.038 1928.87 419.58V429.096H1926.07V419.892C1926.07 418.956 1925.81 418.228 1925.31 417.708C1924.81 417.188 1924.12 416.928 1923.26 416.928C1922.37 416.928 1921.67 417.206 1921.15 417.76C1920.65 418.298 1920.4 419.069 1920.4 420.074V429.096H1917.59ZM1938.77 429.356C1937.05 429.356 1935.68 428.862 1934.66 427.874C1933.64 426.869 1933.13 425.508 1933.13 423.792V414.796H1935.94V423.792C1935.94 424.78 1936.19 425.552 1936.69 426.106C1937.19 426.644 1937.89 426.912 1938.77 426.912C1939.67 426.912 1940.37 426.644 1940.88 426.106C1941.4 425.552 1941.66 424.78 1941.66 423.792V414.796H1944.46V423.792C1944.46 425.508 1943.94 426.869 1942.9 427.874C1941.88 428.862 1940.5 429.356 1938.77 429.356ZM1948.12 429.096V414.796H1950.46V416.616H1950.98L1950.59 417.162C1950.59 416.365 1950.81 415.732 1951.24 415.264C1951.67 414.779 1952.25 414.536 1952.98 414.536C1953.76 414.536 1954.36 414.84 1954.77 415.446C1955.21 416.053 1955.42 416.885 1955.42 417.942L1954.8 416.616H1955.79L1955.37 417.162C1955.37 416.365 1955.59 415.732 1956.02 415.264C1956.47 414.779 1957.07 414.536 1957.82 414.536C1958.7 414.536 1959.39 414.874 1959.9 415.55C1960.4 416.209 1960.65 417.093 1960.65 418.202V429.096H1958.15V418.28C1958.15 417.743 1958.03 417.327 1957.79 417.032C1957.57 416.738 1957.24 416.59 1956.8 416.59C1956.37 416.59 1956.03 416.738 1955.79 417.032C1955.56 417.31 1955.45 417.717 1955.45 418.254V429.096H1953.34V418.28C1953.34 417.726 1953.22 417.31 1952.98 417.032C1952.74 416.738 1952.39 416.59 1951.94 416.59C1951.51 416.59 1951.18 416.738 1950.95 417.032C1950.74 417.31 1950.64 417.717 1950.64 418.254V429.096H1948.12ZM1970.99 429.356C1969.81 429.356 1968.87 429.036 1968.18 428.394C1967.49 427.736 1967.14 426.843 1967.14 425.716L1967.74 426.366H1967.14V429.096H1964.36V410.116H1967.17V414.198L1967.09 417.526H1967.74L1967.14 418.176C1967.14 417.05 1967.49 416.166 1968.18 415.524C1968.89 414.866 1969.83 414.536 1970.99 414.536C1972.43 414.536 1973.58 415.022 1974.45 415.992C1975.31 416.963 1975.75 418.28 1975.75 419.944V423.974C1975.75 425.621 1975.31 426.93 1974.45 427.9C1973.58 428.871 1972.43 429.356 1970.99 429.356ZM1970.03 426.912C1970.95 426.912 1971.66 426.652 1972.18 426.132C1972.7 425.595 1972.96 424.824 1972.96 423.818V420.074C1972.96 419.069 1972.7 418.306 1972.18 417.786C1971.66 417.249 1970.95 416.98 1970.03 416.98C1969.14 416.98 1968.44 417.258 1967.92 417.812C1967.42 418.35 1967.17 419.104 1967.17 420.074V423.818C1967.17 424.789 1967.42 425.552 1967.92 426.106C1968.44 426.644 1969.14 426.912 1970.03 426.912ZM1985.67 429.356C1984.49 429.356 1983.46 429.14 1982.57 428.706C1981.71 428.256 1981.03 427.614 1980.55 426.782C1980.08 425.933 1979.84 424.945 1979.84 423.818V415.394C1979.84 414.25 1980.08 413.262 1980.55 412.43C1981.03 411.598 1981.71 410.966 1982.57 410.532C1983.46 410.082 1984.49 409.856 1985.67 409.856C1986.85 409.856 1987.87 410.082 1988.74 410.532C1989.6 410.983 1990.27 411.624 1990.74 412.456C1991.22 413.271 1991.47 414.25 1991.47 415.394H1988.66C1988.66 414.406 1988.4 413.652 1987.88 413.132C1987.36 412.612 1986.62 412.352 1985.67 412.352C1984.72 412.352 1983.97 412.612 1983.43 413.132C1982.91 413.652 1982.65 414.398 1982.65 415.368V423.818C1982.65 424.789 1982.91 425.543 1983.43 426.08C1983.97 426.6 1984.72 426.86 1985.67 426.86C1986.62 426.86 1987.36 426.6 1987.88 426.08C1988.4 425.543 1988.66 424.789 1988.66 423.818H1991.47C1991.47 424.945 1991.22 425.924 1990.74 426.756C1990.27 427.588 1989.6 428.23 1988.74 428.68C1987.87 429.131 1986.85 429.356 1985.67 429.356ZM2001.15 429.33C1999.98 429.33 1998.95 429.105 1998.09 428.654C1997.22 428.204 1996.55 427.562 1996.08 426.73C1995.62 425.898 1995.38 424.919 1995.38 423.792V420.1C1995.38 418.956 1995.62 417.977 1996.08 417.162C1996.55 416.33 1997.22 415.689 1998.09 415.238C1998.95 414.788 1999.98 414.562 2001.15 414.562C2002.33 414.562 2003.36 414.788 2004.22 415.238C2005.09 415.689 2005.76 416.33 2006.22 417.162C2006.69 417.977 2006.93 418.956 2006.93 420.1V423.792C2006.93 424.919 2006.69 425.898 2006.22 426.73C2005.76 427.562 2005.09 428.204 2004.22 428.654C2003.36 429.105 2002.33 429.33 2001.15 429.33ZM2001.15 426.86C2002.11 426.86 2002.84 426.6 2003.36 426.08C2003.88 425.543 2004.14 424.78 2004.14 423.792V420.1C2004.14 419.095 2003.88 418.332 2003.36 417.812C2002.84 417.292 2002.11 417.032 2001.15 417.032C2000.22 417.032 1999.48 417.292 1998.94 417.812C1998.42 418.332 1998.16 419.095 1998.16 420.1V423.792C1998.16 424.78 1998.42 425.543 1998.94 426.08C1999.48 426.6 2000.22 426.86 2001.15 426.86ZM2018.8 429.096C2017.91 429.096 2017.14 428.923 2016.48 428.576C2015.83 428.212 2015.31 427.701 2014.92 427.042C2014.56 426.384 2014.38 425.621 2014.38 424.754V412.664H2009.7V410.116H2017.19V424.754C2017.19 425.309 2017.34 425.751 2017.65 426.08C2017.97 426.392 2018.39 426.548 2018.93 426.548H2023.35V429.096H2018.8ZM2032.33 429.33C2031.16 429.33 2030.13 429.105 2029.27 428.654C2028.4 428.204 2027.73 427.562 2027.26 426.73C2026.8 425.898 2026.56 424.919 2026.56 423.792V420.1C2026.56 418.956 2026.8 417.977 2027.26 417.162C2027.73 416.33 2028.4 415.689 2029.27 415.238C2030.13 414.788 2031.16 414.562 2032.33 414.562C2033.51 414.562 2034.54 414.788 2035.4 415.238C2036.27 415.689 2036.94 416.33 2037.4 417.162C2037.87 417.977 2038.11 418.956 2038.11 420.1V423.792C2038.11 424.919 2037.87 425.898 2037.4 426.73C2036.94 427.562 2036.27 428.204 2035.4 428.654C2034.54 429.105 2033.51 429.33 2032.33 429.33ZM2032.33 426.86C2033.29 426.86 2034.02 426.6 2034.54 426.08C2035.06 425.543 2035.32 424.78 2035.32 423.792V420.1C2035.32 419.095 2035.06 418.332 2034.54 417.812C2034.02 417.292 2033.29 417.032 2032.33 417.032C2031.4 417.032 2030.66 417.292 2030.12 417.812C2029.6 418.332 2029.34 419.095 2029.34 420.1V423.792C2029.34 424.78 2029.6 425.543 2030.12 426.08C2030.66 426.6 2031.4 426.86 2032.33 426.86ZM2042.78 429.096V414.796H2045.48V417.526H2046.16L2045.3 419.216C2045.3 417.674 2045.64 416.512 2046.31 415.732C2046.99 414.935 2047.99 414.536 2049.33 414.536C2050.85 414.536 2052.06 415.013 2052.94 415.966C2053.84 416.902 2054.29 418.194 2054.29 419.84V420.802H2051.41V420.074C2051.41 419.052 2051.15 418.272 2050.63 417.734C2050.13 417.18 2049.41 416.902 2048.5 416.902C2047.58 416.902 2046.86 417.18 2046.34 417.734C2045.84 418.289 2045.58 419.069 2045.58 420.074V429.096H2042.78Z" fill="#001849"/>
<path d="M1916.1 391.596V298.596H2000.1V285.596" stroke="black" stroke-width="4" stroke-linecap="round"/>
</svg>
