<svg width="192" height="132" viewBox="0 0 192 132" fill="none" xmlns="http://www.w3.org/2000/svg">
<path d="M15.0699 106.035C14.9868 105.581 14.9935 105.115 15.0905 104.663C15.1875 104.212 15.3724 103.783 15.6348 103.403C15.8973 103.023 16.2328 102.698 16.6209 102.447L20.6308 99.8553C24.4325 97.3979 28.7171 95.7841 33.1956 95.1236C37.674 94.4631 42.2426 94.7708 46.592 96.0261L70.3618 102.886C73.7446 103.864 77.2979 104.103 80.7815 103.59C84.2649 103.076 87.5974 101.821 90.5542 99.9088L94.565 97.3181C95.1135 96.9636 95.7498 96.7687 96.4027 96.7554C97.0556 96.7421 97.6994 96.9109 98.2619 97.2427C98.8243 97.5745 99.2838 98.0567 99.588 98.6345C99.8919 99.2122 100.029 99.8632 99.9842 100.514C99.9471 101.06 99.7828 101.59 99.505 102.061C99.2272 102.532 98.8433 102.931 98.3838 103.228L94.3729 105.82C90.5709 108.277 86.2857 109.89 81.8072 110.55C77.3289 111.21 72.761 110.902 68.4118 109.647L44.641 102.787C41.2582 101.81 37.7046 101.571 34.2212 102.085C30.7379 102.599 27.4051 103.854 24.4485 105.766L20.4396 108.357C20.0516 108.608 19.6174 108.78 19.1629 108.863C18.7086 108.946 18.2425 108.938 17.791 108.841C17.3393 108.744 16.9111 108.559 16.531 108.297C16.1508 108.034 15.8256 107.7 15.5749 107.312C15.3241 106.924 15.1531 106.49 15.0699 106.035ZM16.802 89.7638C16.2958 88.9803 16.1215 88.0272 16.3176 87.1152C16.5137 86.2032 17.0644 85.4065 17.8479 84.9002L21.8578 82.3083C25.6595 79.8509 29.9442 78.2372 34.4226 77.5766C38.9011 76.9161 43.4696 77.2238 47.819 78.4791L71.5888 85.3385C74.9716 86.3156 78.5251 86.5552 82.0085 86.0416C85.4921 85.528 88.8253 84.2729 91.7823 82.3609L95.792 79.7711C96.3405 79.4167 96.9768 79.2217 97.6297 79.2084C98.2826 79.1951 98.9264 79.364 99.4889 79.6958C100.051 80.0275 100.511 80.5088 100.815 81.0866C101.119 81.6644 101.256 82.3159 101.211 82.9674C101.174 83.5129 101.01 84.0421 100.732 84.513C100.454 84.9838 100.07 85.3835 99.6108 85.6798L95.6 88.2715C91.7981 90.7291 87.5128 92.3427 83.0342 93.0032C78.5559 93.6636 73.988 93.356 69.6387 92.1008L45.8679 85.2413C42.4853 84.2643 38.9324 84.0247 35.4492 84.5382C31.9657 85.0518 28.6324 86.3071 25.6755 88.2189L21.6666 90.8098C20.883 91.3162 19.9302 91.4903 19.018 91.2942C18.1058 91.0982 17.3084 90.5475 16.802 89.7638ZM17.5239 70.9412C17.4408 70.4868 17.4475 70.0199 17.5446 69.5682C17.6417 69.1166 17.8264 68.6883 18.0889 68.3082C18.3514 67.9281 18.6869 67.6039 19.0749 67.3532L23.0848 64.7613C26.8865 62.3039 31.1712 60.6902 35.6496 60.0296C40.1281 59.3691 44.6966 59.6768 49.046 60.9321L72.8159 67.7905C76.1987 68.7677 79.7521 69.0082 83.2355 68.4946C86.7191 67.981 90.0523 66.7259 93.0093 64.8139L97.0191 62.2231C97.5675 61.8688 98.2039 61.6748 98.8567 61.6614C99.5095 61.6481 100.154 61.816 100.716 62.1478C101.278 62.4796 101.738 62.9617 102.042 63.5396C102.346 64.1174 102.483 64.769 102.438 65.4204C102.401 65.9658 102.237 66.4951 101.959 66.966C101.681 67.4368 101.297 67.8365 100.838 68.1328L96.827 70.7245C93.0251 73.1821 88.7398 74.7957 84.2612 75.4562C79.7829 76.1166 75.215 75.8089 70.8658 74.5538L47.0949 67.6943C43.7121 66.7172 40.1587 66.4776 36.6752 66.9912C33.1919 67.5048 29.8593 68.7601 26.9025 70.6719L22.8936 73.2628C22.5056 73.5136 22.0715 73.6846 21.617 73.7678C21.1627 73.8509 20.6965 73.8443 20.245 73.7472C19.7934 73.6502 19.3651 73.4654 18.985 73.2029C18.6048 72.9404 18.2797 72.6049 18.029 72.2169C17.7784 71.829 17.6071 71.3954 17.5239 70.9412ZM18.751 53.3942C18.6678 52.9398 18.6745 52.4729 18.7716 52.0212C18.8687 51.5696 19.0534 51.1413 19.3159 50.7612C19.5784 50.3811 19.9139 50.0569 20.3019 49.8062L24.3119 47.2134C28.1135 44.756 32.3983 43.1432 36.8766 42.4826C41.3551 41.8221 45.9236 42.1298 50.273 43.3851L74.0429 50.2435C77.4257 51.2207 80.9792 51.4612 84.4625 50.9477C87.946 50.4341 91.2794 49.1788 94.2363 47.267L98.2461 44.6761C98.7946 44.3217 99.4309 44.1268 100.084 44.1135C100.737 44.1002 101.381 44.269 101.943 44.6008C102.505 44.9326 102.965 45.4147 103.269 45.9926C103.573 46.5704 103.71 47.222 103.665 47.8734C103.628 48.4187 103.464 48.9482 103.186 49.419C102.908 49.8896 102.524 50.2886 102.065 50.5848L98.054 53.1775C94.2521 55.6351 89.9668 57.2477 85.4883 57.9082C81.0099 58.5687 76.4421 58.261 72.0928 57.0058L48.3219 50.1473C44.9391 49.1702 41.3858 48.9296 37.9023 49.4432C34.419 49.9568 31.0863 51.2122 28.1296 53.1239L24.1207 55.7149C23.7327 55.9656 23.2985 56.1376 22.844 56.2208C22.3897 56.3039 21.9235 56.2973 21.472 56.2002C21.0203 56.1032 20.5922 55.9175 20.212 55.655C19.8319 55.3924 19.5067 55.0579 19.256 54.6699C19.0054 54.282 18.8341 53.8484 18.751 53.3942ZM19.978 35.8462C19.8949 35.3919 19.9016 34.9258 19.9986 34.4742C20.0956 34.0227 20.2805 33.5943 20.5429 33.2142C20.8054 32.8341 21.1409 32.5089 21.529 32.2582L25.5389 29.6664C29.3406 27.2089 33.6252 25.5952 38.1036 24.9346C42.5821 24.2741 47.1507 24.5819 51.5001 25.8371L75.2699 32.6965C78.6527 33.6737 82.2062 33.9132 85.6896 33.3997C89.1732 32.8861 92.5064 31.6309 95.4633 29.719L99.4731 27.1291C100.022 26.7747 100.658 26.5798 101.311 26.5665C101.964 26.5532 102.608 26.722 103.17 27.0538C103.732 27.3856 104.192 27.8677 104.496 28.4456C104.8 29.0233 104.937 29.6742 104.892 30.3255C104.855 30.8708 104.691 31.4002 104.413 31.871C104.135 32.3418 103.751 32.7415 103.292 33.0378L99.281 35.6296C95.4792 38.0871 91.1938 39.7007 86.7153 40.3612C82.237 41.0217 77.6691 40.714 73.3198 39.4588L49.549 32.5993C46.1663 31.6223 42.6127 31.3826 39.1293 31.8962C35.646 32.4098 32.3134 33.6651 29.3566 35.577L25.3477 38.1679C24.9597 38.4186 24.5255 38.5906 24.071 38.6738C23.6168 38.7569 23.1505 38.7503 22.699 38.6532C22.2473 38.5562 21.8192 38.3705 21.439 38.108C21.0589 37.8454 20.7337 37.5109 20.483 37.1229C20.2322 36.7348 20.0612 36.3007 19.978 35.8462Z" fill="black"/>
<path d="M86.4021 105.084C86.3189 104.63 86.3266 104.163 86.4237 103.711C86.5208 103.26 86.7055 102.831 86.968 102.451C87.2305 102.071 87.566 101.747 87.954 101.496L91.964 98.9034C95.7657 96.446 100.05 94.8331 104.529 94.1726C109.007 93.5121 113.576 93.8198 117.925 95.0751L141.695 101.934C145.078 102.912 148.631 103.151 152.115 102.638C155.598 102.124 158.931 100.869 161.887 98.9569L165.898 96.3661C166.447 96.0118 167.083 95.8168 167.736 95.8035C168.389 95.7902 169.033 95.959 169.595 96.2908C170.157 96.6226 170.616 97.1047 170.92 97.6825C171.224 98.2604 171.362 98.9119 171.317 99.5634C171.28 100.109 171.116 100.638 170.838 101.109C170.56 101.58 170.176 101.979 169.717 102.276L165.705 104.867C161.903 107.325 157.619 108.938 153.14 109.598C148.662 110.258 144.093 109.95 139.744 108.695L115.974 101.836C112.591 100.859 109.038 100.619 105.554 101.133C102.071 101.647 98.7384 102.902 95.7817 104.814L91.7728 107.405C91.3848 107.656 90.9506 107.828 90.4961 107.911C90.0418 107.994 89.5756 107.987 89.1241 107.89C88.6725 107.793 88.2443 107.607 87.8641 107.345C87.484 107.082 87.1588 106.748 86.9081 106.36C86.6574 105.972 86.4853 105.538 86.4021 105.084ZM88.1351 88.8129C87.6287 88.0292 87.4547 87.0764 87.6507 86.1642C87.8468 85.252 88.3974 84.4546 89.1811 83.9482L93.191 81.3564C96.9927 78.8989 101.277 77.2852 105.756 76.6246C110.234 75.9641 114.803 76.2718 119.152 77.5271L142.922 84.3865C146.305 85.3637 149.858 85.6033 153.342 85.0897C156.825 84.5761 160.159 83.3209 163.115 81.409L167.125 78.8191C167.674 78.4647 168.31 78.2698 168.963 78.2565C169.616 78.2432 170.26 78.412 170.822 78.7438C171.384 79.0756 171.843 79.5577 172.147 80.1355C172.451 80.7133 172.589 81.3641 172.544 82.0155C172.507 82.5608 172.343 83.0902 172.065 83.561C171.787 84.0318 171.403 84.4316 170.944 84.7278L166.932 87.3195C163.13 89.777 158.846 91.3907 154.367 92.0512C149.889 92.7118 145.32 92.4041 140.971 91.1487L117.201 84.2903C113.818 83.3132 110.265 83.0726 106.781 83.5862C103.298 84.0998 99.9655 85.3552 97.0087 87.267L92.9998 89.8579C92.2163 90.3642 91.2632 90.5392 90.3511 90.3432C89.4389 90.1472 88.6415 89.5965 88.1351 88.8129ZM88.8562 69.9892C88.7731 69.5349 88.7807 69.0687 88.8777 68.6172C88.9747 68.1657 89.1596 67.7373 89.422 67.3572C89.6845 66.9771 90.02 66.6519 90.4081 66.4012L94.418 63.8094C98.2198 61.3519 102.504 59.7382 106.983 59.0776C111.461 58.4171 116.03 58.7248 120.379 59.9801L144.149 66.8395C147.532 67.8167 151.085 68.0563 154.569 67.5427C158.052 67.0291 161.386 65.7739 164.342 63.862L168.352 61.2721C168.901 60.9177 169.537 60.7228 170.19 60.7095C170.843 60.6962 171.487 60.865 172.049 61.1968C172.611 61.5285 173.07 62.01 173.374 62.5875C173.678 63.1654 173.816 63.817 173.771 64.4685C173.734 65.0138 173.57 65.5432 173.292 66.014C173.014 66.4848 172.63 66.8846 172.171 67.1808L168.159 69.7725C164.357 72.23 160.073 73.8437 155.594 74.5042C151.116 75.1648 146.547 74.8571 142.198 73.6017L118.428 66.7424C115.045 65.7652 111.492 65.5256 108.008 66.0392C104.525 66.5528 101.193 67.8081 98.2357 69.72L94.2268 72.3109C93.8388 72.5616 93.4046 72.7337 92.9501 72.8168C92.4959 72.8999 92.0297 72.8923 91.5782 72.7953C91.1266 72.6982 90.6982 72.5134 90.3182 72.251C89.9381 71.9885 89.6128 71.6538 89.3621 71.2659C89.1113 70.8778 88.9393 70.4436 88.8562 69.9892ZM90.0832 52.4422C90 51.9877 90.0077 51.5209 90.1048 51.0693C90.2019 50.6177 90.3866 50.1893 90.6491 49.8092C90.9116 49.4292 91.2471 49.1049 91.6351 48.8542L95.645 46.2624C99.4468 43.8049 103.731 42.1912 108.21 41.5306C112.688 40.8701 117.257 41.1778 121.606 42.4331L145.376 49.2925C148.759 50.2697 152.312 50.5093 155.796 49.9957C159.279 49.4821 162.613 48.2269 165.569 46.315L169.579 43.7251C170.128 43.3707 170.764 43.1758 171.417 43.1625C172.07 43.1492 172.714 43.318 173.276 43.6498C173.838 43.9815 174.297 44.4629 174.601 45.0405C174.905 45.6184 175.043 46.27 174.998 46.9215C174.961 47.4669 174.797 47.9962 174.519 48.467C174.241 48.9379 173.858 49.3376 173.398 49.6338L169.386 52.2255C165.584 54.6829 161.3 56.2967 156.821 56.9572C152.343 57.6178 147.774 57.31 143.425 56.0547L119.655 49.1954C116.272 48.2182 112.719 47.9786 109.235 48.4922C105.752 49.0058 102.42 50.2611 99.4627 52.173L95.4538 54.7639C95.0658 55.0146 94.6316 55.1867 94.1771 55.2698C93.7229 55.3529 93.2567 55.3453 92.8052 55.2483C92.3537 55.1512 91.9252 54.9664 91.5452 54.704C91.165 54.4414 90.8399 54.1059 90.5892 53.7179C90.3385 53.3299 90.1663 52.8965 90.0832 52.4422ZM91.3102 34.8952C91.227 34.4407 91.2347 33.9739 91.3318 33.5223C91.4289 33.0706 91.6136 32.6423 91.8761 32.2622C92.1386 31.8821 92.4741 31.5579 92.8621 31.3072L96.8721 28.7144C100.674 26.257 104.958 24.6442 109.437 23.9836C113.915 23.3231 118.484 23.6308 122.833 24.8861L146.603 31.7446C149.986 32.7217 153.539 32.9623 157.023 32.4487C160.506 31.9351 163.84 30.6799 166.796 28.768L170.806 26.1771C171.355 25.8228 171.991 25.6278 172.644 25.6145C173.297 25.6012 173.941 25.7701 174.503 26.1018C175.066 26.4336 175.524 26.9158 175.828 27.4935C176.132 28.0714 176.27 28.723 176.225 29.3745C176.188 29.9198 176.024 30.4492 175.746 30.92C175.469 31.3907 175.084 31.7896 174.625 32.0858L170.613 34.6785C166.811 37.1359 162.527 38.7488 158.048 39.4093C153.57 40.0698 149.002 39.7621 144.652 38.5068L120.882 31.6484C117.499 30.6712 113.946 30.4316 110.462 30.9452C106.979 31.4588 103.647 32.7133 100.69 34.625L96.6808 37.2169C96.2928 37.4676 95.8587 37.6387 95.4042 37.7218C94.9499 37.805 94.4837 37.7983 94.0322 37.7013C93.5806 37.6042 93.1524 37.4185 92.7722 37.156C92.3921 36.8935 92.0669 36.5589 91.8162 36.1709C91.5655 35.783 91.3933 35.3495 91.3102 34.8952Z" fill="black"/>
</svg>
