<svg width="1921" height="870" viewBox="0 0 1921 870" fill="none" xmlns="http://www.w3.org/2000/svg">
<rect x="1.5" y="1.5" width="362" height="867" rx="11.5" fill="white" stroke="black" stroke-width="3"/>
<rect x="3" y="3" width="359" height="439" rx="10" fill="black"/>
<path d="M3 397C3 383.193 14.1929 372 28 372H337C350.807 372 362 383.193 362 397V857C362 862.523 357.523 867 352 867H13C7.47715 867 3 862.523 3 857V397Z" fill="#F7F7F7"/>
<path d="M31.6023 25.9418C32.0497 25.9453 32.4972 26.0305 32.9446 26.1974C33.392 26.3643 33.8004 26.6413 34.1697 27.0284C34.5391 27.4119 34.8356 27.9357 35.0593 28.5998C35.283 29.2638 35.3949 30.0966 35.3949 31.098C35.3949 32.0675 35.3026 32.9286 35.1179 33.6815C34.9368 34.4308 34.674 35.0629 34.3295 35.5778C33.9886 36.0927 33.5732 36.4833 33.0831 36.7496C32.5966 37.016 32.0462 37.1491 31.4318 37.1491C30.821 37.1491 30.2759 37.0284 29.7965 36.7869C29.3207 36.5419 28.93 36.2028 28.6246 35.7695C28.3228 35.3327 28.1293 34.8267 28.044 34.2514H29.3438C29.4609 34.7521 29.6935 35.1658 30.0415 35.4925C30.3931 35.8157 30.8565 35.9773 31.4318 35.9773C32.2734 35.9773 32.9375 35.6097 33.424 34.8746C33.9141 34.1396 34.1591 33.1009 34.1591 31.7585H34.0739C33.875 32.0568 33.6388 32.3143 33.3654 32.5309C33.092 32.7475 32.7884 32.9144 32.4545 33.0316C32.1207 33.1488 31.7656 33.2074 31.3892 33.2074C30.7642 33.2074 30.1907 33.0529 29.6687 32.744C29.1502 32.4315 28.7347 32.0036 28.4222 31.4602C28.1133 30.9134 27.9588 30.2884 27.9588 29.5852C27.9588 28.9176 28.108 28.3068 28.4062 27.7528C28.7081 27.1953 29.1307 26.7514 29.674 26.4212C30.2209 26.0909 30.8636 25.9311 31.6023 25.9418ZM31.6023 27.1136C31.1548 27.1136 30.7518 27.2255 30.3931 27.4492C30.038 27.6694 29.7557 27.9677 29.5462 28.3441C29.3402 28.717 29.2372 29.1307 29.2372 29.5852C29.2372 30.0398 29.3366 30.4535 29.5355 30.8263C29.7379 31.1957 30.0131 31.4904 30.3612 31.7106C30.7127 31.9272 31.1122 32.0355 31.5597 32.0355C31.897 32.0355 32.2113 31.9698 32.5025 31.8384C32.7937 31.7035 33.0476 31.5206 33.2642 31.2898C33.4844 31.0554 33.6566 30.7908 33.7809 30.4961C33.9052 30.1978 33.9673 29.8871 33.9673 29.5639C33.9673 29.1378 33.8643 28.7383 33.6584 28.3654C33.456 27.9925 33.1754 27.6907 32.8168 27.4599C32.4616 27.229 32.0568 27.1136 31.6023 27.1136ZM38.2771 35.6044C38.0143 35.6044 37.7888 35.5103 37.6006 35.3221C37.4124 35.1339 37.3183 34.9084 37.3183 34.6456C37.3183 34.3828 37.4124 34.1573 37.6006 33.9691C37.7888 33.7809 38.0143 33.6868 38.2771 33.6868C38.5399 33.6868 38.7654 33.7809 38.9536 33.9691C39.1418 34.1573 39.2359 34.3828 39.2359 34.6456C39.2359 34.8196 39.1915 34.9794 39.1028 35.125C39.0175 35.2706 38.9021 35.3878 38.7565 35.4766C38.6145 35.5618 38.4547 35.6044 38.2771 35.6044ZM38.2771 30.0859C38.0143 30.0859 37.7888 29.9918 37.6006 29.8036C37.4124 29.6154 37.3183 29.3899 37.3183 29.1271C37.3183 28.8643 37.4124 28.6388 37.6006 28.4506C37.7888 28.2624 38.0143 28.1683 38.2771 28.1683C38.5399 28.1683 38.7654 28.2624 38.9536 28.4506C39.1418 28.6388 39.2359 28.8643 39.2359 29.1271C39.2359 29.3011 39.1915 29.4609 39.1028 29.6065C39.0175 29.7521 38.9021 29.8693 38.7565 29.9581C38.6145 30.0433 38.4547 30.0859 38.2771 30.0859ZM45.0066 37.1491C44.3034 37.1491 43.6767 37.0284 43.1262 36.7869C42.5794 36.5455 42.1443 36.2099 41.8212 35.7802C41.5016 35.3469 41.3276 34.8445 41.2992 34.2727H42.6415C42.6699 34.6243 42.7906 34.9279 43.0037 35.1836C43.2168 35.4357 43.4955 35.631 43.84 35.7695C44.1845 35.908 44.5662 35.9773 44.9852 35.9773C45.454 35.9773 45.8695 35.8956 46.2317 35.7322C46.5939 35.5689 46.878 35.3416 47.084 35.0504C47.2899 34.7592 47.3929 34.4219 47.3929 34.0384C47.3929 33.6371 47.2935 33.2837 47.0946 32.9783C46.8958 32.6694 46.6046 32.4279 46.221 32.2539C45.8375 32.0799 45.3688 31.9929 44.8148 31.9929H43.9412V30.821H44.8148C45.248 30.821 45.628 30.7429 45.9547 30.5866C46.285 30.4304 46.5424 30.2102 46.7271 29.9261C46.9153 29.642 47.0094 29.3082 47.0094 28.9247C47.0094 28.5554 46.9277 28.234 46.7644 27.9606C46.601 27.6871 46.3702 27.4741 46.0719 27.3214C45.7771 27.1687 45.4291 27.0923 45.0279 27.0923C44.6514 27.0923 44.2963 27.1616 43.9625 27.3001C43.6323 27.435 43.3624 27.6321 43.1529 27.8913C42.9433 28.147 42.8297 28.456 42.8119 28.8182H41.5335C41.5548 28.2464 41.7271 27.7457 42.0502 27.3161C42.3734 26.8828 42.796 26.5455 43.318 26.304C43.8436 26.0625 44.4206 25.9418 45.0492 25.9418C45.7239 25.9418 46.3027 26.0785 46.7857 26.3519C47.2686 26.6218 47.6397 26.9787 47.899 27.4226C48.1582 27.8665 48.2878 28.3459 48.2878 28.8608C48.2878 29.4751 48.1262 29.9989 47.8031 30.4322C47.4835 30.8654 47.0485 31.1655 46.498 31.3324V31.4176C47.1869 31.5312 47.7249 31.8242 48.112 32.2965C48.4991 32.7653 48.6926 33.3459 48.6926 34.0384C48.6926 34.6314 48.5311 35.1641 48.2079 35.6364C47.8883 36.1051 47.4515 36.4744 46.8975 36.7443C46.3436 37.0142 45.7132 37.1491 45.0066 37.1491ZM55.9201 27.2202L56.6019 27.7741L52.5963 35.892L51.957 35.2741L55.9201 27.2202ZM54.2795 37.1491C53.4769 37.1491 52.7933 36.9308 52.2287 36.494C51.6641 36.0536 51.2326 35.4162 50.9343 34.5817C50.636 33.7436 50.4869 32.7315 50.4869 31.5455C50.4869 30.3665 50.636 29.3597 50.9343 28.5252C51.2362 27.6871 51.6694 27.0479 52.234 26.6076C52.8022 26.1637 53.484 25.9418 54.2795 25.9418C55.0749 25.9418 55.755 26.1637 56.3196 26.6076C56.8878 27.0479 57.321 27.6871 57.6193 28.5252C57.9212 29.3597 58.0721 30.3665 58.0721 31.5455C58.0721 32.7315 57.923 33.7436 57.6247 34.5817C57.3264 35.4162 56.8949 36.0536 56.3303 36.494C55.7656 36.9308 55.082 37.1491 54.2795 37.1491ZM54.2795 35.9773C55.0749 35.9773 55.6928 35.5937 56.1332 34.8267C56.5735 34.0597 56.7937 32.9659 56.7937 31.5455C56.7937 30.6009 56.6925 29.7965 56.4901 29.1325C56.2912 28.4684 56.0036 27.9624 55.6271 27.6143C55.2543 27.2663 54.8051 27.0923 54.2795 27.0923C53.4911 27.0923 52.875 27.4812 52.4311 28.2589C51.9872 29.033 51.7653 30.1286 51.7653 31.5455C51.7653 32.4901 51.8647 33.2926 52.0636 33.9531C52.2624 34.6136 52.5483 35.1161 52.9212 35.4606C53.2976 35.805 53.7504 35.9773 54.2795 35.9773Z" fill="white"/>
<rect x="325" y="24" width="13" height="13" rx="2" fill="white"/>
<path d="M312.104 23.8054C312.472 23.0647 313.528 23.0647 313.896 23.8054L315.503 27.0453C315.6 27.241 315.759 27.3995 315.955 27.4966L319.195 29.1042C319.935 29.4717 319.935 30.5283 319.195 30.8958L315.955 32.5034C315.759 32.6005 315.6 32.759 315.503 32.9547L313.896 36.1946C313.528 36.9353 312.472 36.9353 312.104 36.1946L310.497 32.9547C310.4 32.759 310.241 32.6005 310.045 32.5034L306.805 30.8958C306.065 30.5283 306.065 29.4717 306.805 29.1042L310.045 27.4966C310.241 27.3995 310.4 27.241 310.497 27.0453L312.104 23.8054Z" fill="white"/>
<path d="M295.134 24.5C295.519 23.8333 296.481 23.8333 296.866 24.5L302.928 35C303.313 35.6667 302.832 36.5 302.062 36.5H289.938C289.168 36.5 288.687 35.6667 289.072 35L295.134 24.5Z" fill="white"/>
<path fill-rule="evenodd" clip-rule="evenodd" d="M182 19C175.373 19 170 24.3731 170 31C170 37.6269 175.373 43 182 43C188.627 43 194 37.6269 194 31C194 24.3731 188.627 19 182 19Z" fill="#484848"/>
<path d="M129 852C129 850.895 129.895 850 131 850H235C236.105 850 237 850.895 237 852C237 853.105 236.105 854 235 854H131C129.895 854 129 853.105 129 852Z" fill="#1D1B20"/>
<rect x="22" y="62" width="157" height="50" rx="20" fill="white" fill-opacity="0.2"/>
<rect x="187" y="62" width="157" height="50" rx="20" fill="white" fill-opacity="0.2"/>
<rect x="22" y="120" width="157" height="50" rx="20" fill="white" fill-opacity="0.2"/>
<g clip-path="url(#paint0_diamond_247_893_clip_path)" data-figma-skip-parse="true"><g transform="matrix(-0.274 0.2315 -0.269082 -0.318482 296 419)"><rect x="0" y="0" width="521.76" height="850.719" fill="url(#paint0_diamond_247_893)" opacity="1" shape-rendering="crispEdges"/><rect x="0" y="0" width="521.76" height="850.719" transform="scale(1 -1)" fill="url(#paint0_diamond_247_893)" opacity="1" shape-rendering="crispEdges"/><rect x="0" y="0" width="521.76" height="850.719" transform="scale(-1 1)" fill="url(#paint0_diamond_247_893)" opacity="1" shape-rendering="crispEdges"/><rect x="0" y="0" width="521.76" height="850.719" transform="scale(-1)" fill="url(#paint0_diamond_247_893)" opacity="1" shape-rendering="crispEdges"/></g></g><rect x="22" y="188" width="322" height="158" rx="20" data-figma-gradient-fill="{&#34;type&#34;:&#34;GRADIENT_DIAMOND&#34;,&#34;stops&#34;:[{&#34;color&#34;:{&#34;r&#34;:1.0,&#34;g&#34;:0.82692307233810425,&#34;b&#34;:0.82692307233810425,&#34;a&#34;:1.0},&#34;position&#34;:0.0},{&#34;color&#34;:{&#34;r&#34;:0.77163463830947876,&#34;g&#34;:0.90865391492843628,&#34;b&#34;:1.0,&#34;a&#34;:1.0},&#34;position&#34;:1.0}],&#34;stopsVar&#34;:[{&#34;color&#34;:{&#34;r&#34;:1.0,&#34;g&#34;:0.82692307233810425,&#34;b&#34;:0.82692307233810425,&#34;a&#34;:1.0},&#34;position&#34;:0.0},{&#34;color&#34;:{&#34;r&#34;:0.77163463830947876,&#34;g&#34;:0.90865391492843628,&#34;b&#34;:1.0,&#34;a&#34;:1.0},&#34;position&#34;:1.0}],&#34;transform&#34;:{&#34;m00&#34;:-548.00006103515625,&#34;m01&#34;:-538.16394042968750,&#34;m02&#34;:839.08197021484375,&#34;m10&#34;:462.99993896484375,&#34;m11&#34;:-636.96307373046875,&#34;m12&#34;:505.98162841796875},&#34;opacity&#34;:1.0,&#34;blendMode&#34;:&#34;NORMAL&#34;,&#34;visible&#34;:true}"/>
<rect x="22" y="188" width="322" height="158" rx="20" fill="black" fill-opacity="0.3"/>
<path d="M52 314.806L52.5261 315.475L53.0522 316.158L53.5783 316.845L54.1044 317.529L54.6305 318.201L55.1566 318.853L55.6827 319.477L56.2088 320.066L56.7349 320.612L57.261 321.109L57.7871 321.552L58.3133 321.934L58.8394 322.25L59.3655 322.498L59.8916 322.674L60.4177 322.777L60.9438 322.804L61.4699 322.755L61.996 322.632L62.5221 322.435L63.0482 322.167L63.5743 321.831L64.1004 321.431L64.6265 320.973L65.1526 320.461L65.6787 319.901L66.2048 319.302L66.7309 318.669L67.257 318.01L67.7831 317.334L68.8353 315.962L69.3614 315.282L69.8875 314.618L70.4136 313.977L70.9397 313.367L71.4659 312.795L71.992 312.269L72.5181 311.795L73.0442 311.378L73.5703 311.023L74.0964 310.736L74.6225 310.518L75.1486 310.373L75.6747 310.303L76.2008 310.309L76.7269 310.39L77.253 310.545L77.7791 310.772L78.3052 311.07L78.8313 311.434L79.3574 311.859L79.8835 312.341L80.4096 312.874L80.9357 313.452L81.4618 314.067L81.9879 314.711L82.514 315.379L83.0401 316.06L83.5662 316.747L84.0923 317.432L84.6185 318.106L85.1446 318.761L85.6707 319.39L86.1968 319.984L86.7229 320.537L87.249 321.042L87.7751 321.492L88.3012 321.883L88.8273 322.209L89.3534 322.467L89.8795 322.654L90.4056 322.767L90.9317 322.804L91.4578 322.767L91.9839 322.654L92.51 322.467L93.0361 322.209L93.5622 321.883L94.0883 321.492L94.6144 321.042L95.1405 320.537L95.6666 319.984L96.1927 319.39L96.7188 318.761L97.245 318.106L97.7711 317.432L98.2972 316.747L98.8233 316.06L99.3494 315.379L99.8755 314.711L100.402 314.067L100.928 313.452L101.454 312.874L101.98 312.341L102.506 311.859L103.032 311.434L103.558 311.07L104.084 310.772L104.61 310.545L105.137 310.39L105.663 310.309L106.189 310.303L106.715 310.373L107.241 310.518L107.767 310.736L108.293 311.023L108.819 311.378L109.345 311.795L109.871 312.269L110.398 312.795L110.924 313.367L111.45 313.977L111.976 314.618L112.502 315.282L113.028 315.962L114.08 317.334L114.606 318.01L115.132 318.669L115.659 319.302L116.185 319.901L116.711 320.461L117.237 320.973L117.763 321.431L118.289 321.831L118.815 322.167L119.341 322.435L119.867 322.632L120.394 322.755L120.92 322.804L121.446 322.777L121.972 322.674L122.498 322.498L123.024 322.25L123.55 321.934L124.076 321.552L124.602 321.109L125.128 320.612L125.655 320.066L126.181 319.477L126.707 318.853L127.233 318.201L127.759 317.529L128.285 316.845L128.811 316.158L129.337 315.475L129.863 314.806L130.39 314.157L130.916 313.538L131.442 312.954L131.968 312.415L132.494 311.925L133.02 311.491L133.546 311.118L134.072 310.811L134.598 310.573L135.124 310.407L135.651 310.316L136.177 310.299L136.703 310.359L137.229 310.493L137.755 310.7L138.281 310.978L138.807 311.323L139.333 311.732L139.859 312.198L140.385 312.717L140.912 313.283L141.438 313.888L141.964 314.525L142.49 315.186L143.016 315.864L144.068 317.237L144.594 317.915L145.12 318.576L145.647 319.213L146.173 319.818L146.699 320.384L147.225 320.903L147.751 321.369L148.277 321.778L148.803 322.123L149.329 322.401L149.855 322.608L150.381 322.742L150.908 322.801L151.434 322.785L151.96 322.694L152.486 322.528L153.012 322.29L153.538 321.983L154.064 321.61L154.59 321.176L155.116 320.686L155.643 320.147L156.169 319.563L156.695 318.944L157.221 318.295L157.747 317.626L158.273 316.943L158.799 316.256L159.325 315.572L159.851 314.9L160.377 314.248L160.904 313.624L161.43 313.035L161.956 312.489L162.482 311.991L163.008 311.549L163.534 311.167L164.06 310.85L164.586 310.602L165.112 310.426L165.638 310.324L166.165 310.297L166.691 310.346L167.217 310.469L167.743 310.666L168.269 310.934L168.795 311.27L169.321 311.67L169.847 312.128L170.373 312.64L170.9 313.199L171.426 313.799L171.952 314.432L172.478 315.09L173.004 315.767L174.056 317.139L174.582 317.819L175.108 318.483L175.634 319.124L176.161 319.734L176.687 320.305L177.213 320.832L177.739 321.306L178.265 321.723L178.791 322.077L179.317 322.365L179.843 322.583L180.369 322.727L180.895 322.797L181.422 322.792L181.948 322.711L182.474 322.556L183 322.328L183.526 322.031L184.052 321.667L184.578 321.242L185.104 320.759L185.63 320.226L186.157 319.649L186.683 319.034L187.209 318.389L187.735 317.722L188.261 317.041L188.787 316.354L189.313 315.669L189.839 314.995L190.365 314.34L190.891 313.711L191.418 313.117L191.944 312.564L192.47 312.059L192.996 311.609L193.522 311.218L194.048 310.892L194.574 310.634L195.1 310.447L195.626 310.334L196.152 310.296L196.679 310.334L197.205 310.447L197.731 310.634L198.257 310.892L198.783 311.218L199.309 311.609L199.835 312.059L200.361 312.564L200.887 313.117L201.414 313.711L201.94 314.34L202.466 314.995L202.992 315.669L203.518 316.354L204.044 317.041L204.57 317.722L205.096 318.389L205.622 319.034L206.148 319.649L206.675 320.226L207.201 320.759L207.727 321.242L208.253 321.667L208.779 322.031L209.305 322.328L209.831 322.556L210.357 322.711L210.883 322.792L211.41 322.797L211.936 322.727L212.462 322.583L212.988 322.365L213.514 322.077L214.04 321.723L214.566 321.306L215.092 320.832L215.618 320.305L216.144 319.734L216.671 319.124L217.197 318.483L217.723 317.819L218.249 317.139L219.301 315.767L219.827 315.09L220.353 314.432" stroke="white" stroke-width="3" stroke-miterlimit="10" stroke-linecap="round" stroke-linejoin="round"/>
<rect x="218.775" y="303" width="4.20883" height="27.6219" rx="2.10442" fill="white"/>
<path d="M313.976 318.686C314.805 318.699 315.487 318.039 315.5 317.21C315.513 316.382 314.852 315.7 314.024 315.687L313.976 318.686ZM222.984 317.187L222.988 318.687C297.91 318.478 308.469 318.6 313.976 318.686L314 317.187L314.024 315.687C308.483 315.6 297.893 315.478 222.98 315.687L222.984 317.187Z" fill="white"/>
<rect x="274" y="242" width="40" height="40" rx="10" fill="white"/>
<rect x="187" y="120" width="157" height="50" rx="20" fill="white" fill-opacity="0.2"/>
<path d="M295.167 269.583V254.417H302.167V269.583H295.167ZM285.833 269.583V254.417H292.833V269.583H285.833ZM297.5 267.417H299.833V256.583H297.5V267.417ZM288.167 267.417H290.5V256.583H288.167V267.417Z" fill="black"/>
<rect x="390.5" y="1.5" width="362" height="867" rx="11.5" fill="white" stroke="black" stroke-width="3"/>
<g clip-path="url(#clip0_247_893)">
<rect x="392" y="3" width="359" height="864" rx="10" fill="#F5FAFF"/>
<path d="M403.633 301.597C423.227 270.335 468.773 270.335 488.367 301.597L573.823 437.947C594.694 471.247 570.757 514.5 531.457 514.5H360.543C321.243 514.5 297.306 471.247 318.177 437.947L403.633 301.597Z" fill="#E9F2E9"/>
<rect x="526" y="-28" width="309" height="274" rx="50" fill="#E9F2E9"/>
<circle cx="416" cy="100" r="50" fill="#E9F2E9"/>
<rect x="392" y="3" width="359" height="864" rx="10" fill="black" fill-opacity="0.15"/>
<g filter="url(#filter0_d_247_893)">
<path d="M392 439C392 430.716 398.716 424 407 424H736C744.284 424 751 430.716 751 439V857C751 862.523 746.523 867 741 867H402C396.477 867 392 862.523 392 857V439Z" fill="#F2F2F3"/>
<rect x="551" y="444" width="41" height="6" rx="3" fill="#C9C9C9"/>
<rect x="417" y="670" width="91" height="56" rx="20" fill="black" fill-opacity="0.05"/>
<rect x="528" y="670" width="91" height="56" rx="20" fill="black" fill-opacity="0.05"/>
<rect x="639" y="670" width="91" height="56" rx="20" fill="black" fill-opacity="0.05"/>
<rect x="417" y="747" width="91" height="56" rx="20" fill="black" fill-opacity="0.05"/>
<rect x="528" y="747" width="91" height="56" rx="20" fill="black" fill-opacity="0.05"/>
<rect x="639" y="747" width="91" height="56" rx="20" fill="black" fill-opacity="0.05"/>
<rect x="506" y="506" width="4.08032" height="28.645" rx="2.04016" fill="black"/>
<path d="M725.292 522.212C726.12 522.226 726.803 521.566 726.817 520.737C726.831 519.909 726.171 519.226 725.343 519.212L725.292 522.212ZM508.5 521L508.504 522.5C581.147 522.284 719.956 522.122 725.292 522.212L725.317 520.712L725.343 519.212C719.968 519.122 581.112 519.284 508.496 519.5L508.5 521Z" fill="black" fill-opacity="0.2"/>
<path d="M423 521C495.503 521 503.154 521 508.5 521" stroke="black" stroke-width="3" stroke-linecap="round"/>
<rect x="550" y="519.7" width="2" height="2" rx="1" fill="black"/>
<rect x="595" y="519.7" width="2" height="2" rx="1" fill="black"/>
<rect x="640" y="519.7" width="2" height="2" rx="1" fill="black"/>
<rect x="685" y="519.7" width="2" height="2" rx="1" fill="black"/>
<path d="M425 610.243L425.51 610.937L426.02 611.645L426.53 612.358L427.04 613.067L427.55 613.764L428.06 614.44L428.57 615.087L429.08 615.698L429.59 616.264L430.1 616.78L430.61 617.239L431.12 617.635L431.631 617.963L432.141 618.22L432.651 618.403L433.161 618.509L433.671 618.537L434.181 618.487L434.691 618.359L435.201 618.154L435.711 617.877L436.221 617.528L436.731 617.114L437.241 616.638L437.751 616.107L438.261 615.527L438.771 614.906L439.281 614.249L439.791 613.566L440.301 612.865L441.321 611.442L441.831 610.737L442.341 610.048L442.851 609.383L443.361 608.751L443.871 608.158L444.382 607.613L444.892 607.121L445.402 606.688L445.912 606.32L446.422 606.022L446.932 605.796L447.442 605.646L447.952 605.574L448.462 605.579L448.972 605.663L449.482 605.824L449.992 606.06L450.502 606.369L451.012 606.746L451.522 607.187L452.032 607.687L452.542 608.24L453.052 608.839L453.562 609.476L454.072 610.145L454.582 610.837L455.092 611.543L455.602 612.256L456.112 612.966L456.622 613.665L457.133 614.345L457.643 614.997L458.153 615.613L458.663 616.186L459.173 616.71L459.683 617.177L460.193 617.582L460.703 617.921L461.213 618.188L461.723 618.382L462.233 618.499L462.743 618.538L463.253 618.499L463.763 618.382L464.273 618.188L464.783 617.921L465.293 617.582L465.803 617.177L466.313 616.71L466.823 616.186L467.333 615.613L467.843 614.997L468.353 614.345L468.863 613.665L469.373 612.966L469.884 612.256L470.394 611.543L470.904 610.837L471.414 610.145L471.924 609.476L472.434 608.839L472.944 608.24L473.454 607.687L473.964 607.187L474.474 606.746L474.984 606.369L475.494 606.06L476.004 605.824L476.514 605.663L477.024 605.579L477.534 605.574L478.044 605.646L478.554 605.796L479.064 606.022L479.574 606.32L480.084 606.688L480.594 607.121L481.104 607.613L481.614 608.158L482.125 608.751L482.635 609.383L483.145 610.048L483.655 610.737L484.165 611.442L485.185 612.865L485.695 613.566L486.205 614.249L486.715 614.906L487.225 615.527L487.735 616.107L488.245 616.638L488.755 617.114L489.265 617.528L489.775 617.877L490.285 618.154L490.795 618.359L491.305 618.487L491.815 618.537L492.325 618.509L492.835 618.403L493.345 618.22L493.855 617.963L494.365 617.635L494.876 617.239L495.386 616.78L495.896 616.264L496.406 615.698L496.916 615.087L497.426 614.44L497.936 613.764L498.446 613.067L498.956 612.358L499.466 611.645L499.976 610.937L500.486 610.243L500.996 609.57L501.506 608.928L502.016 608.323L502.526 607.763L503.036 607.255L503.546 606.805L504.056 606.419L504.566 606.1L505.076 605.853L505.586 605.681L506.096 605.587L506.606 605.57L507.116 605.631L507.627 605.77L508.137 605.985L508.647 606.273L509.157 606.631L509.667 607.055L510.177 607.539L510.687 608.077L511.197 608.663L511.707 609.291L512.217 609.951L512.727 610.637L513.237 611.341L514.257 612.764L514.767 613.467L515.277 614.153L515.787 614.814L516.297 615.441L516.807 616.027L517.317 616.566L517.827 617.05L518.337 617.473L518.847 617.831L519.357 618.119L519.867 618.334L520.378 618.473L520.888 618.535L521.398 618.518L521.908 618.423L522.418 618.251L522.928 618.004L523.438 617.686L523.948 617.299L524.458 616.849L524.968 616.341L525.478 615.782L525.988 615.177L526.498 614.534L527.008 613.862L527.518 613.167L528.028 612.459L528.538 611.747L529.048 611.038L529.558 610.341L530.068 609.665L530.578 609.017L531.088 608.407L531.598 607.84L532.108 607.324L532.618 606.866L533.129 606.47L533.639 606.141L534.149 605.884L534.659 605.701L535.169 605.595L535.679 605.567L536.189 605.618L536.699 605.746L537.209 605.95L537.719 606.228L538.229 606.576L538.739 606.991L539.249 607.466L539.759 607.997L540.269 608.577L540.779 609.199L541.289 609.855L541.799 610.538L542.309 611.239L543.329 612.663L543.839 613.367L544.349 614.056L544.859 614.721L545.369 615.354L545.88 615.946L546.39 616.492L546.9 616.984L547.41 617.416L547.92 617.784L548.43 618.082L548.94 618.308L549.45 618.458L549.96 618.531L550.47 618.525L550.98 618.441L551.49 618.28L552 618.044L552.51 617.736L553.02 617.358L553.53 616.917L554.04 616.417L554.55 615.864L555.06 615.266L555.57 614.628L556.08 613.959L556.59 613.268L557.1 612.561L557.61 611.849L558.12 611.138L558.631 610.439L559.141 609.76L559.651 609.108L560.161 608.491L560.671 607.918L561.181 607.395L561.691 606.928L562.201 606.522L562.711 606.184L563.221 605.916L563.731 605.723L564.241 605.606L564.751 605.567L565.261 605.606L565.771 605.723L566.281 605.916L566.791 606.184L567.301 606.522L567.811 606.928L568.321 607.395L568.831 607.918L569.341 608.491L569.851 609.108L570.361 609.76L570.871 610.439L571.382 611.138L571.892 611.849L572.402 612.561L572.912 613.268L573.422 613.959L573.932 614.628L574.442 615.266L574.952 615.864L575.462 616.417L575.972 616.917L576.482 617.358L576.992 617.736L577.502 618.044L578.012 618.28L578.522 618.441L579.032 618.525L579.542 618.531L580.052 618.458L580.562 618.308L581.072 618.082L581.582 617.784L582.092 617.416L582.602 616.984L583.112 616.492L583.622 615.946L584.133 615.354L584.643 614.721L585.153 614.056L585.663 613.367L586.173 612.663L587.193 611.239L587.703 610.538L588.213 609.855" stroke="black" stroke-width="3" stroke-miterlimit="10" stroke-linecap="round" stroke-linejoin="round"/>
<rect x="586.683" y="598" width="4.08032" height="28.645" rx="2.04016" fill="black"/>
<path d="M725.975 614.212C726.803 614.226 727.486 613.566 727.5 612.737C727.514 611.909 726.854 611.226 726.025 611.212L725.975 614.212ZM590.763 612.712L590.768 614.212C663.404 613.996 720.638 614.122 725.975 614.212L726 612.712L726.025 611.212C720.651 611.122 663.382 610.996 590.759 611.212L590.763 612.712Z" fill="black" fill-opacity="0.2"/>
<path d="M702.891 495.125V493.781C702.339 493.656 701.862 493.417 701.461 493.062C701.06 492.708 700.766 492.208 700.578 491.562L701.734 491.094C701.891 491.594 702.122 491.974 702.43 492.234C702.737 492.495 703.141 492.625 703.641 492.625C704.068 492.625 704.43 492.529 704.727 492.336C705.023 492.143 705.172 491.844 705.172 491.438C705.172 491.073 705.057 490.784 704.828 490.57C704.599 490.357 704.068 490.115 703.234 489.844C702.339 489.562 701.724 489.227 701.391 488.836C701.057 488.445 700.891 487.969 700.891 487.406C700.891 486.729 701.109 486.203 701.547 485.828C701.984 485.453 702.432 485.24 702.891 485.188V483.875H704.141V485.188C704.661 485.271 705.091 485.461 705.43 485.758C705.768 486.055 706.016 486.417 706.172 486.844L705.016 487.344C704.891 487.01 704.714 486.76 704.484 486.594C704.255 486.427 703.943 486.344 703.547 486.344C703.089 486.344 702.74 486.445 702.5 486.648C702.26 486.852 702.141 487.104 702.141 487.406C702.141 487.75 702.297 488.021 702.609 488.219C702.922 488.417 703.464 488.625 704.234 488.844C704.953 489.052 705.497 489.383 705.867 489.836C706.237 490.289 706.422 490.812 706.422 491.406C706.422 492.146 706.203 492.708 705.766 493.094C705.328 493.479 704.786 493.719 704.141 493.812V495.125H702.891Z" fill="black" fill-opacity="0.5"/>
<path d="M710.891 495.125V493.781C710.339 493.656 709.862 493.417 709.461 493.062C709.06 492.708 708.766 492.208 708.578 491.562L709.734 491.094C709.891 491.594 710.122 491.974 710.43 492.234C710.737 492.495 711.141 492.625 711.641 492.625C712.068 492.625 712.43 492.529 712.727 492.336C713.023 492.143 713.172 491.844 713.172 491.438C713.172 491.073 713.057 490.784 712.828 490.57C712.599 490.357 712.068 490.115 711.234 489.844C710.339 489.562 709.724 489.227 709.391 488.836C709.057 488.445 708.891 487.969 708.891 487.406C708.891 486.729 709.109 486.203 709.547 485.828C709.984 485.453 710.432 485.24 710.891 485.188V483.875H712.141V485.188C712.661 485.271 713.091 485.461 713.43 485.758C713.768 486.055 714.016 486.417 714.172 486.844L713.016 487.344C712.891 487.01 712.714 486.76 712.484 486.594C712.255 486.427 711.943 486.344 711.547 486.344C711.089 486.344 710.74 486.445 710.5 486.648C710.26 486.852 710.141 487.104 710.141 487.406C710.141 487.75 710.297 488.021 710.609 488.219C710.922 488.417 711.464 488.625 712.234 488.844C712.953 489.052 713.497 489.383 713.867 489.836C714.237 490.289 714.422 490.812 714.422 491.406C714.422 492.146 714.203 492.708 713.766 493.094C713.328 493.479 712.786 493.719 712.141 493.812V495.125H710.891Z" fill="black" fill-opacity="0.5"/>
<path d="M718.891 495.125V493.781C718.339 493.656 717.862 493.417 717.461 493.062C717.06 492.708 716.766 492.208 716.578 491.562L717.734 491.094C717.891 491.594 718.122 491.974 718.43 492.234C718.737 492.495 719.141 492.625 719.641 492.625C720.068 492.625 720.43 492.529 720.727 492.336C721.023 492.143 721.172 491.844 721.172 491.438C721.172 491.073 721.057 490.784 720.828 490.57C720.599 490.357 720.068 490.115 719.234 489.844C718.339 489.562 717.724 489.227 717.391 488.836C717.057 488.445 716.891 487.969 716.891 487.406C716.891 486.729 717.109 486.203 717.547 485.828C717.984 485.453 718.432 485.24 718.891 485.188V483.875H720.141V485.188C720.661 485.271 721.091 485.461 721.43 485.758C721.768 486.055 722.016 486.417 722.172 486.844L721.016 487.344C720.891 487.01 720.714 486.76 720.484 486.594C720.255 486.427 719.943 486.344 719.547 486.344C719.089 486.344 718.74 486.445 718.5 486.648C718.26 486.852 718.141 487.104 718.141 487.406C718.141 487.75 718.297 488.021 718.609 488.219C718.922 488.417 719.464 488.625 720.234 488.844C720.953 489.052 721.497 489.383 721.867 489.836C722.237 490.289 722.422 490.812 722.422 491.406C722.422 492.146 722.203 492.708 721.766 493.094C721.328 493.479 720.786 493.719 720.141 493.812V495.125H718.891Z" fill="black" fill-opacity="0.5"/>
<path d="M423.891 495.125V493.781C423.339 493.656 422.862 493.417 422.461 493.062C422.06 492.708 421.766 492.208 421.578 491.562L422.734 491.094C422.891 491.594 423.122 491.974 423.43 492.234C423.737 492.495 424.141 492.625 424.641 492.625C425.068 492.625 425.43 492.529 425.727 492.336C426.023 492.143 426.172 491.844 426.172 491.438C426.172 491.073 426.057 490.784 425.828 490.57C425.599 490.357 425.068 490.115 424.234 489.844C423.339 489.562 422.724 489.227 422.391 488.836C422.057 488.445 421.891 487.969 421.891 487.406C421.891 486.729 422.109 486.203 422.547 485.828C422.984 485.453 423.432 485.24 423.891 485.188V483.875H425.141V485.188C425.661 485.271 426.091 485.461 426.43 485.758C426.768 486.055 427.016 486.417 427.172 486.844L426.016 487.344C425.891 487.01 425.714 486.76 425.484 486.594C425.255 486.427 424.943 486.344 424.547 486.344C424.089 486.344 423.74 486.445 423.5 486.648C423.26 486.852 423.141 487.104 423.141 487.406C423.141 487.75 423.297 488.021 423.609 488.219C423.922 488.417 424.464 488.625 425.234 488.844C425.953 489.052 426.497 489.383 426.867 489.836C427.237 490.289 427.422 490.812 427.422 491.406C427.422 492.146 427.203 492.708 426.766 493.094C426.328 493.479 425.786 493.719 425.141 493.812V495.125H423.891Z" fill="black" fill-opacity="0.5"/>
<path d="M666.531 582.516L668.5 581.328L670.469 582.531L669.953 580.281L671.688 578.781L669.406 578.578L668.5 576.453L667.594 578.562L665.312 578.766L667.047 580.281L666.531 582.516ZM664.641 585.125L665.656 580.734L662.25 577.781L666.75 577.391L668.5 573.25L670.25 577.391L674.75 577.781L671.344 580.734L672.359 585.125L668.5 582.797L664.641 585.125Z" fill="black" fill-opacity="0.5"/>
<path d="M679.531 582.516L681.5 581.328L683.469 582.531L682.953 580.281L684.688 578.781L682.406 578.578L681.5 576.453L680.594 578.562L678.312 578.766L680.047 580.281L679.531 582.516ZM677.641 585.125L678.656 580.734L675.25 577.781L679.75 577.391L681.5 573.25L683.25 577.391L687.75 577.781L684.344 580.734L685.359 585.125L681.5 582.797L677.641 585.125Z" fill="black" fill-opacity="0.5"/>
<path d="M692.531 582.516L694.5 581.328L696.469 582.531L695.953 580.281L697.688 578.781L695.406 578.578L694.5 576.453L693.594 578.562L691.312 578.766L693.047 580.281L692.531 582.516ZM690.641 585.125L691.656 580.734L688.25 577.781L692.75 577.391L694.5 573.25L696.25 577.391L700.75 577.781L697.344 580.734L698.359 585.125L694.5 582.797L690.641 585.125Z" fill="black" fill-opacity="0.5"/>
<path d="M705.531 582.516L707.5 581.328L709.469 582.531L708.953 580.281L710.688 578.781L708.406 578.578L707.5 576.453L706.594 578.562L704.312 578.766L706.047 580.281L705.531 582.516ZM703.641 585.125L704.656 580.734L701.25 577.781L705.75 577.391L707.5 573.25L709.25 577.391L713.75 577.781L710.344 580.734L711.359 585.125L707.5 582.797L703.641 585.125Z" fill="black" fill-opacity="0.5"/>
<path d="M718.531 582.516L720.5 581.328L722.469 582.531L721.953 580.281L723.688 578.781L721.406 578.578L720.5 576.453L719.594 578.562L717.312 578.766L719.047 580.281L718.531 582.516ZM716.641 585.125L717.656 580.734L714.25 577.781L718.75 577.391L720.5 573.25L722.25 577.391L726.75 577.781L723.344 580.734L724.359 585.125L720.5 582.797L716.641 585.125Z" fill="black" fill-opacity="0.5"/>
<path d="M426.531 582.516L428.5 581.328L430.469 582.531L429.953 580.281L431.688 578.781L429.406 578.578L428.5 576.453L427.594 578.562L425.312 578.766L427.047 580.281L426.531 582.516ZM424.641 585.125L425.656 580.734L422.25 577.781L426.75 577.391L428.5 573.25L430.25 577.391L434.75 577.781L431.344 580.734L432.359 585.125L428.5 582.797L424.641 585.125Z" fill="black" fill-opacity="0.5"/>
</g>
<g filter="url(#filter1_d_247_893)">
<rect x="413" y="73" width="317" height="50" rx="20" fill="#F2F2F3"/>
<path d="M446.6 107L440.3 100.7C439.8 101.1 439.225 101.417 438.575 101.65C437.925 101.883 437.233 102 436.5 102C434.683 102 433.146 101.371 431.888 100.113C430.629 98.8542 430 97.3167 430 95.5C430 93.6833 430.629 92.1458 431.888 90.8875C433.146 89.6292 434.683 89 436.5 89C438.317 89 439.854 89.6292 441.113 90.8875C442.371 92.1458 443 93.6833 443 95.5C443 96.2333 442.883 96.925 442.65 97.575C442.417 98.225 442.1 98.8 441.7 99.3L448 105.6L446.6 107ZM436.5 100C437.75 100 438.813 99.5625 439.688 98.6875C440.563 97.8125 441 96.75 441 95.5C441 94.25 440.563 93.1875 439.688 92.3125C438.813 91.4375 437.75 91 436.5 91C435.25 91 434.188 91.4375 433.313 92.3125C432.438 93.1875 432 94.25 432 95.5C432 96.75 432.438 97.8125 433.313 98.6875C434.188 99.5625 435.25 100 436.5 100Z" fill="black" fill-opacity="0.3"/>
</g>
</g>
<path d="M420.602 25.9418C421.05 25.9453 421.497 26.0305 421.945 26.1974C422.392 26.3643 422.8 26.6413 423.17 27.0284C423.539 27.4119 423.836 27.9357 424.059 28.5998C424.283 29.2638 424.395 30.0966 424.395 31.098C424.395 32.0675 424.303 32.9286 424.118 33.6815C423.937 34.4308 423.674 35.0629 423.33 35.5778C422.989 36.0927 422.573 36.4833 422.083 36.7496C421.597 37.016 421.046 37.1491 420.432 37.1491C419.821 37.1491 419.276 37.0284 418.797 36.7869C418.321 36.5419 417.93 36.2028 417.625 35.7695C417.323 35.3327 417.129 34.8267 417.044 34.2514H418.344C418.461 34.7521 418.694 35.1658 419.042 35.4925C419.393 35.8157 419.857 35.9773 420.432 35.9773C421.273 35.9773 421.938 35.6097 422.424 34.8746C422.914 34.1396 423.159 33.1009 423.159 31.7585H423.074C422.875 32.0568 422.639 32.3143 422.365 32.5309C422.092 32.7475 421.788 32.9144 421.455 33.0316C421.121 33.1488 420.766 33.2074 420.389 33.2074C419.764 33.2074 419.191 33.0529 418.669 32.744C418.15 32.4315 417.735 32.0036 417.422 31.4602C417.113 30.9134 416.959 30.2884 416.959 29.5852C416.959 28.9176 417.108 28.3068 417.406 27.7528C417.708 27.1953 418.131 26.7514 418.674 26.4212C419.221 26.0909 419.864 25.9311 420.602 25.9418ZM420.602 27.1136C420.155 27.1136 419.752 27.2255 419.393 27.4492C419.038 27.6694 418.756 27.9677 418.546 28.3441C418.34 28.717 418.237 29.1307 418.237 29.5852C418.237 30.0398 418.337 30.4535 418.536 30.8263C418.738 31.1957 419.013 31.4904 419.361 31.7106C419.713 31.9272 420.112 32.0355 420.56 32.0355C420.897 32.0355 421.211 31.9698 421.502 31.8384C421.794 31.7035 422.048 31.5206 422.264 31.2898C422.484 31.0554 422.657 30.7908 422.781 30.4961C422.905 30.1978 422.967 29.8871 422.967 29.5639C422.967 29.1378 422.864 28.7383 422.658 28.3654C422.456 27.9925 422.175 27.6907 421.817 27.4599C421.462 27.229 421.057 27.1136 420.602 27.1136ZM427.277 35.6044C427.014 35.6044 426.789 35.5103 426.601 35.3221C426.412 35.1339 426.318 34.9084 426.318 34.6456C426.318 34.3828 426.412 34.1573 426.601 33.9691C426.789 33.7809 427.014 33.6868 427.277 33.6868C427.54 33.6868 427.765 33.7809 427.954 33.9691C428.142 34.1573 428.236 34.3828 428.236 34.6456C428.236 34.8196 428.192 34.9794 428.103 35.125C428.018 35.2706 427.902 35.3878 427.757 35.4766C427.614 35.5618 427.455 35.6044 427.277 35.6044ZM427.277 30.0859C427.014 30.0859 426.789 29.9918 426.601 29.8036C426.412 29.6154 426.318 29.3899 426.318 29.1271C426.318 28.8643 426.412 28.6388 426.601 28.4506C426.789 28.2624 427.014 28.1683 427.277 28.1683C427.54 28.1683 427.765 28.2624 427.954 28.4506C428.142 28.6388 428.236 28.8643 428.236 29.1271C428.236 29.3011 428.192 29.4609 428.103 29.6065C428.018 29.7521 427.902 29.8693 427.757 29.9581C427.614 30.0433 427.455 30.0859 427.277 30.0859ZM434.007 37.1491C433.303 37.1491 432.677 37.0284 432.126 36.7869C431.579 36.5455 431.144 36.2099 430.821 35.7802C430.502 35.3469 430.328 34.8445 430.299 34.2727H431.641C431.67 34.6243 431.791 34.9279 432.004 35.1836C432.217 35.4357 432.496 35.631 432.84 35.7695C433.184 35.908 433.566 35.9773 433.985 35.9773C434.454 35.9773 434.869 35.8956 435.232 35.7322C435.594 35.5689 435.878 35.3416 436.084 35.0504C436.29 34.7592 436.393 34.4219 436.393 34.0384C436.393 33.6371 436.293 33.2837 436.095 32.9783C435.896 32.6694 435.605 32.4279 435.221 32.2539C434.838 32.0799 434.369 31.9929 433.815 31.9929H432.941V30.821H433.815C434.248 30.821 434.628 30.7429 434.955 30.5866C435.285 30.4304 435.542 30.2102 435.727 29.9261C435.915 29.642 436.009 29.3082 436.009 28.9247C436.009 28.5554 435.928 28.234 435.764 27.9606C435.601 27.6871 435.37 27.4741 435.072 27.3214C434.777 27.1687 434.429 27.0923 434.028 27.0923C433.651 27.0923 433.296 27.1616 432.963 27.3001C432.632 27.435 432.362 27.6321 432.153 27.8913C431.943 28.147 431.83 28.456 431.812 28.8182H430.534C430.555 28.2464 430.727 27.7457 431.05 27.3161C431.373 26.8828 431.796 26.5455 432.318 26.304C432.844 26.0625 433.421 25.9418 434.049 25.9418C434.724 25.9418 435.303 26.0785 435.786 26.3519C436.269 26.6218 436.64 26.9787 436.899 27.4226C437.158 27.8665 437.288 28.3459 437.288 28.8608C437.288 29.4751 437.126 29.9989 436.803 30.4322C436.483 30.8654 436.048 31.1655 435.498 31.3324V31.4176C436.187 31.5312 436.725 31.8242 437.112 32.2965C437.499 32.7653 437.693 33.3459 437.693 34.0384C437.693 34.6314 437.531 35.1641 437.208 35.6364C436.888 36.1051 436.452 36.4744 435.898 36.7443C435.344 37.0142 434.713 37.1491 434.007 37.1491ZM444.92 27.2202L445.602 27.7741L441.596 35.892L440.957 35.2741L444.92 27.2202ZM443.279 37.1491C442.477 37.1491 441.793 36.9308 441.229 36.494C440.664 36.0536 440.233 35.4162 439.934 34.5817C439.636 33.7436 439.487 32.7315 439.487 31.5455C439.487 30.3665 439.636 29.3597 439.934 28.5252C440.236 27.6871 440.669 27.0479 441.234 26.6076C441.802 26.1637 442.484 25.9418 443.279 25.9418C444.075 25.9418 444.755 26.1637 445.32 26.6076C445.888 27.0479 446.321 27.6871 446.619 28.5252C446.921 29.3597 447.072 30.3665 447.072 31.5455C447.072 32.7315 446.923 33.7436 446.625 34.5817C446.326 35.4162 445.895 36.0536 445.33 36.494C444.766 36.9308 444.082 37.1491 443.279 37.1491ZM443.279 35.9773C444.075 35.9773 444.693 35.5937 445.133 34.8267C445.574 34.0597 445.794 32.9659 445.794 31.5455C445.794 30.6009 445.692 29.7965 445.49 29.1325C445.291 28.4684 445.004 27.9624 444.627 27.6143C444.254 27.2663 443.805 27.0923 443.279 27.0923C442.491 27.0923 441.875 27.4812 441.431 28.2589C440.987 29.033 440.765 30.1286 440.765 31.5455C440.765 32.4901 440.865 33.2926 441.064 33.9531C441.262 34.6136 441.548 35.1161 441.921 35.4606C442.298 35.805 442.75 35.9773 443.279 35.9773Z" fill="#1D1B20"/>
<g opacity="0.6">
<rect x="714" y="24" width="13" height="13" rx="2" fill="black"/>
<path d="M701.104 23.8054C701.472 23.0647 702.528 23.0647 702.896 23.8054L704.503 27.0453C704.6 27.241 704.759 27.3995 704.955 27.4966L708.195 29.1042C708.935 29.4717 708.935 30.5283 708.195 30.8958L704.955 32.5034C704.759 32.6005 704.6 32.759 704.503 32.9547L702.896 36.1946C702.528 36.9353 701.472 36.9353 701.104 36.1946L699.497 32.9547C699.4 32.759 699.241 32.6005 699.045 32.5034L695.805 30.8958C695.065 30.5283 695.065 29.4717 695.805 29.1042L699.045 27.4966C699.241 27.3995 699.4 27.241 699.497 27.0453L701.104 23.8054Z" fill="black"/>
<path d="M684.134 24.5C684.519 23.8333 685.481 23.8333 685.866 24.5L691.928 35C692.313 35.6667 691.832 36.5 691.062 36.5H678.938C678.168 36.5 677.687 35.6667 678.072 35L684.134 24.5Z" fill="black"/>
</g>
<path fill-rule="evenodd" clip-rule="evenodd" d="M571 19C564.373 19 559 24.3731 559 31C559 37.6269 564.373 43 571 43C577.627 43 583 37.6269 583 31C583 24.3731 577.627 19 571 19Z" fill="#1D1B20"/>
<path d="M518 852C518 850.895 518.895 850 520 850H624C625.105 850 626 850.895 626 852C626 853.105 625.105 854 624 854H520C518.895 854 518 853.105 518 852Z" fill="#1D1B20"/>
<rect x="1557.5" y="1.5" width="362" height="867" rx="11.5" fill="white" stroke="black" stroke-width="3"/>
<path d="M1587.6 25.9418C1588.05 25.9453 1588.5 26.0305 1588.94 26.1974C1589.39 26.3643 1589.8 26.6413 1590.17 27.0284C1590.54 27.4119 1590.84 27.9357 1591.06 28.5998C1591.28 29.2638 1591.39 30.0966 1591.39 31.098C1591.39 32.0675 1591.3 32.9286 1591.12 33.6815C1590.94 34.4308 1590.67 35.0629 1590.33 35.5778C1589.99 36.0927 1589.57 36.4833 1589.08 36.7496C1588.6 37.016 1588.05 37.1491 1587.43 37.1491C1586.82 37.1491 1586.28 37.0284 1585.8 36.7869C1585.32 36.5419 1584.93 36.2028 1584.62 35.7695C1584.32 35.3327 1584.13 34.8267 1584.04 34.2514H1585.34C1585.46 34.7521 1585.69 35.1658 1586.04 35.4925C1586.39 35.8157 1586.86 35.9773 1587.43 35.9773C1588.27 35.9773 1588.94 35.6097 1589.42 34.8746C1589.91 34.1396 1590.16 33.1009 1590.16 31.7585H1590.07C1589.88 32.0568 1589.64 32.3143 1589.37 32.5309C1589.09 32.7475 1588.79 32.9144 1588.45 33.0316C1588.12 33.1488 1587.77 33.2074 1587.39 33.2074C1586.76 33.2074 1586.19 33.0529 1585.67 32.744C1585.15 32.4315 1584.73 32.0036 1584.42 31.4602C1584.11 30.9134 1583.96 30.2884 1583.96 29.5852C1583.96 28.9176 1584.11 28.3068 1584.41 27.7528C1584.71 27.1953 1585.13 26.7514 1585.67 26.4212C1586.22 26.0909 1586.86 25.9311 1587.6 25.9418ZM1587.6 27.1136C1587.15 27.1136 1586.75 27.2255 1586.39 27.4492C1586.04 27.6694 1585.76 27.9677 1585.55 28.3441C1585.34 28.717 1585.24 29.1307 1585.24 29.5852C1585.24 30.0398 1585.34 30.4535 1585.54 30.8263C1585.74 31.1957 1586.01 31.4904 1586.36 31.7106C1586.71 31.9272 1587.11 32.0355 1587.56 32.0355C1587.9 32.0355 1588.21 31.9698 1588.5 31.8384C1588.79 31.7035 1589.05 31.5206 1589.26 31.2898C1589.48 31.0554 1589.66 30.7908 1589.78 30.4961C1589.91 30.1978 1589.97 29.8871 1589.97 29.5639C1589.97 29.1378 1589.86 28.7383 1589.66 28.3654C1589.46 27.9925 1589.18 27.6907 1588.82 27.4599C1588.46 27.229 1588.06 27.1136 1587.6 27.1136ZM1594.28 35.6044C1594.01 35.6044 1593.79 35.5103 1593.6 35.3221C1593.41 35.1339 1593.32 34.9084 1593.32 34.6456C1593.32 34.3828 1593.41 34.1573 1593.6 33.9691C1593.79 33.7809 1594.01 33.6868 1594.28 33.6868C1594.54 33.6868 1594.77 33.7809 1594.95 33.9691C1595.14 34.1573 1595.24 34.3828 1595.24 34.6456C1595.24 34.8196 1595.19 34.9794 1595.1 35.125C1595.02 35.2706 1594.9 35.3878 1594.76 35.4766C1594.61 35.5618 1594.45 35.6044 1594.28 35.6044ZM1594.28 30.0859C1594.01 30.0859 1593.79 29.9918 1593.6 29.8036C1593.41 29.6154 1593.32 29.3899 1593.32 29.1271C1593.32 28.8643 1593.41 28.6388 1593.6 28.4506C1593.79 28.2624 1594.01 28.1683 1594.28 28.1683C1594.54 28.1683 1594.77 28.2624 1594.95 28.4506C1595.14 28.6388 1595.24 28.8643 1595.24 29.1271C1595.24 29.3011 1595.19 29.4609 1595.1 29.6065C1595.02 29.7521 1594.9 29.8693 1594.76 29.9581C1594.61 30.0433 1594.45 30.0859 1594.28 30.0859ZM1601.01 37.1491C1600.3 37.1491 1599.68 37.0284 1599.13 36.7869C1598.58 36.5455 1598.14 36.2099 1597.82 35.7802C1597.5 35.3469 1597.33 34.8445 1597.3 34.2727H1598.64C1598.67 34.6243 1598.79 34.9279 1599 35.1836C1599.22 35.4357 1599.5 35.631 1599.84 35.7695C1600.18 35.908 1600.57 35.9773 1600.99 35.9773C1601.45 35.9773 1601.87 35.8956 1602.23 35.7322C1602.59 35.5689 1602.88 35.3416 1603.08 35.0504C1603.29 34.7592 1603.39 34.4219 1603.39 34.0384C1603.39 33.6371 1603.29 33.2837 1603.09 32.9783C1602.9 32.6694 1602.6 32.4279 1602.22 32.2539C1601.84 32.0799 1601.37 31.9929 1600.81 31.9929H1599.94V30.821H1600.81C1601.25 30.821 1601.63 30.7429 1601.95 30.5866C1602.28 30.4304 1602.54 30.2102 1602.73 29.9261C1602.92 29.642 1603.01 29.3082 1603.01 28.9247C1603.01 28.5554 1602.93 28.234 1602.76 27.9606C1602.6 27.6871 1602.37 27.4741 1602.07 27.3214C1601.78 27.1687 1601.43 27.0923 1601.03 27.0923C1600.65 27.0923 1600.3 27.1616 1599.96 27.3001C1599.63 27.435 1599.36 27.6321 1599.15 27.8913C1598.94 28.147 1598.83 28.456 1598.81 28.8182H1597.53C1597.55 28.2464 1597.73 27.7457 1598.05 27.3161C1598.37 26.8828 1598.8 26.5455 1599.32 26.304C1599.84 26.0625 1600.42 25.9418 1601.05 25.9418C1601.72 25.9418 1602.3 26.0785 1602.79 26.3519C1603.27 26.6218 1603.64 26.9787 1603.9 27.4226C1604.16 27.8665 1604.29 28.3459 1604.29 28.8608C1604.29 29.4751 1604.13 29.9989 1603.8 30.4322C1603.48 30.8654 1603.05 31.1655 1602.5 31.3324V31.4176C1603.19 31.5312 1603.72 31.8242 1604.11 32.2965C1604.5 32.7653 1604.69 33.3459 1604.69 34.0384C1604.69 34.6314 1604.53 35.1641 1604.21 35.6364C1603.89 36.1051 1603.45 36.4744 1602.9 36.7443C1602.34 37.0142 1601.71 37.1491 1601.01 37.1491ZM1611.92 27.2202L1612.6 27.7741L1608.6 35.892L1607.96 35.2741L1611.92 27.2202ZM1610.28 37.1491C1609.48 37.1491 1608.79 36.9308 1608.23 36.494C1607.66 36.0536 1607.23 35.4162 1606.93 34.5817C1606.64 33.7436 1606.49 32.7315 1606.49 31.5455C1606.49 30.3665 1606.64 29.3597 1606.93 28.5252C1607.24 27.6871 1607.67 27.0479 1608.23 26.6076C1608.8 26.1637 1609.48 25.9418 1610.28 25.9418C1611.07 25.9418 1611.75 26.1637 1612.32 26.6076C1612.89 27.0479 1613.32 27.6871 1613.62 28.5252C1613.92 29.3597 1614.07 30.3665 1614.07 31.5455C1614.07 32.7315 1613.92 33.7436 1613.62 34.5817C1613.33 35.4162 1612.89 36.0536 1612.33 36.494C1611.77 36.9308 1611.08 37.1491 1610.28 37.1491ZM1610.28 35.9773C1611.07 35.9773 1611.69 35.5937 1612.13 34.8267C1612.57 34.0597 1612.79 32.9659 1612.79 31.5455C1612.79 30.6009 1612.69 29.7965 1612.49 29.1325C1612.29 28.4684 1612 27.9624 1611.63 27.6143C1611.25 27.2663 1610.81 27.0923 1610.28 27.0923C1609.49 27.0923 1608.88 27.4812 1608.43 28.2589C1607.99 29.033 1607.77 30.1286 1607.77 31.5455C1607.77 32.4901 1607.86 33.2926 1608.06 33.9531C1608.26 34.6136 1608.55 35.1161 1608.92 35.4606C1609.3 35.805 1609.75 35.9773 1610.28 35.9773Z" fill="#1D1B20"/>
<g opacity="0.6">
<rect x="1881" y="24" width="13" height="13" rx="2" fill="black"/>
<path d="M1868.1 23.8054C1868.47 23.0647 1869.53 23.0647 1869.9 23.8054L1871.5 27.0453C1871.6 27.241 1871.76 27.3995 1871.95 27.4966L1875.19 29.1042C1875.94 29.4717 1875.94 30.5283 1875.19 30.8958L1871.95 32.5034C1871.76 32.6005 1871.6 32.759 1871.5 32.9547L1869.9 36.1946C1869.53 36.9353 1868.47 36.9353 1868.1 36.1946L1866.5 32.9547C1866.4 32.759 1866.24 32.6005 1866.05 32.5034L1862.81 30.8958C1862.06 30.5283 1862.06 29.4717 1862.81 29.1042L1866.05 27.4966C1866.24 27.3995 1866.4 27.241 1866.5 27.0453L1868.1 23.8054Z" fill="black"/>
<path d="M1851.13 24.5C1851.52 23.8333 1852.48 23.8333 1852.87 24.5L1858.93 35C1859.31 35.6667 1858.83 36.5 1858.06 36.5H1845.94C1845.17 36.5 1844.69 35.6667 1845.07 35L1851.13 24.5Z" fill="black"/>
</g>
<path fill-rule="evenodd" clip-rule="evenodd" d="M1738 19C1731.37 19 1726 24.3731 1726 31C1726 37.6269 1731.37 43 1738 43C1744.63 43 1750 37.6269 1750 31C1750 24.3731 1744.63 19 1738 19Z" fill="#1D1B20"/>
<rect x="1697" y="647" width="80" height="80" rx="10" fill="black" fill-opacity="0.1"/>
<rect x="1812" y="647" width="80" height="80" rx="10" fill="black" fill-opacity="0.1"/>
<rect x="1586" y="647" width="80" height="80" rx="10" fill="black" fill-opacity="0.1"/>
<rect x="1695" y="533" width="80" height="80" rx="10" fill="black" fill-opacity="0.1"/>
<rect x="1584" y="110" width="139" height="11" rx="5.5" fill="black" fill-opacity="0.1"/>
<rect x="1584" y="129" width="180" height="11" rx="5.5" fill="black" fill-opacity="0.1"/>
<rect x="1584" y="160" width="68" height="11" rx="5.5" fill="black" fill-opacity="0.1"/>
<rect x="1586" y="758" width="304" height="59" rx="29.5" fill="black" fill-opacity="0.1"/>
<rect x="1810" y="533" width="80" height="80" rx="10" fill="black" fill-opacity="0.1"/>
<rect x="1584" y="533" width="80" height="80" rx="10" fill="black" fill-opacity="0.1"/>
<path d="M1801.14 157.111C1808.4 149.446 1820.6 149.446 1827.86 157.111V157.111C1832.14 161.636 1838.43 163.685 1844.55 162.554V162.554C1854.9 160.644 1864.75 167.893 1866.14 178.324V178.324C1866.96 184.511 1870.85 189.923 1876.47 192.633V192.633C1885.98 197.217 1889.71 208.858 1884.72 218.156V218.156C1881.76 223.661 1881.76 230.339 1884.72 235.844V235.844C1889.71 245.142 1885.98 256.783 1876.47 261.367V261.367C1870.85 264.077 1866.96 269.489 1866.14 275.676V275.676C1864.75 286.107 1854.9 293.356 1844.55 291.446V291.446C1838.43 290.315 1832.14 292.364 1827.86 296.889V296.889C1820.6 304.554 1808.4 304.554 1801.14 296.889V296.889C1796.86 292.364 1790.57 290.315 1784.45 291.446V291.446C1774.1 293.356 1764.25 286.107 1762.86 275.676V275.676C1762.04 269.489 1758.15 264.077 1752.53 261.367V261.367C1743.02 256.783 1739.29 245.142 1744.28 235.844V235.844C1747.24 230.339 1747.24 223.661 1744.28 218.156V218.156C1739.29 208.858 1743.02 197.217 1752.53 192.633V192.633C1758.15 189.923 1762.04 184.511 1762.86 178.324V178.324C1764.25 167.893 1774.1 160.644 1784.45 162.554V162.554C1790.57 163.685 1796.86 161.636 1801.14 157.111V157.111Z" fill="#FF007B" fill-opacity="0.1"/>
<rect x="1584" y="220" width="122" height="130" rx="10" fill="#CCA000" fill-opacity="0.1"/>
<path d="M1685 852C1685 850.895 1685.9 850 1687 850H1791C1792.1 850 1793 850.895 1793 852C1793 853.105 1792.1 854 1791 854H1687C1685.9 854 1685 853.105 1685 852Z" fill="#1D1B20"/>
<rect x="1559" y="3" width="359" height="864" rx="10" fill="black" fill-opacity="0.1"/>
<rect x="1573" y="246" width="332" height="377" rx="20" fill="white"/>
<path d="M1615 304C1616.03 304 1616.88 303.742 1617.54 303.225C1618.2 302.708 1618.7 301.95 1619.05 300.95C1619.33 300.117 1619.6 299.533 1619.86 299.2C1620.12 298.867 1620.72 298.333 1621.65 297.6C1622.68 296.767 1623.5 295.825 1624.1 294.775C1624.7 293.725 1625 292.467 1625 291C1625 289.017 1624.33 287.354 1622.99 286.013C1621.65 284.671 1619.98 284 1618 284C1616.02 284 1614.35 284.671 1613.01 286.013C1611.67 287.354 1611 289.017 1611 291H1613C1613 289.583 1613.48 288.396 1614.44 287.438C1615.4 286.479 1616.58 286 1618 286C1619.42 286 1620.6 286.479 1621.56 287.438C1622.52 288.396 1623 289.583 1623 291C1623 292.133 1622.78 293.1 1622.33 293.9C1621.88 294.7 1621.23 295.417 1620.4 296.05C1619.53 296.683 1618.86 297.3 1618.38 297.9C1617.89 298.5 1617.53 299.15 1617.3 299.85C1617.07 300.583 1616.79 301.125 1616.46 301.475C1616.14 301.825 1615.65 302 1615 302C1614.45 302 1613.98 301.804 1613.59 301.413C1613.2 301.021 1613 300.55 1613 300H1611C1611 301.1 1611.39 302.042 1612.18 302.825C1612.96 303.608 1613.9 304 1615 304ZM1618 293.5C1618.7 293.5 1619.29 293.254 1619.78 292.763C1620.26 292.271 1620.5 291.683 1620.5 291C1620.5 290.3 1620.26 289.708 1619.78 289.225C1619.29 288.742 1618.7 288.5 1618 288.5C1617.3 288.5 1616.71 288.742 1616.23 289.225C1615.74 289.708 1615.5 290.3 1615.5 291C1615.5 291.683 1615.74 292.271 1616.23 292.763C1616.71 293.254 1617.3 293.5 1618 293.5ZM1627.5 296.525L1626.03 295.05C1626.34 294.433 1626.58 293.788 1626.75 293.113C1626.92 292.438 1627 291.733 1627 291C1627 290.267 1626.92 289.567 1626.75 288.9C1626.58 288.233 1626.34 287.592 1626.03 286.975L1627.5 285.5C1627.98 286.317 1628.35 287.188 1628.61 288.113C1628.87 289.038 1629 290 1629 291C1629 292.017 1628.87 292.988 1628.61 293.913C1628.35 294.838 1627.98 295.708 1627.5 296.525ZM1630.43 299.425L1628.95 297.975C1629.6 296.975 1630.1 295.892 1630.46 294.725C1630.82 293.558 1631 292.333 1631 291.05C1631 289.75 1630.82 288.513 1630.45 287.338C1630.08 286.163 1629.58 285.075 1628.93 284.075L1630.43 282.575C1631.24 283.775 1631.88 285.088 1632.33 286.513C1632.78 287.938 1633 289.433 1633 291C1633 292.567 1632.78 294.063 1632.33 295.488C1631.88 296.913 1631.24 298.225 1630.43 299.425Z" fill="black" fill-opacity="0.5"/>
<rect x="1692" y="317" width="4.08032" height="28.645" rx="2.04016" fill="black"/>
<path d="M1872.47 333.5C1873.3 333.514 1873.99 332.854 1874 332.025C1874.01 331.197 1873.35 330.514 1872.53 330.5L1872.47 333.5ZM1694.5 332L1694.5 333.5C1767.14 333.284 1867.14 333.41 1872.47 333.5L1872.5 332L1872.53 330.5C1867.15 330.41 1767.12 330.284 1694.5 330.5L1694.5 332Z" fill="black" fill-opacity="0.2"/>
<path d="M1609 332C1681.5 332 1689.15 332 1694.5 332" stroke="black" stroke-width="3" stroke-linecap="round"/>
<path d="M1616 379C1615.17 379 1614.46 378.708 1613.88 378.125C1613.29 377.542 1613 376.833 1613 376V370C1613 369.167 1613.29 368.458 1613.88 367.875C1614.46 367.292 1615.17 367 1616 367C1616.83 367 1617.54 367.292 1618.13 367.875C1618.71 368.458 1619 369.167 1619 370V376C1619 376.833 1618.71 377.542 1618.13 378.125C1617.54 378.708 1616.83 379 1616 379ZM1615 386V382.925C1613.27 382.692 1611.83 381.917 1610.7 380.6C1609.57 379.283 1609 377.75 1609 376H1611C1611 377.383 1611.49 378.563 1612.46 379.538C1613.44 380.513 1614.62 381 1616 381C1617.38 381 1618.56 380.513 1619.54 379.538C1620.51 378.563 1621 377.383 1621 376H1623C1623 377.75 1622.43 379.283 1621.3 380.6C1620.17 381.917 1618.73 382.692 1617 382.925V386H1615ZM1616 377C1616.28 377 1616.52 376.904 1616.71 376.713C1616.9 376.521 1617 376.283 1617 376V370C1617 369.717 1616.9 369.479 1616.71 369.288C1616.52 369.096 1616.28 369 1616 369C1615.72 369 1615.48 369.096 1615.29 369.288C1615.1 369.479 1615 369.717 1615 370V376C1615 376.283 1615.1 376.521 1615.29 376.713C1615.48 376.904 1615.72 377 1616 377Z" fill="black" fill-opacity="0.5"/>
<rect x="1812" y="398" width="4.08032" height="28.645" rx="2.04016" fill="black"/>
<path d="M1872.47 414.5C1873.3 414.514 1873.99 413.854 1874 413.025C1874.01 412.197 1873.35 411.514 1872.53 411.5L1872.47 414.5ZM1694.5 413L1694.5 414.5C1767.14 414.284 1867.14 414.41 1872.47 414.5L1872.5 413L1872.53 411.5C1867.15 411.41 1767.12 411.284 1694.5 411.5L1694.5 413Z" fill="black" fill-opacity="0.2"/>
<path d="M1609 413C1681.5 413 1807.65 413 1813 413" stroke="black" stroke-width="3" stroke-linecap="round"/>
<path d="M1608 464V462H1610V455C1610 453.617 1610.42 452.388 1611.25 451.313C1612.08 450.238 1613.17 449.533 1614.5 449.2V448.5C1614.5 448.083 1614.65 447.729 1614.94 447.438C1615.23 447.146 1615.58 447 1616 447C1616.42 447 1616.77 447.146 1617.06 447.438C1617.35 447.729 1617.5 448.083 1617.5 448.5V449.2C1618.83 449.533 1619.92 450.238 1620.75 451.313C1621.58 452.388 1622 453.617 1622 455V462H1624V464H1608ZM1616 467C1615.45 467 1614.98 466.804 1614.59 466.413C1614.2 466.021 1614 465.55 1614 465H1618C1618 465.55 1617.8 466.021 1617.41 466.413C1617.02 466.804 1616.55 467 1616 467ZM1612 462H1620V455C1620 453.9 1619.61 452.958 1618.83 452.175C1618.04 451.392 1617.1 451 1616 451C1614.9 451 1613.96 451.392 1613.18 452.175C1612.39 452.958 1612 453.9 1612 455V462Z" fill="black" fill-opacity="0.5"/>
<path d="M1609 490.243L1609.51 490.937L1610.02 491.645L1610.53 492.358L1611.04 493.067L1611.55 493.764L1612.06 494.44L1612.57 495.087L1613.08 495.698L1613.59 496.264L1614.1 496.78L1614.61 497.239L1615.12 497.635L1615.63 497.963L1616.14 498.22L1616.65 498.403L1617.16 498.509L1617.67 498.537L1618.18 498.487L1618.69 498.359L1619.2 498.154L1619.71 497.877L1620.22 497.528L1620.73 497.114L1621.24 496.638L1621.75 496.107L1622.26 495.527L1622.77 494.906L1623.28 494.249L1623.79 493.566L1624.3 492.865L1625.32 491.442L1625.83 490.737L1626.34 490.048L1626.85 489.383L1627.36 488.751L1627.87 488.158L1628.38 487.613L1628.89 487.121L1629.4 486.688L1629.91 486.32L1630.42 486.022L1630.93 485.796L1631.44 485.646L1631.95 485.574L1632.46 485.579L1632.97 485.663L1633.48 485.824L1633.99 486.06L1634.5 486.369L1635.01 486.746L1635.52 487.187L1636.03 487.687L1636.54 488.24L1637.05 488.839L1637.56 489.476L1638.07 490.145L1638.58 490.837L1639.09 491.543L1639.6 492.256L1640.11 492.966L1640.62 493.665L1641.13 494.345L1641.64 494.997L1642.15 495.613L1642.66 496.186L1643.17 496.71L1643.68 497.177L1644.19 497.582L1644.7 497.921L1645.21 498.188L1645.72 498.382L1646.23 498.499L1646.74 498.538L1647.25 498.499L1647.76 498.382L1648.27 498.188L1648.78 497.921L1649.29 497.582L1649.8 497.177L1650.31 496.71L1650.82 496.186L1651.33 495.613L1651.84 494.997L1652.35 494.345L1652.86 493.665L1653.37 492.966L1653.88 492.256L1654.39 491.543L1654.9 490.837L1655.41 490.145L1655.92 489.476L1656.43 488.839L1656.94 488.24L1657.45 487.687L1657.96 487.187L1658.47 486.746L1658.98 486.369L1659.49 486.06L1660 485.824L1660.51 485.663L1661.02 485.579L1661.53 485.574L1662.04 485.646L1662.55 485.796L1663.06 486.022L1663.57 486.32L1664.08 486.688L1664.59 487.121L1665.1 487.613L1665.61 488.158L1666.12 488.751L1666.63 489.383L1667.14 490.048L1667.65 490.737L1668.16 491.442L1669.18 492.865L1669.69 493.566L1670.2 494.249L1670.71 494.906L1671.22 495.527L1671.73 496.107L1672.24 496.638L1672.76 497.114L1673.27 497.528L1673.78 497.877L1674.29 498.154L1674.8 498.359L1675.31 498.487L1675.82 498.537L1676.33 498.509L1676.84 498.403L1677.35 498.22L1677.86 497.963L1678.37 497.635L1678.88 497.239L1679.39 496.78L1679.9 496.264L1680.41 495.698L1680.92 495.087L1681.43 494.44L1681.94 493.764L1682.45 493.067L1682.96 492.358L1683.47 491.645L1683.98 490.937L1684.49 490.243L1685 489.57L1685.51 488.928L1686.02 488.323L1686.53 487.763L1687.04 487.255L1687.55 486.805L1688.06 486.419L1688.57 486.1L1689.08 485.853L1689.59 485.681L1690.1 485.587L1690.61 485.57L1691.12 485.631L1691.63 485.77L1692.14 485.985L1692.65 486.273L1693.16 486.631L1693.67 487.055L1694.18 487.539L1694.69 488.077L1695.2 488.663L1695.71 489.291L1696.22 489.951L1696.73 490.637L1697.24 491.341L1698.26 492.764L1698.77 493.467L1699.28 494.153L1699.79 494.814L1700.3 495.441L1700.81 496.027L1701.32 496.566L1701.83 497.05L1702.34 497.473L1702.85 497.831L1703.36 498.119L1703.87 498.334L1704.38 498.473L1704.89 498.535L1705.4 498.518L1705.91 498.423L1706.42 498.251L1706.93 498.004L1707.44 497.686L1707.95 497.299L1708.46 496.849L1708.97 496.341L1709.48 495.782L1709.99 495.177L1710.5 494.534L1711.01 493.862L1711.52 493.167L1712.03 492.459L1712.54 491.747L1713.05 491.038L1713.56 490.341L1714.07 489.665L1714.58 489.017L1715.09 488.407L1715.6 487.84L1716.11 487.324L1716.62 486.866L1717.13 486.47L1717.64 486.141L1718.15 485.884L1718.66 485.701L1719.17 485.595L1719.68 485.567L1720.19 485.618L1720.7 485.746L1721.21 485.95L1721.72 486.228L1722.23 486.576L1722.74 486.991L1723.25 487.466L1723.76 487.997L1724.27 488.577L1724.78 489.199L1725.29 489.855L1725.8 490.538L1726.31 491.239L1727.33 492.663L1727.84 493.367L1728.35 494.056L1728.86 494.721L1729.37 495.354L1729.88 495.946L1730.39 496.492L1730.9 496.984L1731.41 497.416L1731.92 497.784L1732.43 498.082L1732.94 498.308L1733.45 498.458L1733.96 498.531L1734.47 498.525L1734.98 498.441L1735.49 498.28L1736 498.044L1736.51 497.736L1737.02 497.358L1737.53 496.917L1738.04 496.417L1738.55 495.864L1739.06 495.266L1739.57 494.628L1740.08 493.959L1740.59 493.268L1741.1 492.561L1741.61 491.849L1742.12 491.138L1742.63 490.439L1743.14 489.76L1743.65 489.108L1744.16 488.491L1744.67 487.918L1745.18 487.395L1745.69 486.928L1746.2 486.522L1746.71 486.184L1747.22 485.916L1747.73 485.723L1748.24 485.606L1748.75 485.567L1749.26 485.606L1749.77 485.723L1750.28 485.916L1750.79 486.184L1751.3 486.522L1751.81 486.928L1752.32 487.395L1752.83 487.918L1753.34 488.491L1753.85 489.108L1754.36 489.76L1754.87 490.439L1755.38 491.138L1755.89 491.849L1756.4 492.561L1756.91 493.268L1757.42 493.959L1757.93 494.628L1758.44 495.266L1758.95 495.864L1759.46 496.417L1759.97 496.917L1760.48 497.358L1760.99 497.736L1761.5 498.044L1762.01 498.28L1762.52 498.441L1763.03 498.525L1763.54 498.531L1764.05 498.458L1764.56 498.308L1765.07 498.082L1765.58 497.784L1766.09 497.416L1766.6 496.984L1767.11 496.492L1767.62 495.946L1768.13 495.354L1768.64 494.721L1769.15 494.056L1769.66 493.367L1770.17 492.663L1771.19 491.239L1771.7 490.538L1772.21 489.855" stroke="black" stroke-width="3" stroke-miterlimit="10" stroke-linecap="round" stroke-linejoin="round"/>
<rect x="1770.68" y="478" width="4.08032" height="28.645" rx="2.04016" fill="black"/>
<path d="M1874.97 494.212C1875.8 494.226 1876.49 493.566 1876.5 492.737C1876.51 491.909 1875.85 491.226 1875.03 491.212L1874.97 494.212ZM1774.76 492.712L1774.77 494.212C1847.4 493.996 1869.64 494.122 1874.97 494.212L1875 492.712L1875.03 491.212C1869.65 491.122 1847.38 490.996 1774.76 491.212L1774.76 492.712Z" fill="black" fill-opacity="0.2"/>
<path d="M1619 548.725V546.675C1620.5 546.242 1621.71 545.408 1622.63 544.175C1623.54 542.942 1624 541.542 1624 539.975C1624 538.408 1623.54 537.008 1622.63 535.775C1621.71 534.542 1620.5 533.708 1619 533.275V531.225C1621.07 531.692 1622.75 532.737 1624.05 534.362C1625.35 535.987 1626 537.858 1626 539.975C1626 542.092 1625.35 543.962 1624.05 545.587C1622.75 547.212 1621.07 548.258 1619 548.725ZM1608 543V537H1612L1617 532V548L1612 543H1608ZM1619 544V535.95C1619.78 536.317 1620.4 536.867 1620.84 537.6C1621.28 538.333 1621.5 539.133 1621.5 540C1621.5 540.85 1621.28 541.637 1620.84 542.362C1620.4 543.087 1619.78 543.633 1619 544ZM1615 536.85L1612.85 539H1610V541H1612.85L1615 543.15V536.85Z" fill="black" fill-opacity="0.5"/>
<rect x="1642" y="558.935" width="4.08032" height="28.645" rx="2.04016" fill="black"/>
<path d="M1872.47 575.435C1873.3 575.449 1873.99 574.788 1874 573.96C1874.01 573.132 1873.35 572.449 1872.53 572.435L1872.47 575.435ZM1644.5 574L1644.5 575.5C1717.14 575.284 1867.14 575.345 1872.47 575.435L1872.5 573.935L1872.53 572.435C1867.15 572.345 1717.12 572.284 1644.5 572.5L1644.5 574Z" fill="black" fill-opacity="0.2"/>
<path d="M1609 573.935C1609 573.935 1638.15 573.935 1643.5 573.935" stroke="black" stroke-width="3" stroke-linecap="round"/>
<rect x="779.5" y="1.5" width="362" height="867" rx="11.5" fill="white" stroke="black" stroke-width="3"/>
<path d="M809.602 25.9418C810.05 25.9453 810.497 26.0305 810.945 26.1974C811.392 26.3643 811.8 26.6413 812.17 27.0284C812.539 27.4119 812.836 27.9357 813.059 28.5998C813.283 29.2638 813.395 30.0966 813.395 31.098C813.395 32.0675 813.303 32.9286 813.118 33.6815C812.937 34.4308 812.674 35.0629 812.33 35.5778C811.989 36.0927 811.573 36.4833 811.083 36.7496C810.597 37.016 810.046 37.1491 809.432 37.1491C808.821 37.1491 808.276 37.0284 807.797 36.7869C807.321 36.5419 806.93 36.2028 806.625 35.7695C806.323 35.3327 806.129 34.8267 806.044 34.2514H807.344C807.461 34.7521 807.694 35.1658 808.042 35.4925C808.393 35.8157 808.857 35.9773 809.432 35.9773C810.273 35.9773 810.938 35.6097 811.424 34.8746C811.914 34.1396 812.159 33.1009 812.159 31.7585H812.074C811.875 32.0568 811.639 32.3143 811.365 32.5309C811.092 32.7475 810.788 32.9144 810.455 33.0316C810.121 33.1488 809.766 33.2074 809.389 33.2074C808.764 33.2074 808.191 33.0529 807.669 32.744C807.15 32.4315 806.735 32.0036 806.422 31.4602C806.113 30.9134 805.959 30.2884 805.959 29.5852C805.959 28.9176 806.108 28.3068 806.406 27.7528C806.708 27.1953 807.131 26.7514 807.674 26.4212C808.221 26.0909 808.864 25.9311 809.602 25.9418ZM809.602 27.1136C809.155 27.1136 808.752 27.2255 808.393 27.4492C808.038 27.6694 807.756 27.9677 807.546 28.3441C807.34 28.717 807.237 29.1307 807.237 29.5852C807.237 30.0398 807.337 30.4535 807.536 30.8263C807.738 31.1957 808.013 31.4904 808.361 31.7106C808.713 31.9272 809.112 32.0355 809.56 32.0355C809.897 32.0355 810.211 31.9698 810.502 31.8384C810.794 31.7035 811.048 31.5206 811.264 31.2898C811.484 31.0554 811.657 30.7908 811.781 30.4961C811.905 30.1978 811.967 29.8871 811.967 29.5639C811.967 29.1378 811.864 28.7383 811.658 28.3654C811.456 27.9925 811.175 27.6907 810.817 27.4599C810.462 27.229 810.057 27.1136 809.602 27.1136ZM816.277 35.6044C816.014 35.6044 815.789 35.5103 815.601 35.3221C815.412 35.1339 815.318 34.9084 815.318 34.6456C815.318 34.3828 815.412 34.1573 815.601 33.9691C815.789 33.7809 816.014 33.6868 816.277 33.6868C816.54 33.6868 816.765 33.7809 816.954 33.9691C817.142 34.1573 817.236 34.3828 817.236 34.6456C817.236 34.8196 817.192 34.9794 817.103 35.125C817.018 35.2706 816.902 35.3878 816.757 35.4766C816.614 35.5618 816.455 35.6044 816.277 35.6044ZM816.277 30.0859C816.014 30.0859 815.789 29.9918 815.601 29.8036C815.412 29.6154 815.318 29.3899 815.318 29.1271C815.318 28.8643 815.412 28.6388 815.601 28.4506C815.789 28.2624 816.014 28.1683 816.277 28.1683C816.54 28.1683 816.765 28.2624 816.954 28.4506C817.142 28.6388 817.236 28.8643 817.236 29.1271C817.236 29.3011 817.192 29.4609 817.103 29.6065C817.018 29.7521 816.902 29.8693 816.757 29.9581C816.614 30.0433 816.455 30.0859 816.277 30.0859ZM823.007 37.1491C822.303 37.1491 821.677 37.0284 821.126 36.7869C820.579 36.5455 820.144 36.2099 819.821 35.7802C819.502 35.3469 819.328 34.8445 819.299 34.2727H820.641C820.67 34.6243 820.791 34.9279 821.004 35.1836C821.217 35.4357 821.496 35.631 821.84 35.7695C822.184 35.908 822.566 35.9773 822.985 35.9773C823.454 35.9773 823.869 35.8956 824.232 35.7322C824.594 35.5689 824.878 35.3416 825.084 35.0504C825.29 34.7592 825.393 34.4219 825.393 34.0384C825.393 33.6371 825.293 33.2837 825.095 32.9783C824.896 32.6694 824.605 32.4279 824.221 32.2539C823.838 32.0799 823.369 31.9929 822.815 31.9929H821.941V30.821H822.815C823.248 30.821 823.628 30.7429 823.955 30.5866C824.285 30.4304 824.542 30.2102 824.727 29.9261C824.915 29.642 825.009 29.3082 825.009 28.9247C825.009 28.5554 824.928 28.234 824.764 27.9606C824.601 27.6871 824.37 27.4741 824.072 27.3214C823.777 27.1687 823.429 27.0923 823.028 27.0923C822.651 27.0923 822.296 27.1616 821.963 27.3001C821.632 27.435 821.362 27.6321 821.153 27.8913C820.943 28.147 820.83 28.456 820.812 28.8182H819.534C819.555 28.2464 819.727 27.7457 820.05 27.3161C820.373 26.8828 820.796 26.5455 821.318 26.304C821.844 26.0625 822.421 25.9418 823.049 25.9418C823.724 25.9418 824.303 26.0785 824.786 26.3519C825.269 26.6218 825.64 26.9787 825.899 27.4226C826.158 27.8665 826.288 28.3459 826.288 28.8608C826.288 29.4751 826.126 29.9989 825.803 30.4322C825.483 30.8654 825.048 31.1655 824.498 31.3324V31.4176C825.187 31.5312 825.725 31.8242 826.112 32.2965C826.499 32.7653 826.693 33.3459 826.693 34.0384C826.693 34.6314 826.531 35.1641 826.208 35.6364C825.888 36.1051 825.452 36.4744 824.898 36.7443C824.344 37.0142 823.713 37.1491 823.007 37.1491ZM833.92 27.2202L834.602 27.7741L830.596 35.892L829.957 35.2741L833.92 27.2202ZM832.279 37.1491C831.477 37.1491 830.793 36.9308 830.229 36.494C829.664 36.0536 829.233 35.4162 828.934 34.5817C828.636 33.7436 828.487 32.7315 828.487 31.5455C828.487 30.3665 828.636 29.3597 828.934 28.5252C829.236 27.6871 829.669 27.0479 830.234 26.6076C830.802 26.1637 831.484 25.9418 832.279 25.9418C833.075 25.9418 833.755 26.1637 834.32 26.6076C834.888 27.0479 835.321 27.6871 835.619 28.5252C835.921 29.3597 836.072 30.3665 836.072 31.5455C836.072 32.7315 835.923 33.7436 835.625 34.5817C835.326 35.4162 834.895 36.0536 834.33 36.494C833.766 36.9308 833.082 37.1491 832.279 37.1491ZM832.279 35.9773C833.075 35.9773 833.693 35.5937 834.133 34.8267C834.574 34.0597 834.794 32.9659 834.794 31.5455C834.794 30.6009 834.692 29.7965 834.49 29.1325C834.291 28.4684 834.004 27.9624 833.627 27.6143C833.254 27.2663 832.805 27.0923 832.279 27.0923C831.491 27.0923 830.875 27.4812 830.431 28.2589C829.987 29.033 829.765 30.1286 829.765 31.5455C829.765 32.4901 829.865 33.2926 830.064 33.9531C830.262 34.6136 830.548 35.1161 830.921 35.4606C831.298 35.805 831.75 35.9773 832.279 35.9773Z" fill="#1D1B20"/>
<g opacity="0.6">
<rect x="1103" y="24" width="13" height="13" rx="2" fill="black"/>
<path d="M1090.1 23.8054C1090.47 23.0647 1091.53 23.0647 1091.9 23.8054L1093.5 27.0453C1093.6 27.241 1093.76 27.3995 1093.95 27.4966L1097.19 29.1042C1097.94 29.4717 1097.94 30.5283 1097.19 30.8958L1093.95 32.5034C1093.76 32.6005 1093.6 32.759 1093.5 32.9547L1091.9 36.1946C1091.53 36.9353 1090.47 36.9353 1090.1 36.1946L1088.5 32.9547C1088.4 32.759 1088.24 32.6005 1088.05 32.5034L1084.81 30.8958C1084.06 30.5283 1084.06 29.4717 1084.81 29.1042L1088.05 27.4966C1088.24 27.3995 1088.4 27.241 1088.5 27.0453L1090.1 23.8054Z" fill="black"/>
<path d="M1073.13 24.5C1073.52 23.8333 1074.48 23.8333 1074.87 24.5L1080.93 35C1081.31 35.6667 1080.83 36.5 1080.06 36.5H1067.94C1067.17 36.5 1066.69 35.6667 1067.07 35L1073.13 24.5Z" fill="black"/>
</g>
<path fill-rule="evenodd" clip-rule="evenodd" d="M960 19C953.373 19 948 24.3731 948 31C948 37.6269 953.373 43 960 43C966.627 43 972 37.6269 972 31C972 24.3731 966.627 19 960 19Z" fill="#1D1B20"/>
<path d="M907 852C907 850.895 907.895 850 909 850H1013C1014.1 850 1015 850.895 1015 852C1015 853.105 1014.1 854 1013 854H909C907.895 854 907 853.105 907 852Z" fill="#1D1B20"/>
<path d="M814.781 85.25L821.781 92.25L820 94L810 84L820 74L821.781 75.75L814.781 82.75H830V85.25H814.781Z" fill="black" fill-opacity="0.3"/>
<g clip-path="url(#paint1_diamond_247_893_clip_path)" data-figma-skip-parse="true"><g transform="matrix(0.0235 0.227 -0.403707 0.0417934 960.5 208.5)"><rect x="0" y="0" width="435.757" height="387.831" fill="url(#paint1_diamond_247_893)" opacity="0.2" shape-rendering="crispEdges"/><rect x="0" y="0" width="435.757" height="387.831" transform="scale(1 -1)" fill="url(#paint1_diamond_247_893)" opacity="0.2" shape-rendering="crispEdges"/><rect x="0" y="0" width="435.757" height="387.831" transform="scale(-1 1)" fill="url(#paint1_diamond_247_893)" opacity="0.2" shape-rendering="crispEdges"/><rect x="0" y="0" width="435.757" height="387.831" transform="scale(-1)" fill="url(#paint1_diamond_247_893)" opacity="0.2" shape-rendering="crispEdges"/></g></g><rect x="812" y="125" width="297" height="167" rx="15" data-figma-gradient-fill="{&#34;type&#34;:&#34;GRADIENT_DIAMOND&#34;,&#34;stops&#34;:[{&#34;color&#34;:{&#34;r&#34;:0.60576921701431274,&#34;g&#34;:0.52689301967620850,&#34;b&#34;:0.24172522127628326,&#34;a&#34;:1.0},&#34;position&#34;:0.0},{&#34;color&#34;:{&#34;r&#34;:0.96634614467620850,&#34;g&#34;:0.59235161542892456,&#34;b&#34;:0.92271345853805542,&#34;a&#34;:1.0},&#34;position&#34;:1.0}],&#34;stopsVar&#34;:[{&#34;color&#34;:{&#34;r&#34;:0.60576921701431274,&#34;g&#34;:0.52689301967620850,&#34;b&#34;:0.24172522127628326,&#34;a&#34;:1.0},&#34;position&#34;:0.0},{&#34;color&#34;:{&#34;r&#34;:0.96634614467620850,&#34;g&#34;:0.59235161542892456,&#34;b&#34;:0.92271345853805542,&#34;a&#34;:1.0},&#34;position&#34;:1.0}],&#34;transform&#34;:{&#34;m00&#34;:47.0,&#34;m01&#34;:-807.41320800781250,&#34;m02&#34;:1340.7066650390625,&#34;m10&#34;:454.0,&#34;m11&#34;:83.586830139160156,&#34;m12&#34;:-60.293418884277344},&#34;opacity&#34;:0.20000000298023224,&#34;blendMode&#34;:&#34;NORMAL&#34;,&#34;visible&#34;:true}"/>
<rect x="818" y="742" width="130" height="13" rx="6.5" fill="black" fill-opacity="0.1"/>
<rect x="1066" y="749" width="49" height="25" rx="12.5" fill="black" fill-opacity="0.1"/>
<rect x="1070" y="751.5" width="20" height="20" rx="10" fill="black" fill-opacity="0.1"/>
<rect x="818" y="763" width="184" height="5" rx="2.5" fill="black" fill-opacity="0.1"/>
<rect x="818" y="772" width="156" height="5" rx="2.5" fill="black" fill-opacity="0.1"/>
<rect x="816" y="521" width="130" height="13" rx="6.5" fill="black" fill-opacity="0.1"/>
<rect x="1064" y="528" width="49" height="25" rx="12.5" fill="black" fill-opacity="0.1"/>
<rect x="1068" y="530.5" width="20" height="20" rx="10" fill="black" fill-opacity="0.1"/>
<rect x="816" y="542" width="184" height="5" rx="2.5" fill="black" fill-opacity="0.1"/>
<rect x="816" y="551" width="156" height="5" rx="2.5" fill="black" fill-opacity="0.1"/>
<rect x="811" y="333" width="68" height="13" rx="6.5" fill="black" fill-opacity="0.1"/>
<rect x="1059" y="340" width="49" height="25" rx="12.5" fill="black" fill-opacity="0.1"/>
<rect x="1063" y="342.5" width="20" height="20" rx="10" fill="black" fill-opacity="0.1"/>
<rect x="811" y="354" width="211" height="5" rx="2.5" fill="black" fill-opacity="0.1"/>
<rect x="811" y="363" width="191" height="5" rx="2.5" fill="black" fill-opacity="0.1"/>
<path d="M814 458.243L814.51 458.937L815.02 459.645L815.53 460.358L816.04 461.067L816.55 461.764L817.06 462.44L817.57 463.087L818.08 463.698L818.59 464.264L819.1 464.78L819.61 465.239L820.12 465.635L820.631 465.963L821.141 466.22L821.651 466.403L822.161 466.509L822.671 466.537L823.181 466.487L823.691 466.359L824.201 466.154L824.711 465.877L825.221 465.528L825.731 465.114L826.241 464.638L826.751 464.107L827.261 463.527L827.771 462.906L828.281 462.249L828.791 461.566L829.301 460.865L830.321 459.442L830.831 458.737L831.341 458.048L831.851 457.383L832.361 456.751L832.871 456.158L833.382 455.613L833.892 455.121L834.402 454.688L834.912 454.32L835.422 454.022L835.932 453.796L836.442 453.646L836.952 453.574L837.462 453.579L837.972 453.663L838.482 453.824L838.992 454.06L839.502 454.369L840.012 454.746L840.522 455.187L841.032 455.687L841.542 456.24L842.052 456.839L842.562 457.476L843.072 458.145L843.582 458.837L844.092 459.543L844.602 460.256L845.112 460.966L845.622 461.665L846.133 462.345L846.643 462.997L847.153 463.613L847.663 464.186L848.173 464.71L848.683 465.177L849.193 465.582L849.703 465.921L850.213 466.188L850.723 466.382L851.233 466.499L851.743 466.538L852.253 466.499L852.763 466.382L853.273 466.188L853.783 465.921L854.293 465.582L854.803 465.177L855.313 464.71L855.823 464.186L856.333 463.613L856.843 462.997L857.353 462.345L857.863 461.665L858.373 460.966L858.884 460.256L859.394 459.543L859.904 458.837L860.414 458.145L860.924 457.476L861.434 456.839L861.944 456.24L862.454 455.687L862.964 455.187L863.474 454.746L863.984 454.369L864.494 454.06L865.004 453.824L865.514 453.663L866.024 453.579L866.534 453.574L867.044 453.646L867.554 453.796L868.064 454.022L868.574 454.32L869.084 454.688L869.594 455.121L870.104 455.613L870.614 456.158L871.125 456.751L871.635 457.383L872.145 458.048L872.655 458.737L873.165 459.442L874.185 460.865L874.695 461.566L875.205 462.249L875.715 462.906L876.225 463.527L876.735 464.107L877.245 464.638L877.755 465.114L878.265 465.528L878.775 465.877L879.285 466.154L879.795 466.359L880.305 466.487L880.815 466.537L881.325 466.509L881.835 466.403L882.345 466.22L882.855 465.963L883.365 465.635L883.876 465.239L884.386 464.78L884.896 464.264L885.406 463.698L885.916 463.087L886.426 462.44L886.936 461.764L887.446 461.067L887.956 460.358L888.466 459.645L888.976 458.937L889.486 458.243L889.996 457.57L890.506 456.928L891.016 456.323L891.526 455.763L892.036 455.255L892.546 454.805L893.056 454.419L893.566 454.1L894.076 453.853L894.586 453.681L895.096 453.587L895.606 453.57L896.116 453.631L896.627 453.77L897.137 453.985L897.647 454.273L898.157 454.631L898.667 455.055L899.177 455.539L899.687 456.077L900.197 456.663L900.707 457.291L901.217 457.951L901.727 458.637L902.237 459.341L903.257 460.764L903.767 461.467L904.277 462.153L904.787 462.814L905.297 463.441L905.807 464.027L906.317 464.566L906.827 465.05L907.337 465.473L907.847 465.831L908.357 466.119L908.867 466.334L909.378 466.473L909.888 466.535L910.398 466.518L910.908 466.423L911.418 466.251L911.928 466.004L912.438 465.686L912.948 465.299L913.458 464.849L913.968 464.341L914.478 463.782L914.988 463.177L915.498 462.534L916.008 461.862L916.518 461.167L917.028 460.459L917.538 459.747L918.048 459.038L918.558 458.341L919.068 457.665L919.578 457.017L920.088 456.407L920.598 455.84L921.108 455.324L921.618 454.866L922.129 454.47L922.639 454.141L923.149 453.884L923.659 453.701L924.169 453.595L924.679 453.567L925.189 453.618L925.699 453.746L926.209 453.95L926.719 454.228L927.229 454.576L927.739 454.991L928.249 455.466L928.759 455.997L929.269 456.577L929.779 457.199L930.289 457.855L930.799 458.538L931.309 459.239L932.329 460.663L932.839 461.367L933.349 462.056L933.859 462.721L934.369 463.354L934.88 463.946L935.39 464.492L935.9 464.984L936.41 465.416L936.92 465.784L937.43 466.082L937.94 466.308L938.45 466.458L938.96 466.531L939.47 466.525L939.98 466.441L940.49 466.28L941 466.044L941.51 465.736L942.02 465.358L942.53 464.917L943.04 464.417L943.55 463.864L944.06 463.266L944.57 462.628L945.08 461.959L945.59 461.268L946.1 460.561L946.61 459.849L947.12 459.138L947.631 458.439L948.141 457.76L948.651 457.108L949.161 456.491L949.671 455.918L950.181 455.395L950.691 454.928L951.201 454.522L951.711 454.184L952.221 453.916L952.731 453.723L953.241 453.606L953.751 453.567L954.261 453.606L954.771 453.723L955.281 453.916L955.791 454.184L956.301 454.522L956.811 454.928L957.321 455.395L957.831 455.918L958.341 456.491L958.851 457.108L959.361 457.76L959.871 458.439L960.382 459.138L960.892 459.849L961.402 460.561L961.912 461.268L962.422 461.959L962.932 462.628L963.442 463.266L963.952 463.864L964.462 464.417L964.972 464.917L965.482 465.358L965.992 465.736L966.502 466.044L967.012 466.28L967.522 466.441L968.032 466.525L968.542 466.531L969.052 466.458L969.562 466.308L970.072 466.082L970.582 465.784L971.092 465.416L971.602 464.984L972.112 464.492L972.622 463.946L973.133 463.354L973.643 462.721L974.153 462.056L974.663 461.367L975.173 460.663L976.193 459.239L976.703 458.538L977.213 457.855" stroke="black" stroke-width="3" stroke-miterlimit="10" stroke-linecap="round" stroke-linejoin="round"/>
<rect x="975.683" y="446" width="4.08032" height="28.645" rx="2.04016" fill="black"/>
<path d="M1114.97 462.212C1115.8 462.226 1116.49 461.566 1116.5 460.737C1116.51 459.909 1115.85 459.226 1115.03 459.212L1114.97 462.212ZM979.763 460.712L979.768 462.212C1052.4 461.996 1109.64 462.122 1114.97 462.212L1115 460.712L1115.03 459.212C1109.65 459.122 1052.38 458.996 979.759 459.212L979.763 460.712Z" fill="black" fill-opacity="0.2"/>
<rect x="814" y="410" width="130" height="13" rx="6.5" fill="black" fill-opacity="0.1"/>
<rect x="1083" y="415" width="32" height="5" rx="2.5" fill="black" fill-opacity="0.1"/>
<rect x="819" y="606" width="180" height="13" rx="6.5" fill="black" fill-opacity="0.1"/>
<g opacity="0.5">
<rect x="819" y="641" width="297" height="55" rx="10" fill="black" fill-opacity="0.1"/>
<rect x="821" y="643" width="97" height="51" rx="10" fill="black" fill-opacity="0.1"/>
<rect x="860" y="659" width="20" height="20" rx="3" fill="#999999"/>
<path d="M968.268 658C969.038 656.667 970.962 656.667 971.732 658L981.258 674.5C982.028 675.833 981.066 677.5 979.526 677.5H960.474C958.934 677.5 957.972 675.833 958.742 674.5L968.268 658Z" fill="#999999"/>
<path d="M1058.05 654.927C1058.35 654.006 1059.65 654.006 1059.95 654.927L1062.14 661.674C1062.28 662.086 1062.66 662.365 1063.09 662.365H1070.19C1071.16 662.365 1071.56 663.604 1070.78 664.174L1065.04 668.343C1064.69 668.598 1064.54 669.049 1064.67 669.461L1066.87 676.208C1067.17 677.13 1066.11 677.896 1065.33 677.326L1059.59 673.157C1059.24 672.902 1058.76 672.902 1058.41 673.157L1052.67 677.326C1051.89 677.896 1050.83 677.13 1051.13 676.208L1053.33 669.461C1053.46 669.049 1053.31 668.598 1052.96 668.343L1047.22 664.174C1046.44 663.604 1046.84 662.365 1047.81 662.365H1054.91C1055.34 662.365 1055.72 662.086 1055.86 661.674L1058.05 654.927Z" fill="#999999"/>
</g>
<rect x="1168.5" y="1.5" width="362" height="867" rx="11.5" fill="white" stroke="black" stroke-width="3"/>
<rect x="1170" y="3" width="359" height="864" rx="10" fill="black"/>
<path d="M1198.6 25.9418C1199.05 25.9453 1199.5 26.0305 1199.94 26.1974C1200.39 26.3643 1200.8 26.6413 1201.17 27.0284C1201.54 27.4119 1201.84 27.9357 1202.06 28.5998C1202.28 29.2638 1202.39 30.0966 1202.39 31.098C1202.39 32.0675 1202.3 32.9286 1202.12 33.6815C1201.94 34.4308 1201.67 35.0629 1201.33 35.5778C1200.99 36.0927 1200.57 36.4833 1200.08 36.7496C1199.6 37.016 1199.05 37.1491 1198.43 37.1491C1197.82 37.1491 1197.28 37.0284 1196.8 36.7869C1196.32 36.5419 1195.93 36.2028 1195.62 35.7695C1195.32 35.3327 1195.13 34.8267 1195.04 34.2514H1196.34C1196.46 34.7521 1196.69 35.1658 1197.04 35.4925C1197.39 35.8157 1197.86 35.9773 1198.43 35.9773C1199.27 35.9773 1199.94 35.6097 1200.42 34.8746C1200.91 34.1396 1201.16 33.1009 1201.16 31.7585H1201.07C1200.88 32.0568 1200.64 32.3143 1200.37 32.5309C1200.09 32.7475 1199.79 32.9144 1199.45 33.0316C1199.12 33.1488 1198.77 33.2074 1198.39 33.2074C1197.76 33.2074 1197.19 33.0529 1196.67 32.744C1196.15 32.4315 1195.73 32.0036 1195.42 31.4602C1195.11 30.9134 1194.96 30.2884 1194.96 29.5852C1194.96 28.9176 1195.11 28.3068 1195.41 27.7528C1195.71 27.1953 1196.13 26.7514 1196.67 26.4212C1197.22 26.0909 1197.86 25.9311 1198.6 25.9418ZM1198.6 27.1136C1198.15 27.1136 1197.75 27.2255 1197.39 27.4492C1197.04 27.6694 1196.76 27.9677 1196.55 28.3441C1196.34 28.717 1196.24 29.1307 1196.24 29.5852C1196.24 30.0398 1196.34 30.4535 1196.54 30.8263C1196.74 31.1957 1197.01 31.4904 1197.36 31.7106C1197.71 31.9272 1198.11 32.0355 1198.56 32.0355C1198.9 32.0355 1199.21 31.9698 1199.5 31.8384C1199.79 31.7035 1200.05 31.5206 1200.26 31.2898C1200.48 31.0554 1200.66 30.7908 1200.78 30.4961C1200.91 30.1978 1200.97 29.8871 1200.97 29.5639C1200.97 29.1378 1200.86 28.7383 1200.66 28.3654C1200.46 27.9925 1200.18 27.6907 1199.82 27.4599C1199.46 27.229 1199.06 27.1136 1198.6 27.1136ZM1205.28 35.6044C1205.01 35.6044 1204.79 35.5103 1204.6 35.3221C1204.41 35.1339 1204.32 34.9084 1204.32 34.6456C1204.32 34.3828 1204.41 34.1573 1204.6 33.9691C1204.79 33.7809 1205.01 33.6868 1205.28 33.6868C1205.54 33.6868 1205.77 33.7809 1205.95 33.9691C1206.14 34.1573 1206.24 34.3828 1206.24 34.6456C1206.24 34.8196 1206.19 34.9794 1206.1 35.125C1206.02 35.2706 1205.9 35.3878 1205.76 35.4766C1205.61 35.5618 1205.45 35.6044 1205.28 35.6044ZM1205.28 30.0859C1205.01 30.0859 1204.79 29.9918 1204.6 29.8036C1204.41 29.6154 1204.32 29.3899 1204.32 29.1271C1204.32 28.8643 1204.41 28.6388 1204.6 28.4506C1204.79 28.2624 1205.01 28.1683 1205.28 28.1683C1205.54 28.1683 1205.77 28.2624 1205.95 28.4506C1206.14 28.6388 1206.24 28.8643 1206.24 29.1271C1206.24 29.3011 1206.19 29.4609 1206.1 29.6065C1206.02 29.7521 1205.9 29.8693 1205.76 29.9581C1205.61 30.0433 1205.45 30.0859 1205.28 30.0859ZM1212.01 37.1491C1211.3 37.1491 1210.68 37.0284 1210.13 36.7869C1209.58 36.5455 1209.14 36.2099 1208.82 35.7802C1208.5 35.3469 1208.33 34.8445 1208.3 34.2727H1209.64C1209.67 34.6243 1209.79 34.9279 1210 35.1836C1210.22 35.4357 1210.5 35.631 1210.84 35.7695C1211.18 35.908 1211.57 35.9773 1211.99 35.9773C1212.45 35.9773 1212.87 35.8956 1213.23 35.7322C1213.59 35.5689 1213.88 35.3416 1214.08 35.0504C1214.29 34.7592 1214.39 34.4219 1214.39 34.0384C1214.39 33.6371 1214.29 33.2837 1214.09 32.9783C1213.9 32.6694 1213.6 32.4279 1213.22 32.2539C1212.84 32.0799 1212.37 31.9929 1211.81 31.9929H1210.94V30.821H1211.81C1212.25 30.821 1212.63 30.7429 1212.95 30.5866C1213.28 30.4304 1213.54 30.2102 1213.73 29.9261C1213.92 29.642 1214.01 29.3082 1214.01 28.9247C1214.01 28.5554 1213.93 28.234 1213.76 27.9606C1213.6 27.6871 1213.37 27.4741 1213.07 27.3214C1212.78 27.1687 1212.43 27.0923 1212.03 27.0923C1211.65 27.0923 1211.3 27.1616 1210.96 27.3001C1210.63 27.435 1210.36 27.6321 1210.15 27.8913C1209.94 28.147 1209.83 28.456 1209.81 28.8182H1208.53C1208.55 28.2464 1208.73 27.7457 1209.05 27.3161C1209.37 26.8828 1209.8 26.5455 1210.32 26.304C1210.84 26.0625 1211.42 25.9418 1212.05 25.9418C1212.72 25.9418 1213.3 26.0785 1213.79 26.3519C1214.27 26.6218 1214.64 26.9787 1214.9 27.4226C1215.16 27.8665 1215.29 28.3459 1215.29 28.8608C1215.29 29.4751 1215.13 29.9989 1214.8 30.4322C1214.48 30.8654 1214.05 31.1655 1213.5 31.3324V31.4176C1214.19 31.5312 1214.72 31.8242 1215.11 32.2965C1215.5 32.7653 1215.69 33.3459 1215.69 34.0384C1215.69 34.6314 1215.53 35.1641 1215.21 35.6364C1214.89 36.1051 1214.45 36.4744 1213.9 36.7443C1213.34 37.0142 1212.71 37.1491 1212.01 37.1491ZM1222.92 27.2202L1223.6 27.7741L1219.6 35.892L1218.96 35.2741L1222.92 27.2202ZM1221.28 37.1491C1220.48 37.1491 1219.79 36.9308 1219.23 36.494C1218.66 36.0536 1218.23 35.4162 1217.93 34.5817C1217.64 33.7436 1217.49 32.7315 1217.49 31.5455C1217.49 30.3665 1217.64 29.3597 1217.93 28.5252C1218.24 27.6871 1218.67 27.0479 1219.23 26.6076C1219.8 26.1637 1220.48 25.9418 1221.28 25.9418C1222.07 25.9418 1222.75 26.1637 1223.32 26.6076C1223.89 27.0479 1224.32 27.6871 1224.62 28.5252C1224.92 29.3597 1225.07 30.3665 1225.07 31.5455C1225.07 32.7315 1224.92 33.7436 1224.62 34.5817C1224.33 35.4162 1223.89 36.0536 1223.33 36.494C1222.77 36.9308 1222.08 37.1491 1221.28 37.1491ZM1221.28 35.9773C1222.07 35.9773 1222.69 35.5937 1223.13 34.8267C1223.57 34.0597 1223.79 32.9659 1223.79 31.5455C1223.79 30.6009 1223.69 29.7965 1223.49 29.1325C1223.29 28.4684 1223 27.9624 1222.63 27.6143C1222.25 27.2663 1221.81 27.0923 1221.28 27.0923C1220.49 27.0923 1219.88 27.4812 1219.43 28.2589C1218.99 29.033 1218.77 30.1286 1218.77 31.5455C1218.77 32.4901 1218.86 33.2926 1219.06 33.9531C1219.26 34.6136 1219.55 35.1161 1219.92 35.4606C1220.3 35.805 1220.75 35.9773 1221.28 35.9773Z" fill="white"/>
<rect x="1492" y="24" width="13" height="13" rx="2" fill="white"/>
<path d="M1479.1 23.8054C1479.47 23.0647 1480.53 23.0647 1480.9 23.8054L1482.5 27.0453C1482.6 27.241 1482.76 27.3995 1482.95 27.4966L1486.19 29.1042C1486.94 29.4717 1486.94 30.5283 1486.19 30.8958L1482.95 32.5034C1482.76 32.6005 1482.6 32.759 1482.5 32.9547L1480.9 36.1946C1480.53 36.9353 1479.47 36.9353 1479.1 36.1946L1477.5 32.9547C1477.4 32.759 1477.24 32.6005 1477.05 32.5034L1473.81 30.8958C1473.06 30.5283 1473.06 29.4717 1473.81 29.1042L1477.05 27.4966C1477.24 27.3995 1477.4 27.241 1477.5 27.0453L1479.1 23.8054Z" fill="white"/>
<path d="M1462.13 24.5C1462.52 23.8333 1463.48 23.8333 1463.87 24.5L1469.93 35C1470.31 35.6667 1469.83 36.5 1469.06 36.5H1456.94C1456.17 36.5 1455.69 35.6667 1456.07 35L1462.13 24.5Z" fill="white"/>
<path fill-rule="evenodd" clip-rule="evenodd" d="M1349 19C1342.37 19 1337 24.3731 1337 31C1337 37.6269 1342.37 43 1349 43C1355.63 43 1361 37.6269 1361 31C1361 24.3731 1355.63 19 1349 19Z" fill="#484848"/>
<path d="M1296 852C1296 850.895 1296.9 850 1298 850H1402C1403.1 850 1404 850.895 1404 852C1404 853.105 1403.1 854 1402 854H1298C1296.9 854 1296 853.105 1296 852Z" fill="white"/>
<path d="M1196 752.243L1196.51 752.937L1197.02 753.645L1197.53 754.358L1198.04 755.067L1198.55 755.764L1199.06 756.44L1199.57 757.087L1200.08 757.698L1200.59 758.264L1201.1 758.78L1201.61 759.239L1202.12 759.635L1202.63 759.963L1203.14 760.22L1203.65 760.403L1204.16 760.509L1204.67 760.537L1205.18 760.487L1205.69 760.359L1206.2 760.154L1206.71 759.877L1207.22 759.528L1207.73 759.114L1208.24 758.638L1208.75 758.107L1209.26 757.527L1209.77 756.906L1210.28 756.249L1210.79 755.566L1211.3 754.865L1212.32 753.442L1212.83 752.737L1213.34 752.048L1213.85 751.383L1214.36 750.751L1214.87 750.158L1215.38 749.613L1215.89 749.121L1216.4 748.688L1216.91 748.32L1217.42 748.022L1217.93 747.796L1218.44 747.646L1218.95 747.574L1219.46 747.579L1219.97 747.663L1220.48 747.824L1220.99 748.06L1221.5 748.369L1222.01 748.746L1222.52 749.187L1223.03 749.687L1223.54 750.24L1224.05 750.839L1224.56 751.476L1225.07 752.145L1225.58 752.837L1226.09 753.543L1226.6 754.256L1227.11 754.966L1227.62 755.665L1228.13 756.345L1228.64 756.997L1229.15 757.613L1229.66 758.186L1230.17 758.71L1230.68 759.177L1231.19 759.582L1231.7 759.921L1232.21 760.188L1232.72 760.382L1233.23 760.499L1233.74 760.538L1234.25 760.499L1234.76 760.382L1235.27 760.188L1235.78 759.921L1236.29 759.582L1236.8 759.177L1237.31 758.71L1237.82 758.186L1238.33 757.613L1238.84 756.997L1239.35 756.345L1239.86 755.665L1240.37 754.966L1240.88 754.256L1241.39 753.543L1241.9 752.837L1242.41 752.145L1242.92 751.476L1243.43 750.839L1243.94 750.24L1244.45 749.687L1244.96 749.187L1245.47 748.746L1245.98 748.369L1246.49 748.06L1247 747.824L1247.51 747.663L1248.02 747.579L1248.53 747.574L1249.04 747.646L1249.55 747.796L1250.06 748.022L1250.57 748.32L1251.08 748.688L1251.59 749.121L1252.1 749.613L1252.61 750.158L1253.12 750.751L1253.63 751.383L1254.14 752.048L1254.65 752.737L1255.16 753.442L1256.18 754.865L1256.69 755.566L1257.2 756.249L1257.71 756.906L1258.22 757.527L1258.73 758.107L1259.24 758.638L1259.76 759.114L1260.27 759.528L1260.78 759.877L1261.29 760.154L1261.8 760.359L1262.31 760.487L1262.82 760.537L1263.33 760.509L1263.84 760.403L1264.35 760.22L1264.86 759.963L1265.37 759.635L1265.88 759.239L1266.39 758.78L1266.9 758.264L1267.41 757.698L1267.92 757.087L1268.43 756.44L1268.94 755.764L1269.45 755.067L1269.96 754.358L1270.47 753.645L1270.98 752.937L1271.49 752.243L1272 751.57L1272.51 750.928L1273.02 750.323L1273.53 749.763L1274.04 749.255L1274.55 748.805L1275.06 748.419L1275.57 748.1L1276.08 747.853L1276.59 747.681L1277.1 747.587L1277.61 747.57L1278.12 747.631L1278.63 747.77L1279.14 747.985L1279.65 748.273L1280.16 748.631L1280.67 749.055L1281.18 749.539L1281.69 750.077L1282.2 750.663L1282.71 751.291L1283.22 751.951L1283.73 752.637L1284.24 753.341L1285.26 754.764L1285.77 755.467L1286.28 756.153L1286.79 756.814L1287.3 757.441L1287.81 758.027L1288.32 758.566L1288.83 759.05L1289.34 759.473L1289.85 759.831L1290.36 760.119L1290.87 760.334L1291.38 760.473L1291.89 760.535L1292.4 760.518L1292.91 760.423L1293.42 760.251L1293.93 760.004L1294.44 759.686L1294.95 759.299L1295.46 758.849L1295.97 758.341L1296.48 757.782L1296.99 757.177L1297.5 756.534L1298.01 755.862L1298.52 755.167L1299.03 754.459L1299.54 753.747L1300.05 753.038L1300.56 752.341L1301.07 751.665L1301.58 751.017L1302.09 750.407L1302.6 749.84L1303.11 749.324L1303.62 748.866L1304.13 748.47L1304.64 748.141L1305.15 747.884L1305.66 747.701L1306.17 747.595L1306.68 747.567L1307.19 747.618L1307.7 747.746L1308.21 747.95L1308.72 748.228L1309.23 748.576L1309.74 748.991L1310.25 749.466L1310.76 749.997L1311.27 750.577L1311.78 751.199L1312.29 751.855L1312.8 752.538L1313.31 753.239L1314.33 754.663L1314.84 755.367L1315.35 756.056L1315.86 756.721L1316.37 757.354L1316.88 757.946L1317.39 758.492L1317.9 758.984L1318.41 759.416L1318.92 759.784L1319.43 760.082L1319.94 760.308L1320.45 760.458L1320.96 760.531L1321.47 760.525L1321.98 760.441L1322.49 760.28L1323 760.044L1323.51 759.736L1324.02 759.358L1324.53 758.917L1325.04 758.417L1325.55 757.864L1326.06 757.266L1326.57 756.628L1327.08 755.959L1327.59 755.268L1328.1 754.561L1328.61 753.849L1329.12 753.138L1329.63 752.439L1330.14 751.76L1330.65 751.108L1331.16 750.491L1331.67 749.918L1332.18 749.395L1332.69 748.928L1333.2 748.522L1333.71 748.184L1334.22 747.916L1334.73 747.723L1335.24 747.606L1335.75 747.567L1336.26 747.606L1336.77 747.723L1337.28 747.916L1337.79 748.184L1338.3 748.522L1338.81 748.928L1339.32 749.395L1339.83 749.918L1340.34 750.491L1340.85 751.108L1341.36 751.76L1341.87 752.439L1342.38 753.138L1342.89 753.849L1343.4 754.561L1343.91 755.268L1344.42 755.959L1344.93 756.628L1345.44 757.266L1345.95 757.864L1346.46 758.417L1346.97 758.917L1347.48 759.358L1347.99 759.736L1348.5 760.044L1349.01 760.28L1349.52 760.441L1350.03 760.525L1350.54 760.531L1351.05 760.458L1351.56 760.308L1352.07 760.082L1352.58 759.784L1353.09 759.416L1353.6 758.984L1354.11 758.492L1354.62 757.946L1355.13 757.354L1355.64 756.721L1356.15 756.056L1356.66 755.367L1357.17 754.663L1358.19 753.239L1358.7 752.538L1359.21 751.855" stroke="white" stroke-width="3" stroke-miterlimit="10" stroke-linecap="round" stroke-linejoin="round"/>
<rect x="1357.68" y="740" width="4.08032" height="28.645" rx="2.04016" fill="white"/>
<path d="M1509.47 756.212C1510.3 756.226 1510.99 755.566 1511 754.737C1511.01 753.909 1510.35 753.226 1509.53 753.212L1509.47 756.212ZM1361.76 754.712L1361.77 756.212C1434.4 755.996 1504.14 756.122 1509.47 756.212L1509.5 754.712L1509.53 753.212C1504.15 753.122 1434.38 752.996 1361.76 753.212L1361.76 754.712Z" fill="white" fill-opacity="0.2"/>
<rect x="1191" y="675" width="306" height="5" rx="2.5" fill="white" fill-opacity="0.15"/>
<rect x="1191" y="693" width="289" height="5" rx="2.5" fill="white" fill-opacity="0.15"/>
<rect x="1191" y="702" width="216" height="5" rx="2.5" fill="white" fill-opacity="0.15"/>
<rect x="1191" y="711" width="300" height="5" rx="2.5" fill="white" fill-opacity="0.15"/>
<rect x="1191" y="684" width="259" height="5" rx="2.5" fill="white" fill-opacity="0.15"/>
<g clip-path="url(#paint2_diamond_247_893_clip_path)" data-figma-skip-parse="true"><g transform="matrix(2.0105 2.4285 -2.73758 2.26638 1240 -1286)"><rect x="0" y="0" width="505.506" height="342.181" fill="url(#paint2_diamond_247_893)" opacity="1" shape-rendering="crispEdges"/><rect x="0" y="0" width="505.506" height="342.181" transform="scale(1 -1)" fill="url(#paint2_diamond_247_893)" opacity="1" shape-rendering="crispEdges"/><rect x="0" y="0" width="505.506" height="342.181" transform="scale(-1 1)" fill="url(#paint2_diamond_247_893)" opacity="1" shape-rendering="crispEdges"/><rect x="0" y="0" width="505.506" height="342.181" transform="scale(-1)" fill="url(#paint2_diamond_247_893)" opacity="1" shape-rendering="crispEdges"/></g></g><rect x="1188" y="66" width="324" height="490" rx="20" data-figma-gradient-fill="{&#34;type&#34;:&#34;GRADIENT_DIAMOND&#34;,&#34;stops&#34;:[{&#34;color&#34;:{&#34;r&#34;:1.0,&#34;g&#34;:1.0,&#34;b&#34;:1.0,&#34;a&#34;:1.0},&#34;position&#34;:0.0},{&#34;color&#34;:{&#34;r&#34;:0.81951123476028442,&#34;g&#34;:1.0,&#34;b&#34;:0.79567307233810425,&#34;a&#34;:1.0},&#34;position&#34;:0.50},{&#34;color&#34;:{&#34;r&#34;:0.92307692766189575,&#34;g&#34;:0.92564105987548828,&#34;b&#34;:1.0,&#34;a&#34;:1.0},&#34;position&#34;:0.750},{&#34;color&#34;:{&#34;r&#34;:1.0,&#34;g&#34;:0.80769228935241699,&#34;b&#34;:0.96474438905715942,&#34;a&#34;:1.0},&#34;position&#34;:1.0}],&#34;stopsVar&#34;:[{&#34;color&#34;:{&#34;r&#34;:1.0,&#34;g&#34;:1.0,&#34;b&#34;:1.0,&#34;a&#34;:1.0},&#34;position&#34;:0.0},{&#34;color&#34;:{&#34;r&#34;:0.81951123476028442,&#34;g&#34;:1.0,&#34;b&#34;:0.79567307233810425,&#34;a&#34;:1.0},&#34;position&#34;:0.50},{&#34;color&#34;:{&#34;r&#34;:0.92307692766189575,&#34;g&#34;:0.92564105987548828,&#34;b&#34;:1.0,&#34;a&#34;:1.0},&#34;position&#34;:0.750},{&#34;color&#34;:{&#34;r&#34;:1.0,&#34;g&#34;:0.80769228935241699,&#34;b&#34;:0.96474438905715942,&#34;a&#34;:1.0},&#34;position&#34;:1.0}],&#34;transform&#34;:{&#34;m00&#34;:4020.9997558593750,&#34;m01&#34;:-5475.157714843750,&#34;m02&#34;:1967.07910156250,&#34;m10&#34;:4857.0,&#34;m11&#34;:4532.75878906250,&#34;m12&#34;:-5980.879394531250},&#34;opacity&#34;:1.0,&#34;blendMode&#34;:&#34;NORMAL&#34;,&#34;visible&#34;:true}"/>
<circle cx="1218" cy="617" r="30" fill="white" fill-opacity="0.15"/>
<circle cx="1306" cy="617" r="30" fill="white" fill-opacity="0.15"/>
<circle cx="1394" cy="617" r="30" fill="white" fill-opacity="0.15"/>
<circle cx="1482" cy="617" r="30" fill="white" fill-opacity="0.15"/>
<rect x="1191" y="790" width="321" height="33" rx="10" fill="white" fill-opacity="0.15"/>
<defs>
<clipPath id="paint0_diamond_247_893_clip_path"><rect x="22" y="188" width="322" height="158" rx="20"/></clipPath><filter id="filter0_d_247_893" x="387" y="417" width="369" height="453" filterUnits="userSpaceOnUse" color-interpolation-filters="sRGB">
<feFlood flood-opacity="0" result="BackgroundImageFix"/>
<feColorMatrix in="SourceAlpha" type="matrix" values="0 0 0 0 0 0 0 0 0 0 0 0 0 0 0 0 0 0 127 0" result="hardAlpha"/>
<feOffset dy="-2"/>
<feGaussianBlur stdDeviation="2.5"/>
<feComposite in2="hardAlpha" operator="out"/>
<feColorMatrix type="matrix" values="0 0 0 0 0 0 0 0 0 0 0 0 0 0 0 0 0 0 0.05 0"/>
<feBlend mode="normal" in2="BackgroundImageFix" result="effect1_dropShadow_247_893"/>
<feBlend mode="normal" in="SourceGraphic" in2="effect1_dropShadow_247_893" result="shape"/>
</filter>
<filter id="filter1_d_247_893" x="408" y="68" width="327" height="60" filterUnits="userSpaceOnUse" color-interpolation-filters="sRGB">
<feFlood flood-opacity="0" result="BackgroundImageFix"/>
<feColorMatrix in="SourceAlpha" type="matrix" values="0 0 0 0 0 0 0 0 0 0 0 0 0 0 0 0 0 0 127 0" result="hardAlpha"/>
<feOffset/>
<feGaussianBlur stdDeviation="2.5"/>
<feComposite in2="hardAlpha" operator="out"/>
<feColorMatrix type="matrix" values="0 0 0 0 0 0 0 0 0 0 0 0 0 0 0 0 0 0 0.1 0"/>
<feBlend mode="normal" in2="BackgroundImageFix" result="effect1_dropShadow_247_893"/>
<feBlend mode="normal" in="SourceGraphic" in2="effect1_dropShadow_247_893" result="shape"/>
</filter>
<clipPath id="paint1_diamond_247_893_clip_path"><rect x="812" y="125" width="297" height="167" rx="15"/></clipPath><clipPath id="paint2_diamond_247_893_clip_path"><rect x="1188" y="66" width="324" height="490" rx="20"/></clipPath><linearGradient id="paint0_diamond_247_893" x1="0" y1="0" x2="500" y2="500" gradientUnits="userSpaceOnUse">
<stop stop-color="#FFD3D3"/>
<stop offset="1" stop-color="#C5E8FF"/>
</linearGradient>
<linearGradient id="paint1_diamond_247_893" x1="0" y1="0" x2="500" y2="500" gradientUnits="userSpaceOnUse">
<stop stop-color="#9A863E"/>
<stop offset="1" stop-color="#F697EB"/>
</linearGradient>
<linearGradient id="paint2_diamond_247_893" x1="0" y1="0" x2="500" y2="500" gradientUnits="userSpaceOnUse">
<stop stop-color="white"/>
<stop offset="0.5" stop-color="#D1FFCB"/>
<stop offset="0.75" stop-color="#EBECFF"/>
<stop offset="1" stop-color="#FFCEF6"/>
</linearGradient>
<clipPath id="clip0_247_893">
<rect x="392" y="3" width="359" height="864" rx="10" fill="white"/>
</clipPath>
</defs>
</svg>
