<svg width="99" height="190" viewBox="0 0 99 190" fill="none" xmlns="http://www.w3.org/2000/svg">
<path d="M66.8781 81.3782H30.5564C15.4318 81.3782 3.1709 92.6606 3.1709 106.578V161.753C3.1709 175.671 15.4318 186.953 30.5564 186.953H66.8781C82.0027 186.953 94.2636 175.671 94.2636 161.753V106.578C94.2636 92.6606 82.0027 81.3782 66.8781 81.3782Z" stroke="#080F00" stroke-width="5"/>
<path d="M32.286 64.2722C32.286 64.2722 3.56592 64.0775 3.56592 64.3428C3.56592 64.608 32.286 71.9649 32.286 80.7186L47.8524 80.7539M32.286 64.2722C31.2023 62.0248 14.5359 54.8834 9.51278 35.6239C4.57311 16.6845 5.86141 13.5186 6.6301 14.4028C13.2603 27.3123 38.4904 55.7438 39.2257 54.9586M32.286 64.2722L47.8524 80.7539M32.286 64.2722L39.2257 54.9586M39.2257 54.9586C40.1172 52.6033 48.1407 1.01837 48.1407 3.14049C48.1407 3.14049 57.0557 51.8181 57.0557 54.9586M39.2257 54.9586L48.1407 62.8099L57.0557 54.9586M57.0557 54.9586C57.0557 56.3145 82.4446 27.3825 89.0748 14.473C89.8433 13.5888 90.3431 16.5951 86.1921 35.6941C82.041 54.7931 65.9706 61.2396 63.4189 64.3428M57.0557 54.9586L63.4189 64.3428M63.4189 64.3428C61.5131 64.3428 93.389 64.0865 93.607 64.2722C93.8249 64.4579 63.4189 72.0354 63.4189 80.7891L47.8524 80.7539M63.4189 64.3428L47.8859 80.7186L47.8524 80.7539" stroke="#080F00" stroke-width="5"/>
<path d="M26.2324 186.157L93.9754 103.66" stroke="#080F00" stroke-width="5"/>
<path d="M49.2939 186.423L94.2638 131.248" stroke="#080F00" stroke-width="5"/>
<path d="M72.6436 185.289L78.4516 169.587L94.5519 157.437" stroke="#080F00" stroke-width="5"/>
<path d="M3.56592 108.71L19.6128 96.5703L26.3391 81.653" stroke="#080F00" stroke-width="5"/>
<path d="M10.666 177.404L85.0392 88.5402" stroke="#080F00" stroke-width="5"/>
<path d="M3.74756 159.101L68.3196 81.1129" stroke="#080F00" stroke-width="5"/>
<path d="M3.1709 133.37L46.9876 80.8477" stroke="#080F00" stroke-width="5"/>
<path d="M71.4905 186.157L3.74756 103.66" stroke="#080F00" stroke-width="5"/>
<path d="M48.4288 186.423L3.45898 131.248" stroke="#080F00" stroke-width="5"/>
<path d="M25.0793 186.688L17.8299 169.587L3.1709 158.835" stroke="#080F00" stroke-width="5"/>
<path d="M94.2638 109.231L77.5603 97.3554L72.3555 81.3782" stroke="#080F00" stroke-width="5"/>
<path d="M87.0567 177.404L12.6836 88.5402" stroke="#080F00" stroke-width="5"/>
<path d="M93.9753 159.101L29.4033 81.1129" stroke="#080F00" stroke-width="5"/>
<path d="M94.5521 133.37L50.7354 80.8477" stroke="#080F00" stroke-width="5"/>
</svg>
