<svg width="192" height="93" viewBox="0 0 192 93" fill="none" xmlns="http://www.w3.org/2000/svg">
<path d="M96 5C78.0019 5 60.408 7.43393 45.4431 11.994C30.4783 16.5541 18.8146 23.0355 11.927 30.6186C5.03943 38.2018 3.23733 46.546 6.74858 54.5962C10.2598 62.6464 18.9267 70.041 31.6533 75.8449C44.3799 81.6488 60.5945 85.6013 78.2468 87.2026C95.8991 88.8039 114.196 87.982 130.824 84.841C147.452 81.6999 161.665 76.3808 171.664 69.5561C181.663 62.7315 187 54.7079 187 46.5C187 35.4935 177.413 24.9378 160.347 17.1551C143.281 9.37231 120.135 5 96 5ZM96 5C79.2156 5 65.6667 23.4444 65.6667 46.5C65.6667 69.5555 79.2156 88 96 88C112.784 88 126.333 69.5555 126.333 46.5C126.333 23.4444 112.784 5 96 5ZM168.8 71.4C155.962 66.4834 140.576 63.1496 124.109 61.7167C105.589 59.8678 86.4111 59.8678 67.8911 61.7167C51.4243 63.1496 36.0376 66.4834 23.2 71.4M168.8 21.6C155.962 26.5165 140.576 29.8504 124.109 31.2833C114.882 32.2213 105.453 32.6853 96 32.6667C86.5466 32.6853 77.1183 32.2213 67.8911 31.2833C51.4243 29.8504 36.0376 26.5165 23.2 21.6" stroke="black" stroke-width="10" stroke-linecap="round" stroke-linejoin="round"/>
</svg>
