<svg width="1124" height="103" viewBox="0 0 1124 103" fill="none" xmlns="http://www.w3.org/2000/svg">
<path d="M7 44.5763L9.22892 47.0496L11.4578 49.5708L13.6867 52.1096L15.9157 54.6353L18.1446 57.1173L20.3735 59.5257L22.6024 61.8313L24.8313 64.0064L27.0602 66.0247L29.2892 67.8618L31.5181 69.4954L33.747 70.9059L35.9759 72.0763L38.2048 72.9923L40.4337 73.643L42.6627 74.0205L44.8916 74.1202L47.1205 73.9408L49.3494 73.4847L51.5783 72.7573L53.8072 71.7673L56.0361 70.5267L58.2651 69.0506L60.494 67.3567L62.7229 65.4655L64.9518 63.3999L67.1807 61.1847L69.4096 58.8468L71.6385 56.4144L73.8675 53.9168L78.3253 48.8473L80.5542 46.3367L82.7831 43.8826L85.012 41.5148L87.241 39.2617L89.4699 37.1507L91.6988 35.2073L93.9277 33.4548L96.1566 31.9145L98.3855 30.605L100.614 29.5421L102.843 28.7386L105.072 28.2042L107.301 27.9454L109.53 27.9654L111.759 28.2638L113.988 28.8371L116.217 29.6783L118.446 30.7773L120.675 32.1208L122.904 33.6926L125.133 35.4737L127.361 37.4426L129.59 39.5755L131.819 41.8466L134.048 44.2286L136.277 46.6926L138.506 49.2089L140.735 51.747L142.964 54.2764L145.193 56.7665L147.422 59.1872L149.651 61.5093L151.88 63.7047L154.108 65.7469L156.337 67.6113L158.566 69.2752L160.795 70.7188L163.024 71.9244L165.253 72.8775L167.482 73.5666L169.711 73.9835L171.94 74.123L174.169 73.9835L176.398 73.5666L178.626 72.8775L180.855 71.9244L183.084 70.7188L185.313 69.2752L187.542 67.6113L189.771 65.7469L192 63.7047L194.229 61.5093L196.458 59.1872L198.687 56.7665L200.916 54.2764L203.145 51.747L205.373 49.2089L207.602 46.6926L209.831 44.2286L212.06 41.8466L214.289 39.5755L216.518 37.4426L218.747 35.4737L220.976 33.6926L223.205 32.1208L225.434 30.7773L227.663 29.6783L229.892 28.8371L232.12 28.2638L234.349 27.9654L236.578 27.9454L238.807 28.2042L241.036 28.7386L243.265 29.5421L245.494 30.605L247.723 31.9145L249.952 33.4548L252.181 35.2073L254.41 37.1507L256.639 39.2617L258.867 41.5148L261.096 43.8826L263.325 46.3367L265.554 48.8473L270.012 53.9168L272.241 56.4144L274.47 58.8468L276.699 61.1847L278.928 63.3999L281.157 65.4655L283.386 67.3567L285.614 69.0506L287.843 70.5267L290.072 71.7673L292.301 72.7573L294.53 73.4847L296.759 73.9408L298.988 74.1202L301.217 74.0205L303.446 73.643L305.675 72.9923L307.904 72.0763L310.133 70.9059L312.361 69.4954L314.59 67.8618L316.819 66.0247L319.048 64.0064L321.277 61.8313L323.506 59.5257L325.735 57.1173L327.964 54.6353L330.193 52.1096L332.422 49.5708L334.651 47.0496L336.879 44.5763L339.108 42.1808L341.337 39.8921L343.566 37.7379L345.795 35.744L348.024 33.9347L350.253 32.3318L352.482 30.9546L354.711 29.8198L356.94 28.9411L359.169 28.329L361.398 27.991L363.626 27.9312L365.855 28.1503L368.084 28.6456L370.313 29.4111L372.542 30.4377L374.771 31.7129L377 33.2213L379.229 34.9447L381.458 36.8623L383.687 38.9509L385.916 41.1852L388.145 43.5384L390.373 45.9819L392.602 48.4864L397.06 53.5564L399.289 56.0609L401.518 58.5044L403.747 60.8576L405.976 63.092L408.205 65.1805L410.434 67.0981L412.663 68.8215L414.892 70.3299L417.12 71.6051L419.349 72.6317L421.578 73.3972L423.807 73.8925L426.036 74.1116L428.265 74.0518L430.494 73.7138L432.723 73.1017L434.952 72.223L437.181 71.0882L439.41 69.711L441.639 68.1081L443.867 66.2988L446.096 64.3049L448.325 62.1507L450.554 59.862L452.783 57.4665L455.012 54.9932L457.241 52.472L459.47 49.9332L461.699 47.4075L463.928 44.9255L466.157 42.5171L468.385 40.2115L470.614 38.0364L472.843 36.0181L475.072 34.1811L477.301 32.5474L479.53 31.1369L481.759 29.9665L483.988 29.0505L486.217 28.3998L488.446 28.0223L490.675 27.9226L492.904 28.102L495.132 28.5581L497.361 29.2856L499.59 30.2755L501.819 31.5161L504.048 32.9922L506.277 34.6861L508.506 36.5773L510.735 38.6429L512.964 40.8581L515.193 43.196L517.422 45.6284L519.651 48.126L524.108 53.1955L526.337 55.7061L528.566 58.1602L530.795 60.528L533.024 62.7811L535.253 64.8921L537.482 66.8355L539.711 68.588L541.94 70.1283L544.169 71.4378L546.397 72.5007L548.626 73.3042L550.855 73.8386L553.084 74.0974L555.313 74.0774L557.542 73.779L559.771 73.2057L562 72.3645L564.229 71.2655L566.458 69.922L568.687 68.3502L570.915 66.5691L573.144 64.6002L575.373 62.4673L577.602 60.1962L579.831 57.8142L582.06 55.3502L584.289 52.8339L586.518 50.2958L588.747 47.7664L590.976 45.2763L593.205 42.8556L595.434 40.5335L597.662 38.3381L599.891 36.2959L602.12 34.4315L604.349 32.7676L606.578 31.324L608.807 30.1184L611.036 29.1653L613.265 28.4762L615.494 28.0593L617.723 27.9198L619.952 28.0593L622.181 28.4762L624.409 29.1653L626.638 30.1184L628.867 31.324L631.096 32.7676L633.325 34.4315L635.554 36.2959L637.783 38.3381L640.012 40.5335L642.241 42.8556L644.47 45.2763L646.699 47.7664L648.927 50.2958L651.156 52.8339L653.385 55.3502L655.614 57.8142L657.843 60.1962L660.072 62.4673L662.301 64.6002L664.53 66.5691L666.759 68.3502L668.988 69.922L671.217 71.2655L673.446 72.3645L675.674 73.2057L677.903 73.779L680.132 74.0774L682.361 74.0974L684.59 73.8386L686.819 73.3042L689.048 72.5007L691.277 71.4378L693.506 70.1283L695.735 68.588L697.964 66.8355L700.193 64.8921L702.422 62.7811L704.65 60.528L706.879 58.1602L709.108 55.7061L711.337 53.1955L715.795 48.126L718.024 45.6284L720.253 43.196" stroke="#0055D5" stroke-width="14" stroke-miterlimit="10" stroke-linecap="round" stroke-linejoin="round"/>
<rect x="713.566" y="0.967896" width="17.8313" height="102.032" rx="8.91566" fill="#0055D5"/>
<path d="M1116.9 60.3711C1120.77 60.4241 1123.95 57.3333 1124 53.4677C1124.05 49.602 1120.96 46.4254 1117.1 46.3724L1116.9 60.3711ZM731.414 60.3717C1048.83 59.6016 1093.57 60.0511 1116.9 60.3711L1117.1 46.3724C1093.62 46.0506 1048.76 45.6017 731.38 46.3717L731.414 60.3717Z" fill="#DAE2FF"/>
</svg>
