<svg width="2473" height="1380" viewBox="0 0 2473 1380" fill="none" xmlns="http://www.w3.org/2000/svg">
<rect width="2473" height="1380" fill="#FBFBFF"/>
<g clip-path="url(#clip0_216_43)">
<path d="M327 661.105L332.028 652.812L337.055 644.72L342.083 636.928L347.111 629.529L352.138 622.613L357.166 616.263L362.193 610.556L367.221 605.561L372.249 601.338L377.276 597.939L382.304 595.403L387.332 593.763L392.359 593.038L397.387 593.236L402.415 594.355L407.442 596.382L412.47 599.292L417.497 603.05L422.525 607.61L427.553 612.918L432.58 618.91L437.608 625.512L442.636 632.646L447.663 640.225L452.691 648.157L457.719 656.347L462.746 664.697L467.774 673.104L472.802 681.467L477.829 689.686L482.857 697.662L487.884 705.297L492.912 712.499L497.94 719.183L502.967 725.266L507.995 730.676L513.023 735.347L518.05 739.222L523.078 742.256L528.106 744.411L533.133 745.66L538.161 745.991L543.188 745.397L548.216 743.886L553.244 741.477L558.271 738.199L563.299 734.091L568.327 729.203L573.354 723.594L578.382 717.331L583.41 710.491L588.437 703.155L593.465 695.413L598.492 687.359L603.52 679.088L608.548 670.702L613.575 662.301L618.603 653.987L623.631 645.86L628.658 638.019L633.686 630.558L638.714 623.568L643.741 617.132L648.769 611.329L653.796 606.228L658.824 601.892L663.852 598.372L668.879 595.711L673.907 593.942L678.935 593.085L683.962 593.151L688.99 594.139L694.018 596.038L699.045 598.823L704.073 602.463L709.101 606.912L714.128 612.116L719.156 618.015L724.183 624.534L729.211 631.597L734.239 639.118L739.266 647.006L744.294 655.165L749.322 663.498L754.349 671.903L759.377 680.279L764.405 688.525L769.432 696.541L774.46 704.23L779.487 711.5L784.515 718.263L789.543 724.437L794.57 729.947L799.598 734.727L804.626 738.719L809.653 741.876L814.681 744.158L819.709 745.538L824.736 746L829.764 745.538L834.792 744.158L839.819 741.876L844.847 738.719L849.874 734.727L854.902 729.947L859.93 724.437L864.957 718.263L869.985 711.5L875.013 704.23L880.04 696.541L885.068 688.525L890.096 680.279L895.123 671.903L900.151 663.498L905.178 655.165L910.206 647.006L915.234 639.118L920.261 631.597L925.289 624.534L930.317 618.015L935.344 612.116L940.372 606.912L945.4 602.463L950.427 598.823L955.455 596.038L960.482 594.139L965.51 593.151L970.538 593.085L975.565 593.942L980.593 595.711L985.621 598.372L990.648 601.892L995.676 606.228L1000.7 611.329L1005.73 617.132L1010.76 623.568L1015.79 630.558L1020.81 638.019L1025.84 645.86L1030.87 653.987L1035.9 662.301L1040.92 670.702L1045.95 679.088L1050.98 687.359L1056.01 695.413L1061.04 703.155L1066.06 710.491L1071.09 717.331L1076.12 723.594L1081.15 729.203L1086.17 734.091L1091.2 738.199L1096.23 741.477L1101.26 743.886L1106.28 745.397L1111.31 745.991L1116.34 745.66L1121.37 744.411L1126.39 742.256L1131.42 739.222L1136.45 735.347L1141.48 730.676L1146.51 725.266L1151.53 719.183L1156.56 712.499L1161.59 705.297L1166.62 697.662L1171.64 689.686L1176.67 681.467L1181.7 673.104L1186.73 664.697L1191.75 656.347L1196.78 648.157L1201.81 640.225L1206.84 632.646L1211.86 625.512L1216.89 618.91L1221.92 612.918L1226.95 607.61L1231.97 603.05L1237 599.292L1242.03 596.382L1247.06 594.355L1252.09 593.236L1257.11 593.038L1262.14 593.763L1267.17 595.403L1272.2 597.939L1277.22 601.338L1282.25 605.561L1287.28 610.556L1292.31 616.263L1297.33 622.613L1302.36 629.529L1307.39 636.928L1312.42 644.72L1317.44 652.812L1322.47 661.105L1327.5 669.5L1332.53 677.895L1337.56 686.188L1342.58 694.28L1347.61 702.072L1352.64 709.471L1357.67 716.387L1362.69 722.737L1367.72 728.444L1372.75 733.439L1377.78 737.662L1382.8 741.061L1387.83 743.597L1392.86 745.237L1397.89 745.962L1402.91 745.764L1407.94 744.645L1412.97 742.618L1418 739.708L1423.02 735.95L1428.05 731.39L1433.08 726.082L1438.11 720.09L1443.14 713.488L1448.16 706.354L1453.19 698.775L1458.22 690.843L1463.25 682.653L1468.27 674.303L1473.3 665.896L1478.33 657.533L1483.36 649.314L1488.38 641.338L1493.41 633.703L1498.44 626.501L1503.47 619.817L1508.49 613.734L1513.52 608.324L1518.55 603.653L1523.58 599.778L1528.61 596.744L1533.63 594.589L1538.66 593.34L1543.69 593.009L1548.72 593.603L1553.74 595.114L1558.77 597.523L1563.8 600.801L1568.83 604.909L1573.85 609.797L1578.88 615.406L1583.91 621.669L1588.94 628.509L1593.96 635.845L1598.99 643.587L1604.02 651.641L1609.05 659.912L1614.08 668.298L1619.1 676.699L1624.13 685.013L1629.16 693.14L1634.19 700.981L1639.21 708.442L1644.24 715.432L1649.27 721.868L1654.3 727.671L1659.32 732.772L1664.35 737.108L1669.38 740.628L1674.41 743.289L1679.43 745.058L1684.46 745.915L1689.49 745.849L1694.52 744.861L1699.55 742.962L1704.57 740.177L1709.6 736.537L1714.63 732.088L1719.66 726.884L1724.68 720.985L1729.71 714.466L1734.74 707.403L1739.77 699.882L1744.79 691.994L1749.82 683.835L1754.85 675.502L1759.88 667.097L1764.9 658.721L1769.93 650.475L1774.96 642.459L1779.99 634.77L1785.02 627.5L1790.04 620.737L1795.07 614.563L1800.1 609.053L1805.13 604.273L1810.15 600.281L1815.18 597.124L1820.21 594.842L1825.24 593.462L1830.26 593L1835.29 593.462L1840.32 594.842L1845.35 597.124L1850.37 600.281L1855.4 604.273L1860.43 609.053L1865.46 614.563L1870.48 620.737L1875.51 627.5L1880.54 634.77L1885.57 642.459L1890.6 650.475L1895.62 658.721L1900.65 667.097L1905.68 675.502L1910.71 683.835L1915.73 691.994L1920.76 699.882L1925.79 707.403L1930.82 714.466L1935.84 720.985L1940.87 726.884L1945.9 732.088L1950.93 736.537L1955.95 740.177L1960.98 742.962L1966.01 744.861L1971.04 745.849L1976.07 745.915L1981.09 745.058L1986.12 743.289L1991.15 740.628L1996.18 737.108L2001.2 732.772L2006.23 727.671L2011.26 721.868L2016.29 715.432L2021.31 708.442L2026.34 700.981L2031.37 693.14L2036.4 685.013L2041.42 676.699L2046.45 668.298L2051.48 659.912L2056.51 651.641L2061.54 643.587L2066.56 635.845L2071.59 628.509L2076.62 621.669L2081.65 615.406L2086.67 609.797L2091.7 604.909L2096.73 600.801L2101.76 597.523L2106.78 595.114L2111.81 593.603L2116.84 593.009L2121.87 593.34L2126.89 594.589L2131.92 596.744L2136.95 599.778L2141.98 603.653L2147.01 608.324L2152.03 613.734L2157.06 619.817L2162.09 626.501L2167.12 633.703L2172.14 641.338L2177.17 649.314L2182.2 657.533L2187.23 665.896L2192.25 674.303L2197.28 682.653L2202.31 690.843L2207.34 698.775L2212.36 706.354L2217.39 713.488L2222.42 720.09L2227.45 726.082L2232.47 731.39L2237.5 735.95L2242.53 739.708L2247.56 742.618L2252.59 744.645L2257.61 745.764L2262.64 745.962L2267.67 745.237L2272.7 743.597L2277.72 741.061L2282.75 737.662L2287.78 733.439L2292.81 728.444L2297.83 722.737L2302.86 716.387L2307.89 709.471L2312.92 702.072L2317.94 694.28L2322.97 686.188L2328 677.895" stroke="#0055D5" stroke-width="40" stroke-miterlimit="10" stroke-linecap="round" stroke-linejoin="round"/>
<path opacity="0.5" d="M965 530.5V406" stroke="black" stroke-width="5"/>
</g>
<path opacity="0.2" d="M2198 681C2209.05 681 2218 672.046 2218 661C2218 649.954 2209.05 641 2198 641L2198 681ZM1497 681L2198 681L2198 641L1497 641L1497 681Z" fill="#0055D5"/>
<path d="M1487.5 850.5L1487.5 492.999" stroke="#0055D5" stroke-width="40" stroke-linecap="round"/>
<path opacity="0.5" d="M465 818V859C465 870.046 473.954 879 485 879H894.5C905.546 879 914.5 870.046 914.5 859V818" stroke="black" stroke-width="5"/>
<path opacity="0.5" d="M683 934.5V880.5" stroke="black" stroke-width="5"/>
<path opacity="0.5" d="M741.005 380.49C738.196 380.49 735.974 379.771 734.341 378.334C732.74 376.864 731.94 374.871 731.94 372.356C731.94 369.808 732.789 367.815 734.488 366.378C736.219 364.908 738.588 364.173 741.593 364.173H749.09V361.674C749.09 360.204 748.633 359.061 747.718 358.244C746.803 357.427 745.513 357.019 743.847 357.019C742.377 357.019 741.152 357.346 740.172 357.999C739.192 358.62 738.62 359.453 738.457 360.498H733.263C733.557 358.081 734.668 356.153 736.595 354.716C738.555 353.279 741.021 352.56 743.994 352.56C747.195 352.56 749.727 353.377 751.589 355.01C753.451 356.611 754.382 358.799 754.382 361.576V380H749.237V375.051H748.355L749.237 374.071C749.237 376.031 748.486 377.599 746.983 378.775C745.48 379.918 743.488 380.49 741.005 380.49ZM742.573 376.423C744.468 376.423 746.019 375.949 747.228 375.002C748.469 374.022 749.09 372.781 749.09 371.278V367.75H741.691C740.319 367.75 739.225 368.126 738.408 368.877C737.624 369.628 737.232 370.657 737.232 371.964C737.232 373.336 737.706 374.43 738.653 375.247C739.6 376.031 740.907 376.423 742.573 376.423ZM773.277 380.49C771.056 380.49 769.096 380.082 767.397 379.265C765.731 378.416 764.441 377.207 763.526 375.639C762.644 374.038 762.203 372.176 762.203 370.053V362.997C762.203 360.841 762.644 358.979 763.526 357.411C764.441 355.843 765.731 354.651 767.397 353.834C769.096 352.985 771.056 352.56 773.277 352.56C776.511 352.56 779.108 353.409 781.068 355.108C783.028 356.807 784.057 359.126 784.155 362.066H778.863C778.765 360.531 778.226 359.338 777.246 358.489C776.266 357.64 774.943 357.215 773.277 357.215C771.48 357.215 770.059 357.721 769.014 358.734C767.969 359.714 767.446 361.119 767.446 362.948V370.053C767.446 371.882 767.969 373.303 769.014 374.316C770.059 375.329 771.48 375.835 773.277 375.835C774.943 375.835 776.266 375.41 777.246 374.561C778.226 373.712 778.765 372.519 778.863 370.984H784.155C784.057 373.924 783.028 376.243 781.068 377.942C779.108 379.641 776.511 380.49 773.277 380.49ZM805.402 380C802.952 380 801.041 379.33 799.669 377.991C798.297 376.652 797.611 374.79 797.611 372.405V357.852H790.163V353.05H797.611V345.455H802.903V353.05H813.438V357.852H802.903V372.405C802.903 374.267 803.801 375.198 805.598 375.198H812.948V380H805.402ZM821.112 380V375.198H830.569V357.852H822.337V353.05H835.714V375.198H844.387V380H821.112ZM832.627 348.395C831.483 348.395 830.569 348.101 829.883 347.513C829.197 346.892 828.854 346.076 828.854 345.063C828.854 344.018 829.197 343.201 829.883 342.613C830.569 341.992 831.483 341.682 832.627 341.682C833.77 341.682 834.685 341.992 835.371 342.613C836.057 343.201 836.4 344.018 836.4 345.063C836.4 346.076 836.057 346.892 835.371 347.513C834.685 348.101 833.77 348.395 832.627 348.395ZM857.744 380L848.826 353.05H854.216L859.753 370.298C860.113 371.311 860.423 372.34 860.684 373.385C860.978 374.398 861.191 375.198 861.321 375.786C861.485 375.198 861.697 374.398 861.958 373.385C862.252 372.34 862.546 371.311 862.84 370.298L868.279 353.05H873.62L864.702 380H857.744ZM890.604 380.49C888.416 380.49 886.488 380.065 884.822 379.216C883.189 378.334 881.931 377.109 881.049 375.541C880.167 373.973 879.726 372.144 879.726 370.053V362.997C879.726 360.874 880.167 359.044 881.049 357.509C881.931 355.941 883.189 354.732 884.822 353.883C886.488 353.001 888.416 352.56 890.604 352.56C892.826 352.56 894.753 353.001 896.386 353.883C898.02 354.732 899.277 355.941 900.159 357.509C901.041 359.044 901.482 360.874 901.482 362.997V367.799H884.822V370.053C884.822 372.046 885.312 373.565 886.292 374.61C887.305 375.655 888.759 376.178 890.653 376.178C892.189 376.178 893.43 375.917 894.377 375.394C895.325 374.839 895.913 374.038 896.141 372.993H901.384C900.992 375.28 899.816 377.109 897.856 378.481C895.896 379.82 893.479 380.49 890.604 380.49ZM896.386 364.614V362.948C896.386 360.988 895.896 359.469 894.916 358.391C893.936 357.313 892.499 356.774 890.604 356.774C888.742 356.774 887.305 357.313 886.292 358.391C885.312 359.469 884.822 361.004 884.822 362.997V364.222L896.778 364.173L896.386 364.614ZM917.339 380V349.081H907.784V344.181H932.186V349.081H922.631V380H917.339ZM939.664 380V353.05H944.76V358.195H946.034L944.417 361.38C944.417 358.473 945.054 356.284 946.328 354.814C947.602 353.311 949.497 352.56 952.012 352.56C954.887 352.56 957.157 353.458 958.823 355.255C960.522 357.019 961.371 359.453 961.371 362.556V364.369H955.932V362.997C955.932 361.07 955.442 359.6 954.462 358.587C953.515 357.542 952.175 357.019 950.444 357.019C948.713 357.019 947.357 357.542 946.377 358.587C945.43 359.632 944.956 361.102 944.956 362.997V380H939.664ZM976.052 380.49C973.243 380.49 971.021 379.771 969.388 378.334C967.787 376.864 966.987 374.871 966.987 372.356C966.987 369.808 967.836 367.815 969.535 366.378C971.266 364.908 973.635 364.173 976.64 364.173H984.137V361.674C984.137 360.204 983.68 359.061 982.765 358.244C981.85 357.427 980.56 357.019 978.894 357.019C977.424 357.019 976.199 357.346 975.219 357.999C974.239 358.62 973.667 359.453 973.504 360.498H968.31C968.604 358.081 969.715 356.153 971.642 354.716C973.602 353.279 976.068 352.56 979.041 352.56C982.242 352.56 984.774 353.377 986.636 355.01C988.498 356.611 989.429 358.799 989.429 361.576V380H984.284V375.051H983.402L984.284 374.071C984.284 376.031 983.533 377.599 982.03 378.775C980.527 379.918 978.535 380.49 976.052 380.49ZM977.62 376.423C979.515 376.423 981.066 375.949 982.275 375.002C983.516 374.022 984.137 372.781 984.137 371.278V367.75H976.738C975.366 367.75 974.272 368.126 973.455 368.877C972.671 369.628 972.279 370.657 972.279 371.964C972.279 373.336 972.753 374.43 973.7 375.247C974.647 376.031 975.954 376.423 977.62 376.423ZM1008.32 380.49C1006.1 380.49 1004.14 380.082 1002.44 379.265C1000.78 378.416 999.487 377.207 998.573 375.639C997.691 374.038 997.25 372.176 997.25 370.053V362.997C997.25 360.841 997.691 358.979 998.573 357.411C999.487 355.843 1000.78 354.651 1002.44 353.834C1004.14 352.985 1006.1 352.56 1008.32 352.56C1011.56 352.56 1014.15 353.409 1016.11 355.108C1018.07 356.807 1019.1 359.126 1019.2 362.066H1013.91C1013.81 360.531 1013.27 359.338 1012.29 358.489C1011.31 357.64 1009.99 357.215 1008.32 357.215C1006.53 357.215 1005.11 357.721 1004.06 358.734C1003.02 359.714 1002.49 361.119 1002.49 362.948V370.053C1002.49 371.882 1003.02 373.303 1004.06 374.316C1005.11 375.329 1006.53 375.835 1008.32 375.835C1009.99 375.835 1011.31 375.41 1012.29 374.561C1013.27 373.712 1013.81 372.519 1013.91 370.984H1019.2C1019.1 373.924 1018.07 376.243 1016.11 377.942C1014.15 379.641 1011.56 380.49 1008.32 380.49ZM1027.07 380V344.23H1032.36V363.879H1037.12L1044.27 353.05H1050.25L1041.67 365.986L1050.4 380H1044.32L1037.12 368.436H1032.36V380H1027.07ZM1067.09 380.49C1064.86 380.49 1062.92 380.082 1061.25 379.265C1059.62 378.416 1058.35 377.207 1057.43 375.639C1056.55 374.038 1056.11 372.176 1056.11 370.053V354.177C1056.11 352.021 1056.55 350.159 1057.43 348.591C1058.35 347.023 1059.62 345.831 1061.25 345.014C1062.92 344.165 1064.86 343.74 1067.09 343.74C1069.31 343.74 1071.23 344.165 1072.87 345.014C1074.5 345.863 1075.76 347.072 1076.64 348.64C1077.56 350.175 1078.01 352.021 1078.01 354.177H1072.72C1072.72 352.315 1072.23 350.894 1071.25 349.914C1070.27 348.934 1068.88 348.444 1067.09 348.444C1065.29 348.444 1063.88 348.934 1062.87 349.914C1061.89 350.894 1061.4 352.299 1061.4 354.128V370.053C1061.4 371.882 1061.89 373.303 1062.87 374.316C1063.88 375.296 1065.29 375.786 1067.09 375.786C1068.88 375.786 1070.27 375.296 1071.25 374.316C1072.23 373.303 1072.72 371.882 1072.72 370.053H1078.01C1078.01 372.176 1077.56 374.022 1076.64 375.59C1075.76 377.158 1074.5 378.367 1072.87 379.216C1071.23 380.065 1069.31 380.49 1067.09 380.49ZM1096.27 380.441C1094.05 380.441 1092.12 380.016 1090.49 379.167C1088.85 378.318 1087.6 377.109 1086.72 375.541C1085.83 373.973 1085.39 372.127 1085.39 370.004V363.046C1085.39 360.89 1085.83 359.044 1086.72 357.509C1087.6 355.941 1088.85 354.732 1090.49 353.883C1092.12 353.034 1094.05 352.609 1096.27 352.609C1098.49 352.609 1100.42 353.034 1102.05 353.883C1103.69 354.732 1104.94 355.941 1105.83 357.509C1106.71 359.044 1107.15 360.89 1107.15 363.046V370.004C1107.15 372.127 1106.71 373.973 1105.83 375.541C1104.94 377.109 1103.69 378.318 1102.05 379.167C1100.42 380.016 1098.49 380.441 1096.27 380.441ZM1096.27 375.786C1098.07 375.786 1099.46 375.296 1100.44 374.316C1101.42 373.303 1101.91 371.866 1101.91 370.004V363.046C1101.91 361.151 1101.42 359.714 1100.44 358.734C1099.46 357.754 1098.07 357.264 1096.27 357.264C1094.51 357.264 1093.12 357.754 1092.11 358.734C1091.13 359.714 1090.64 361.151 1090.64 363.046V370.004C1090.64 371.866 1091.13 373.303 1092.11 374.316C1093.12 375.296 1094.51 375.786 1096.27 375.786ZM1129.52 380C1127.86 380 1126.4 379.673 1125.16 379.02C1123.92 378.334 1122.94 377.37 1122.22 376.129C1121.54 374.888 1121.19 373.45 1121.19 371.817V349.032H1112.37V344.23H1126.48V371.817C1126.48 372.862 1126.78 373.695 1127.37 374.316C1127.95 374.904 1128.75 375.198 1129.77 375.198H1138.1V380H1129.52ZM1155.03 380.441C1152.81 380.441 1150.88 380.016 1149.25 379.167C1147.62 378.318 1146.36 377.109 1145.48 375.541C1144.6 373.973 1144.15 372.127 1144.15 370.004V363.046C1144.15 360.89 1144.6 359.044 1145.48 357.509C1146.36 355.941 1147.62 354.732 1149.25 353.883C1150.88 353.034 1152.81 352.609 1155.03 352.609C1157.25 352.609 1159.18 353.034 1160.81 353.883C1162.45 354.732 1163.71 355.941 1164.59 357.509C1165.47 359.044 1165.91 360.89 1165.91 363.046V370.004C1165.91 372.127 1165.47 373.973 1164.59 375.541C1163.71 377.109 1162.45 378.318 1160.81 379.167C1159.18 380.016 1157.25 380.441 1155.03 380.441ZM1155.03 375.786C1156.83 375.786 1158.22 375.296 1159.2 374.316C1160.18 373.303 1160.67 371.866 1160.67 370.004V363.046C1160.67 361.151 1160.18 359.714 1159.2 358.734C1158.22 357.754 1156.83 357.264 1155.03 357.264C1153.27 357.264 1151.88 357.754 1150.87 358.734C1149.89 359.714 1149.4 361.151 1149.4 363.046V370.004C1149.4 371.866 1149.89 373.303 1150.87 374.316C1151.88 375.296 1153.27 375.786 1155.03 375.786ZM1174.71 380V353.05H1179.81V358.195H1181.08L1179.46 361.38C1179.46 358.473 1180.1 356.284 1181.37 354.814C1182.65 353.311 1184.54 352.56 1187.06 352.56C1189.93 352.56 1192.2 353.458 1193.87 355.255C1195.57 357.019 1196.42 359.453 1196.42 362.556V364.369H1190.98V362.997C1190.98 361.07 1190.49 359.6 1189.51 358.587C1188.56 357.542 1187.22 357.019 1185.49 357.019C1183.76 357.019 1182.4 357.542 1181.42 358.587C1180.48 359.632 1180 361.102 1180 362.997V380H1174.71Z" fill="black"/>
<path opacity="0.5" d="M351.9 1009L348.029 973.23H352.782L355.183 998.906C355.248 999.559 355.297 1000.28 355.33 1001.06C355.395 1001.85 355.444 1002.61 355.477 1003.36C355.542 1004.12 355.575 1004.77 355.575 1005.32C355.64 1004.77 355.706 1004.12 355.771 1003.36C355.836 1002.61 355.902 1001.85 355.967 1001.06C356.065 1000.28 356.163 999.559 356.261 998.906L359.348 973.23H364.248L367.139 998.906C367.204 999.559 367.27 1000.28 367.335 1001.06C367.433 1001.85 367.531 1002.61 367.629 1003.36C367.727 1004.12 367.792 1004.77 367.825 1005.32C367.858 1004.77 367.89 1004.12 367.923 1003.36C367.988 1002.61 368.054 1001.85 368.119 1001.06C368.184 1000.28 368.25 999.559 368.315 998.906L370.765 973.23H375.371L371.353 1009H365.228L362.337 982.981C362.272 982.295 362.206 981.576 362.141 980.825C362.076 980.041 362.01 979.29 361.945 978.571C361.88 977.82 361.814 977.199 361.749 976.709C361.716 977.199 361.667 977.82 361.602 978.571C361.537 979.29 361.471 980.041 361.406 980.825C361.341 981.576 361.259 982.295 361.161 982.981L358.074 1009H351.9ZM388.386 1009.49C385.577 1009.49 383.355 1008.77 381.722 1007.33C380.121 1005.86 379.321 1003.87 379.321 1001.36C379.321 998.808 380.17 996.815 381.869 995.378C383.6 993.908 385.969 993.173 388.974 993.173H396.471V990.674C396.471 989.204 396.014 988.061 395.099 987.244C394.184 986.427 392.894 986.019 391.228 986.019C389.758 986.019 388.533 986.346 387.553 986.999C386.573 987.62 386.001 988.453 385.838 989.498H380.644C380.938 987.081 382.049 985.153 383.976 983.716C385.936 982.279 388.402 981.56 391.375 981.56C394.576 981.56 397.108 982.377 398.97 984.01C400.832 985.611 401.763 987.799 401.763 990.576V1009H396.618V1004.05H395.736L396.618 1003.07C396.618 1005.03 395.867 1006.6 394.364 1007.77C392.861 1008.92 390.869 1009.49 388.386 1009.49ZM389.954 1005.42C391.849 1005.42 393.4 1004.95 394.609 1004C395.85 1003.02 396.471 1001.78 396.471 1000.28V996.75H389.072C387.7 996.75 386.606 997.126 385.789 997.877C385.005 998.628 384.613 999.657 384.613 1000.96C384.613 1002.34 385.087 1003.43 386.034 1004.25C386.981 1005.03 388.288 1005.42 389.954 1005.42ZM416.983 1009L408.065 982.05H413.455L418.992 999.298C419.351 1000.31 419.661 1001.34 419.923 1002.38C420.217 1003.4 420.429 1004.2 420.56 1004.79C420.723 1004.2 420.935 1003.4 421.197 1002.38C421.491 1001.34 421.785 1000.31 422.079 999.298L427.518 982.05H432.859L423.941 1009H416.983ZM449.843 1009.49C447.654 1009.49 445.727 1009.07 444.061 1008.22C442.427 1007.33 441.17 1006.11 440.288 1004.54C439.406 1002.97 438.965 1001.14 438.965 999.053V991.997C438.965 989.874 439.406 988.044 440.288 986.509C441.17 984.941 442.427 983.732 444.061 982.883C445.727 982.001 447.654 981.56 449.843 981.56C452.064 981.56 453.991 982.001 455.625 982.883C457.258 983.732 458.516 984.941 459.398 986.509C460.28 988.044 460.721 989.874 460.721 991.997V996.799H444.061V999.053C444.061 1001.05 444.551 1002.56 445.531 1003.61C446.543 1004.66 447.997 1005.18 449.892 1005.18C451.427 1005.18 452.668 1004.92 453.616 1004.39C454.563 1003.84 455.151 1003.04 455.38 1001.99H460.623C460.231 1004.28 459.055 1006.11 457.095 1007.48C455.135 1008.82 452.717 1009.49 449.843 1009.49ZM455.625 993.614V991.948C455.625 989.988 455.135 988.469 454.155 987.391C453.175 986.313 451.737 985.774 449.843 985.774C447.981 985.774 446.543 986.313 445.531 987.391C444.551 988.469 444.061 990.004 444.061 991.997V993.222L456.017 993.173L455.625 993.614ZM468.639 1009V973.23H480.35C482.67 973.23 484.679 973.671 486.377 974.553C488.109 975.435 489.432 976.693 490.346 978.326C491.294 979.927 491.767 981.821 491.767 984.01C491.767 986.166 491.294 988.061 490.346 989.694C489.399 991.327 488.076 992.585 486.377 993.467C484.679 994.349 482.67 994.79 480.35 994.79H473.931V1009H468.639ZM473.931 990.037H480.35C482.18 990.037 483.633 989.498 484.711 988.42C485.822 987.309 486.377 985.839 486.377 984.01C486.377 982.148 485.822 980.678 484.711 979.6C483.633 978.522 482.18 977.983 480.35 977.983H473.931V990.037ZM498.902 1009V982.05H503.998V987.195H505.272L503.655 990.38C503.655 987.473 504.292 985.284 505.566 983.814C506.84 982.311 508.735 981.56 511.25 981.56C514.125 981.56 516.395 982.458 518.061 984.255C519.76 986.019 520.609 988.453 520.609 991.556V993.369H515.17V991.997C515.17 990.07 514.68 988.6 513.7 987.587C512.753 986.542 511.414 986.019 509.682 986.019C507.951 986.019 506.595 986.542 505.615 987.587C504.668 988.632 504.194 990.102 504.194 991.997V1009H498.902ZM537.985 1009.44C535.764 1009.44 533.836 1009.02 532.203 1008.17C530.57 1007.32 529.312 1006.11 528.43 1004.54C527.548 1002.97 527.107 1001.13 527.107 999.004V992.046C527.107 989.89 527.548 988.044 528.43 986.509C529.312 984.941 530.57 983.732 532.203 982.883C533.836 982.034 535.764 981.609 537.985 981.609C540.206 981.609 542.134 982.034 543.767 982.883C545.4 983.732 546.658 984.941 547.54 986.509C548.422 988.044 548.863 989.89 548.863 992.046V999.004C548.863 1001.13 548.422 1002.97 547.54 1004.54C546.658 1006.11 545.4 1007.32 543.767 1008.17C542.134 1009.02 540.206 1009.44 537.985 1009.44ZM537.985 1004.79C539.782 1004.79 541.17 1004.3 542.15 1003.32C543.13 1002.3 543.62 1000.87 543.62 999.004V992.046C543.62 990.151 543.13 988.714 542.15 987.734C541.17 986.754 539.782 986.264 537.985 986.264C536.221 986.264 534.833 986.754 533.82 987.734C532.84 988.714 532.35 990.151 532.35 992.046V999.004C532.35 1000.87 532.84 1002.3 533.82 1003.32C534.833 1004.3 536.221 1004.79 537.985 1004.79ZM556.782 1017.82V982.05H562.025V987.195H563.152L562.025 988.42C562.025 986.297 562.678 984.631 563.985 983.422C565.324 982.181 567.105 981.56 569.326 981.56C572.037 981.56 574.193 982.475 575.794 984.304C577.427 986.101 578.244 988.567 578.244 991.703V999.298C578.244 1001.39 577.868 1003.2 577.117 1004.74C576.398 1006.24 575.369 1007.42 574.03 1008.26C572.723 1009.08 571.155 1009.49 569.326 1009.49C567.137 1009.49 565.373 1008.89 564.034 1007.68C562.695 1006.44 562.025 1004.75 562.025 1002.63L563.152 1003.85H561.927L562.074 1010.13V1017.82H556.782ZM567.513 1004.88C569.244 1004.88 570.584 1004.39 571.531 1003.41C572.511 1002.4 573.001 1000.95 573.001 999.053V991.997C573.001 990.102 572.511 988.665 571.531 987.685C570.584 986.672 569.244 986.166 567.513 986.166C565.847 986.166 564.524 986.689 563.544 987.734C562.564 988.747 562.074 990.168 562.074 991.997V999.053C562.074 1000.88 562.564 1002.32 563.544 1003.36C564.524 1004.38 565.847 1004.88 567.513 1004.88ZM596.747 1009.49C594.558 1009.49 592.631 1009.07 590.965 1008.22C589.332 1007.33 588.074 1006.11 587.192 1004.54C586.31 1002.97 585.869 1001.14 585.869 999.053V991.997C585.869 989.874 586.31 988.044 587.192 986.509C588.074 984.941 589.332 983.732 590.965 982.883C592.631 982.001 594.558 981.56 596.747 981.56C598.968 981.56 600.896 982.001 602.529 982.883C604.162 983.732 605.42 984.941 606.302 986.509C607.184 988.044 607.625 989.874 607.625 991.997V996.799H590.965V999.053C590.965 1001.05 591.455 1002.56 592.435 1003.61C593.448 1004.66 594.901 1005.18 596.796 1005.18C598.331 1005.18 599.573 1004.92 600.52 1004.39C601.467 1003.84 602.055 1003.04 602.284 1001.99H607.527C607.135 1004.28 605.959 1006.11 603.999 1007.48C602.039 1008.82 599.622 1009.49 596.747 1009.49ZM602.529 993.614V991.948C602.529 989.988 602.039 988.469 601.059 987.391C600.079 986.313 598.642 985.774 596.747 985.774C594.885 985.774 593.448 986.313 592.435 987.391C591.455 988.469 590.965 990.004 590.965 991.997V993.222L602.921 993.173L602.529 993.614ZM616.426 1009V982.05H621.522V987.195H622.796L621.179 990.38C621.179 987.473 621.816 985.284 623.09 983.814C624.364 982.311 626.258 981.56 628.774 981.56C631.648 981.56 633.919 982.458 635.585 984.255C637.283 986.019 638.133 988.453 638.133 991.556V993.369H632.694V991.997C632.694 990.07 632.204 988.6 631.224 987.587C630.276 986.542 628.937 986.019 627.206 986.019C625.474 986.019 624.119 986.542 623.139 987.587C622.191 988.632 621.718 990.102 621.718 991.997V1009H616.426ZM658.449 1009C655.999 1009 654.088 1008.33 652.716 1006.99C651.344 1005.65 650.658 1003.79 650.658 1001.4V986.852H643.21V982.05H650.658V974.455H655.95V982.05H666.485V986.852H655.95V1001.4C655.95 1003.27 656.848 1004.2 658.645 1004.2H665.995V1009H658.449ZM674.158 1009V1004.2H683.615V986.852H675.383V982.05H688.76V1004.2H697.433V1009H674.158ZM685.673 977.395C684.53 977.395 683.615 977.101 682.929 976.513C682.243 975.892 681.9 975.076 681.9 974.063C681.9 973.018 682.243 972.201 682.929 971.613C683.615 970.992 684.53 970.682 685.673 970.682C686.817 970.682 687.731 970.992 688.417 971.613C689.103 972.201 689.446 973.018 689.446 974.063C689.446 975.076 689.103 975.892 688.417 976.513C687.731 977.101 686.817 977.395 685.673 977.395ZM714.27 1009.49C712.082 1009.49 710.154 1009.07 708.488 1008.22C706.855 1007.33 705.597 1006.11 704.715 1004.54C703.833 1002.97 703.392 1001.14 703.392 999.053V991.997C703.392 989.874 703.833 988.044 704.715 986.509C705.597 984.941 706.855 983.732 708.488 982.883C710.154 982.001 712.082 981.56 714.27 981.56C716.492 981.56 718.419 982.001 720.052 982.883C721.686 983.732 722.943 984.941 723.825 986.509C724.707 988.044 725.148 989.874 725.148 991.997V996.799H708.488V999.053C708.488 1001.05 708.978 1002.56 709.958 1003.61C710.971 1004.66 712.425 1005.18 714.319 1005.18C715.855 1005.18 717.096 1004.92 718.043 1004.39C718.991 1003.84 719.579 1003.04 719.807 1001.99H725.05C724.658 1004.28 723.482 1006.11 721.522 1007.48C719.562 1008.82 717.145 1009.49 714.27 1009.49ZM720.052 993.614V991.948C720.052 989.988 719.562 988.469 718.582 987.391C717.602 986.313 716.165 985.774 714.27 985.774C712.408 985.774 710.971 986.313 709.958 987.391C708.978 988.469 708.488 990.004 708.488 991.997V993.222L720.444 993.173L720.052 993.614ZM742.72 1009.44C740.793 1009.44 739.094 1009.13 737.624 1008.51C736.187 1007.89 735.044 1007.04 734.194 1005.96C733.378 1004.85 732.904 1003.54 732.773 1002.04H738.065C738.196 1002.92 738.67 1003.64 739.486 1004.2C740.303 1004.72 741.381 1004.98 742.72 1004.98H744.827C746.428 1004.98 747.637 1004.66 748.453 1004C749.27 1003.35 749.678 1002.48 749.678 1001.4C749.678 1000.36 749.303 999.543 748.551 998.955C747.833 998.334 746.755 997.926 745.317 997.73L741.838 997.191C738.964 996.734 736.84 995.917 735.468 994.741C734.129 993.532 733.459 991.752 733.459 989.4C733.459 986.917 734.26 985.006 735.86 983.667C737.494 982.295 739.895 981.609 743.063 981.609H744.925C747.735 981.609 749.972 982.262 751.638 983.569C753.337 984.843 754.301 986.558 754.529 988.714H749.237C749.107 987.93 748.666 987.293 747.914 986.803C747.196 986.313 746.199 986.068 744.925 986.068H743.063C741.528 986.068 740.401 986.362 739.682 986.95C738.996 987.505 738.653 988.338 738.653 989.449C738.653 990.429 738.964 991.164 739.584 991.654C740.205 992.144 741.169 992.487 742.475 992.683L746.052 993.271C749.09 993.696 751.312 994.545 752.716 995.819C754.154 997.06 754.872 998.873 754.872 1001.26C754.872 1003.84 754.023 1005.85 752.324 1007.28C750.658 1008.72 748.159 1009.44 744.827 1009.44H742.72ZM773.032 1009.49C771.725 1009.49 770.68 1009.11 769.896 1008.36C769.112 1007.58 768.72 1006.53 768.72 1005.23C768.72 1003.89 769.112 1002.83 769.896 1002.04C770.68 1001.23 771.725 1000.82 773.032 1000.82C774.371 1000.82 775.417 1001.23 776.168 1002.04C776.952 1002.83 777.344 1003.89 777.344 1005.23C777.344 1006.53 776.952 1007.58 776.168 1008.36C775.417 1009.11 774.371 1009.49 773.032 1009.49ZM798.15 1009V989.694H790.506V984.892H798.15V980.531C798.15 978.277 798.869 976.497 800.306 975.19C801.743 973.883 803.703 973.23 806.186 973.23H814.075V977.934H806.284C805.369 977.934 804.651 978.163 804.128 978.62C803.638 979.077 803.393 979.731 803.393 980.58V984.892H814.075V989.694H803.393V1009H798.15ZM822.092 1009V982.05H827.188V987.195H828.462L826.845 990.38C826.845 987.473 827.482 985.284 828.756 983.814C830.03 982.311 831.924 981.56 834.44 981.56C837.314 981.56 839.585 982.458 841.251 984.255C842.949 986.019 843.799 988.453 843.799 991.556V993.369H838.36V991.997C838.36 990.07 837.87 988.6 836.89 987.587C835.942 986.542 834.603 986.019 832.872 986.019C831.14 986.019 829.785 986.542 828.805 987.587C827.857 988.632 827.384 990.102 827.384 991.997V1009H822.092ZM861.175 1009.49C858.986 1009.49 857.059 1009.07 855.393 1008.22C853.759 1007.33 852.502 1006.11 851.62 1004.54C850.738 1002.97 850.297 1001.14 850.297 999.053V991.997C850.297 989.874 850.738 988.044 851.62 986.509C852.502 984.941 853.759 983.732 855.393 982.883C857.059 982.001 858.986 981.56 861.175 981.56C863.396 981.56 865.323 982.001 866.957 982.883C868.59 983.732 869.848 984.941 870.73 986.509C871.612 988.044 872.053 989.874 872.053 991.997V996.799H855.393V999.053C855.393 1001.05 855.883 1002.56 856.863 1003.61C857.875 1004.66 859.329 1005.18 861.224 1005.18C862.759 1005.18 864 1004.92 864.948 1004.39C865.895 1003.84 866.483 1003.04 866.712 1001.99H871.955C871.563 1004.28 870.387 1006.11 868.427 1007.48C866.467 1008.82 864.049 1009.49 861.175 1009.49ZM866.957 993.614V991.948C866.957 989.988 866.467 988.469 865.487 987.391C864.507 986.313 863.069 985.774 861.175 985.774C859.313 985.774 857.875 986.313 856.863 987.391C855.883 988.469 855.393 990.004 855.393 991.997V993.222L867.349 993.173L866.957 993.614ZM895.847 1017.82V1010.13L895.994 1003.85H894.769L895.896 1002.63C895.896 1004.75 895.243 1006.44 893.936 1007.68C892.63 1008.89 890.866 1009.49 888.644 1009.49C885.933 1009.49 883.777 1008.58 882.176 1006.75C880.576 1004.92 879.775 1002.43 879.775 999.298V991.703C879.775 988.567 880.576 986.101 882.176 984.304C883.777 982.475 885.933 981.56 888.644 981.56C890.866 981.56 892.63 982.181 893.936 983.422C895.243 984.631 895.896 986.297 895.896 988.42L894.769 987.195H895.896V982.05H901.139V1017.82H895.847ZM890.457 1004.88C892.123 1004.88 893.43 1004.38 894.377 1003.36C895.357 1002.32 895.847 1000.88 895.847 999.053V991.997C895.847 990.168 895.357 988.747 894.377 987.734C893.43 986.689 892.123 986.166 890.457 986.166C888.726 986.166 887.387 986.672 886.439 987.685C885.525 988.665 885.067 990.102 885.067 991.997V999.053C885.067 1000.95 885.525 1002.4 886.439 1003.41C887.387 1004.39 888.726 1004.88 890.457 1004.88ZM919.887 1009.49C916.653 1009.49 914.073 1008.56 912.145 1006.7C910.218 1004.8 909.254 1002.24 909.254 999.004V982.05H914.546V999.004C914.546 1000.87 915.02 1002.32 915.967 1003.36C916.915 1004.38 918.221 1004.88 919.887 1004.88C921.586 1004.88 922.909 1004.38 923.856 1003.36C924.836 1002.32 925.326 1000.87 925.326 999.004V982.05H930.618V999.004C930.618 1002.24 929.638 1004.8 927.678 1006.7C925.751 1008.56 923.154 1009.49 919.887 1009.49ZM949.317 1009.49C947.129 1009.49 945.201 1009.07 943.535 1008.22C941.902 1007.33 940.644 1006.11 939.762 1004.54C938.88 1002.97 938.439 1001.14 938.439 999.053V991.997C938.439 989.874 938.88 988.044 939.762 986.509C940.644 984.941 941.902 983.732 943.535 982.883C945.201 982.001 947.129 981.56 949.317 981.56C951.539 981.56 953.466 982.001 955.099 982.883C956.733 983.732 957.99 984.941 958.872 986.509C959.754 988.044 960.195 989.874 960.195 991.997V996.799H943.535V999.053C943.535 1001.05 944.025 1002.56 945.005 1003.61C946.018 1004.66 947.472 1005.18 949.366 1005.18C950.902 1005.18 952.143 1004.92 953.09 1004.39C954.038 1003.84 954.626 1003.04 954.854 1001.99H960.097C959.705 1004.28 958.529 1006.11 956.569 1007.48C954.609 1008.82 952.192 1009.49 949.317 1009.49ZM955.099 993.614V991.948C955.099 989.988 954.609 988.469 953.629 987.391C952.649 986.313 951.212 985.774 949.317 985.774C947.455 985.774 946.018 986.313 945.005 987.391C944.025 988.469 943.535 990.004 943.535 991.997V993.222L955.491 993.173L955.099 993.614ZM968.114 1009V982.05H973.357V987.195H974.631L973.357 988.42C973.357 986.264 973.994 984.582 975.268 983.373C976.542 982.164 978.306 981.56 980.56 981.56C983.239 981.56 985.378 982.426 986.979 984.157C988.58 985.856 989.38 988.159 989.38 991.066V1009H984.088V991.654C984.088 989.89 983.614 988.534 982.667 987.587C981.72 986.64 980.429 986.166 978.796 986.166C977.13 986.166 975.807 986.672 974.827 987.685C973.88 988.665 973.406 990.102 973.406 991.997V1009H968.114ZM1008.27 1009.49C1006.05 1009.49 1004.09 1009.08 1002.39 1008.26C1000.73 1007.42 999.439 1006.21 998.524 1004.64C997.642 1003.04 997.201 1001.18 997.201 999.053V991.997C997.201 989.841 997.642 987.979 998.524 986.411C999.439 984.843 1000.73 983.651 1002.39 982.834C1004.09 981.985 1006.05 981.56 1008.27 981.56C1011.51 981.56 1014.11 982.409 1016.07 984.108C1018.03 985.807 1019.05 988.126 1019.15 991.066H1013.86C1013.76 989.531 1013.22 988.338 1012.24 987.489C1011.26 986.64 1009.94 986.215 1008.27 986.215C1006.48 986.215 1005.06 986.721 1004.01 987.734C1002.97 988.714 1002.44 990.119 1002.44 991.948V999.053C1002.44 1000.88 1002.97 1002.3 1004.01 1003.32C1005.06 1004.33 1006.48 1004.83 1008.27 1004.83C1009.94 1004.83 1011.26 1004.41 1012.24 1003.56C1013.22 1002.71 1013.76 1001.52 1013.86 999.984H1019.15C1019.05 1002.92 1018.03 1005.24 1016.07 1006.94C1014.11 1008.64 1011.51 1009.49 1008.27 1009.49ZM1031.19 1017.82L1035.06 1007.43L1025.01 982.05H1030.84L1036.48 997.24C1036.71 997.893 1036.94 998.677 1037.17 999.592C1037.39 1000.51 1037.59 1001.26 1037.75 1001.85C1037.88 1001.26 1038.06 1000.51 1038.29 999.592C1038.52 998.677 1038.75 997.893 1038.98 997.24L1044.27 982.05H1049.91L1036.77 1017.82H1031.19ZM1075.91 1014.88C1071.1 1013.67 1067.38 1011.4 1064.73 1008.07C1062.09 1004.7 1060.76 1000.6 1060.76 995.77V986.95C1060.76 983.781 1061.37 980.907 1062.58 978.326C1063.82 975.745 1065.57 973.557 1067.82 971.76C1070.11 969.931 1072.8 968.624 1075.91 967.84V972.936C1073.88 973.426 1072.13 974.324 1070.66 975.631C1069.19 976.905 1068.05 978.506 1067.23 980.433C1066.45 982.36 1066.06 984.533 1066.06 986.95V995.77C1066.06 998.122 1066.45 1000.26 1067.23 1002.19C1068.05 1004.12 1069.19 1005.72 1070.66 1006.99C1072.13 1008.23 1073.88 1009.1 1075.91 1009.59V1014.88ZM1087.16 1014.88V1009.59C1089.18 1009.1 1090.93 1008.23 1092.4 1006.99C1093.87 1005.72 1095 1004.12 1095.78 1002.19C1096.6 1000.26 1097.01 998.122 1097.01 995.77V986.95C1097.01 984.533 1096.6 982.36 1095.78 980.433C1095 978.506 1093.87 976.905 1092.4 975.631C1090.93 974.324 1089.18 973.426 1087.16 972.936V967.84C1090.29 968.624 1092.99 969.931 1095.24 971.76C1097.5 973.557 1099.23 975.745 1100.44 978.326C1101.68 980.907 1102.3 983.781 1102.3 986.95V995.77C1102.3 1000.6 1100.97 1004.7 1098.33 1008.07C1095.68 1011.4 1091.96 1013.67 1087.16 1014.88Z" fill="black"/>
<path opacity="0.5" d="M1369.64 1092C1367.19 1092 1365.28 1091.33 1363.91 1089.99C1362.54 1088.65 1361.85 1086.79 1361.85 1084.4V1069.85H1354.4V1065.05H1361.85V1057.45H1367.14V1065.05H1377.68V1069.85H1367.14V1084.4C1367.14 1086.27 1368.04 1087.2 1369.84 1087.2H1377.19V1092H1369.64ZM1385.5 1092V1056.23H1390.79V1065.05L1390.74 1070.19H1392.01L1390.74 1071.42C1390.74 1069.26 1391.38 1067.58 1392.65 1066.37C1393.92 1065.16 1395.69 1064.56 1397.94 1064.56C1400.62 1064.56 1402.76 1065.43 1404.36 1067.16C1405.96 1068.86 1406.76 1071.16 1406.76 1074.07V1092H1401.47V1074.65C1401.47 1072.89 1401 1071.52 1400.05 1070.54C1399.1 1069.56 1397.81 1069.07 1396.18 1069.07C1394.51 1069.07 1393.19 1069.59 1392.21 1070.64C1391.26 1071.65 1390.79 1073.1 1390.79 1075V1092H1385.5ZM1425.41 1092.49C1422.18 1092.49 1419.6 1091.56 1417.67 1089.7C1415.74 1087.8 1414.78 1085.24 1414.78 1082V1065.05H1420.07V1082C1420.07 1083.87 1420.55 1085.32 1421.49 1086.36C1422.44 1087.38 1423.75 1087.88 1425.41 1087.88C1427.11 1087.88 1428.43 1087.38 1429.38 1086.36C1430.36 1085.32 1430.85 1083.87 1430.85 1082V1065.05H1436.14V1082C1436.14 1085.24 1435.16 1087.8 1433.2 1089.7C1431.28 1091.56 1428.68 1092.49 1425.41 1092.49ZM1443.03 1092V1065.05H1447.44V1068.48H1448.42L1447.69 1069.51C1447.69 1068.01 1448.1 1066.81 1448.91 1065.93C1449.73 1065.02 1450.82 1064.56 1452.2 1064.56C1453.67 1064.56 1454.79 1065.13 1455.58 1066.27C1456.39 1067.42 1456.8 1068.99 1456.8 1070.98L1455.63 1068.48H1457.49L1456.7 1069.51C1456.7 1068.01 1457.11 1066.81 1457.93 1065.93C1458.78 1065.02 1459.91 1064.56 1461.31 1064.56C1462.98 1064.56 1464.28 1065.2 1465.23 1066.47C1466.18 1067.71 1466.65 1069.38 1466.65 1071.47V1092H1461.95V1071.62C1461.95 1070.6 1461.72 1069.82 1461.26 1069.26C1460.84 1068.71 1460.22 1068.43 1459.4 1068.43C1458.58 1068.43 1457.95 1068.71 1457.49 1069.26C1457.06 1069.79 1456.85 1070.55 1456.85 1071.57V1092H1452.88V1071.62C1452.88 1070.57 1452.65 1069.79 1452.2 1069.26C1451.74 1068.71 1451.09 1068.43 1450.24 1068.43C1449.42 1068.43 1448.8 1068.71 1448.37 1069.26C1447.98 1069.79 1447.79 1070.55 1447.79 1071.57V1092H1443.03ZM1486.13 1092.49C1483.91 1092.49 1482.15 1091.89 1480.84 1090.68C1479.54 1089.44 1478.88 1087.75 1478.88 1085.63L1480.01 1086.85H1478.88V1092H1473.64V1056.23H1478.93V1063.92L1478.78 1070.19H1480.01L1478.88 1071.42C1478.88 1069.3 1479.54 1067.63 1480.84 1066.42C1482.18 1065.18 1483.95 1064.56 1486.13 1064.56C1488.85 1064.56 1491.02 1065.47 1492.65 1067.3C1494.28 1069.13 1495.1 1071.62 1495.1 1074.75V1082.35C1495.1 1085.45 1494.28 1087.92 1492.65 1089.75C1491.02 1091.58 1488.85 1092.49 1486.13 1092.49ZM1484.32 1087.88C1486.05 1087.88 1487.41 1087.39 1488.39 1086.41C1489.37 1085.4 1489.86 1083.95 1489.86 1082.05V1075C1489.86 1073.1 1489.37 1071.66 1488.39 1070.68C1487.41 1069.67 1486.05 1069.17 1484.32 1069.17C1482.66 1069.17 1481.33 1069.69 1480.35 1070.73C1479.41 1071.75 1478.93 1073.17 1478.93 1075V1082.05C1478.93 1083.88 1479.41 1085.32 1480.35 1086.36C1481.33 1087.38 1482.66 1087.88 1484.32 1087.88ZM1513.75 1092.49C1511.33 1092.49 1509.26 1092.1 1507.53 1091.31C1505.8 1090.5 1504.46 1089.35 1503.51 1087.88C1502.56 1086.38 1502.09 1084.6 1502.09 1082.54H1507.33C1507.33 1084.18 1507.9 1085.47 1509.05 1086.41C1510.19 1087.33 1511.77 1087.79 1513.8 1087.79C1515.69 1087.79 1517.18 1087.33 1518.26 1086.41C1519.34 1085.5 1519.88 1084.24 1519.88 1082.64C1519.88 1081.3 1519.5 1080.14 1518.75 1079.16C1518.03 1078.18 1516.99 1077.51 1515.61 1077.15L1511.11 1075.83C1508.49 1075.08 1506.47 1073.8 1505.03 1072.01C1503.62 1070.18 1502.92 1068.01 1502.92 1065.49C1502.92 1063.53 1503.36 1061.82 1504.25 1060.35C1505.13 1058.88 1506.38 1057.73 1508.02 1056.92C1509.65 1056.1 1511.58 1055.69 1513.8 1055.69C1517.07 1055.69 1519.68 1056.57 1521.64 1058.34C1523.63 1060.1 1524.65 1062.47 1524.68 1065.44H1519.39C1519.39 1063.87 1518.88 1062.65 1517.87 1061.77C1516.89 1060.85 1515.5 1060.39 1513.7 1060.39C1511.97 1060.39 1510.62 1060.82 1509.64 1061.67C1508.66 1062.49 1508.17 1063.65 1508.17 1065.15C1508.17 1066.49 1508.52 1067.65 1509.24 1068.63C1509.99 1069.61 1511.06 1070.29 1512.43 1070.68L1516.99 1072.06C1519.6 1072.78 1521.61 1074.05 1523.01 1075.88C1524.42 1077.71 1525.12 1079.9 1525.12 1082.44C1525.12 1084.44 1524.65 1086.2 1523.7 1087.74C1522.75 1089.24 1521.43 1090.42 1519.73 1091.26C1518.03 1092.08 1516.04 1092.49 1513.75 1092.49ZM1532.4 1092V1056.23H1537.69V1065.05L1537.64 1070.19H1538.92L1537.64 1071.42C1537.64 1069.26 1538.28 1067.58 1539.56 1066.37C1540.83 1065.16 1542.59 1064.56 1544.85 1064.56C1547.53 1064.56 1549.67 1065.43 1551.27 1067.16C1552.87 1068.86 1553.67 1071.16 1553.67 1074.07V1092H1548.38V1074.65C1548.38 1072.89 1547.9 1071.52 1546.95 1070.54C1546.01 1069.56 1544.72 1069.07 1543.08 1069.07C1541.42 1069.07 1540.09 1069.59 1539.11 1070.64C1538.17 1071.65 1537.69 1073.1 1537.69 1075V1092H1532.4ZM1569.67 1092.49C1566.86 1092.49 1564.64 1091.77 1563.01 1090.33C1561.41 1088.86 1560.61 1086.87 1560.61 1084.36C1560.61 1081.81 1561.46 1079.82 1563.15 1078.38C1564.89 1076.91 1567.25 1076.17 1570.26 1076.17H1577.76V1073.67C1577.76 1072.2 1577.3 1071.06 1576.38 1070.24C1575.47 1069.43 1574.18 1069.02 1572.51 1069.02C1571.04 1069.02 1569.82 1069.35 1568.84 1070C1567.86 1070.62 1567.29 1071.45 1567.12 1072.5H1561.93C1562.22 1070.08 1563.33 1068.15 1565.26 1066.72C1567.22 1065.28 1569.69 1064.56 1572.66 1064.56C1575.86 1064.56 1578.39 1065.38 1580.26 1067.01C1582.12 1068.61 1583.05 1070.8 1583.05 1073.58V1092H1577.9V1087.05H1577.02L1577.9 1086.07C1577.9 1088.03 1577.15 1089.6 1575.65 1090.77C1574.15 1091.92 1572.15 1092.49 1569.67 1092.49ZM1571.24 1088.42C1573.13 1088.42 1574.69 1087.95 1575.89 1087C1577.14 1086.02 1577.76 1084.78 1577.76 1083.28V1079.75H1570.36C1568.99 1079.75 1567.89 1080.13 1567.07 1080.88C1566.29 1081.63 1565.9 1082.66 1565.9 1083.96C1565.9 1085.34 1566.37 1086.43 1567.32 1087.25C1568.27 1088.03 1569.57 1088.42 1571.24 1088.42ZM1591.16 1100.82V1065.05H1596.41V1070.19H1597.53L1596.41 1071.42C1596.41 1069.3 1597.06 1067.63 1598.37 1066.42C1599.71 1065.18 1601.49 1064.56 1603.71 1064.56C1606.42 1064.56 1608.57 1065.47 1610.17 1067.3C1611.81 1069.1 1612.62 1071.57 1612.62 1074.7V1082.3C1612.62 1084.39 1612.25 1086.2 1611.5 1087.74C1610.78 1089.24 1609.75 1090.42 1608.41 1091.26C1607.1 1092.08 1605.54 1092.49 1603.71 1092.49C1601.52 1092.49 1599.75 1091.89 1598.41 1090.68C1597.08 1089.44 1596.41 1087.75 1596.41 1085.63L1597.53 1086.85H1596.31L1596.45 1093.13V1100.82H1591.16ZM1601.89 1087.88C1603.63 1087.88 1604.96 1087.39 1605.91 1086.41C1606.89 1085.4 1607.38 1083.95 1607.38 1082.05V1075C1607.38 1073.1 1606.89 1071.66 1605.91 1070.68C1604.96 1069.67 1603.63 1069.17 1601.89 1069.17C1600.23 1069.17 1598.9 1069.69 1597.92 1070.73C1596.94 1071.75 1596.45 1073.17 1596.45 1075V1082.05C1596.45 1083.88 1596.94 1085.32 1597.92 1086.36C1598.9 1087.38 1600.23 1087.88 1601.89 1087.88ZM1631.13 1092.49C1628.94 1092.49 1627.01 1092.07 1625.35 1091.22C1623.71 1090.33 1622.45 1089.11 1621.57 1087.54C1620.69 1085.97 1620.25 1084.14 1620.25 1082.05V1075C1620.25 1072.87 1620.69 1071.04 1621.57 1069.51C1622.45 1067.94 1623.71 1066.73 1625.35 1065.88C1627.01 1065 1628.94 1064.56 1631.13 1064.56C1633.35 1064.56 1635.28 1065 1636.91 1065.88C1638.54 1066.73 1639.8 1067.94 1640.68 1069.51C1641.56 1071.04 1642.01 1072.87 1642.01 1075V1079.8H1625.35V1082.05C1625.35 1084.05 1625.84 1085.56 1626.82 1086.61C1627.83 1087.66 1629.28 1088.18 1631.18 1088.18C1632.71 1088.18 1633.95 1087.92 1634.9 1087.39C1635.85 1086.84 1636.44 1086.04 1636.66 1084.99H1641.91C1641.52 1087.28 1640.34 1089.11 1638.38 1090.48C1636.42 1091.82 1634 1092.49 1631.13 1092.49ZM1636.91 1076.61V1074.95C1636.91 1072.99 1636.42 1071.47 1635.44 1070.39C1634.46 1069.31 1633.02 1068.77 1631.13 1068.77C1629.27 1068.77 1627.83 1069.31 1626.82 1070.39C1625.84 1071.47 1625.35 1073 1625.35 1075V1076.22L1637.3 1076.17L1636.91 1076.61Z" fill="black"/>
<path opacity="0.5" d="M1585.97 380V375.198H1595.43V357.852H1587.19V353.05H1600.57V375.198H1609.24V380H1585.97ZM1597.48 348.395C1596.34 348.395 1595.43 348.101 1594.74 347.513C1594.05 346.892 1593.71 346.076 1593.71 345.063C1593.71 344.018 1594.05 343.201 1594.74 342.613C1595.43 341.992 1596.34 341.682 1597.48 341.682C1598.63 341.682 1599.54 341.992 1600.23 342.613C1600.91 343.201 1601.26 344.018 1601.26 345.063C1601.26 346.076 1600.91 346.892 1600.23 347.513C1599.54 348.101 1598.63 348.395 1597.48 348.395ZM1615.5 380V353.05H1620.74V358.195H1622.01L1620.74 359.42C1620.74 357.264 1621.38 355.582 1622.65 354.373C1623.92 353.164 1625.69 352.56 1627.94 352.56C1630.62 352.56 1632.76 353.426 1634.36 355.157C1635.96 356.856 1636.76 359.159 1636.76 362.066V380H1631.47V362.654C1631.47 360.89 1631 359.534 1630.05 358.587C1629.1 357.64 1627.81 357.166 1626.18 357.166C1624.51 357.166 1623.19 357.672 1622.21 358.685C1621.26 359.665 1620.79 361.102 1620.79 362.997V380H1615.5ZM1652.77 380.49C1649.96 380.49 1647.74 379.771 1646.1 378.334C1644.5 376.864 1643.7 374.871 1643.7 372.356C1643.7 369.808 1644.55 367.815 1646.25 366.378C1647.98 364.908 1650.35 364.173 1653.35 364.173H1660.85V361.674C1660.85 360.204 1660.39 359.061 1659.48 358.244C1658.57 357.427 1657.27 357.019 1655.61 357.019C1654.14 357.019 1652.91 357.346 1651.93 357.999C1650.95 358.62 1650.38 359.453 1650.22 360.498H1645.02C1645.32 358.081 1646.43 356.153 1648.36 354.716C1650.32 353.279 1652.78 352.56 1655.76 352.56C1658.96 352.56 1661.49 353.377 1663.35 355.01C1665.21 356.611 1666.14 358.799 1666.14 361.576V380H1661V375.051H1660.12L1661 374.071C1661 376.031 1660.25 377.599 1658.74 378.775C1657.24 379.918 1655.25 380.49 1652.77 380.49ZM1654.33 376.423C1656.23 376.423 1657.78 375.949 1658.99 375.002C1660.23 374.022 1660.85 372.781 1660.85 371.278V367.75H1653.45C1652.08 367.75 1650.99 368.126 1650.17 368.877C1649.39 369.628 1648.99 370.657 1648.99 371.964C1648.99 373.336 1649.47 374.43 1650.41 375.247C1651.36 376.031 1652.67 376.423 1654.33 376.423ZM1685.04 380.49C1682.82 380.49 1680.86 380.082 1679.16 379.265C1677.49 378.416 1676.2 377.207 1675.29 375.639C1674.41 374.038 1673.96 372.176 1673.96 370.053V362.997C1673.96 360.841 1674.41 358.979 1675.29 357.411C1676.2 355.843 1677.49 354.651 1679.16 353.834C1680.86 352.985 1682.82 352.56 1685.04 352.56C1688.27 352.56 1690.87 353.409 1692.83 355.108C1694.79 356.807 1695.82 359.126 1695.92 362.066H1690.62C1690.53 360.531 1689.99 359.338 1689.01 358.489C1688.03 357.64 1686.7 357.215 1685.04 357.215C1683.24 357.215 1681.82 357.721 1680.78 358.734C1679.73 359.714 1679.21 361.119 1679.21 362.948V370.053C1679.21 371.882 1679.73 373.303 1680.78 374.316C1681.82 375.329 1683.24 375.835 1685.04 375.835C1686.7 375.835 1688.03 375.41 1689.01 374.561C1689.99 373.712 1690.53 372.519 1690.62 370.984H1695.92C1695.82 373.924 1694.79 376.243 1692.83 377.942C1690.87 379.641 1688.27 380.49 1685.04 380.49ZM1717.16 380C1714.71 380 1712.8 379.33 1711.43 377.991C1710.06 376.652 1709.37 374.79 1709.37 372.405V357.852H1701.92V353.05H1709.37V345.455H1714.66V353.05H1725.2V357.852H1714.66V372.405C1714.66 374.267 1715.56 375.198 1717.36 375.198H1724.71V380H1717.16ZM1732.87 380V375.198H1742.33V357.852H1734.1V353.05H1747.48V375.198H1756.15V380H1732.87ZM1744.39 348.395C1743.24 348.395 1742.33 348.101 1741.64 347.513C1740.96 346.892 1740.62 346.076 1740.62 345.063C1740.62 344.018 1740.96 343.201 1741.64 342.613C1742.33 341.992 1743.24 341.682 1744.39 341.682C1745.53 341.682 1746.45 341.992 1747.13 342.613C1747.82 343.201 1748.16 344.018 1748.16 345.063C1748.16 346.076 1747.82 346.892 1747.13 347.513C1746.45 348.101 1745.53 348.395 1744.39 348.395ZM1769.51 380L1760.59 353.05H1765.98L1771.52 370.298C1771.87 371.311 1772.18 372.34 1772.45 373.385C1772.74 374.398 1772.95 375.198 1773.08 375.786C1773.25 375.198 1773.46 374.398 1773.72 373.385C1774.01 372.34 1774.31 371.311 1774.6 370.298L1780.04 353.05H1785.38L1776.46 380H1769.51ZM1802.37 380.49C1800.18 380.49 1798.25 380.065 1796.58 379.216C1794.95 378.334 1793.69 377.109 1792.81 375.541C1791.93 373.973 1791.49 372.144 1791.49 370.053V362.997C1791.49 360.874 1791.93 359.044 1792.81 357.509C1793.69 355.941 1794.95 354.732 1796.58 353.883C1798.25 353.001 1800.18 352.56 1802.37 352.56C1804.59 352.56 1806.51 353.001 1808.15 353.883C1809.78 354.732 1811.04 355.941 1811.92 357.509C1812.8 359.044 1813.24 360.874 1813.24 362.997V367.799H1796.58V370.053C1796.58 372.046 1797.07 373.565 1798.05 374.61C1799.07 375.655 1800.52 376.178 1802.42 376.178C1803.95 376.178 1805.19 375.917 1806.14 375.394C1807.09 374.839 1807.67 374.038 1807.9 372.993H1813.15C1812.75 375.28 1811.58 377.109 1809.62 378.481C1807.66 379.82 1805.24 380.49 1802.37 380.49ZM1808.15 364.614V362.948C1808.15 360.988 1807.66 359.469 1806.68 358.391C1805.7 357.313 1804.26 356.774 1802.37 356.774C1800.5 356.774 1799.07 357.313 1798.05 358.391C1797.07 359.469 1796.58 361.004 1796.58 362.997V364.222L1808.54 364.173L1808.15 364.614ZM1829.1 380V349.081H1819.55V344.181H1843.95V349.081H1834.39V380H1829.1ZM1851.43 380V353.05H1856.52V358.195H1857.8L1856.18 361.38C1856.18 358.473 1856.82 356.284 1858.09 354.814C1859.36 353.311 1861.26 352.56 1863.77 352.56C1866.65 352.56 1868.92 353.458 1870.58 355.255C1872.28 357.019 1873.13 359.453 1873.13 362.556V364.369H1867.69V362.997C1867.69 361.07 1867.2 359.6 1866.22 358.587C1865.28 357.542 1863.94 357.019 1862.21 357.019C1860.47 357.019 1859.12 357.542 1858.14 358.587C1857.19 359.632 1856.72 361.102 1856.72 362.997V380H1851.43ZM1887.81 380.49C1885 380.49 1882.78 379.771 1881.15 378.334C1879.55 376.864 1878.75 374.871 1878.75 372.356C1878.75 369.808 1879.6 367.815 1881.3 366.378C1883.03 364.908 1885.4 364.173 1888.4 364.173H1895.9V361.674C1895.9 360.204 1895.44 359.061 1894.53 358.244C1893.61 357.427 1892.32 357.019 1890.66 357.019C1889.19 357.019 1887.96 357.346 1886.98 357.999C1886 358.62 1885.43 359.453 1885.27 360.498H1880.07C1880.37 358.081 1881.48 356.153 1883.4 354.716C1885.36 353.279 1887.83 352.56 1890.8 352.56C1894 352.56 1896.54 353.377 1898.4 355.01C1900.26 356.611 1901.19 358.799 1901.19 361.576V380H1896.05V375.051H1895.16L1896.05 374.071C1896.05 376.031 1895.29 377.599 1893.79 378.775C1892.29 379.918 1890.3 380.49 1887.81 380.49ZM1889.38 376.423C1891.28 376.423 1892.83 375.949 1894.04 375.002C1895.28 374.022 1895.9 372.781 1895.9 371.278V367.75H1888.5C1887.13 367.75 1886.03 368.126 1885.22 368.877C1884.43 369.628 1884.04 370.657 1884.04 371.964C1884.04 373.336 1884.51 374.43 1885.46 375.247C1886.41 376.031 1887.72 376.423 1889.38 376.423ZM1920.09 380.49C1917.86 380.49 1915.9 380.082 1914.21 379.265C1912.54 378.416 1911.25 377.207 1910.33 375.639C1909.45 374.038 1909.01 372.176 1909.01 370.053V362.997C1909.01 360.841 1909.45 358.979 1910.33 357.411C1911.25 355.843 1912.54 354.651 1914.21 353.834C1915.9 352.985 1917.86 352.56 1920.09 352.56C1923.32 352.56 1925.92 353.409 1927.88 355.108C1929.84 356.807 1930.87 359.126 1930.96 362.066H1925.67C1925.57 360.531 1925.03 359.338 1924.05 358.489C1923.07 357.64 1921.75 357.215 1920.09 357.215C1918.29 357.215 1916.87 357.721 1915.82 358.734C1914.78 359.714 1914.25 361.119 1914.25 362.948V370.053C1914.25 371.882 1914.78 373.303 1915.82 374.316C1916.87 375.329 1918.29 375.835 1920.09 375.835C1921.75 375.835 1923.07 375.41 1924.05 374.561C1925.03 373.712 1925.57 372.519 1925.67 370.984H1930.96C1930.87 373.924 1929.84 376.243 1927.88 377.942C1925.92 379.641 1923.32 380.49 1920.09 380.49ZM1938.83 380V344.23H1944.13V363.879H1948.88L1956.03 353.05H1962.01L1953.44 365.986L1962.16 380H1956.08L1948.88 368.436H1944.13V380H1938.83ZM1978.85 380.49C1976.63 380.49 1974.68 380.082 1973.02 379.265C1971.38 378.416 1970.11 377.207 1969.19 375.639C1968.31 374.038 1967.87 372.176 1967.87 370.053V354.177C1967.87 352.021 1968.31 350.159 1969.19 348.591C1970.11 347.023 1971.38 345.831 1973.02 345.014C1974.68 344.165 1976.63 343.74 1978.85 343.74C1981.07 343.74 1983 344.165 1984.63 345.014C1986.26 345.863 1987.52 347.072 1988.4 348.64C1989.32 350.175 1989.77 352.021 1989.77 354.177H1984.48C1984.48 352.315 1983.99 350.894 1983.01 349.914C1982.03 348.934 1980.64 348.444 1978.85 348.444C1977.05 348.444 1975.65 348.934 1974.63 349.914C1973.65 350.894 1973.16 352.299 1973.16 354.128V370.053C1973.16 371.882 1973.65 373.303 1974.63 374.316C1975.65 375.296 1977.05 375.786 1978.85 375.786C1980.64 375.786 1982.03 375.296 1983.01 374.316C1983.99 373.303 1984.48 371.882 1984.48 370.053H1989.77C1989.77 372.176 1989.32 374.022 1988.4 375.59C1987.52 377.158 1986.26 378.367 1984.63 379.216C1983 380.065 1981.07 380.49 1978.85 380.49ZM2008.03 380.441C2005.81 380.441 2003.88 380.016 2002.25 379.167C2000.62 378.318 1999.36 377.109 1998.48 375.541C1997.6 373.973 1997.15 372.127 1997.15 370.004V363.046C1997.15 360.89 1997.6 359.044 1998.48 357.509C1999.36 355.941 2000.62 354.732 2002.25 353.883C2003.88 353.034 2005.81 352.609 2008.03 352.609C2010.25 352.609 2012.18 353.034 2013.81 353.883C2015.45 354.732 2016.71 355.941 2017.59 357.509C2018.47 359.044 2018.91 360.89 2018.91 363.046V370.004C2018.91 372.127 2018.47 373.973 2017.59 375.541C2016.71 377.109 2015.45 378.318 2013.81 379.167C2012.18 380.016 2010.25 380.441 2008.03 380.441ZM2008.03 375.786C2009.83 375.786 2011.22 375.296 2012.2 374.316C2013.18 373.303 2013.67 371.866 2013.67 370.004V363.046C2013.67 361.151 2013.18 359.714 2012.2 358.734C2011.22 357.754 2009.83 357.264 2008.03 357.264C2006.27 357.264 2004.88 357.754 2003.87 358.734C2002.89 359.714 2002.4 361.151 2002.4 363.046V370.004C2002.4 371.866 2002.89 373.303 2003.87 374.316C2004.88 375.296 2006.27 375.786 2008.03 375.786ZM2041.28 380C2039.62 380 2038.16 379.673 2036.92 379.02C2035.68 378.334 2034.7 377.37 2033.98 376.129C2033.3 374.888 2032.95 373.45 2032.95 371.817V349.032H2024.13V344.23H2038.25V371.817C2038.25 372.862 2038.54 373.695 2039.13 374.316C2039.72 374.904 2040.52 375.198 2041.53 375.198H2049.86V380H2041.28ZM2066.79 380.441C2064.57 380.441 2062.65 380.016 2061.01 379.167C2059.38 378.318 2058.12 377.109 2057.24 375.541C2056.36 373.973 2055.92 372.127 2055.92 370.004V363.046C2055.92 360.89 2056.36 359.044 2057.24 357.509C2058.12 355.941 2059.38 354.732 2061.01 353.883C2062.65 353.034 2064.57 352.609 2066.79 352.609C2069.02 352.609 2070.94 353.034 2072.58 353.883C2074.21 354.732 2075.47 355.941 2076.35 357.509C2077.23 359.044 2077.67 360.89 2077.67 363.046V370.004C2077.67 372.127 2077.23 373.973 2076.35 375.541C2075.47 377.109 2074.21 378.318 2072.58 379.167C2070.94 380.016 2069.02 380.441 2066.79 380.441ZM2066.79 375.786C2068.59 375.786 2069.98 375.296 2070.96 374.316C2071.94 373.303 2072.43 371.866 2072.43 370.004V363.046C2072.43 361.151 2071.94 359.714 2070.96 358.734C2069.98 357.754 2068.59 357.264 2066.79 357.264C2065.03 357.264 2063.64 357.754 2062.63 358.734C2061.65 359.714 2061.16 361.151 2061.16 363.046V370.004C2061.16 371.866 2061.65 373.303 2062.63 374.316C2063.64 375.296 2065.03 375.786 2066.79 375.786ZM2086.47 380V353.05H2091.57V358.195H2092.84L2091.23 361.38C2091.23 358.473 2091.86 356.284 2093.14 354.814C2094.41 353.311 2096.31 352.56 2098.82 352.56C2101.7 352.56 2103.97 353.458 2105.63 355.255C2107.33 357.019 2108.18 359.453 2108.18 362.556V364.369H2102.74V362.997C2102.74 361.07 2102.25 359.6 2101.27 358.587C2100.32 357.542 2098.98 357.019 2097.25 357.019C2095.52 357.019 2094.17 357.542 2093.19 358.587C2092.24 359.632 2091.76 361.102 2091.76 362.997V380H2086.47Z" fill="black"/>
<path opacity="0.5" d="M1489.5 1023.5V911" stroke="black" stroke-width="5"/>
<path opacity="0.5" d="M1847 601.5V416" stroke="black" stroke-width="5"/>
<defs>
<clipPath id="clip0_216_43">
<rect width="1195" height="790" fill="white" transform="translate(302 184)"/>
</clipPath>
</defs>
</svg>
