<svg width="2341" height="378" viewBox="0 0 2341 378" fill="none" xmlns="http://www.w3.org/2000/svg">
<rect width="2341" height="378" fill="#FBF8FD"/>
<path d="M93.9033 86.5122L95.8285 88.9855L97.7536 91.5068L99.6787 94.0456L101.604 96.5712L103.529 99.0532L105.454 101.462L107.379 103.767L109.304 105.942L111.23 107.961L113.155 109.798L115.08 111.431L117.005 112.842L118.93 114.012L120.855 114.928L122.78 115.579L124.705 115.956L126.631 116.056L128.556 115.877L130.481 115.421L132.406 114.693L134.331 113.703L136.256 112.463L138.181 110.987L140.107 109.293L142.032 107.401L143.957 105.336L145.882 103.121L147.807 100.783L149.732 98.3503L151.657 95.8527L155.508 90.7833L157.433 88.2726L159.358 85.8185L161.283 83.4507L163.208 81.1976L165.133 79.0867L167.058 77.1432L168.984 75.3907L170.909 73.8504L172.834 72.5409L174.759 71.478L176.684 70.6745L178.609 70.1401L180.534 69.8814L182.459 69.9013L184.385 70.1997L186.31 70.773L188.235 71.6142L190.16 72.7132L192.085 74.0567L194.01 75.6285L195.935 77.4097L197.861 79.3785L199.786 81.5114L201.711 83.7826L203.636 86.1645L205.561 88.6285L207.486 91.1448L209.411 93.683L211.336 96.2124L213.262 98.7024L215.187 101.123L217.112 103.445L219.037 105.641L220.962 107.683L222.887 109.547L224.812 111.211L226.738 112.655L228.663 113.86L230.588 114.813L232.513 115.503L234.438 115.919L236.363 116.059L238.288 115.919L240.213 115.503L242.139 114.813L244.064 113.86L245.989 112.655L247.914 111.211L249.839 109.547L251.764 107.683L253.689 105.641L255.615 103.445L257.54 101.123L259.465 98.7024L261.39 96.2124L263.315 93.683L265.24 91.1448L267.165 88.6285L269.09 86.1645L271.016 83.7826L272.941 81.5114L274.866 79.3785L276.791 77.4097L278.716 75.6285L280.641 74.0567L282.566 72.7132L284.492 71.6142L286.417 70.773L288.342 70.1997L290.267 69.9013L292.192 69.8814L294.117 70.1401L296.042 70.6745L297.967 71.478L299.893 72.5409L301.818 73.8504L303.743 75.3907L305.668 77.1432L307.593 79.0867L309.518 81.1976L311.443 83.4507L313.369 85.8185L315.294 88.2726L317.219 90.7833L321.069 95.8527L322.994 98.3503L324.919 100.783L326.844 103.121L328.77 105.336L330.695 107.401L332.62 109.293L334.545 110.987L336.47 112.463L338.395 113.703L340.32 114.693L342.246 115.421L344.171 115.877L346.096 116.056L348.021 115.956L349.946 115.579L351.871 114.928L353.796 114.012L355.722 112.842L357.647 111.431L359.572 109.798L361.497 107.961L363.422 105.942L365.347 103.767L367.272 101.462L369.197 99.0532L371.123 96.5712L373.048 94.0456L374.973 91.5068L376.898 88.9855L378.823 86.5122L380.748 84.1167L382.673 81.828L384.599 79.6738L386.524 77.6799L388.449 75.8707L390.374 74.2677L392.299 72.8905L394.224 71.7557L396.149 70.877L398.074 70.2649L400 69.9269L401.925 69.8671L403.85 70.0862L405.775 70.5815L407.7 71.3471L409.625 72.3736L411.55 73.6488L413.476 75.1572L415.401 76.8806L417.326 78.7982L419.251 80.8868L421.176 83.1211L423.101 85.4743L425.026 87.9179L426.951 90.4223L430.802 95.4924L432.727 97.9968L434.652 100.44L436.577 102.794L438.502 105.028L440.427 107.116L442.353 109.034L444.278 110.757L446.203 112.266L448.128 113.541L450.053 114.568L451.978 115.333L453.903 115.828L455.828 116.048L457.754 115.988L459.679 115.65L461.604 115.038L463.529 114.159L465.454 113.024L467.379 111.647L469.304 110.044L471.23 108.235L473.155 106.241L475.08 104.087L477.005 101.798L478.93 99.4025L480.855 96.9292L482.78 94.4079L484.705 91.8691L486.631 89.3434L488.556 86.8614L490.481 84.453L492.406 82.1474L494.331 79.9723L496.256 77.954L498.181 76.117L500.107 74.4833L502.032 73.0728L503.957 71.9024L505.882 70.9864L507.807 70.3357L509.732 69.9582L511.657 69.8586L513.582 70.0379L515.508 70.494L517.433 71.2215L519.358 72.2114L521.283 73.452L523.208 74.9281L525.133 76.622L527.058 78.5132L528.984 80.5789L530.909 82.794L532.834 85.1319L534.759 87.5644L536.684 90.0619L540.534 95.1314L542.459 97.642L544.384 100.096L546.31 102.464L548.235 104.717L550.16 106.828L552.085 108.771L554.01 110.524L555.935 112.064L557.86 113.374L559.786 114.437L561.711 115.24L563.636 115.774L565.561 116.033L567.486 116.013L569.411 115.715L571.336 115.142L573.261 114.3L575.187 113.201L577.112 111.858L579.037 110.286L580.962 108.505L582.887 106.536L584.812 104.403L586.737 102.132L588.663 99.7501L590.588 97.2861L592.513 94.7698L594.438 92.2317L596.363 89.7023L598.288 87.2122L600.213 84.7915L602.139 82.4694L604.064 80.274L605.989 78.2318L607.914 76.3674L609.839 74.7035L611.764 73.26L613.689 72.0544L615.614 71.1012L617.54 70.4121L619.465 69.9952L621.39 69.8557L623.315 69.9952L625.24 70.4121L627.165 71.1012L629.09 72.0544L631.016 73.26L632.941 74.7035L634.866 76.3674L636.791 78.2318L638.716 80.274L640.641 82.4694L642.566 84.7915L644.491 87.2122L646.417 89.7023L648.342 92.2317L650.267 94.7698L652.192 97.2861L654.117 99.7501L656.042 102.132L657.967 104.403L659.893 106.536L661.818 108.505L663.743 110.286L665.668 111.858L667.593 113.201L669.518 114.3L671.443 115.142L673.368 115.715L675.294 116.013L677.219 116.033L679.144 115.774L681.069 115.24L682.994 114.437L684.919 113.374L686.844 112.064L688.77 110.524L690.695 108.771L692.62 106.828L694.545 104.717L696.47 102.464L698.395 100.096L700.32 97.642L702.245 95.1314L706.096 90.0619L708.021 87.5644L709.946 85.1319" stroke="#0055D5" stroke-width="14" stroke-miterlimit="10" stroke-linecap="round" stroke-linejoin="round"/>
<rect x="704.171" y="42.9038" width="15.4011" height="102.032" rx="7.70053" fill="#0055D5"/>
<path d="M1052.51 102.307C1056.37 102.368 1059.56 99.2841 1059.62 95.4186C1059.68 91.5531 1056.6 88.3697 1052.73 88.3084L1052.51 102.307ZM719.592 102.307C993.751 101.537 1032.37 101.987 1052.51 102.307L1052.73 88.3084C1032.44 87.9863 993.671 87.5375 719.553 88.3075L719.592 102.307Z" fill="#DAE2FF"/>
<path d="M1292 87.6084L1293.93 90.0817L1295.85 92.6029L1297.78 95.1417L1299.7 97.6674L1301.63 100.149L1303.55 102.558L1305.48 104.863L1307.4 107.039L1309.33 109.057L1311.25 110.894L1313.18 112.528L1315.1 113.938L1317.03 115.108L1318.95 116.024L1320.88 116.675L1322.8 117.053L1324.73 117.152L1326.65 116.973L1328.58 116.517L1330.5 115.789L1332.43 114.799L1334.35 113.559L1336.28 112.083L1338.2 110.389L1340.13 108.498L1342.05 106.432L1343.98 104.217L1345.9 101.879L1347.83 99.4465L1349.75 96.9489L1353.6 91.8794L1355.53 89.3688L1357.45 86.9147L1359.38 84.5469L1361.3 82.2938L1363.23 80.1828L1365.16 78.2394L1367.08 76.4869L1369.01 74.9466L1370.93 73.6371L1372.86 72.5742L1374.78 71.7707L1376.71 71.2363L1378.63 70.9775L1380.56 70.9975L1382.48 71.2959L1384.41 71.8692L1386.33 72.7104L1388.26 73.8094L1390.18 75.1529L1392.11 76.7247L1394.03 78.5058L1395.96 80.4747L1397.88 82.6076L1399.81 84.8787L1401.73 87.2607L1403.66 89.7247L1405.58 92.241L1407.51 94.7791L1409.43 97.3085L1411.36 99.7986L1413.28 102.219L1415.21 104.541L1417.13 106.737L1419.06 108.779L1420.98 110.643L1422.91 112.307L1424.83 113.751L1426.76 114.956L1428.68 115.91L1430.61 116.599L1432.53 117.016L1434.46 117.155L1436.39 117.016L1438.31 116.599L1440.24 115.91L1442.16 114.956L1444.09 113.751L1446.01 112.307L1447.94 110.643L1449.86 108.779L1451.79 106.737L1453.71 104.541L1455.64 102.219L1457.56 99.7986L1459.49 97.3085L1461.41 94.7791L1463.34 92.241L1465.26 89.7247L1467.19 87.2607L1469.11 84.8787L1471.04 82.6076L1472.96 80.4747L1474.89 78.5058L1476.81 76.7247L1478.74 75.1529L1480.66 73.8094L1482.59 72.7104L1484.51 71.8692L1486.44 71.2959L1488.36 70.9975L1490.29 70.9775L1492.21 71.2363L1494.14 71.7707L1496.06 72.5742L1497.99 73.6371L1499.91 74.9466L1501.84 76.4869L1503.76 78.2394L1505.69 80.1828L1507.61 82.2938L1509.54 84.5469L1511.47 86.9147L1513.39 89.3688L1515.32 91.8794L1519.17 96.9489L1521.09 99.4465L1523.02 101.879L1524.94 104.217L1526.87 106.432L1528.79 108.498L1530.72 110.389L1532.64 112.083L1534.57 113.559L1536.49 114.799L1538.42 115.789L1540.34 116.517L1542.27 116.973L1544.19 117.152L1546.12 117.053L1548.04 116.675L1549.97 116.024L1551.89 115.108L1553.82 113.938L1555.74 112.528L1557.67 110.894L1559.59 109.057L1561.52 107.039L1563.44 104.863L1565.37 102.558L1567.29 100.149L1569.22 97.6674L1571.14 95.1417L1573.07 92.6029L1574.99 90.0817L1576.92 87.6084L1578.84 85.2129L1580.77 82.9242L1582.7 80.77L1584.62 78.7761L1586.55 76.9668L1588.47 75.3639L1590.4 73.9867L1592.32 72.8519L1594.25 71.9732L1596.17 71.3611L1598.1 71.0231L1600.02 70.9633L1601.95 71.1824L1603.87 71.6777L1605.8 72.4433L1607.72 73.4698L1609.65 74.745L1611.57 76.2534L1613.5 77.9768L1615.42 79.8944L1617.35 81.983L1619.27 84.2173L1621.2 86.5705L1623.12 89.014L1625.05 91.5185L1628.9 96.5885L1630.82 99.093L1632.75 101.537L1634.67 103.89L1636.6 106.124L1638.52 108.213L1640.45 110.13L1642.37 111.854L1644.3 113.362L1646.22 114.637L1648.15 115.664L1650.07 116.429L1652 116.925L1653.93 117.144L1655.85 117.084L1657.78 116.746L1659.7 116.134L1661.63 115.255L1663.55 114.12L1665.48 112.743L1667.4 111.14L1669.33 109.331L1671.25 107.337L1673.18 105.183L1675.1 102.894L1677.03 100.499L1678.95 98.0253L1680.88 95.5041L1682.8 92.9653L1684.73 90.4396L1686.65 87.9576L1688.58 85.5492L1690.5 83.2436L1692.43 81.0685L1694.35 79.0502L1696.28 77.2132L1698.2 75.5795L1700.13 74.169L1702.05 72.9986L1703.98 72.0826L1705.9 71.4319L1707.83 71.0544L1709.75 70.9548L1711.68 71.1341L1713.6 71.5902L1715.53 72.3177L1717.45 73.3076L1719.38 74.5482L1721.3 76.0243L1723.23 77.7182L1725.16 79.6094L1727.08 81.675L1729.01 83.8902L1730.93 86.2281L1732.86 88.6605L1734.78 91.1581L1738.63 96.2276L1740.56 98.7382L1742.48 101.192L1744.41 103.56L1746.33 105.813L1748.26 107.924L1750.18 109.868L1752.11 111.62L1754.03 113.16L1755.96 114.47L1757.88 115.533L1759.81 116.336L1761.73 116.871L1763.66 117.129L1765.58 117.11L1767.51 116.811L1769.43 116.238L1771.36 115.397L1773.28 114.298L1775.21 112.954L1777.13 111.382L1779.06 109.601L1780.98 107.632L1782.91 105.499L1784.83 103.228L1786.76 100.846L1788.68 98.3823L1790.61 95.866L1792.53 93.3279L1794.46 90.7985L1796.38 88.3084L1798.31 85.8877L1800.24 83.5656L1802.16 81.3702L1804.09 79.328L1806.01 77.4636L1807.94 75.7997L1809.86 74.3562L1811.79 73.1506L1813.71 72.1974L1815.64 71.5083L1817.56 71.0914L1819.49 70.9519L1821.41 71.0914L1823.34 71.5083L1825.26 72.1974L1827.19 73.1506L1829.11 74.3562L1831.04 75.7997L1832.96 77.4636L1834.89 79.328L1836.81 81.3702L1838.74 83.5656L1840.66 85.8877L1842.59 88.3084L1844.51 90.7985L1846.44 93.3279L1848.36 95.866L1850.29 98.3823L1852.21 100.846L1854.14 103.228L1856.06 105.499L1857.99 107.632L1859.91 109.601L1861.84 111.382L1863.76 112.954L1865.69 114.298L1867.61 115.397L1869.54 116.238L1871.47 116.811L1873.39 117.11L1875.32 117.129L1877.24 116.871L1879.17 116.336L1881.09 115.533L1883.02 114.47L1884.94 113.16L1886.87 111.62L1888.79 109.868L1890.72 107.924L1892.64 105.813L1894.57 103.56L1896.49 101.192L1898.42 98.7382L1900.34 96.2276L1904.19 91.1581L1906.12 88.6605L1908.04 86.2281" stroke="#E1E2EC" stroke-width="14" stroke-miterlimit="10" stroke-linecap="round" stroke-linejoin="round"/>
<rect x="1902.27" y="44" width="15.4011" height="102.032" rx="7.70053" fill="#E1E2EC"/>
<path d="M2250.61 103.403C2254.47 103.464 2257.65 100.38 2257.72 96.5148C2257.78 92.6493 2254.69 89.4659 2250.83 89.4046L2250.61 103.403ZM1917.69 103.404C2191.85 102.634 2230.47 103.083 2250.61 103.403L2250.83 89.4046C2230.53 89.0825 2191.77 88.6337 1917.65 89.4037L1917.69 103.404Z" fill="#DAE2FF"/>
<path d="M100.37 222.26C98.8793 222.26 97.7007 221.879 96.834 221.116C95.9847 220.336 95.56 219.279 95.56 217.944C95.56 216.592 96.0107 215.535 96.912 214.772C97.8307 213.992 99.0873 213.602 100.682 213.602H104.66V212.276C104.66 211.496 104.417 210.889 103.932 210.456C103.447 210.023 102.762 209.806 101.878 209.806C101.098 209.806 100.448 209.979 99.928 210.326C99.408 210.655 99.1047 211.097 99.018 211.652H96.262C96.418 210.369 97.0073 209.347 98.03 208.584C99.07 207.821 100.379 207.44 101.956 207.44C103.655 207.44 104.998 207.873 105.986 208.74C106.974 209.589 107.468 210.751 107.468 212.224V222H104.738V219.374H104.27L104.738 218.854C104.738 219.894 104.339 220.726 103.542 221.35C102.745 221.957 101.687 222.26 100.37 222.26ZM101.202 220.102C102.207 220.102 103.031 219.851 103.672 219.348C104.331 218.828 104.66 218.169 104.66 217.372V215.5H100.734C100.006 215.5 99.4253 215.699 98.992 216.098C98.576 216.497 98.368 217.043 98.368 217.736C98.368 218.464 98.6193 219.045 99.122 219.478C99.6247 219.894 100.318 220.102 101.202 220.102ZM117.494 222.26C116.315 222.26 115.275 222.043 114.374 221.61C113.49 221.159 112.805 220.518 112.32 219.686C111.852 218.837 111.618 217.849 111.618 216.722V212.978C111.618 211.834 111.852 210.846 112.32 210.014C112.805 209.182 113.49 208.549 114.374 208.116C115.275 207.665 116.315 207.44 117.494 207.44C119.21 207.44 120.588 207.891 121.628 208.792C122.668 209.693 123.214 210.924 123.266 212.484H120.458C120.406 211.669 120.12 211.037 119.6 210.586C119.08 210.135 118.378 209.91 117.494 209.91C116.541 209.91 115.787 210.179 115.232 210.716C114.677 211.236 114.4 211.981 114.4 212.952V216.722C114.4 217.693 114.677 218.447 115.232 218.984C115.787 219.521 116.541 219.79 117.494 219.79C118.378 219.79 119.08 219.565 119.6 219.114C120.12 218.663 120.406 218.031 120.458 217.216H123.266C123.214 218.776 122.668 220.007 121.628 220.908C120.588 221.809 119.21 222.26 117.494 222.26ZM134.54 222C133.24 222 132.226 221.645 131.498 220.934C130.77 220.223 130.406 219.235 130.406 217.97V210.248H126.454V207.7H130.406V203.67H133.214V207.7H138.804V210.248H133.214V217.97C133.214 218.958 133.69 219.452 134.644 219.452H138.544V222H134.54ZM142.876 222V219.452H147.894V210.248H143.526V207.7H150.624V219.452H155.226V222H142.876ZM148.986 205.23C148.379 205.23 147.894 205.074 147.53 204.762C147.166 204.433 146.984 203.999 146.984 203.462C146.984 202.907 147.166 202.474 147.53 202.162C147.894 201.833 148.379 201.668 148.986 201.668C149.592 201.668 150.078 201.833 150.442 202.162C150.806 202.474 150.988 202.907 150.988 203.462C150.988 203.999 150.806 204.433 150.442 204.762C150.078 205.074 149.592 205.23 148.986 205.23ZM162.313 222L157.581 207.7H160.441L163.379 216.852C163.57 217.389 163.735 217.935 163.873 218.49C164.029 219.027 164.142 219.452 164.211 219.764C164.298 219.452 164.411 219.027 164.549 218.49C164.705 217.935 164.861 217.389 165.017 216.852L167.903 207.7H170.737L166.005 222H162.313ZM179.749 222.26C178.588 222.26 177.565 222.035 176.681 221.584C175.815 221.116 175.147 220.466 174.679 219.634C174.211 218.802 173.977 217.831 173.977 216.722V212.978C173.977 211.851 174.211 210.881 174.679 210.066C175.147 209.234 175.815 208.593 176.681 208.142C177.565 207.674 178.588 207.44 179.749 207.44C180.928 207.44 181.951 207.674 182.817 208.142C183.684 208.593 184.351 209.234 184.819 210.066C185.287 210.881 185.521 211.851 185.521 212.978V215.526H176.681V216.722C176.681 217.779 176.941 218.585 177.461 219.14C177.999 219.695 178.77 219.972 179.775 219.972C180.59 219.972 181.249 219.833 181.751 219.556C182.254 219.261 182.566 218.837 182.687 218.282H185.469C185.261 219.495 184.637 220.466 183.597 221.194C182.557 221.905 181.275 222.26 179.749 222.26ZM182.817 213.836V212.952C182.817 211.912 182.557 211.106 182.037 210.534C181.517 209.962 180.755 209.676 179.749 209.676C178.761 209.676 177.999 209.962 177.461 210.534C176.941 211.106 176.681 211.921 176.681 212.978V213.628L183.025 213.602L182.817 213.836ZM193.935 222V205.594H188.865V202.994H201.813V205.594H196.743V222H193.935ZM205.781 222V207.7H208.485V210.43H209.161L208.303 212.12C208.303 210.577 208.641 209.416 209.317 208.636C209.993 207.839 210.998 207.44 212.333 207.44C213.858 207.44 215.063 207.917 215.947 208.87C216.848 209.806 217.299 211.097 217.299 212.744V213.706H214.413V212.978C214.413 211.955 214.153 211.175 213.633 210.638C213.13 210.083 212.42 209.806 211.501 209.806C210.582 209.806 209.863 210.083 209.343 210.638C208.84 211.193 208.589 211.973 208.589 212.978V222H205.781ZM225.089 222.26C223.598 222.26 222.419 221.879 221.553 221.116C220.703 220.336 220.279 219.279 220.279 217.944C220.279 216.592 220.729 215.535 221.631 214.772C222.549 213.992 223.806 213.602 225.401 213.602H229.379V212.276C229.379 211.496 229.136 210.889 228.651 210.456C228.165 210.023 227.481 209.806 226.597 209.806C225.817 209.806 225.167 209.979 224.647 210.326C224.127 210.655 223.823 211.097 223.737 211.652H220.981C221.137 210.369 221.726 209.347 222.749 208.584C223.789 207.821 225.097 207.44 226.675 207.44C228.373 207.44 229.717 207.873 230.705 208.74C231.693 209.589 232.187 210.751 232.187 212.224V222H229.457V219.374H228.989L229.457 218.854C229.457 219.894 229.058 220.726 228.261 221.35C227.463 221.957 226.406 222.26 225.089 222.26ZM225.921 220.102C226.926 220.102 227.749 219.851 228.391 219.348C229.049 218.828 229.379 218.169 229.379 217.372V215.5H225.453C224.725 215.5 224.144 215.699 223.711 216.098C223.295 216.497 223.087 217.043 223.087 217.736C223.087 218.464 223.338 219.045 223.841 219.478C224.343 219.894 225.037 220.102 225.921 220.102ZM242.213 222.26C241.034 222.26 239.994 222.043 239.093 221.61C238.209 221.159 237.524 220.518 237.039 219.686C236.571 218.837 236.337 217.849 236.337 216.722V212.978C236.337 211.834 236.571 210.846 237.039 210.014C237.524 209.182 238.209 208.549 239.093 208.116C239.994 207.665 241.034 207.44 242.213 207.44C243.929 207.44 245.307 207.891 246.347 208.792C247.387 209.693 247.933 210.924 247.985 212.484H245.177C245.125 211.669 244.839 211.037 244.319 210.586C243.799 210.135 243.097 209.91 242.213 209.91C241.259 209.91 240.505 210.179 239.951 210.716C239.396 211.236 239.119 211.981 239.119 212.952V216.722C239.119 217.693 239.396 218.447 239.951 218.984C240.505 219.521 241.259 219.79 242.213 219.79C243.097 219.79 243.799 219.565 244.319 219.114C244.839 218.663 245.125 218.031 245.177 217.216H247.985C247.933 218.776 247.387 220.007 246.347 220.908C245.307 221.809 243.929 222.26 242.213 222.26ZM252.16 222V203.02H254.968V213.446H257.49L261.286 207.7H264.458L259.908 214.564L264.536 222H261.312L257.49 215.864H254.968V222H252.16ZM273.392 222.26C272.214 222.26 271.182 222.043 270.298 221.61C269.432 221.159 268.756 220.518 268.27 219.686C267.802 218.837 267.568 217.849 267.568 216.722V208.298C267.568 207.154 267.802 206.166 268.27 205.334C268.756 204.502 269.432 203.869 270.298 203.436C271.182 202.985 272.214 202.76 273.392 202.76C274.571 202.76 275.594 202.985 276.46 203.436C277.327 203.887 277.994 204.528 278.462 205.36C278.948 206.175 279.19 207.154 279.19 208.298H276.382C276.382 207.31 276.122 206.556 275.602 206.036C275.082 205.516 274.346 205.256 273.392 205.256C272.439 205.256 271.694 205.516 271.156 206.036C270.636 206.556 270.376 207.301 270.376 208.272V216.722C270.376 217.693 270.636 218.447 271.156 218.984C271.694 219.504 272.439 219.764 273.392 219.764C274.346 219.764 275.082 219.504 275.602 218.984C276.122 218.447 276.382 217.693 276.382 216.722H279.19C279.19 217.849 278.948 218.828 278.462 219.66C277.994 220.492 277.327 221.133 276.46 221.584C275.594 222.035 274.571 222.26 273.392 222.26ZM288.878 222.234C287.699 222.234 286.677 222.009 285.81 221.558C284.943 221.107 284.276 220.466 283.808 219.634C283.34 218.802 283.106 217.823 283.106 216.696V213.004C283.106 211.86 283.34 210.881 283.808 210.066C284.276 209.234 284.943 208.593 285.81 208.142C286.677 207.691 287.699 207.466 288.878 207.466C290.057 207.466 291.079 207.691 291.946 208.142C292.813 208.593 293.48 209.234 293.948 210.066C294.416 210.881 294.65 211.86 294.65 213.004V216.696C294.65 217.823 294.416 218.802 293.948 219.634C293.48 220.466 292.813 221.107 291.946 221.558C291.079 222.009 290.057 222.234 288.878 222.234ZM288.878 219.764C289.831 219.764 290.568 219.504 291.088 218.984C291.608 218.447 291.868 217.684 291.868 216.696V213.004C291.868 211.999 291.608 211.236 291.088 210.716C290.568 210.196 289.831 209.936 288.878 209.936C287.942 209.936 287.205 210.196 286.668 210.716C286.148 211.236 285.888 211.999 285.888 213.004V216.696C285.888 217.684 286.148 218.447 286.668 218.984C287.205 219.504 287.942 219.764 288.878 219.764ZM306.522 222C305.638 222 304.867 221.827 304.208 221.48C303.549 221.116 303.029 220.605 302.648 219.946C302.284 219.287 302.102 218.525 302.102 217.658V205.568H297.422V203.02H304.91V217.658C304.91 218.213 305.066 218.655 305.378 218.984C305.69 219.296 306.115 219.452 306.652 219.452H311.072V222H306.522ZM320.058 222.234C318.879 222.234 317.856 222.009 316.99 221.558C316.123 221.107 315.456 220.466 314.988 219.634C314.52 218.802 314.286 217.823 314.286 216.696V213.004C314.286 211.86 314.52 210.881 314.988 210.066C315.456 209.234 316.123 208.593 316.99 208.142C317.856 207.691 318.879 207.466 320.058 207.466C321.236 207.466 322.259 207.691 323.126 208.142C323.992 208.593 324.66 209.234 325.128 210.066C325.596 210.881 325.83 211.86 325.83 213.004V216.696C325.83 217.823 325.596 218.802 325.128 219.634C324.66 220.466 323.992 221.107 323.126 221.558C322.259 222.009 321.236 222.234 320.058 222.234ZM320.058 219.764C321.011 219.764 321.748 219.504 322.268 218.984C322.788 218.447 323.048 217.684 323.048 216.696V213.004C323.048 211.999 322.788 211.236 322.268 210.716C321.748 210.196 321.011 209.936 320.058 209.936C319.122 209.936 318.385 210.196 317.848 210.716C317.328 211.236 317.068 211.999 317.068 213.004V216.696C317.068 217.684 317.328 218.447 317.848 218.984C318.385 219.504 319.122 219.764 320.058 219.764ZM330.5 222V207.7H333.204V210.43H333.88L333.022 212.12C333.022 210.577 333.36 209.416 334.036 208.636C334.712 207.839 335.717 207.44 337.052 207.44C338.577 207.44 339.782 207.917 340.666 208.87C341.567 209.806 342.018 211.097 342.018 212.744V213.706H339.132V212.978C339.132 211.955 338.872 211.175 338.352 210.638C337.849 210.083 337.138 209.806 336.22 209.806C335.301 209.806 334.582 210.083 334.062 210.638C333.559 211.193 333.308 211.973 333.308 212.978V222H330.5Z" fill="#001849"/>
<path d="M219 188.5V139" stroke="black" stroke-width="4" stroke-linecap="round"/>
<path d="M863.106 205V202.452H868.124V193.248H863.756V190.7H870.854V202.452H875.456V205H863.106ZM869.216 188.23C868.609 188.23 868.124 188.074 867.76 187.762C867.396 187.433 867.214 186.999 867.214 186.462C867.214 185.907 867.396 185.474 867.76 185.162C868.124 184.833 868.609 184.668 869.216 184.668C869.823 184.668 870.308 184.833 870.672 185.162C871.036 185.474 871.218 185.907 871.218 186.462C871.218 186.999 871.036 187.433 870.672 187.762C870.308 188.074 869.823 188.23 869.216 188.23ZM878.774 205V190.7H881.556V193.43H882.232L881.556 194.08C881.556 192.936 881.894 192.043 882.57 191.402C883.246 190.761 884.182 190.44 885.378 190.44C886.799 190.44 887.935 190.899 888.784 191.818C889.633 192.719 890.058 193.941 890.058 195.484V205H887.25V195.796C887.25 194.86 886.999 194.141 886.496 193.638C885.993 193.135 885.309 192.884 884.442 192.884C883.558 192.884 882.856 193.153 882.336 193.69C881.833 194.21 881.582 194.973 881.582 195.978V205H878.774ZM898.55 205.26C897.059 205.26 895.88 204.879 895.014 204.116C894.164 203.336 893.74 202.279 893.74 200.944C893.74 199.592 894.19 198.535 895.092 197.772C896.01 196.992 897.267 196.602 898.862 196.602H902.84V195.276C902.84 194.496 902.597 193.889 902.112 193.456C901.626 193.023 900.942 192.806 900.058 192.806C899.278 192.806 898.628 192.979 898.108 193.326C897.588 193.655 897.284 194.097 897.198 194.652H894.442C894.598 193.369 895.187 192.347 896.21 191.584C897.25 190.821 898.558 190.44 900.136 190.44C901.834 190.44 903.178 190.873 904.166 191.74C905.154 192.589 905.648 193.751 905.648 195.224V205H902.918V202.374H902.45L902.918 201.854C902.918 202.894 902.519 203.726 901.722 204.35C900.924 204.957 899.867 205.26 898.55 205.26ZM899.382 203.102C900.387 203.102 901.21 202.851 901.852 202.348C902.51 201.828 902.84 201.169 902.84 200.372V198.5H898.914C898.186 198.5 897.605 198.699 897.172 199.098C896.756 199.497 896.548 200.043 896.548 200.736C896.548 201.464 896.799 202.045 897.302 202.478C897.804 202.894 898.498 203.102 899.382 203.102ZM915.674 205.26C914.495 205.26 913.455 205.043 912.554 204.61C911.67 204.159 910.985 203.518 910.5 202.686C910.032 201.837 909.798 200.849 909.798 199.722V195.978C909.798 194.834 910.032 193.846 910.5 193.014C910.985 192.182 911.67 191.549 912.554 191.116C913.455 190.665 914.495 190.44 915.674 190.44C917.39 190.44 918.768 190.891 919.808 191.792C920.848 192.693 921.394 193.924 921.446 195.484H918.638C918.586 194.669 918.3 194.037 917.78 193.586C917.26 193.135 916.558 192.91 915.674 192.91C914.72 192.91 913.966 193.179 913.412 193.716C912.857 194.236 912.58 194.981 912.58 195.952V199.722C912.58 200.693 912.857 201.447 913.412 201.984C913.966 202.521 914.72 202.79 915.674 202.79C916.558 202.79 917.26 202.565 917.78 202.114C918.3 201.663 918.586 201.031 918.638 200.216H921.446C921.394 201.776 920.848 203.007 919.808 203.908C918.768 204.809 917.39 205.26 915.674 205.26ZM932.719 205C931.419 205 930.405 204.645 929.677 203.934C928.949 203.223 928.585 202.235 928.585 200.97V193.248H924.633V190.7H928.585V186.67H931.393V190.7H936.983V193.248H931.393V200.97C931.393 201.958 931.87 202.452 932.823 202.452H936.723V205H932.719ZM941.055 205V202.452H946.073V193.248H941.705V190.7H948.803V202.452H953.405V205H941.055ZM947.165 188.23C946.559 188.23 946.073 188.074 945.709 187.762C945.345 187.433 945.163 186.999 945.163 186.462C945.163 185.907 945.345 185.474 945.709 185.162C946.073 184.833 946.559 184.668 947.165 184.668C947.772 184.668 948.257 184.833 948.621 185.162C948.985 185.474 949.167 185.907 949.167 186.462C949.167 186.999 948.985 187.433 948.621 187.762C948.257 188.074 947.772 188.23 947.165 188.23ZM960.493 205L955.761 190.7H958.621L961.559 199.852C961.75 200.389 961.914 200.935 962.053 201.49C962.209 202.027 962.322 202.452 962.391 202.764C962.478 202.452 962.59 202.027 962.729 201.49C962.885 200.935 963.041 200.389 963.197 199.852L966.083 190.7H968.917L964.185 205H960.493ZM977.929 205.26C976.768 205.26 975.745 205.035 974.861 204.584C973.994 204.116 973.327 203.466 972.859 202.634C972.391 201.802 972.157 200.831 972.157 199.722V195.978C972.157 194.851 972.391 193.881 972.859 193.066C973.327 192.234 973.994 191.593 974.861 191.142C975.745 190.674 976.768 190.44 977.929 190.44C979.108 190.44 980.13 190.674 980.997 191.142C981.864 191.593 982.531 192.234 982.999 193.066C983.467 193.881 983.701 194.851 983.701 195.978V198.526H974.861V199.722C974.861 200.779 975.121 201.585 975.641 202.14C976.178 202.695 976.95 202.972 977.955 202.972C978.77 202.972 979.428 202.833 979.931 202.556C980.434 202.261 980.746 201.837 980.867 201.282H983.649C983.441 202.495 982.817 203.466 981.777 204.194C980.737 204.905 979.454 205.26 977.929 205.26ZM980.997 196.836V195.952C980.997 194.912 980.737 194.106 980.217 193.534C979.697 192.962 978.934 192.676 977.929 192.676C976.941 192.676 976.178 192.962 975.641 193.534C975.121 194.106 974.861 194.921 974.861 195.978V196.628L981.205 196.602L980.997 196.836ZM992.115 205V188.594H987.045V185.994H999.993V188.594H994.923V205H992.115ZM1003.96 205V190.7H1006.66V193.43H1007.34L1006.48 195.12C1006.48 193.577 1006.82 192.416 1007.5 191.636C1008.17 190.839 1009.18 190.44 1010.51 190.44C1012.04 190.44 1013.24 190.917 1014.13 191.87C1015.03 192.806 1015.48 194.097 1015.48 195.744V196.706H1012.59V195.978C1012.59 194.955 1012.33 194.175 1011.81 193.638C1011.31 193.083 1010.6 192.806 1009.68 192.806C1008.76 192.806 1008.04 193.083 1007.52 193.638C1007.02 194.193 1006.77 194.973 1006.77 195.978V205H1003.96ZM1023.27 205.26C1021.78 205.26 1020.6 204.879 1019.73 204.116C1018.88 203.336 1018.46 202.279 1018.46 200.944C1018.46 199.592 1018.91 198.535 1019.81 197.772C1020.73 196.992 1021.99 196.602 1023.58 196.602H1027.56V195.276C1027.56 194.496 1027.32 193.889 1026.83 193.456C1026.35 193.023 1025.66 192.806 1024.78 192.806C1024 192.806 1023.35 192.979 1022.83 193.326C1022.31 193.655 1022 194.097 1021.92 194.652H1019.16C1019.32 193.369 1019.91 192.347 1020.93 191.584C1021.97 190.821 1023.28 190.44 1024.85 190.44C1026.55 190.44 1027.9 190.873 1028.88 191.74C1029.87 192.589 1030.37 193.751 1030.37 195.224V205H1027.64V202.374H1027.17L1027.64 201.854C1027.64 202.894 1027.24 203.726 1026.44 204.35C1025.64 204.957 1024.59 205.26 1023.27 205.26ZM1024.1 203.102C1025.11 203.102 1025.93 202.851 1026.57 202.348C1027.23 201.828 1027.56 201.169 1027.56 200.372V198.5H1023.63C1022.9 198.5 1022.32 198.699 1021.89 199.098C1021.47 199.497 1021.27 200.043 1021.27 200.736C1021.27 201.464 1021.52 202.045 1022.02 202.478C1022.52 202.894 1023.22 203.102 1024.1 203.102ZM1040.39 205.26C1039.21 205.26 1038.17 205.043 1037.27 204.61C1036.39 204.159 1035.7 203.518 1035.22 202.686C1034.75 201.837 1034.52 200.849 1034.52 199.722V195.978C1034.52 194.834 1034.75 193.846 1035.22 193.014C1035.7 192.182 1036.39 191.549 1037.27 191.116C1038.17 190.665 1039.21 190.44 1040.39 190.44C1042.11 190.44 1043.49 190.891 1044.53 191.792C1045.57 192.693 1046.11 193.924 1046.16 195.484H1043.36C1043.3 194.669 1043.02 194.037 1042.5 193.586C1041.98 193.135 1041.28 192.91 1040.39 192.91C1039.44 192.91 1038.68 193.179 1038.13 193.716C1037.58 194.236 1037.3 194.981 1037.3 195.952V199.722C1037.3 200.693 1037.58 201.447 1038.13 201.984C1038.68 202.521 1039.44 202.79 1040.39 202.79C1041.28 202.79 1041.98 202.565 1042.5 202.114C1043.02 201.663 1043.3 201.031 1043.36 200.216H1046.16C1046.11 201.776 1045.57 203.007 1044.53 203.908C1043.49 204.809 1042.11 205.26 1040.39 205.26ZM1050.34 205V186.02H1053.15V196.446H1055.67L1059.47 190.7H1062.64L1058.09 197.564L1062.72 205H1059.49L1055.67 198.864H1053.15V205H1050.34ZM1071.57 205.26C1070.39 205.26 1069.36 205.043 1068.48 204.61C1067.61 204.159 1066.94 203.518 1066.45 202.686C1065.98 201.837 1065.75 200.849 1065.75 199.722V191.298C1065.75 190.154 1065.98 189.166 1066.45 188.334C1066.94 187.502 1067.61 186.869 1068.48 186.436C1069.36 185.985 1070.39 185.76 1071.57 185.76C1072.75 185.76 1073.77 185.985 1074.64 186.436C1075.51 186.887 1076.17 187.528 1076.64 188.36C1077.13 189.175 1077.37 190.154 1077.37 191.298H1074.56C1074.56 190.31 1074.3 189.556 1073.78 189.036C1073.26 188.516 1072.53 188.256 1071.57 188.256C1070.62 188.256 1069.87 188.516 1069.34 189.036C1068.82 189.556 1068.56 190.301 1068.56 191.272V199.722C1068.56 200.693 1068.82 201.447 1069.34 201.984C1069.87 202.504 1070.62 202.764 1071.57 202.764C1072.53 202.764 1073.26 202.504 1073.78 201.984C1074.3 201.447 1074.56 200.693 1074.56 199.722H1077.37C1077.37 200.849 1077.13 201.828 1076.64 202.66C1076.17 203.492 1075.51 204.133 1074.64 204.584C1073.77 205.035 1072.75 205.26 1071.57 205.26ZM1087.06 205.234C1085.88 205.234 1084.86 205.009 1083.99 204.558C1083.12 204.107 1082.46 203.466 1081.99 202.634C1081.52 201.802 1081.29 200.823 1081.29 199.696V196.004C1081.29 194.86 1081.52 193.881 1081.99 193.066C1082.46 192.234 1083.12 191.593 1083.99 191.142C1084.86 190.691 1085.88 190.466 1087.06 190.466C1088.24 190.466 1089.26 190.691 1090.13 191.142C1090.99 191.593 1091.66 192.234 1092.13 193.066C1092.6 193.881 1092.83 194.86 1092.83 196.004V199.696C1092.83 200.823 1092.6 201.802 1092.13 202.634C1091.66 203.466 1090.99 204.107 1090.13 204.558C1089.26 205.009 1088.24 205.234 1087.06 205.234ZM1087.06 202.764C1088.01 202.764 1088.75 202.504 1089.27 201.984C1089.79 201.447 1090.05 200.684 1090.05 199.696V196.004C1090.05 194.999 1089.79 194.236 1089.27 193.716C1088.75 193.196 1088.01 192.936 1087.06 192.936C1086.12 192.936 1085.39 193.196 1084.85 193.716C1084.33 194.236 1084.07 194.999 1084.07 196.004V199.696C1084.07 200.684 1084.33 201.447 1084.85 201.984C1085.39 202.504 1086.12 202.764 1087.06 202.764ZM1104.7 205C1103.82 205 1103.05 204.827 1102.39 204.48C1101.73 204.116 1101.21 203.605 1100.83 202.946C1100.46 202.287 1100.28 201.525 1100.28 200.658V188.568H1095.6V186.02H1103.09V200.658C1103.09 201.213 1103.25 201.655 1103.56 201.984C1103.87 202.296 1104.29 202.452 1104.83 202.452H1109.25V205H1104.7ZM1118.24 205.234C1117.06 205.234 1116.04 205.009 1115.17 204.558C1114.3 204.107 1113.64 203.466 1113.17 202.634C1112.7 201.802 1112.47 200.823 1112.47 199.696V196.004C1112.47 194.86 1112.7 193.881 1113.17 193.066C1113.64 192.234 1114.3 191.593 1115.17 191.142C1116.04 190.691 1117.06 190.466 1118.24 190.466C1119.42 190.466 1120.44 190.691 1121.31 191.142C1122.17 191.593 1122.84 192.234 1123.31 193.066C1123.78 193.881 1124.01 194.86 1124.01 196.004V199.696C1124.01 200.823 1123.78 201.802 1123.31 202.634C1122.84 203.466 1122.17 204.107 1121.31 204.558C1120.44 205.009 1119.42 205.234 1118.24 205.234ZM1118.24 202.764C1119.19 202.764 1119.93 202.504 1120.45 201.984C1120.97 201.447 1121.23 200.684 1121.23 199.696V196.004C1121.23 194.999 1120.97 194.236 1120.45 193.716C1119.93 193.196 1119.19 192.936 1118.24 192.936C1117.3 192.936 1116.56 193.196 1116.03 193.716C1115.51 194.236 1115.25 194.999 1115.25 196.004V199.696C1115.25 200.684 1115.51 201.447 1116.03 201.984C1116.56 202.504 1117.3 202.764 1118.24 202.764ZM1128.68 205V190.7H1131.38V193.43H1132.06L1131.2 195.12C1131.2 193.577 1131.54 192.416 1132.22 191.636C1132.89 190.839 1133.9 190.44 1135.23 190.44C1136.76 190.44 1137.96 190.917 1138.85 191.87C1139.75 192.806 1140.2 194.097 1140.2 195.744V196.706H1137.31V195.978C1137.31 194.955 1137.05 194.175 1136.53 193.638C1136.03 193.083 1135.32 192.806 1134.4 192.806C1133.48 192.806 1132.76 193.083 1132.24 193.638C1131.74 194.193 1131.49 194.973 1131.49 195.978V205H1128.68Z" fill="#001849"/>
<path d="M1002 165.5V116" stroke="black" stroke-width="4" stroke-linecap="round"/>
<path d="M643.36 248C642.06 248 641.046 247.645 640.318 246.934C639.59 246.223 639.226 245.235 639.226 243.97V236.248H635.274V233.7H639.226V229.67H642.034V233.7H647.624V236.248H642.034V243.97C642.034 244.958 642.511 245.452 643.464 245.452H647.364V248H643.36ZM651.774 248V229.02H654.582V233.7L654.556 236.43H655.232L654.556 237.08C654.556 235.936 654.894 235.043 655.57 234.402C656.246 233.761 657.182 233.44 658.378 233.44C659.799 233.44 660.935 233.899 661.784 234.818C662.633 235.719 663.058 236.941 663.058 238.484V248H660.25V238.796C660.25 237.86 659.999 237.132 659.496 236.612C658.993 236.092 658.309 235.832 657.442 235.832C656.558 235.832 655.856 236.109 655.336 236.664C654.833 237.201 654.582 237.973 654.582 238.978V248H651.774ZM672.954 248.26C671.238 248.26 669.868 247.766 668.846 246.778C667.823 245.773 667.312 244.412 667.312 242.696V233.7H670.12V242.696C670.12 243.684 670.371 244.455 670.874 245.01C671.376 245.547 672.07 245.816 672.954 245.816C673.855 245.816 674.557 245.547 675.06 245.01C675.58 244.455 675.84 243.684 675.84 242.696V233.7H678.648V242.696C678.648 244.412 678.128 245.773 677.088 246.778C676.065 247.766 674.687 248.26 672.954 248.26ZM682.304 248V233.7H684.644V235.52H685.164L684.774 236.066C684.774 235.269 684.99 234.636 685.424 234.168C685.857 233.683 686.438 233.44 687.166 233.44C687.946 233.44 688.544 233.743 688.96 234.35C689.393 234.957 689.61 235.789 689.61 236.846L688.986 235.52H689.974L689.558 236.066C689.558 235.269 689.774 234.636 690.208 234.168C690.658 233.683 691.256 233.44 692.002 233.44C692.886 233.44 693.579 233.778 694.082 234.454C694.584 235.113 694.836 235.997 694.836 237.106V248H692.34V237.184C692.34 236.647 692.218 236.231 691.976 235.936C691.75 235.641 691.421 235.494 690.988 235.494C690.554 235.494 690.216 235.641 689.974 235.936C689.748 236.213 689.636 236.621 689.636 237.158V248H687.53V237.184C687.53 236.629 687.408 236.213 687.166 235.936C686.923 235.641 686.576 235.494 686.126 235.494C685.692 235.494 685.363 235.641 685.138 235.936C684.93 236.213 684.826 236.621 684.826 237.158V248H682.304ZM705.173 248.26C703.995 248.26 703.059 247.939 702.365 247.298C701.672 246.639 701.325 245.747 701.325 244.62L701.923 245.27H701.325V248H698.543V229.02H701.351V233.102L701.273 236.43H701.923L701.325 237.08C701.325 235.953 701.672 235.069 702.365 234.428C703.076 233.769 704.012 233.44 705.173 233.44C706.612 233.44 707.765 233.925 708.631 234.896C709.498 235.867 709.931 237.184 709.931 238.848V242.878C709.931 244.525 709.498 245.833 708.631 246.804C707.765 247.775 706.612 248.26 705.173 248.26ZM704.211 245.816C705.13 245.816 705.849 245.556 706.369 245.036C706.889 244.499 707.149 243.727 707.149 242.722V238.978C707.149 237.973 706.889 237.21 706.369 236.69C705.849 236.153 705.13 235.884 704.211 235.884C703.327 235.884 702.625 236.161 702.105 236.716C701.603 237.253 701.351 238.007 701.351 238.978V242.722C701.351 243.693 701.603 244.455 702.105 245.01C702.625 245.547 703.327 245.816 704.211 245.816ZM719.853 248.26C718.675 248.26 717.643 248.043 716.759 247.61C715.893 247.159 715.217 246.518 714.731 245.686C714.263 244.837 714.029 243.849 714.029 242.722V234.298C714.029 233.154 714.263 232.166 714.731 231.334C715.217 230.502 715.893 229.869 716.759 229.436C717.643 228.985 718.675 228.76 719.853 228.76C721.032 228.76 722.055 228.985 722.921 229.436C723.788 229.887 724.455 230.528 724.923 231.36C725.409 232.175 725.651 233.154 725.651 234.298H722.843C722.843 233.31 722.583 232.556 722.063 232.036C721.543 231.516 720.807 231.256 719.853 231.256C718.9 231.256 718.155 231.516 717.617 232.036C717.097 232.556 716.837 233.301 716.837 234.272V242.722C716.837 243.693 717.097 244.447 717.617 244.984C718.155 245.504 718.9 245.764 719.853 245.764C720.807 245.764 721.543 245.504 722.063 244.984C722.583 244.447 722.843 243.693 722.843 242.722H725.651C725.651 243.849 725.409 244.828 724.923 245.66C724.455 246.492 723.788 247.133 722.921 247.584C722.055 248.035 721.032 248.26 719.853 248.26ZM735.339 248.234C734.16 248.234 733.138 248.009 732.271 247.558C731.404 247.107 730.737 246.466 730.269 245.634C729.801 244.802 729.567 243.823 729.567 242.696V239.004C729.567 237.86 729.801 236.881 730.269 236.066C730.737 235.234 731.404 234.593 732.271 234.142C733.138 233.691 734.16 233.466 735.339 233.466C736.518 233.466 737.54 233.691 738.407 234.142C739.274 234.593 739.941 235.234 740.409 236.066C740.877 236.881 741.111 237.86 741.111 239.004V242.696C741.111 243.823 740.877 244.802 740.409 245.634C739.941 246.466 739.274 247.107 738.407 247.558C737.54 248.009 736.518 248.234 735.339 248.234ZM735.339 245.764C736.292 245.764 737.029 245.504 737.549 244.984C738.069 244.447 738.329 243.684 738.329 242.696V239.004C738.329 237.999 738.069 237.236 737.549 236.716C737.029 236.196 736.292 235.936 735.339 235.936C734.403 235.936 733.666 236.196 733.129 236.716C732.609 237.236 732.349 237.999 732.349 239.004V242.696C732.349 243.684 732.609 244.447 733.129 244.984C733.666 245.504 734.403 245.764 735.339 245.764ZM752.983 248C752.099 248 751.328 247.827 750.669 247.48C750.01 247.116 749.49 246.605 749.109 245.946C748.745 245.287 748.563 244.525 748.563 243.658V231.568H743.883V229.02H751.371V243.658C751.371 244.213 751.527 244.655 751.839 244.984C752.151 245.296 752.576 245.452 753.113 245.452H757.533V248H752.983ZM766.519 248.234C765.34 248.234 764.317 248.009 763.451 247.558C762.584 247.107 761.917 246.466 761.449 245.634C760.981 244.802 760.747 243.823 760.747 242.696V239.004C760.747 237.86 760.981 236.881 761.449 236.066C761.917 235.234 762.584 234.593 763.451 234.142C764.317 233.691 765.34 233.466 766.519 233.466C767.697 233.466 768.72 233.691 769.587 234.142C770.453 234.593 771.121 235.234 771.589 236.066C772.057 236.881 772.291 237.86 772.291 239.004V242.696C772.291 243.823 772.057 244.802 771.589 245.634C771.121 246.466 770.453 247.107 769.587 247.558C768.72 248.009 767.697 248.234 766.519 248.234ZM766.519 245.764C767.472 245.764 768.209 245.504 768.729 244.984C769.249 244.447 769.509 243.684 769.509 242.696V239.004C769.509 237.999 769.249 237.236 768.729 236.716C768.209 236.196 767.472 235.936 766.519 235.936C765.583 235.936 764.846 236.196 764.309 236.716C763.789 237.236 763.529 237.999 763.529 239.004V242.696C763.529 243.684 763.789 244.447 764.309 244.984C764.846 245.504 765.583 245.764 766.519 245.764ZM776.961 248V233.7H779.665V236.43H780.341L779.483 238.12C779.483 236.577 779.821 235.416 780.497 234.636C781.173 233.839 782.178 233.44 783.513 233.44C785.038 233.44 786.243 233.917 787.127 234.87C788.028 235.806 788.479 237.097 788.479 238.744V239.706H785.593V238.978C785.593 237.955 785.333 237.175 784.813 236.638C784.31 236.083 783.599 235.806 782.681 235.806C781.762 235.806 781.043 236.083 780.523 236.638C780.02 237.193 779.769 237.973 779.769 238.978V248H776.961Z" fill="#001849"/>
<path d="M712 213.5V164" stroke="black" stroke-width="4" stroke-linecap="round"/>
<path d="M1248.79 222.26C1247.35 222.26 1246.19 221.775 1245.33 220.804C1244.46 219.833 1244.03 218.525 1244.03 216.878V212.848C1244.03 211.184 1244.46 209.867 1245.33 208.896C1246.19 207.925 1247.35 207.44 1248.79 207.44C1249.96 207.44 1250.9 207.769 1251.59 208.428C1252.29 209.069 1252.63 209.953 1252.63 211.08L1252.04 210.43H1252.69L1252.61 207.102V203.02H1255.42V222H1252.63V219.27H1252.04L1252.63 218.62C1252.63 219.747 1252.29 220.639 1251.59 221.298C1250.9 221.939 1249.96 222.26 1248.79 222.26ZM1249.75 219.816C1250.63 219.816 1251.33 219.547 1251.83 219.01C1252.35 218.455 1252.61 217.693 1252.61 216.722V212.978C1252.61 212.007 1252.35 211.253 1251.83 210.716C1251.33 210.161 1250.63 209.884 1249.75 209.884C1248.83 209.884 1248.11 210.153 1247.59 210.69C1247.07 211.21 1246.81 211.973 1246.81 212.978V216.722C1246.81 217.727 1247.07 218.499 1247.59 219.036C1248.11 219.556 1248.83 219.816 1249.75 219.816ZM1259.7 222V219.452H1264.71V210.248H1260.35V207.7H1267.44V219.452H1272.05V222H1259.7ZM1265.81 205.23C1265.2 205.23 1264.71 205.074 1264.35 204.762C1263.99 204.433 1263.8 203.999 1263.8 203.462C1263.8 202.907 1263.99 202.474 1264.35 202.162C1264.71 201.833 1265.2 201.668 1265.81 201.668C1266.41 201.668 1266.9 201.833 1267.26 202.162C1267.63 202.474 1267.81 202.907 1267.81 203.462C1267.81 203.999 1267.63 204.433 1267.26 204.762C1266.9 205.074 1266.41 205.23 1265.81 205.23ZM1280.49 222.234C1279.46 222.234 1278.56 222.069 1277.78 221.74C1277.02 221.411 1276.41 220.96 1275.96 220.388C1275.53 219.799 1275.28 219.105 1275.21 218.308H1278.02C1278.09 218.776 1278.34 219.157 1278.77 219.452C1279.2 219.729 1279.78 219.868 1280.49 219.868H1281.6C1282.45 219.868 1283.09 219.695 1283.53 219.348C1283.96 219.001 1284.18 218.542 1284.18 217.97C1284.18 217.415 1283.98 216.982 1283.58 216.67C1283.2 216.341 1282.63 216.124 1281.86 216.02L1280.02 215.734C1278.49 215.491 1277.37 215.058 1276.64 214.434C1275.93 213.793 1275.57 212.848 1275.57 211.6C1275.57 210.283 1276 209.269 1276.85 208.558C1277.71 207.83 1278.99 207.466 1280.67 207.466H1281.66C1283.15 207.466 1284.33 207.813 1285.22 208.506C1286.12 209.182 1286.63 210.092 1286.75 211.236H1283.94C1283.87 210.82 1283.64 210.482 1283.24 210.222C1282.86 209.962 1282.33 209.832 1281.66 209.832H1280.67C1279.85 209.832 1279.26 209.988 1278.87 210.3C1278.51 210.595 1278.33 211.037 1278.33 211.626C1278.33 212.146 1278.49 212.536 1278.82 212.796C1279.15 213.056 1279.66 213.238 1280.36 213.342L1282.25 213.654C1283.87 213.879 1285.04 214.33 1285.79 215.006C1286.55 215.665 1286.93 216.627 1286.93 217.892C1286.93 219.261 1286.48 220.327 1285.58 221.09C1284.7 221.853 1283.37 222.234 1281.6 222.234H1280.49ZM1295.14 222.26C1293.65 222.26 1292.47 221.879 1291.6 221.116C1290.75 220.336 1290.33 219.279 1290.33 217.944C1290.33 216.592 1290.78 215.535 1291.68 214.772C1292.6 213.992 1293.86 213.602 1295.45 213.602H1299.43V212.276C1299.43 211.496 1299.19 210.889 1298.7 210.456C1298.22 210.023 1297.53 209.806 1296.65 209.806C1295.87 209.806 1295.22 209.979 1294.7 210.326C1294.18 210.655 1293.87 211.097 1293.79 211.652H1291.03C1291.19 210.369 1291.78 209.347 1292.8 208.584C1293.84 207.821 1295.15 207.44 1296.73 207.44C1298.42 207.44 1299.77 207.873 1300.76 208.74C1301.74 209.589 1302.24 210.751 1302.24 212.224V222H1299.51V219.374H1299.04L1299.51 218.854C1299.51 219.894 1299.11 220.726 1298.31 221.35C1297.51 221.957 1296.46 222.26 1295.14 222.26ZM1295.97 220.102C1296.98 220.102 1297.8 219.851 1298.44 219.348C1299.1 218.828 1299.43 218.169 1299.43 217.372V215.5H1295.5C1294.78 215.5 1294.19 215.699 1293.76 216.098C1293.35 216.497 1293.14 217.043 1293.14 217.736C1293.14 218.464 1293.39 219.045 1293.89 219.478C1294.39 219.894 1295.09 220.102 1295.97 220.102ZM1313.17 222.26C1311.99 222.26 1311.06 221.939 1310.37 221.298C1309.67 220.639 1309.33 219.747 1309.33 218.62L1309.92 219.27H1309.33V222H1306.54V203.02H1309.35V207.102L1309.27 210.43H1309.92L1309.33 211.08C1309.33 209.953 1309.67 209.069 1310.37 208.428C1311.08 207.769 1312.01 207.44 1313.17 207.44C1314.61 207.44 1315.76 207.925 1316.63 208.896C1317.5 209.867 1317.93 211.184 1317.93 212.848V216.878C1317.93 218.525 1317.5 219.833 1316.63 220.804C1315.76 221.775 1314.61 222.26 1313.17 222.26ZM1312.21 219.816C1313.13 219.816 1313.85 219.556 1314.37 219.036C1314.89 218.499 1315.15 217.727 1315.15 216.722V212.978C1315.15 211.973 1314.89 211.21 1314.37 210.69C1313.85 210.153 1313.13 209.884 1312.21 209.884C1311.33 209.884 1310.63 210.161 1310.11 210.716C1309.6 211.253 1309.35 212.007 1309.35 212.978V216.722C1309.35 217.693 1309.6 218.455 1310.11 219.01C1310.63 219.547 1311.33 219.816 1312.21 219.816ZM1329.8 222C1328.92 222 1328.15 221.827 1327.49 221.48C1326.83 221.116 1326.31 220.605 1325.93 219.946C1325.57 219.287 1325.38 218.525 1325.38 217.658V205.568H1320.7V203.02H1328.19V217.658C1328.19 218.213 1328.35 218.655 1328.66 218.984C1328.97 219.296 1329.4 219.452 1329.93 219.452H1334.35V222H1329.8ZM1343.34 222.26C1342.18 222.26 1341.16 222.035 1340.27 221.584C1339.4 221.116 1338.74 220.466 1338.27 219.634C1337.8 218.802 1337.57 217.831 1337.57 216.722V212.978C1337.57 211.851 1337.8 210.881 1338.27 210.066C1338.74 209.234 1339.4 208.593 1340.27 208.142C1341.16 207.674 1342.18 207.44 1343.34 207.44C1344.52 207.44 1345.54 207.674 1346.41 208.142C1347.27 208.593 1347.94 209.234 1348.41 210.066C1348.88 210.881 1349.11 211.851 1349.11 212.978V215.526H1340.27V216.722C1340.27 217.779 1340.53 218.585 1341.05 219.14C1341.59 219.695 1342.36 219.972 1343.37 219.972C1344.18 219.972 1344.84 219.833 1345.34 219.556C1345.84 219.261 1346.16 218.837 1346.28 218.282H1349.06C1348.85 219.495 1348.23 220.466 1347.19 221.194C1346.15 221.905 1344.86 222.26 1343.34 222.26ZM1346.41 213.836V212.952C1346.41 211.912 1346.15 211.106 1345.63 210.534C1345.11 209.962 1344.34 209.676 1343.34 209.676C1342.35 209.676 1341.59 209.962 1341.05 210.534C1340.53 211.106 1340.27 211.921 1340.27 212.978V213.628L1346.62 213.602L1346.41 213.836ZM1357.91 222.26C1356.48 222.26 1355.32 221.775 1354.46 220.804C1353.59 219.833 1353.16 218.525 1353.16 216.878V212.848C1353.16 211.184 1353.59 209.867 1354.46 208.896C1355.32 207.925 1356.48 207.44 1357.91 207.44C1359.09 207.44 1360.03 207.769 1360.72 208.428C1361.42 209.069 1361.76 209.953 1361.76 211.08L1361.16 210.43H1361.81L1361.74 207.102V203.02H1364.54V222H1361.76V219.27H1361.16L1361.76 218.62C1361.76 219.747 1361.42 220.639 1360.72 221.298C1360.03 221.939 1359.09 222.26 1357.91 222.26ZM1358.88 219.816C1359.76 219.816 1360.45 219.547 1360.96 219.01C1361.48 218.455 1361.74 217.693 1361.74 216.722V212.978C1361.74 212.007 1361.48 211.253 1360.96 210.716C1360.45 210.161 1359.76 209.884 1358.88 209.884C1357.96 209.884 1357.24 210.153 1356.72 210.69C1356.2 211.21 1355.94 211.973 1355.94 212.978V216.722C1355.94 217.727 1356.2 218.499 1356.72 219.036C1357.24 219.556 1357.96 219.816 1358.88 219.816ZM1367.84 222L1372.67 203.02H1376.36L1381.2 222H1378.37L1377.22 217.19H1371.84L1370.7 222H1367.84ZM1372.36 214.876H1376.68L1375.38 209.39C1375.15 208.419 1374.96 207.579 1374.8 206.868C1374.67 206.14 1374.57 205.646 1374.52 205.386C1374.47 205.646 1374.37 206.14 1374.23 206.868C1374.09 207.579 1373.9 208.411 1373.66 209.364L1372.36 214.876ZM1390.21 222.26C1389.03 222.26 1387.99 222.043 1387.09 221.61C1386.21 221.159 1385.52 220.518 1385.04 219.686C1384.57 218.837 1384.34 217.849 1384.34 216.722V212.978C1384.34 211.834 1384.57 210.846 1385.04 210.014C1385.52 209.182 1386.21 208.549 1387.09 208.116C1387.99 207.665 1389.03 207.44 1390.21 207.44C1391.93 207.44 1393.31 207.891 1394.35 208.792C1395.39 209.693 1395.93 210.924 1395.98 212.484H1393.18C1393.12 211.669 1392.84 211.037 1392.32 210.586C1391.8 210.135 1391.1 209.91 1390.21 209.91C1389.26 209.91 1388.51 210.179 1387.95 210.716C1387.4 211.236 1387.12 211.981 1387.12 212.952V216.722C1387.12 217.693 1387.4 218.447 1387.95 218.984C1388.51 219.521 1389.26 219.79 1390.21 219.79C1391.1 219.79 1391.8 219.565 1392.32 219.114C1392.84 218.663 1393.12 218.031 1393.18 217.216H1395.98C1395.93 218.776 1395.39 220.007 1394.35 220.908C1393.31 221.809 1391.93 222.26 1390.21 222.26ZM1407.26 222C1405.96 222 1404.94 221.645 1404.22 220.934C1403.49 220.223 1403.12 219.235 1403.12 217.97V210.248H1399.17V207.7H1403.12V203.67H1405.93V207.7H1411.52V210.248H1405.93V217.97C1405.93 218.958 1406.41 219.452 1407.36 219.452H1411.26V222H1407.26ZM1415.59 222V219.452H1420.61V210.248H1416.24V207.7H1423.34V219.452H1427.94V222H1415.59ZM1421.7 205.23C1421.1 205.23 1420.61 205.074 1420.25 204.762C1419.88 204.433 1419.7 203.999 1419.7 203.462C1419.7 202.907 1419.88 202.474 1420.25 202.162C1420.61 201.833 1421.1 201.668 1421.7 201.668C1422.31 201.668 1422.8 201.833 1423.16 202.162C1423.52 202.474 1423.71 202.907 1423.71 203.462C1423.71 203.999 1423.52 204.433 1423.16 204.762C1422.8 205.074 1422.31 205.23 1421.7 205.23ZM1435.03 222L1430.3 207.7H1433.16L1436.1 216.852C1436.29 217.389 1436.45 217.935 1436.59 218.49C1436.75 219.027 1436.86 219.452 1436.93 219.764C1437.02 219.452 1437.13 219.027 1437.27 218.49C1437.42 217.935 1437.58 217.389 1437.74 216.852L1440.62 207.7H1443.46L1438.72 222H1435.03ZM1452.47 222.26C1451.31 222.26 1450.28 222.035 1449.4 221.584C1448.53 221.116 1447.87 220.466 1447.4 219.634C1446.93 218.802 1446.7 217.831 1446.7 216.722V212.978C1446.7 211.851 1446.93 210.881 1447.4 210.066C1447.87 209.234 1448.53 208.593 1449.4 208.142C1450.28 207.674 1451.31 207.44 1452.47 207.44C1453.65 207.44 1454.67 207.674 1455.54 208.142C1456.4 208.593 1457.07 209.234 1457.54 210.066C1458.01 210.881 1458.24 211.851 1458.24 212.978V215.526H1449.4V216.722C1449.4 217.779 1449.66 218.585 1450.18 219.14C1450.72 219.695 1451.49 219.972 1452.49 219.972C1453.31 219.972 1453.97 219.833 1454.47 219.556C1454.97 219.261 1455.28 218.837 1455.41 218.282H1458.19C1457.98 219.495 1457.36 220.466 1456.32 221.194C1455.28 221.905 1453.99 222.26 1452.47 222.26ZM1455.54 213.836V212.952C1455.54 211.912 1455.28 211.106 1454.76 210.534C1454.24 209.962 1453.47 209.676 1452.47 209.676C1451.48 209.676 1450.72 209.962 1450.18 210.534C1449.66 211.106 1449.4 211.921 1449.4 212.978V213.628L1455.74 213.602L1455.54 213.836ZM1466.65 222V205.594H1461.58V202.994H1474.53V205.594H1469.46V222H1466.65ZM1478.5 222V207.7H1481.2V210.43H1481.88L1481.02 212.12C1481.02 210.577 1481.36 209.416 1482.04 208.636C1482.71 207.839 1483.72 207.44 1485.05 207.44C1486.58 207.44 1487.78 207.917 1488.67 208.87C1489.57 209.806 1490.02 211.097 1490.02 212.744V213.706H1487.13V212.978C1487.13 211.955 1486.87 211.175 1486.35 210.638C1485.85 210.083 1485.14 209.806 1484.22 209.806C1483.3 209.806 1482.58 210.083 1482.06 210.638C1481.56 211.193 1481.31 211.973 1481.31 212.978V222H1478.5ZM1497.81 222.26C1496.32 222.26 1495.14 221.879 1494.27 221.116C1493.42 220.336 1493 219.279 1493 217.944C1493 216.592 1493.45 215.535 1494.35 214.772C1495.27 213.992 1496.52 213.602 1498.12 213.602H1502.1V212.276C1502.1 211.496 1501.85 210.889 1501.37 210.456C1500.88 210.023 1500.2 209.806 1499.32 209.806C1498.54 209.806 1497.89 209.979 1497.37 210.326C1496.85 210.655 1496.54 211.097 1496.46 211.652H1493.7C1493.86 210.369 1494.44 209.347 1495.47 208.584C1496.51 207.821 1497.82 207.44 1499.39 207.44C1501.09 207.44 1502.44 207.873 1503.42 208.74C1504.41 209.589 1504.91 210.751 1504.91 212.224V222H1502.18V219.374H1501.71L1502.18 218.854C1502.18 219.894 1501.78 220.726 1500.98 221.35C1500.18 221.957 1499.12 222.26 1497.81 222.26ZM1498.64 220.102C1499.64 220.102 1500.47 219.851 1501.11 219.348C1501.77 218.828 1502.1 218.169 1502.1 217.372V215.5H1498.17C1497.44 215.5 1496.86 215.699 1496.43 216.098C1496.01 216.497 1495.81 217.043 1495.81 217.736C1495.81 218.464 1496.06 219.045 1496.56 219.478C1497.06 219.894 1497.76 220.102 1498.64 220.102ZM1514.93 222.26C1513.75 222.26 1512.71 222.043 1511.81 221.61C1510.93 221.159 1510.24 220.518 1509.76 219.686C1509.29 218.837 1509.06 217.849 1509.06 216.722V212.978C1509.06 211.834 1509.29 210.846 1509.76 210.014C1510.24 209.182 1510.93 208.549 1511.81 208.116C1512.71 207.665 1513.75 207.44 1514.93 207.44C1516.65 207.44 1518.03 207.891 1519.07 208.792C1520.11 209.693 1520.65 210.924 1520.7 212.484H1517.9C1517.84 211.669 1517.56 211.037 1517.04 210.586C1516.52 210.135 1515.82 209.91 1514.93 209.91C1513.98 209.91 1513.22 210.179 1512.67 210.716C1512.11 211.236 1511.84 211.981 1511.84 212.952V216.722C1511.84 217.693 1512.11 218.447 1512.67 218.984C1513.22 219.521 1513.98 219.79 1514.93 219.79C1515.82 219.79 1516.52 219.565 1517.04 219.114C1517.56 218.663 1517.84 218.031 1517.9 217.216H1520.7C1520.65 218.776 1520.11 220.007 1519.07 220.908C1518.03 221.809 1516.65 222.26 1514.93 222.26ZM1524.88 222V203.02H1527.69V213.446H1530.21L1534.01 207.7H1537.18L1532.63 214.564L1537.26 222H1534.03L1530.21 215.864H1527.69V222H1524.88ZM1546.11 222.26C1544.93 222.26 1543.9 222.043 1543.02 221.61C1542.15 221.159 1541.47 220.518 1540.99 219.686C1540.52 218.837 1540.29 217.849 1540.29 216.722V208.298C1540.29 207.154 1540.52 206.166 1540.99 205.334C1541.47 204.502 1542.15 203.869 1543.02 203.436C1543.9 202.985 1544.93 202.76 1546.11 202.76C1547.29 202.76 1548.31 202.985 1549.18 203.436C1550.05 203.887 1550.71 204.528 1551.18 205.36C1551.67 206.175 1551.91 207.154 1551.91 208.298H1549.1C1549.1 207.31 1548.84 206.556 1548.32 206.036C1547.8 205.516 1547.06 205.256 1546.11 205.256C1545.16 205.256 1544.41 205.516 1543.88 206.036C1543.36 206.556 1543.1 207.301 1543.1 208.272V216.722C1543.1 217.693 1543.36 218.447 1543.88 218.984C1544.41 219.504 1545.16 219.764 1546.11 219.764C1547.06 219.764 1547.8 219.504 1548.32 218.984C1548.84 218.447 1549.1 217.693 1549.1 216.722H1551.91C1551.91 217.849 1551.67 218.828 1551.18 219.66C1550.71 220.492 1550.05 221.133 1549.18 221.584C1548.31 222.035 1547.29 222.26 1546.11 222.26ZM1561.6 222.234C1560.42 222.234 1559.4 222.009 1558.53 221.558C1557.66 221.107 1556.99 220.466 1556.53 219.634C1556.06 218.802 1555.82 217.823 1555.82 216.696V213.004C1555.82 211.86 1556.06 210.881 1556.53 210.066C1556.99 209.234 1557.66 208.593 1558.53 208.142C1559.4 207.691 1560.42 207.466 1561.6 207.466C1562.78 207.466 1563.8 207.691 1564.66 208.142C1565.53 208.593 1566.2 209.234 1566.67 210.066C1567.13 210.881 1567.37 211.86 1567.37 213.004V216.696C1567.37 217.823 1567.13 218.802 1566.67 219.634C1566.2 220.466 1565.53 221.107 1564.66 221.558C1563.8 222.009 1562.78 222.234 1561.6 222.234ZM1561.6 219.764C1562.55 219.764 1563.29 219.504 1563.81 218.984C1564.33 218.447 1564.59 217.684 1564.59 216.696V213.004C1564.59 211.999 1564.33 211.236 1563.81 210.716C1563.29 210.196 1562.55 209.936 1561.6 209.936C1560.66 209.936 1559.92 210.196 1559.39 210.716C1558.87 211.236 1558.61 211.999 1558.61 213.004V216.696C1558.61 217.684 1558.87 218.447 1559.39 218.984C1559.92 219.504 1560.66 219.764 1561.6 219.764ZM1579.24 222C1578.36 222 1577.59 221.827 1576.93 221.48C1576.27 221.116 1575.75 220.605 1575.37 219.946C1575 219.287 1574.82 218.525 1574.82 217.658V205.568H1570.14V203.02H1577.63V217.658C1577.63 218.213 1577.78 218.655 1578.1 218.984C1578.41 219.296 1578.83 219.452 1579.37 219.452H1583.79V222H1579.24ZM1592.78 222.234C1591.6 222.234 1590.58 222.009 1589.71 221.558C1588.84 221.107 1588.17 220.466 1587.71 219.634C1587.24 218.802 1587 217.823 1587 216.696V213.004C1587 211.86 1587.24 210.881 1587.71 210.066C1588.17 209.234 1588.84 208.593 1589.71 208.142C1590.58 207.691 1591.6 207.466 1592.78 207.466C1593.96 207.466 1594.98 207.691 1595.84 208.142C1596.71 208.593 1597.38 209.234 1597.85 210.066C1598.31 210.881 1598.55 211.86 1598.55 213.004V216.696C1598.55 217.823 1598.31 218.802 1597.85 219.634C1597.38 220.466 1596.71 221.107 1595.84 221.558C1594.98 222.009 1593.96 222.234 1592.78 222.234ZM1592.78 219.764C1593.73 219.764 1594.47 219.504 1594.99 218.984C1595.51 218.447 1595.77 217.684 1595.77 216.696V213.004C1595.77 211.999 1595.51 211.236 1594.99 210.716C1594.47 210.196 1593.73 209.936 1592.78 209.936C1591.84 209.936 1591.1 210.196 1590.57 210.716C1590.05 211.236 1589.79 211.999 1589.79 213.004V216.696C1589.79 217.684 1590.05 218.447 1590.57 218.984C1591.1 219.504 1591.84 219.764 1592.78 219.764ZM1603.22 222V207.7H1605.92V210.43H1606.6L1605.74 212.12C1605.74 210.577 1606.08 209.416 1606.75 208.636C1607.43 207.839 1608.44 207.44 1609.77 207.44C1611.3 207.44 1612.5 207.917 1613.38 208.87C1614.29 209.806 1614.74 211.097 1614.74 212.744V213.706H1611.85V212.978C1611.85 211.955 1611.59 211.175 1611.07 210.638C1610.57 210.083 1609.86 209.806 1608.94 209.806C1608.02 209.806 1607.3 210.083 1606.78 210.638C1606.28 211.193 1606.03 211.973 1606.03 212.978V222H1603.22Z" fill="#001849"/>
<path d="M1430 188.5V139" stroke="black" stroke-width="4" stroke-linecap="round"/>
<path d="M1902.79 223.26C1901.35 223.26 1900.19 222.775 1899.33 221.804C1898.46 220.833 1898.03 219.525 1898.03 217.878V213.848C1898.03 212.184 1898.46 210.867 1899.33 209.896C1900.19 208.925 1901.35 208.44 1902.79 208.44C1903.96 208.44 1904.9 208.769 1905.59 209.428C1906.29 210.069 1906.63 210.953 1906.63 212.08L1906.04 211.43H1906.69L1906.61 208.102V204.02H1909.42V223H1906.63V220.27H1906.04L1906.63 219.62C1906.63 220.747 1906.29 221.639 1905.59 222.298C1904.9 222.939 1903.96 223.26 1902.79 223.26ZM1903.75 220.816C1904.63 220.816 1905.33 220.547 1905.83 220.01C1906.35 219.455 1906.61 218.693 1906.61 217.722V213.978C1906.61 213.007 1906.35 212.253 1905.83 211.716C1905.33 211.161 1904.63 210.884 1903.75 210.884C1902.83 210.884 1902.11 211.153 1901.59 211.69C1901.07 212.21 1900.81 212.973 1900.81 213.978V217.722C1900.81 218.727 1901.07 219.499 1901.59 220.036C1902.11 220.556 1902.83 220.816 1903.75 220.816ZM1913.7 223V220.452H1918.71V211.248H1914.35V208.7H1921.44V220.452H1926.05V223H1913.7ZM1919.81 206.23C1919.2 206.23 1918.71 206.074 1918.35 205.762C1917.99 205.433 1917.8 204.999 1917.8 204.462C1917.8 203.907 1917.99 203.474 1918.35 203.162C1918.71 202.833 1919.2 202.668 1919.81 202.668C1920.41 202.668 1920.9 202.833 1921.26 203.162C1921.63 203.474 1921.81 203.907 1921.81 204.462C1921.81 204.999 1921.63 205.433 1921.26 205.762C1920.9 206.074 1920.41 206.23 1919.81 206.23ZM1934.49 223.234C1933.46 223.234 1932.56 223.069 1931.78 222.74C1931.02 222.411 1930.41 221.96 1929.96 221.388C1929.53 220.799 1929.28 220.105 1929.21 219.308H1932.02C1932.09 219.776 1932.34 220.157 1932.77 220.452C1933.2 220.729 1933.78 220.868 1934.49 220.868H1935.6C1936.45 220.868 1937.09 220.695 1937.53 220.348C1937.96 220.001 1938.18 219.542 1938.18 218.97C1938.18 218.415 1937.98 217.982 1937.58 217.67C1937.2 217.341 1936.63 217.124 1935.86 217.02L1934.02 216.734C1932.49 216.491 1931.37 216.058 1930.64 215.434C1929.93 214.793 1929.57 213.848 1929.57 212.6C1929.57 211.283 1930 210.269 1930.85 209.558C1931.71 208.83 1932.99 208.466 1934.67 208.466H1935.66C1937.15 208.466 1938.33 208.813 1939.22 209.506C1940.12 210.182 1940.63 211.092 1940.75 212.236H1937.94C1937.87 211.82 1937.64 211.482 1937.24 211.222C1936.86 210.962 1936.33 210.832 1935.66 210.832H1934.67C1933.85 210.832 1933.26 210.988 1932.87 211.3C1932.51 211.595 1932.33 212.037 1932.33 212.626C1932.33 213.146 1932.49 213.536 1932.82 213.796C1933.15 214.056 1933.66 214.238 1934.36 214.342L1936.25 214.654C1937.87 214.879 1939.04 215.33 1939.79 216.006C1940.55 216.665 1940.93 217.627 1940.93 218.892C1940.93 220.261 1940.48 221.327 1939.58 222.09C1938.7 222.853 1937.37 223.234 1935.6 223.234H1934.49ZM1949.14 223.26C1947.65 223.26 1946.47 222.879 1945.6 222.116C1944.75 221.336 1944.33 220.279 1944.33 218.944C1944.33 217.592 1944.78 216.535 1945.68 215.772C1946.6 214.992 1947.86 214.602 1949.45 214.602H1953.43V213.276C1953.43 212.496 1953.19 211.889 1952.7 211.456C1952.22 211.023 1951.53 210.806 1950.65 210.806C1949.87 210.806 1949.22 210.979 1948.7 211.326C1948.18 211.655 1947.87 212.097 1947.79 212.652H1945.03C1945.19 211.369 1945.78 210.347 1946.8 209.584C1947.84 208.821 1949.15 208.44 1950.73 208.44C1952.42 208.44 1953.77 208.873 1954.76 209.74C1955.74 210.589 1956.24 211.751 1956.24 213.224V223H1953.51V220.374H1953.04L1953.51 219.854C1953.51 220.894 1953.11 221.726 1952.31 222.35C1951.51 222.957 1950.46 223.26 1949.14 223.26ZM1949.97 221.102C1950.98 221.102 1951.8 220.851 1952.44 220.348C1953.1 219.828 1953.43 219.169 1953.43 218.372V216.5H1949.5C1948.78 216.5 1948.19 216.699 1947.76 217.098C1947.35 217.497 1947.14 218.043 1947.14 218.736C1947.14 219.464 1947.39 220.045 1947.89 220.478C1948.39 220.894 1949.09 221.102 1949.97 221.102ZM1967.17 223.26C1965.99 223.26 1965.06 222.939 1964.37 222.298C1963.67 221.639 1963.33 220.747 1963.33 219.62L1963.92 220.27H1963.33V223H1960.54V204.02H1963.35V208.102L1963.27 211.43H1963.92L1963.33 212.08C1963.33 210.953 1963.67 210.069 1964.37 209.428C1965.08 208.769 1966.01 208.44 1967.17 208.44C1968.61 208.44 1969.76 208.925 1970.63 209.896C1971.5 210.867 1971.93 212.184 1971.93 213.848V217.878C1971.93 219.525 1971.5 220.833 1970.63 221.804C1969.76 222.775 1968.61 223.26 1967.17 223.26ZM1966.21 220.816C1967.13 220.816 1967.85 220.556 1968.37 220.036C1968.89 219.499 1969.15 218.727 1969.15 217.722V213.978C1969.15 212.973 1968.89 212.21 1968.37 211.69C1967.85 211.153 1967.13 210.884 1966.21 210.884C1965.33 210.884 1964.63 211.161 1964.11 211.716C1963.6 212.253 1963.35 213.007 1963.35 213.978V217.722C1963.35 218.693 1963.6 219.455 1964.11 220.01C1964.63 220.547 1965.33 220.816 1966.21 220.816ZM1983.8 223C1982.92 223 1982.15 222.827 1981.49 222.48C1980.83 222.116 1980.31 221.605 1979.93 220.946C1979.57 220.287 1979.38 219.525 1979.38 218.658V206.568H1974.7V204.02H1982.19V218.658C1982.19 219.213 1982.35 219.655 1982.66 219.984C1982.97 220.296 1983.4 220.452 1983.93 220.452H1988.35V223H1983.8ZM1997.34 223.26C1996.18 223.26 1995.16 223.035 1994.27 222.584C1993.4 222.116 1992.74 221.466 1992.27 220.634C1991.8 219.802 1991.57 218.831 1991.57 217.722V213.978C1991.57 212.851 1991.8 211.881 1992.27 211.066C1992.74 210.234 1993.4 209.593 1994.27 209.142C1995.16 208.674 1996.18 208.44 1997.34 208.44C1998.52 208.44 1999.54 208.674 2000.41 209.142C2001.27 209.593 2001.94 210.234 2002.41 211.066C2002.88 211.881 2003.11 212.851 2003.11 213.978V216.526H1994.27V217.722C1994.27 218.779 1994.53 219.585 1995.05 220.14C1995.59 220.695 1996.36 220.972 1997.37 220.972C1998.18 220.972 1998.84 220.833 1999.34 220.556C1999.84 220.261 2000.16 219.837 2000.28 219.282H2003.06C2002.85 220.495 2002.23 221.466 2001.19 222.194C2000.15 222.905 1998.86 223.26 1997.34 223.26ZM2000.41 214.836V213.952C2000.41 212.912 2000.15 212.106 1999.63 211.534C1999.11 210.962 1998.34 210.676 1997.34 210.676C1996.35 210.676 1995.59 210.962 1995.05 211.534C1994.53 212.106 1994.27 212.921 1994.27 213.978V214.628L2000.62 214.602L2000.41 214.836ZM2011.91 223.26C2010.48 223.26 2009.32 222.775 2008.46 221.804C2007.59 220.833 2007.16 219.525 2007.16 217.878V213.848C2007.16 212.184 2007.59 210.867 2008.46 209.896C2009.32 208.925 2010.48 208.44 2011.91 208.44C2013.09 208.44 2014.03 208.769 2014.72 209.428C2015.42 210.069 2015.76 210.953 2015.76 212.08L2015.16 211.43H2015.81L2015.74 208.102V204.02H2018.54V223H2015.76V220.27H2015.16L2015.76 219.62C2015.76 220.747 2015.42 221.639 2014.72 222.298C2014.03 222.939 2013.09 223.26 2011.91 223.26ZM2012.88 220.816C2013.76 220.816 2014.45 220.547 2014.96 220.01C2015.48 219.455 2015.74 218.693 2015.74 217.722V213.978C2015.74 213.007 2015.48 212.253 2014.96 211.716C2014.45 211.161 2013.76 210.884 2012.88 210.884C2011.96 210.884 2011.24 211.153 2010.72 211.69C2010.2 212.21 2009.94 212.973 2009.94 213.978V217.722C2009.94 218.727 2010.2 219.499 2010.72 220.036C2011.24 220.556 2011.96 220.816 2012.88 220.816ZM2023.27 223V220.504H2027.09V206.516H2023.27V204.02H2033.77V206.516H2029.95V220.504H2033.77V223H2023.27ZM2038.49 223V208.7H2041.27V211.43H2041.95L2041.27 212.08C2041.27 210.936 2041.61 210.043 2042.29 209.402C2042.96 208.761 2043.9 208.44 2045.1 208.44C2046.52 208.44 2047.65 208.899 2048.5 209.818C2049.35 210.719 2049.78 211.941 2049.78 213.484V223H2046.97V213.796C2046.97 212.86 2046.72 212.141 2046.21 211.638C2045.71 211.135 2045.03 210.884 2044.16 210.884C2043.28 210.884 2042.57 211.153 2042.05 211.69C2041.55 212.21 2041.3 212.973 2041.3 213.978V223H2038.49ZM2058.27 223.26C2056.78 223.26 2055.6 222.879 2054.73 222.116C2053.88 221.336 2053.46 220.279 2053.46 218.944C2053.46 217.592 2053.91 216.535 2054.81 215.772C2055.73 214.992 2056.99 214.602 2058.58 214.602H2062.56V213.276C2062.56 212.496 2062.32 211.889 2061.83 211.456C2061.35 211.023 2060.66 210.806 2059.78 210.806C2059 210.806 2058.35 210.979 2057.83 211.326C2057.31 211.655 2057 212.097 2056.92 212.652H2054.16C2054.32 211.369 2054.91 210.347 2055.93 209.584C2056.97 208.821 2058.28 208.44 2059.85 208.44C2061.55 208.44 2062.9 208.873 2063.88 209.74C2064.87 210.589 2065.37 211.751 2065.37 213.224V223H2062.64V220.374H2062.17L2062.64 219.854C2062.64 220.894 2062.24 221.726 2061.44 222.35C2060.64 222.957 2059.59 223.26 2058.27 223.26ZM2059.1 221.102C2060.11 221.102 2060.93 220.851 2061.57 220.348C2062.23 219.828 2062.56 219.169 2062.56 218.372V216.5H2058.63C2057.9 216.5 2057.32 216.699 2056.89 217.098C2056.47 217.497 2056.27 218.043 2056.27 218.736C2056.27 219.464 2056.52 220.045 2057.02 220.478C2057.52 220.894 2058.22 221.102 2059.1 221.102ZM2075.39 223.26C2074.21 223.26 2073.17 223.043 2072.27 222.61C2071.39 222.159 2070.7 221.518 2070.22 220.686C2069.75 219.837 2069.52 218.849 2069.52 217.722V213.978C2069.52 212.834 2069.75 211.846 2070.22 211.014C2070.7 210.182 2071.39 209.549 2072.27 209.116C2073.17 208.665 2074.21 208.44 2075.39 208.44C2077.11 208.44 2078.49 208.891 2079.53 209.792C2080.57 210.693 2081.11 211.924 2081.16 213.484H2078.36C2078.3 212.669 2078.02 212.037 2077.5 211.586C2076.98 211.135 2076.28 210.91 2075.39 210.91C2074.44 210.91 2073.68 211.179 2073.13 211.716C2072.58 212.236 2072.3 212.981 2072.3 213.952V217.722C2072.3 218.693 2072.58 219.447 2073.13 219.984C2073.68 220.521 2074.44 220.79 2075.39 220.79C2076.28 220.79 2076.98 220.565 2077.5 220.114C2078.02 219.663 2078.3 219.031 2078.36 218.216H2081.16C2081.11 219.776 2080.57 221.007 2079.53 221.908C2078.49 222.809 2077.11 223.26 2075.39 223.26ZM2092.44 223C2091.14 223 2090.12 222.645 2089.4 221.934C2088.67 221.223 2088.3 220.235 2088.3 218.97V211.248H2084.35V208.7H2088.3V204.67H2091.11V208.7H2096.7V211.248H2091.11V218.97C2091.11 219.958 2091.59 220.452 2092.54 220.452H2096.44V223H2092.44ZM2100.77 223V220.452H2105.79V211.248H2101.42V208.7H2108.52V220.452H2113.12V223H2100.77ZM2106.88 206.23C2106.28 206.23 2105.79 206.074 2105.43 205.762C2105.06 205.433 2104.88 204.999 2104.88 204.462C2104.88 203.907 2105.06 203.474 2105.43 203.162C2105.79 202.833 2106.28 202.668 2106.88 202.668C2107.49 202.668 2107.98 202.833 2108.34 203.162C2108.7 203.474 2108.89 203.907 2108.89 204.462C2108.89 204.999 2108.7 205.433 2108.34 205.762C2107.98 206.074 2107.49 206.23 2106.88 206.23ZM2120.21 223L2115.48 208.7H2118.34L2121.28 217.852C2121.47 218.389 2121.63 218.935 2121.77 219.49C2121.93 220.027 2122.04 220.452 2122.11 220.764C2122.2 220.452 2122.31 220.027 2122.45 219.49C2122.6 218.935 2122.76 218.389 2122.92 217.852L2125.8 208.7H2128.64L2123.9 223H2120.21ZM2137.65 223.26C2136.49 223.26 2135.46 223.035 2134.58 222.584C2133.71 222.116 2133.05 221.466 2132.58 220.634C2132.11 219.802 2131.88 218.831 2131.88 217.722V213.978C2131.88 212.851 2132.11 211.881 2132.58 211.066C2133.05 210.234 2133.71 209.593 2134.58 209.142C2135.46 208.674 2136.49 208.44 2137.65 208.44C2138.83 208.44 2139.85 208.674 2140.72 209.142C2141.58 209.593 2142.25 210.234 2142.72 211.066C2143.19 211.881 2143.42 212.851 2143.42 213.978V216.526H2134.58V217.722C2134.58 218.779 2134.84 219.585 2135.36 220.14C2135.9 220.695 2136.67 220.972 2137.67 220.972C2138.49 220.972 2139.15 220.833 2139.65 220.556C2140.15 220.261 2140.46 219.837 2140.59 219.282H2143.37C2143.16 220.495 2142.54 221.466 2141.5 222.194C2140.46 222.905 2139.17 223.26 2137.65 223.26ZM2140.72 214.836V213.952C2140.72 212.912 2140.46 212.106 2139.94 211.534C2139.42 210.962 2138.65 210.676 2137.65 210.676C2136.66 210.676 2135.9 210.962 2135.36 211.534C2134.84 212.106 2134.58 212.921 2134.58 213.978V214.628L2140.92 214.602L2140.72 214.836ZM2151.83 223V206.594H2146.76V203.994H2159.71V206.594H2154.64V223H2151.83ZM2163.68 223V208.7H2166.38V211.43H2167.06L2166.2 213.12C2166.2 211.577 2166.54 210.416 2167.22 209.636C2167.89 208.839 2168.9 208.44 2170.23 208.44C2171.76 208.44 2172.96 208.917 2173.85 209.87C2174.75 210.806 2175.2 212.097 2175.2 213.744V214.706H2172.31V213.978C2172.31 212.955 2172.05 212.175 2171.53 211.638C2171.03 211.083 2170.32 210.806 2169.4 210.806C2168.48 210.806 2167.76 211.083 2167.24 211.638C2166.74 212.193 2166.49 212.973 2166.49 213.978V223H2163.68ZM2182.99 223.26C2181.5 223.26 2180.32 222.879 2179.45 222.116C2178.6 221.336 2178.18 220.279 2178.18 218.944C2178.18 217.592 2178.63 216.535 2179.53 215.772C2180.45 214.992 2181.7 214.602 2183.3 214.602H2187.28V213.276C2187.28 212.496 2187.03 211.889 2186.55 211.456C2186.06 211.023 2185.38 210.806 2184.5 210.806C2183.72 210.806 2183.07 210.979 2182.55 211.326C2182.03 211.655 2181.72 212.097 2181.64 212.652H2178.88C2179.04 211.369 2179.62 210.347 2180.65 209.584C2181.69 208.821 2183 208.44 2184.57 208.44C2186.27 208.44 2187.62 208.873 2188.6 209.74C2189.59 210.589 2190.09 211.751 2190.09 213.224V223H2187.36V220.374H2186.89L2187.36 219.854C2187.36 220.894 2186.96 221.726 2186.16 222.35C2185.36 222.957 2184.3 223.26 2182.99 223.26ZM2183.82 221.102C2184.82 221.102 2185.65 220.851 2186.29 220.348C2186.95 219.828 2187.28 219.169 2187.28 218.372V216.5H2183.35C2182.62 216.5 2182.04 216.699 2181.61 217.098C2181.19 217.497 2180.99 218.043 2180.99 218.736C2180.99 219.464 2181.24 220.045 2181.74 220.478C2182.24 220.894 2182.94 221.102 2183.82 221.102ZM2200.11 223.26C2198.93 223.26 2197.89 223.043 2196.99 222.61C2196.11 222.159 2195.42 221.518 2194.94 220.686C2194.47 219.837 2194.24 218.849 2194.24 217.722V213.978C2194.24 212.834 2194.47 211.846 2194.94 211.014C2195.42 210.182 2196.11 209.549 2196.99 209.116C2197.89 208.665 2198.93 208.44 2200.11 208.44C2201.83 208.44 2203.21 208.891 2204.25 209.792C2205.29 210.693 2205.83 211.924 2205.88 213.484H2203.08C2203.02 212.669 2202.74 212.037 2202.22 211.586C2201.7 211.135 2201 210.91 2200.11 210.91C2199.16 210.91 2198.4 211.179 2197.85 211.716C2197.29 212.236 2197.02 212.981 2197.02 213.952V217.722C2197.02 218.693 2197.29 219.447 2197.85 219.984C2198.4 220.521 2199.16 220.79 2200.11 220.79C2201 220.79 2201.7 220.565 2202.22 220.114C2202.74 219.663 2203.02 219.031 2203.08 218.216H2205.88C2205.83 219.776 2205.29 221.007 2204.25 221.908C2203.21 222.809 2201.83 223.26 2200.11 223.26ZM2210.06 223V204.02H2212.87V214.446H2215.39L2219.18 208.7H2222.36L2217.81 215.564L2222.43 223H2219.21L2215.39 216.864H2212.87V223H2210.06ZM2231.29 223.26C2230.11 223.26 2229.08 223.043 2228.2 222.61C2227.33 222.159 2226.65 221.518 2226.17 220.686C2225.7 219.837 2225.47 218.849 2225.47 217.722V209.298C2225.47 208.154 2225.7 207.166 2226.17 206.334C2226.65 205.502 2227.33 204.869 2228.2 204.436C2229.08 203.985 2230.11 203.76 2231.29 203.76C2232.47 203.76 2233.49 203.985 2234.36 204.436C2235.23 204.887 2235.89 205.528 2236.36 206.36C2236.85 207.175 2237.09 208.154 2237.09 209.298H2234.28C2234.28 208.31 2234.02 207.556 2233.5 207.036C2232.98 206.516 2232.24 206.256 2231.29 206.256C2230.34 206.256 2229.59 206.516 2229.05 207.036C2228.53 207.556 2228.27 208.301 2228.27 209.272V217.722C2228.27 218.693 2228.53 219.447 2229.05 219.984C2229.59 220.504 2230.34 220.764 2231.29 220.764C2232.24 220.764 2232.98 220.504 2233.5 219.984C2234.02 219.447 2234.28 218.693 2234.28 217.722H2237.09C2237.09 218.849 2236.85 219.828 2236.36 220.66C2235.89 221.492 2235.23 222.133 2234.36 222.584C2233.49 223.035 2232.47 223.26 2231.29 223.26ZM2246.78 223.234C2245.6 223.234 2244.58 223.009 2243.71 222.558C2242.84 222.107 2242.17 221.466 2241.71 220.634C2241.24 219.802 2241 218.823 2241 217.696V214.004C2241 212.86 2241.24 211.881 2241.71 211.066C2242.17 210.234 2242.84 209.593 2243.71 209.142C2244.58 208.691 2245.6 208.466 2246.78 208.466C2247.96 208.466 2248.98 208.691 2249.84 209.142C2250.71 209.593 2251.38 210.234 2251.85 211.066C2252.31 211.881 2252.55 212.86 2252.55 214.004V217.696C2252.55 218.823 2252.31 219.802 2251.85 220.634C2251.38 221.466 2250.71 222.107 2249.84 222.558C2248.98 223.009 2247.96 223.234 2246.78 223.234ZM2246.78 220.764C2247.73 220.764 2248.47 220.504 2248.99 219.984C2249.51 219.447 2249.77 218.684 2249.77 217.696V214.004C2249.77 212.999 2249.51 212.236 2248.99 211.716C2248.47 211.196 2247.73 210.936 2246.78 210.936C2245.84 210.936 2245.1 211.196 2244.57 211.716C2244.05 212.236 2243.79 212.999 2243.79 214.004V217.696C2243.79 218.684 2244.05 219.447 2244.57 219.984C2245.1 220.504 2245.84 220.764 2246.78 220.764ZM2264.42 223C2263.54 223 2262.77 222.827 2262.11 222.48C2261.45 222.116 2260.93 221.605 2260.55 220.946C2260.18 220.287 2260 219.525 2260 218.658V206.568H2255.32V204.02H2262.81V218.658C2262.81 219.213 2262.96 219.655 2263.28 219.984C2263.59 220.296 2264.01 220.452 2264.55 220.452H2268.97V223H2264.42ZM2277.96 223.234C2276.78 223.234 2275.75 223.009 2274.89 222.558C2274.02 222.107 2273.35 221.466 2272.89 220.634C2272.42 219.802 2272.18 218.823 2272.18 217.696V214.004C2272.18 212.86 2272.42 211.881 2272.89 211.066C2273.35 210.234 2274.02 209.593 2274.89 209.142C2275.75 208.691 2276.78 208.466 2277.96 208.466C2279.13 208.466 2280.16 208.691 2281.02 209.142C2281.89 209.593 2282.56 210.234 2283.03 211.066C2283.49 211.881 2283.73 212.86 2283.73 214.004V217.696C2283.73 218.823 2283.49 219.802 2283.03 220.634C2282.56 221.466 2281.89 222.107 2281.02 222.558C2280.16 223.009 2279.13 223.234 2277.96 223.234ZM2277.96 220.764C2278.91 220.764 2279.65 220.504 2280.17 219.984C2280.69 219.447 2280.95 218.684 2280.95 217.696V214.004C2280.95 212.999 2280.69 212.236 2280.17 211.716C2279.65 211.196 2278.91 210.936 2277.96 210.936C2277.02 210.936 2276.28 211.196 2275.75 211.716C2275.23 212.236 2274.97 212.999 2274.97 214.004V217.696C2274.97 218.684 2275.23 219.447 2275.75 219.984C2276.28 220.504 2277.02 220.764 2277.96 220.764ZM2288.4 223V208.7H2291.1V211.43H2291.78L2290.92 213.12C2290.92 211.577 2291.26 210.416 2291.93 209.636C2292.61 208.839 2293.62 208.44 2294.95 208.44C2296.48 208.44 2297.68 208.917 2298.56 209.87C2299.47 210.806 2299.92 212.097 2299.92 213.744V214.706H2297.03V213.978C2297.03 212.955 2296.77 212.175 2296.25 211.638C2295.75 211.083 2295.04 210.806 2294.12 210.806C2293.2 210.806 2292.48 211.083 2291.96 211.638C2291.46 212.193 2291.21 212.973 2291.21 213.978V223H2288.4Z" fill="#001849"/>
<path d="M2099 192.5V112" stroke="black" stroke-width="4" stroke-linecap="round"/>
<path d="M1691.79 300.26C1690.35 300.26 1689.19 299.775 1688.33 298.804C1687.46 297.833 1687.03 296.525 1687.03 294.878V290.848C1687.03 289.184 1687.46 287.867 1688.33 286.896C1689.19 285.925 1690.35 285.44 1691.79 285.44C1692.96 285.44 1693.9 285.769 1694.59 286.428C1695.29 287.069 1695.63 287.953 1695.63 289.08L1695.04 288.43H1695.69L1695.61 285.102V281.02H1698.42V300H1695.63V297.27H1695.04L1695.63 296.62C1695.63 297.747 1695.29 298.639 1694.59 299.298C1693.9 299.939 1692.96 300.26 1691.79 300.26ZM1692.75 297.816C1693.63 297.816 1694.33 297.547 1694.83 297.01C1695.35 296.455 1695.61 295.693 1695.61 294.722V290.978C1695.61 290.007 1695.35 289.253 1694.83 288.716C1694.33 288.161 1693.63 287.884 1692.75 287.884C1691.83 287.884 1691.11 288.153 1690.59 288.69C1690.07 289.21 1689.81 289.973 1689.81 290.978V294.722C1689.81 295.727 1690.07 296.499 1690.59 297.036C1691.11 297.556 1691.83 297.816 1692.75 297.816ZM1702.7 300V297.452H1707.71V288.248H1703.35V285.7H1710.44V297.452H1715.05V300H1702.7ZM1708.81 283.23C1708.2 283.23 1707.71 283.074 1707.35 282.762C1706.99 282.433 1706.8 281.999 1706.8 281.462C1706.8 280.907 1706.99 280.474 1707.35 280.162C1707.71 279.833 1708.2 279.668 1708.81 279.668C1709.41 279.668 1709.9 279.833 1710.26 280.162C1710.63 280.474 1710.81 280.907 1710.81 281.462C1710.81 281.999 1710.63 282.433 1710.26 282.762C1709.9 283.074 1709.41 283.23 1708.81 283.23ZM1723.49 300.234C1722.46 300.234 1721.56 300.069 1720.78 299.74C1720.02 299.411 1719.41 298.96 1718.96 298.388C1718.53 297.799 1718.28 297.105 1718.21 296.308H1721.02C1721.09 296.776 1721.34 297.157 1721.77 297.452C1722.2 297.729 1722.78 297.868 1723.49 297.868H1724.6C1725.45 297.868 1726.09 297.695 1726.53 297.348C1726.96 297.001 1727.18 296.542 1727.18 295.97C1727.18 295.415 1726.98 294.982 1726.58 294.67C1726.2 294.341 1725.63 294.124 1724.86 294.02L1723.02 293.734C1721.49 293.491 1720.37 293.058 1719.64 292.434C1718.93 291.793 1718.57 290.848 1718.57 289.6C1718.57 288.283 1719 287.269 1719.85 286.558C1720.71 285.83 1721.99 285.466 1723.67 285.466H1724.66C1726.15 285.466 1727.33 285.813 1728.22 286.506C1729.12 287.182 1729.63 288.092 1729.75 289.236H1726.94C1726.87 288.82 1726.64 288.482 1726.24 288.222C1725.86 287.962 1725.33 287.832 1724.66 287.832H1723.67C1722.85 287.832 1722.26 287.988 1721.87 288.3C1721.51 288.595 1721.33 289.037 1721.33 289.626C1721.33 290.146 1721.49 290.536 1721.82 290.796C1722.15 291.056 1722.66 291.238 1723.36 291.342L1725.25 291.654C1726.87 291.879 1728.04 292.33 1728.79 293.006C1729.55 293.665 1729.93 294.627 1729.93 295.892C1729.93 297.261 1729.48 298.327 1728.58 299.09C1727.7 299.853 1726.37 300.234 1724.6 300.234H1723.49ZM1738.14 300.26C1736.65 300.26 1735.47 299.879 1734.6 299.116C1733.75 298.336 1733.33 297.279 1733.33 295.944C1733.33 294.592 1733.78 293.535 1734.68 292.772C1735.6 291.992 1736.86 291.602 1738.45 291.602H1742.43V290.276C1742.43 289.496 1742.19 288.889 1741.7 288.456C1741.22 288.023 1740.53 287.806 1739.65 287.806C1738.87 287.806 1738.22 287.979 1737.7 288.326C1737.18 288.655 1736.87 289.097 1736.79 289.652H1734.03C1734.19 288.369 1734.78 287.347 1735.8 286.584C1736.84 285.821 1738.15 285.44 1739.73 285.44C1741.42 285.44 1742.77 285.873 1743.76 286.74C1744.74 287.589 1745.24 288.751 1745.24 290.224V300H1742.51V297.374H1742.04L1742.51 296.854C1742.51 297.894 1742.11 298.726 1741.31 299.35C1740.51 299.957 1739.46 300.26 1738.14 300.26ZM1738.97 298.102C1739.98 298.102 1740.8 297.851 1741.44 297.348C1742.1 296.828 1742.43 296.169 1742.43 295.372V293.5H1738.5C1737.78 293.5 1737.19 293.699 1736.76 294.098C1736.35 294.497 1736.14 295.043 1736.14 295.736C1736.14 296.464 1736.39 297.045 1736.89 297.478C1737.39 297.894 1738.09 298.102 1738.97 298.102ZM1756.17 300.26C1754.99 300.26 1754.06 299.939 1753.37 299.298C1752.67 298.639 1752.33 297.747 1752.33 296.62L1752.92 297.27H1752.33V300H1749.54V281.02H1752.35V285.102L1752.27 288.43H1752.92L1752.33 289.08C1752.33 287.953 1752.67 287.069 1753.37 286.428C1754.08 285.769 1755.01 285.44 1756.17 285.44C1757.61 285.44 1758.76 285.925 1759.63 286.896C1760.5 287.867 1760.93 289.184 1760.93 290.848V294.878C1760.93 296.525 1760.5 297.833 1759.63 298.804C1758.76 299.775 1757.61 300.26 1756.17 300.26ZM1755.21 297.816C1756.13 297.816 1756.85 297.556 1757.37 297.036C1757.89 296.499 1758.15 295.727 1758.15 294.722V290.978C1758.15 289.973 1757.89 289.21 1757.37 288.69C1756.85 288.153 1756.13 287.884 1755.21 287.884C1754.33 287.884 1753.63 288.161 1753.11 288.716C1752.6 289.253 1752.35 290.007 1752.35 290.978V294.722C1752.35 295.693 1752.6 296.455 1753.11 297.01C1753.63 297.547 1754.33 297.816 1755.21 297.816ZM1772.8 300C1771.92 300 1771.15 299.827 1770.49 299.48C1769.83 299.116 1769.31 298.605 1768.93 297.946C1768.57 297.287 1768.38 296.525 1768.38 295.658V283.568H1763.7V281.02H1771.19V295.658C1771.19 296.213 1771.35 296.655 1771.66 296.984C1771.97 297.296 1772.4 297.452 1772.93 297.452H1777.35V300H1772.8ZM1786.34 300.26C1785.18 300.26 1784.16 300.035 1783.27 299.584C1782.4 299.116 1781.74 298.466 1781.27 297.634C1780.8 296.802 1780.57 295.831 1780.57 294.722V290.978C1780.57 289.851 1780.8 288.881 1781.27 288.066C1781.74 287.234 1782.4 286.593 1783.27 286.142C1784.16 285.674 1785.18 285.44 1786.34 285.44C1787.52 285.44 1788.54 285.674 1789.41 286.142C1790.27 286.593 1790.94 287.234 1791.41 288.066C1791.88 288.881 1792.11 289.851 1792.11 290.978V293.526H1783.27V294.722C1783.27 295.779 1783.53 296.585 1784.05 297.14C1784.59 297.695 1785.36 297.972 1786.37 297.972C1787.18 297.972 1787.84 297.833 1788.34 297.556C1788.84 297.261 1789.16 296.837 1789.28 296.282H1792.06C1791.85 297.495 1791.23 298.466 1790.19 299.194C1789.15 299.905 1787.86 300.26 1786.34 300.26ZM1789.41 291.836V290.952C1789.41 289.912 1789.15 289.106 1788.63 288.534C1788.11 287.962 1787.34 287.676 1786.34 287.676C1785.35 287.676 1784.59 287.962 1784.05 288.534C1783.53 289.106 1783.27 289.921 1783.27 290.978V291.628L1789.62 291.602L1789.41 291.836ZM1800.91 300.26C1799.48 300.26 1798.32 299.775 1797.46 298.804C1796.59 297.833 1796.16 296.525 1796.16 294.878V290.848C1796.16 289.184 1796.59 287.867 1797.46 286.896C1798.32 285.925 1799.48 285.44 1800.91 285.44C1802.09 285.44 1803.03 285.769 1803.72 286.428C1804.42 287.069 1804.76 287.953 1804.76 289.08L1804.16 288.43H1804.81L1804.74 285.102V281.02H1807.54V300H1804.76V297.27H1804.16L1804.76 296.62C1804.76 297.747 1804.42 298.639 1803.72 299.298C1803.03 299.939 1802.09 300.26 1800.91 300.26ZM1801.88 297.816C1802.76 297.816 1803.45 297.547 1803.96 297.01C1804.48 296.455 1804.74 295.693 1804.74 294.722V290.978C1804.74 290.007 1804.48 289.253 1803.96 288.716C1803.45 288.161 1802.76 287.884 1801.88 287.884C1800.96 287.884 1800.24 288.153 1799.72 288.69C1799.2 289.21 1798.94 289.973 1798.94 290.978V294.722C1798.94 295.727 1799.2 296.499 1799.72 297.036C1800.24 297.556 1800.96 297.816 1801.88 297.816ZM1816.11 300V283.594H1811.04V280.994H1823.99V283.594H1818.92V300H1816.11ZM1827.49 300V281.02H1830.3V285.7L1830.27 288.43H1830.95L1830.27 289.08C1830.27 287.936 1830.61 287.043 1831.29 286.402C1831.96 285.761 1832.9 285.44 1834.1 285.44C1835.52 285.44 1836.65 285.899 1837.5 286.818C1838.35 287.719 1838.78 288.941 1838.78 290.484V300H1835.97V290.796C1835.97 289.86 1835.72 289.132 1835.21 288.612C1834.71 288.092 1834.03 287.832 1833.16 287.832C1832.28 287.832 1831.57 288.109 1831.05 288.664C1830.55 289.201 1830.3 289.973 1830.3 290.978V300H1827.49ZM1848.67 300.26C1846.96 300.26 1845.59 299.766 1844.56 298.778C1843.54 297.773 1843.03 296.412 1843.03 294.696V285.7H1845.84V294.696C1845.84 295.684 1846.09 296.455 1846.59 297.01C1847.1 297.547 1847.79 297.816 1848.67 297.816C1849.57 297.816 1850.28 297.547 1850.78 297.01C1851.3 296.455 1851.56 295.684 1851.56 294.696V285.7H1854.37V294.696C1854.37 296.412 1853.85 297.773 1852.81 298.778C1851.78 299.766 1850.41 300.26 1848.67 300.26ZM1858.02 300V285.7H1860.36V287.52H1860.88L1860.49 288.066C1860.49 287.269 1860.71 286.636 1861.14 286.168C1861.58 285.683 1862.16 285.44 1862.88 285.44C1863.66 285.44 1864.26 285.743 1864.68 286.35C1865.11 286.957 1865.33 287.789 1865.33 288.846L1864.7 287.52H1865.69L1865.28 288.066C1865.28 287.269 1865.49 286.636 1865.93 286.168C1866.38 285.683 1866.97 285.44 1867.72 285.44C1868.6 285.44 1869.3 285.778 1869.8 286.454C1870.3 287.113 1870.55 287.997 1870.55 289.106V300H1868.06V289.184C1868.06 288.647 1867.94 288.231 1867.69 287.936C1867.47 287.641 1867.14 287.494 1866.71 287.494C1866.27 287.494 1865.93 287.641 1865.69 287.936C1865.47 288.213 1865.35 288.621 1865.35 289.158V300H1863.25V289.184C1863.25 288.629 1863.13 288.213 1862.88 287.936C1862.64 287.641 1862.29 287.494 1861.84 287.494C1861.41 287.494 1861.08 287.641 1860.86 287.936C1860.65 288.213 1860.54 288.621 1860.54 289.158V300H1858.02ZM1880.89 300.26C1879.71 300.26 1878.78 299.939 1878.08 299.298C1877.39 298.639 1877.04 297.747 1877.04 296.62L1877.64 297.27H1877.04V300H1874.26V281.02H1877.07V285.102L1876.99 288.43H1877.64L1877.04 289.08C1877.04 287.953 1877.39 287.069 1878.08 286.428C1878.79 285.769 1879.73 285.44 1880.89 285.44C1882.33 285.44 1883.48 285.925 1884.35 286.896C1885.22 287.867 1885.65 289.184 1885.65 290.848V294.878C1885.65 296.525 1885.22 297.833 1884.35 298.804C1883.48 299.775 1882.33 300.26 1880.89 300.26ZM1879.93 297.816C1880.85 297.816 1881.57 297.556 1882.09 297.036C1882.61 296.499 1882.87 295.727 1882.87 294.722V290.978C1882.87 289.973 1882.61 289.21 1882.09 288.69C1881.57 288.153 1880.85 287.884 1879.93 287.884C1879.05 287.884 1878.34 288.161 1877.82 288.716C1877.32 289.253 1877.07 290.007 1877.07 290.978V294.722C1877.07 295.693 1877.32 296.455 1877.82 297.01C1878.34 297.547 1879.05 297.816 1879.93 297.816ZM1895.57 300.26C1894.39 300.26 1893.36 300.043 1892.48 299.61C1891.61 299.159 1890.94 298.518 1890.45 297.686C1889.98 296.837 1889.75 295.849 1889.75 294.722V286.298C1889.75 285.154 1889.98 284.166 1890.45 283.334C1890.94 282.502 1891.61 281.869 1892.48 281.436C1893.36 280.985 1894.39 280.76 1895.57 280.76C1896.75 280.76 1897.77 280.985 1898.64 281.436C1899.51 281.887 1900.17 282.528 1900.64 283.36C1901.13 284.175 1901.37 285.154 1901.37 286.298H1898.56C1898.56 285.31 1898.3 284.556 1897.78 284.036C1897.26 283.516 1896.53 283.256 1895.57 283.256C1894.62 283.256 1893.87 283.516 1893.34 284.036C1892.82 284.556 1892.56 285.301 1892.56 286.272V294.722C1892.56 295.693 1892.82 296.447 1893.34 296.984C1893.87 297.504 1894.62 297.764 1895.57 297.764C1896.53 297.764 1897.26 297.504 1897.78 296.984C1898.3 296.447 1898.56 295.693 1898.56 294.722H1901.37C1901.37 295.849 1901.13 296.828 1900.64 297.66C1900.17 298.492 1899.51 299.133 1898.64 299.584C1897.77 300.035 1896.75 300.26 1895.57 300.26ZM1911.06 300.234C1909.88 300.234 1908.86 300.009 1907.99 299.558C1907.12 299.107 1906.46 298.466 1905.99 297.634C1905.52 296.802 1905.29 295.823 1905.29 294.696V291.004C1905.29 289.86 1905.52 288.881 1905.99 288.066C1906.46 287.234 1907.12 286.593 1907.99 286.142C1908.86 285.691 1909.88 285.466 1911.06 285.466C1912.24 285.466 1913.26 285.691 1914.13 286.142C1914.99 286.593 1915.66 287.234 1916.13 288.066C1916.6 288.881 1916.83 289.86 1916.83 291.004V294.696C1916.83 295.823 1916.6 296.802 1916.13 297.634C1915.66 298.466 1914.99 299.107 1914.13 299.558C1913.26 300.009 1912.24 300.234 1911.06 300.234ZM1911.06 297.764C1912.01 297.764 1912.75 297.504 1913.27 296.984C1913.79 296.447 1914.05 295.684 1914.05 294.696V291.004C1914.05 289.999 1913.79 289.236 1913.27 288.716C1912.75 288.196 1912.01 287.936 1911.06 287.936C1910.12 287.936 1909.39 288.196 1908.85 288.716C1908.33 289.236 1908.07 289.999 1908.07 291.004V294.696C1908.07 295.684 1908.33 296.447 1908.85 296.984C1909.39 297.504 1910.12 297.764 1911.06 297.764ZM1928.7 300C1927.82 300 1927.05 299.827 1926.39 299.48C1925.73 299.116 1925.21 298.605 1924.83 297.946C1924.46 297.287 1924.28 296.525 1924.28 295.658V283.568H1919.6V281.02H1927.09V295.658C1927.09 296.213 1927.25 296.655 1927.56 296.984C1927.87 297.296 1928.29 297.452 1928.83 297.452H1933.25V300H1928.7ZM1942.24 300.234C1941.06 300.234 1940.04 300.009 1939.17 299.558C1938.3 299.107 1937.64 298.466 1937.17 297.634C1936.7 296.802 1936.47 295.823 1936.47 294.696V291.004C1936.47 289.86 1936.7 288.881 1937.17 288.066C1937.64 287.234 1938.3 286.593 1939.17 286.142C1940.04 285.691 1941.06 285.466 1942.24 285.466C1943.42 285.466 1944.44 285.691 1945.31 286.142C1946.17 286.593 1946.84 287.234 1947.31 288.066C1947.78 288.881 1948.01 289.86 1948.01 291.004V294.696C1948.01 295.823 1947.78 296.802 1947.31 297.634C1946.84 298.466 1946.17 299.107 1945.31 299.558C1944.44 300.009 1943.42 300.234 1942.24 300.234ZM1942.24 297.764C1943.19 297.764 1943.93 297.504 1944.45 296.984C1944.97 296.447 1945.23 295.684 1945.23 294.696V291.004C1945.23 289.999 1944.97 289.236 1944.45 288.716C1943.93 288.196 1943.19 287.936 1942.24 287.936C1941.3 287.936 1940.56 288.196 1940.03 288.716C1939.51 289.236 1939.25 289.999 1939.25 291.004V294.696C1939.25 295.684 1939.51 296.447 1940.03 296.984C1940.56 297.504 1941.3 297.764 1942.24 297.764ZM1952.68 300V285.7H1955.38V288.43H1956.06L1955.2 290.12C1955.2 288.577 1955.54 287.416 1956.22 286.636C1956.89 285.839 1957.9 285.44 1959.23 285.44C1960.76 285.44 1961.96 285.917 1962.85 286.87C1963.75 287.806 1964.2 289.097 1964.2 290.744V291.706H1961.31V290.978C1961.31 289.955 1961.05 289.175 1960.53 288.638C1960.03 288.083 1959.32 287.806 1958.4 287.806C1957.48 287.806 1956.76 288.083 1956.24 288.638C1955.74 289.193 1955.49 289.973 1955.49 290.978V300H1952.68Z" fill="#001849"/>
<path d="M1826 262.5V169.5H1910V156.5" stroke="black" stroke-width="4" stroke-linecap="round"/>
</svg>
