<svg width="52" height="52" viewBox="0 0 52 52" fill="none" xmlns="http://www.w3.org/2000/svg">
<path d="M26 0C11.6628 0 0 11.6628 0 26C0 40.3372 11.6628 52 26 52C40.3372 52 52 40.3372 52 26C52 11.6628 40.3372 0 26 0ZM26 4.33333C31.4928 4.33333 36.4694 6.39844 40.2865 9.75C39.8802 10.3171 39.3301 11.0026 38.4583 11.849C36.6048 13.6432 33.6426 15.8014 29.1146 17.4688C26.0508 11.8066 23.0462 7.54948 21.0573 4.875C22.64 4.51107 24.2988 4.33333 26 4.33333ZM16.7917 6.36458C18.569 8.69206 21.7344 13.0085 24.9167 18.7552C16.1061 21.0911 8.02344 21.3874 4.80729 21.3958C6.2461 14.7012 10.7487 9.19141 16.7917 6.36458ZM43.2656 12.9323C45.9063 16.4277 47.5482 20.7526 47.6667 25.4583C45.737 25.0267 42.8932 24.6035 39.2031 24.5781C37.2819 24.5697 35.1068 24.7051 32.7708 24.9844C32.2292 23.7487 31.6452 22.5553 31.0781 21.3958C35.9362 19.5339 39.2454 17.0794 41.4375 14.9635C42.1823 14.2357 42.7663 13.5671 43.2656 12.9323ZM26.8802 22.6823C27.3796 23.6895 27.8874 24.722 28.3698 25.7969C19.1107 28.3613 12.4583 36.2155 9.61458 40.151C6.33919 36.3594 4.33333 31.4167 4.33333 26C4.33333 25.9069 4.33333 25.8223 4.33333 25.7292C7.26172 25.763 16.5716 25.5599 26.8802 22.6823ZM39.2031 28.8438C43.071 28.8438 45.7454 29.3854 47.3281 29.7917C46.321 35.5638 43.0625 40.515 38.4583 43.7396C37.5951 38.5599 36.1732 33.6341 34.4635 29.1146C36.1732 28.9453 37.7897 28.8438 39.2031 28.8438ZM30.0625 29.8594C32.0091 34.8021 33.6426 40.2272 34.4635 45.974C31.8737 47.0658 28.9961 47.6667 26 47.6667C21.0319 47.6667 16.4447 45.9994 12.7969 43.1979C15.0228 40.151 21.5651 32.043 30.0625 29.8594Z" fill="black"/>
</svg>
