<svg width="27" height="27" viewBox="0 0 27 27" fill="none" xmlns="http://www.w3.org/2000/svg">
<path d="M9.83707 3.88756C9.76903 3.84546 9.71435 3.78489 9.67943 3.7129C9.64451 3.64091 9.63078 3.56047 9.63985 3.48097C9.64892 3.40147 9.6804 3.32619 9.73064 3.26391C9.78087 3.20163 9.84778 3.15493 9.92356 3.12924C11.4623 2.59903 13.0999 2.41812 14.7173 2.59964C16.3347 2.78116 17.8914 3.32055 19.2744 4.17865C19.3245 4.21025 19.3674 4.25205 19.4003 4.30133C19.4332 4.35061 19.4553 4.40626 19.4653 4.46467C19.4752 4.52307 19.4728 4.58292 19.4581 4.64031C19.4434 4.6977 19.4167 4.75134 19.3799 4.79775C18.1587 6.35824 16.6611 7.68099 14.9618 8.70009C13.5891 6.7724 11.8471 5.13657 9.83707 3.88756ZM13.4557 9.49217C11.9153 7.39028 9.88881 5.69272 7.54946 4.54463C7.48247 4.51209 7.40797 4.49816 7.33375 4.50428C7.25954 4.51041 7.18833 4.53636 7.12758 4.57943C5.23377 5.93407 3.81808 7.85415 3.08391 10.0638C3.06546 10.1203 3.05917 10.1801 3.06543 10.2392C3.07169 10.2983 3.09037 10.3554 3.12024 10.4068C3.15011 10.4582 3.19051 10.5026 3.23877 10.5373C3.28704 10.572 3.34209 10.5961 3.40032 10.608C4.50115 10.8453 5.62388 10.9662 6.75 10.9687C9.06601 10.97 11.3544 10.4661 13.4557 9.49217ZM24.4034 12.3071C24.1352 9.86081 23.0506 7.57618 21.3247 5.82185C21.2826 5.77911 21.2319 5.74582 21.176 5.72422C21.12 5.70263 21.0601 5.69321 21.0002 5.6966C20.9403 5.7 20.8818 5.71612 20.8287 5.7439C20.7755 5.77169 20.7289 5.81048 20.6919 5.85771C19.3571 7.55827 17.7242 9.00205 15.873 10.1186C16.4514 11.1206 16.93 12.1768 17.3022 13.2722C18.8132 12.8625 20.3719 12.6554 21.9375 12.6562C22.6071 12.6563 23.2761 12.6939 23.9414 12.7691C24.0033 12.7753 24.0658 12.7677 24.1245 12.7468C24.1831 12.726 24.2364 12.6925 24.2806 12.6486C24.3247 12.6048 24.3586 12.5517 24.3799 12.4932C24.4011 12.4347 24.4091 12.3722 24.4034 12.3103V12.3071ZM17.7683 14.8911C18.0809 16.2209 18.2384 17.5824 18.2377 18.9485C18.237 20.256 18.0916 21.5595 17.8042 22.835C17.7858 22.9131 17.7901 22.9949 17.8165 23.0707C17.843 23.1464 17.8905 23.2131 17.9535 23.2628C18.0165 23.3125 18.0924 23.3432 18.1722 23.3513C18.2521 23.3595 18.3326 23.3446 18.4043 23.3086C20.0039 22.5061 21.3835 21.3253 22.4233 19.8687C23.463 18.4121 24.1315 16.7237 24.3707 14.9502C24.3779 14.8949 24.3741 14.8387 24.3595 14.7848C24.3448 14.731 24.3197 14.6806 24.2854 14.6366C24.2512 14.5925 24.2086 14.5557 24.16 14.5283C24.1115 14.5008 24.058 14.4833 24.0026 14.4766C21.9169 14.2082 19.7988 14.3515 17.7683 14.8985V14.8911ZM15.6969 13.789C15.3569 12.7917 14.9191 11.8304 14.3902 10.9192C12.0062 12.0645 9.39484 12.6582 6.75 12.6562C5.5137 12.6563 4.28076 12.5273 3.07125 12.2713C3.0129 12.259 2.95259 12.2592 2.89432 12.2719C2.83605 12.2846 2.78113 12.3095 2.73319 12.345C2.68525 12.3804 2.64538 12.4257 2.61621 12.4777C2.58704 12.5297 2.56922 12.5873 2.56395 12.6467C2.54215 12.928 2.5309 13.2124 2.5302 13.5C2.52964 15.0019 2.83838 16.4879 3.43718 17.8653C4.03597 19.2427 4.91199 20.482 6.01067 21.5061C6.05701 21.5486 6.11226 21.5802 6.17238 21.5985C6.23249 21.6169 6.29596 21.6216 6.35813 21.6123C6.4203 21.603 6.47961 21.58 6.53172 21.5448C6.58383 21.5096 6.62741 21.4633 6.6593 21.4091C8.71785 17.9161 11.9058 15.2293 15.6969 13.7921V13.789ZM7.98293 22.4912C7.95521 22.5396 7.93736 22.593 7.93042 22.6484C7.92347 22.7037 7.92758 22.7599 7.94248 22.8136C7.95739 22.8674 7.98281 22.9176 8.01727 22.9615C8.05173 23.0054 8.09455 23.042 8.14324 23.0692C10.3489 24.3058 12.9145 24.7414 15.4048 24.3021C15.4789 24.2892 15.548 24.2563 15.6049 24.2071C15.6617 24.1579 15.7041 24.0941 15.7275 24.0226C16.2715 22.3872 16.5492 20.6751 16.5502 18.9517C16.5504 17.7643 16.4181 16.5807 16.1557 15.4227C12.6998 16.7692 9.81352 19.2655 7.98293 22.4912Z" fill="black"/>
</svg>
