<svg width="27" height="27" viewBox="0 0 27 27" fill="none" xmlns="http://www.w3.org/2000/svg">
<path d="M13.5 2.53125C11.3306 2.53125 9.20989 3.17456 7.40609 4.37982C5.60228 5.58508 4.19639 7.29816 3.36619 9.30244C2.53599 11.3067 2.31878 13.5122 2.74201 15.6399C3.16524 17.7676 4.20991 19.7221 5.74392 21.2561C7.27793 22.7901 9.23237 23.8348 11.3601 24.258C13.4878 24.6812 15.6933 24.464 17.6976 23.6338C19.7018 22.8036 21.4149 21.3977 22.6202 19.5939C23.8254 17.7901 24.4687 15.6694 24.4687 13.5C24.4657 10.5918 23.3091 7.80369 21.2527 5.74731C19.1963 3.69094 16.4081 2.53432 13.5 2.53125ZM22.7443 12.6752C22.4757 12.6626 22.2068 12.6562 21.9375 12.6562C20.3724 12.6567 18.8141 12.8638 17.3032 13.2722C16.9348 12.1791 16.4597 11.1249 15.8846 10.125C17.3844 9.22062 18.7421 8.0993 19.9136 6.79746C21.5391 8.34834 22.5452 10.4374 22.7443 12.6752ZM18.592 5.74383C17.5381 6.90186 16.32 7.89896 14.9766 8.70328C13.8514 7.11958 12.4752 5.73021 10.9023 4.59C12.1926 4.21332 13.5494 4.12141 14.8787 4.32063C16.2081 4.51985 17.4783 5.00544 18.6015 5.74383H18.592ZM9.0334 5.36625C10.7574 6.45194 12.2604 7.85402 13.4631 9.49851C11.3582 10.4687 9.06773 10.9703 6.75 10.9687C6.03467 10.9684 5.32015 10.9208 4.61109 10.8264C5.31663 8.49921 6.90357 6.53984 9.0334 5.36625ZM4.21875 13.5C4.2187 13.1603 4.23736 12.8209 4.27465 12.4833C5.09474 12.5984 5.92186 12.6562 6.75 12.6562C9.39678 12.6587 12.0104 12.0677 14.3986 10.9266C14.9247 11.8352 15.3596 12.7936 15.6969 13.7879C14.8006 14.1246 13.9333 14.5338 13.1034 15.0114C10.7885 16.3488 8.80354 18.1892 7.29527 20.3966C6.32671 19.5277 5.55214 18.4645 5.02205 17.2762C4.49195 16.0879 4.21824 14.8012 4.21875 13.5ZM8.64843 21.4102C10.0178 19.3848 11.8297 17.6973 13.9472 16.4753C14.6551 16.0667 15.3939 15.7141 16.1568 15.4206C16.4178 16.5791 16.5498 17.763 16.5502 18.9506C16.5507 20.1052 16.4273 21.2565 16.1821 22.3847C14.9287 22.7633 13.6094 22.8722 12.3109 22.7043C11.0124 22.5363 9.76419 22.0953 8.64843 21.4102ZM18.0415 21.5926C18.1717 20.7197 18.2372 19.8384 18.2377 18.9559C18.2375 17.5899 18.08 16.2285 17.7683 14.8985C19.1277 14.5317 20.5295 14.3452 21.9375 14.3437C22.2047 14.3437 22.4722 14.3504 22.7401 14.3638C22.5989 15.8584 22.0977 17.2966 21.2794 18.5553C20.4611 19.8141 19.3502 20.8558 18.0415 21.5916V21.5926Z" fill="black"/>
</svg>
