<svg width="10" height="10" viewBox="0 0 10 10" fill="none" xmlns="http://www.w3.org/2000/svg">
<path d="M4.99991 0.000173049C4.99995 0.00010065 5.00005 0.000100715 5.00009 0.000173114L6.69704 3.30292C6.69705 3.30293 6.69707 3.30295 6.69708 3.30296L9.99983 4.99991C9.9999 4.99995 9.9999 5.00005 9.99983 5.00009L6.69708 6.69704C6.69707 6.69705 6.69705 6.69707 6.69704 6.69708L5.00009 9.99983C5.00005 9.9999 4.99995 9.9999 4.99991 9.99983L3.30296 6.69708C3.30295 6.69707 3.30293 6.69705 3.30292 6.69704L0.000173049 5.00009C0.00010065 5.00005 0.000100715 4.99995 0.000173114 4.99991L3.30292 3.30296C3.30293 3.30295 3.30295 3.30293 3.30296 3.30292L4.99991 0.000173049Z" fill="black"/>
</svg>
