<svg width="30" height="45" viewBox="0 0 30 45" fill="none" xmlns="http://www.w3.org/2000/svg">
<path d="M0 37.0833C0 33.0563 3.25678 29.7916 7.27414 29.7916H14.5483V37.0833C14.5483 41.1103 11.2915 44.375 7.27414 44.375C3.25678 44.375 0 41.1103 0 37.0833Z" fill="#24CB71"/>
<path d="M14.5479 0.625V15.2083H21.822C25.8394 15.2083 29.0961 11.9437 29.0961 7.91667C29.0961 3.88962 25.8394 0.625 21.822 0.625H14.5479Z" fill="#FF7237"/>
<path d="M21.7614 29.7917C25.7788 29.7917 29.0356 26.5271 29.0356 22.5C29.0356 18.473 25.7788 15.2084 21.7614 15.2084C17.744 15.2084 14.4873 18.473 14.4873 22.5C14.4873 26.5271 17.744 29.7917 21.7614 29.7917Z" fill="#00B6FF"/>
<path d="M0 7.91667C0 11.9437 3.25678 15.2083 7.27414 15.2083H14.5483V0.625H7.27414C3.25678 0.625 0 3.88962 0 7.91667Z" fill="#FF3737"/>
<path d="M0 22.5C0 26.5271 3.25678 29.7917 7.27414 29.7917H14.5483V15.2084H7.27414C3.25678 15.2084 0 18.473 0 22.5Z" fill="#874FFF"/>
</svg>
