<svg width="57" height="57" viewBox="0 0 57 57" fill="none" xmlns="http://www.w3.org/2000/svg">
<path d="M21.0781 4.75C16.0164 4.75 11.875 8.89135 11.875 13.9531C11.875 16.9576 13.3552 19.6138 15.5999 21.2961C13.356 22.9175 11.875 25.5367 11.875 28.5C11.875 31.5305 13.5061 34.0886 15.8364 35.6992C13.5026 37.3728 11.875 39.9725 11.875 43.0469C11.875 48.1086 16.0164 52.25 21.0781 52.25C25.1563 52.25 28.5 48.9062 28.5 44.8281V35.7688C29.9232 36.7844 31.7497 37.4062 33.8438 37.4062C36.6641 37.4062 39.0048 36.2845 40.5188 34.5813C42.0328 32.8781 42.75 30.6771 42.75 28.5C42.75 26.3229 42.0328 24.1219 40.5188 22.4187C40.3883 22.2719 40.1697 22.204 40.0271 22.0662C43.0109 20.5397 45.125 17.5185 45.125 13.9531C45.125 8.89135 40.9836 4.75 35.9219 4.75H21.0781ZM21.0781 8.3125H35.9219C39.0586 8.3125 41.5625 10.8164 41.5625 13.9531C41.5625 17.0899 39.0586 19.5937 35.9219 19.5937H33.8438H26.7188H21.0781C17.9414 19.5937 15.4375 17.0899 15.4375 13.9531C15.4375 10.8164 17.9414 8.3125 21.0781 8.3125ZM20.7812 23.1562H21.0781H24.9375V28.5V33.8437H21.0781H20.7812C17.8083 33.8437 15.4375 31.4729 15.4375 28.5C15.4375 25.5271 17.8083 23.1562 20.7812 23.1562ZM33.8438 23.1562C35.7734 23.1562 36.9952 23.8157 37.8562 24.7844C38.7172 25.7531 39.1875 27.1146 39.1875 28.5C39.1875 29.8854 38.7172 31.2469 37.8562 32.2156C36.9952 33.1843 35.7734 33.8437 33.8438 33.8437C31.9141 33.8437 30.6923 33.1843 29.8313 32.2156C28.9703 31.2469 28.5 29.8854 28.5 28.5C28.5 27.1146 28.9703 25.7531 29.8313 24.7844C30.6923 23.8157 31.9141 23.1562 33.8438 23.1562ZM21.0781 37.4062H24.9375V44.8281C24.9375 46.982 23.232 48.6875 21.0781 48.6875C17.9414 48.6875 15.4375 46.1836 15.4375 43.0469C15.4375 39.9101 17.9414 37.4062 21.0781 37.4062Z" fill="black"/>
</svg>
