<svg width="27" height="27" viewBox="0 0 27 27" fill="none" xmlns="http://www.w3.org/2000/svg">
<path d="M21.9702 7.98189C22.2281 7.14995 22.3108 6.27359 22.2132 5.40809C22.1155 4.54258 21.8396 3.70669 21.4028 2.95314C21.3287 2.82484 21.2222 2.71831 21.0939 2.64426C20.9656 2.5702 20.82 2.53123 20.6719 2.53126C19.6891 2.52921 18.7195 2.75703 17.8405 3.19654C16.9614 3.63605 16.1974 4.27506 15.6094 5.06251H13.0781C12.4901 4.27506 11.7261 3.63605 10.847 3.19654C9.96803 2.75703 8.9984 2.52921 8.01562 2.53126C7.86748 2.53123 7.72194 2.5702 7.59364 2.64426C7.46534 2.71831 7.3588 2.82484 7.28473 2.95314C6.84793 3.70669 6.572 4.54258 6.47434 5.40809C6.37668 6.27359 6.4594 7.14995 6.7173 7.98189C6.196 8.89178 5.91676 9.92017 5.90625 10.9688V11.8125C5.90803 13.2401 6.42628 14.6189 7.36533 15.6942C8.30437 16.7696 9.60078 17.4688 11.0152 17.6629C10.4378 18.4016 10.1245 19.3124 10.125 20.25V21.0938H7.59375C6.92242 21.0938 6.27859 20.8271 5.80389 20.3524C5.32918 19.8777 5.0625 19.2338 5.0625 18.5625C5.0625 18.0085 4.95338 17.4599 4.74137 16.9481C4.52935 16.4362 4.2186 15.9712 3.82686 15.5794C3.43511 15.1877 2.97004 14.8769 2.4582 14.6649C1.94635 14.4529 1.39776 14.3438 0.84375 14.3438C0.619974 14.3438 0.405362 14.4327 0.247129 14.5909C0.0888949 14.7491 0 14.9637 0 15.1875C0 15.4113 0.0888949 15.6259 0.247129 15.7841C0.405362 15.9424 0.619974 16.0313 0.84375 16.0313C1.51508 16.0313 2.15891 16.2979 2.63361 16.7726C3.10832 17.2474 3.375 17.8912 3.375 18.5625C3.375 19.6814 3.81947 20.7545 4.61064 21.5456C5.40181 22.3368 6.47487 22.7813 7.59375 22.7813H10.125V24.4688C10.125 24.6925 10.2139 24.9072 10.3721 25.0654C10.5304 25.2236 10.745 25.3125 10.9688 25.3125C11.1925 25.3125 11.4071 25.2236 11.5654 25.0654C11.7236 24.9072 11.8125 24.6925 11.8125 24.4688V20.25C11.8125 19.5787 12.0792 18.9349 12.5539 18.4601C13.0286 17.9854 13.6724 17.7188 14.3438 17.7188C15.0151 17.7188 15.6589 17.9854 16.1336 18.4601C16.6083 18.9349 16.875 19.5787 16.875 20.25V24.4688C16.875 24.6925 16.9639 24.9072 17.1221 25.0654C17.2804 25.2236 17.495 25.3125 17.7188 25.3125C17.9425 25.3125 18.1571 25.2236 18.3154 25.0654C18.4736 24.9072 18.5625 24.6925 18.5625 24.4688V20.25C18.563 19.3124 18.2497 18.4016 17.6723 17.6629C19.0867 17.4688 20.3831 16.7696 21.3222 15.6942C22.2612 14.6189 22.7795 13.2401 22.7812 11.8125V10.9688C22.7707 9.92017 22.4915 8.89178 21.9702 7.98189ZM21.0938 11.8125C21.0938 12.9314 20.6493 14.0045 19.8581 14.7956C19.0669 15.5868 17.9939 16.0313 16.875 16.0313H11.8125C10.6936 16.0313 9.62056 15.5868 8.82939 14.7956C8.03822 14.0045 7.59375 12.9314 7.59375 11.8125V10.9688C7.60409 10.125 7.8567 9.30206 8.32148 8.59783C8.40813 8.48362 8.46424 8.34923 8.48454 8.20733C8.50484 8.06542 8.48865 7.92068 8.4375 7.78677C8.21773 7.21998 8.11196 6.61539 8.12626 6.00765C8.14055 5.39991 8.27464 4.80096 8.52082 4.24513C9.21134 4.31941 9.87629 4.54816 10.4664 4.91441C11.0565 5.28065 11.5565 5.77501 11.9296 6.36083C12.0056 6.4797 12.1102 6.57761 12.2338 6.6456C12.3575 6.71359 12.4962 6.74949 12.6373 6.75001H16.0492C16.1908 6.75002 16.3302 6.71437 16.4544 6.64636C16.5786 6.57834 16.6837 6.48015 16.76 6.36083C17.133 5.77496 17.6331 5.28056 18.2232 4.91431C18.8133 4.54805 19.4782 4.31934 20.1688 4.24513C20.4146 4.8011 20.5484 5.40012 20.5623 6.00786C20.5762 6.6156 20.4701 7.22012 20.25 7.78677C20.199 7.9194 20.1819 8.06267 20.2004 8.20357C20.2188 8.34447 20.2721 8.47854 20.3555 8.59361C20.8249 9.29785 21.0812 10.1225 21.0938 10.9688V11.8125Z" fill="black"/>
</svg>
