<svg width="53" height="52" viewBox="0 0 53 52" fill="none" xmlns="http://www.w3.org/2000/svg">
<path d="M26.5026 0C11.9017 0 0 11.8212 0 26.2807C0 38.7521 8.79006 49.2506 20.5861 51.8993C20.9739 51.9863 21.3764 51.9856 21.7638 51.8974C22.1513 51.8092 22.5138 51.6357 22.8245 51.3897C23.1352 51.1438 23.3861 50.8316 23.5586 50.4765C23.7312 50.1213 23.8209 49.7322 23.8213 49.338V40.0114C23.8769 39.7042 23.8769 39.3896 23.8213 39.0823V36.829C23.8213 36.246 24.02 35.7022 24.3389 35.2737C24.5987 34.924 24.7672 34.516 24.8291 34.086C24.891 33.656 24.8445 33.2176 24.6938 32.8098C24.543 32.402 24.2927 32.0376 23.9652 31.7492C23.6377 31.4607 23.2432 31.2573 22.8171 31.157C18.4151 30.1212 15.886 27.3977 15.886 24.9872C15.886 23.6619 16.5308 22.3584 17.941 21.1683C18.2919 20.8725 18.5591 20.4912 18.7161 20.0618C18.8731 19.6325 18.9146 19.17 18.8365 18.7199C18.7706 18.3427 18.8298 17.9235 18.7847 17.5393C19.3341 17.8605 19.9551 18.0163 20.4774 18.4017C20.7859 18.6292 21.1406 18.7874 21.5169 18.8654C21.8932 18.9434 22.2821 18.9393 22.6566 18.8534C23.8863 18.5718 25.1816 18.3965 26.5026 18.3965C27.8144 18.3965 29.1075 18.5727 30.3434 18.8534C30.7171 18.9385 31.1051 18.9422 31.4804 18.8642C31.8558 18.7862 32.2096 18.6284 32.5174 18.4017C33.0383 18.0161 33.6616 17.8605 34.2101 17.5393C34.1651 17.9218 34.2239 18.3391 34.1583 18.7148C34.0796 19.1644 34.1203 19.6266 34.2764 20.0559C34.4325 20.4852 34.6986 20.8668 35.0486 21.1632C36.4625 22.3584 37.1088 23.6589 37.1088 24.9821C37.1088 27.435 34.5795 30.1118 30.1415 31.1519C29.7153 31.2512 29.3206 31.4537 28.9925 31.7412C28.6645 32.0287 28.4134 32.3923 28.2616 32.7995C28.1099 33.2067 28.0622 33.6449 28.1229 34.0748C28.1835 34.5048 28.3507 34.9131 28.6093 35.2634C28.9329 35.7013 29.127 36.25 29.127 36.829V49.3739C29.1273 49.7681 29.2171 50.1572 29.3896 50.5124C29.5622 50.8676 29.8131 51.1797 30.1237 51.4257C30.4344 51.6716 30.7969 51.8451 31.1844 51.9334C31.5719 52.0216 31.9744 52.0222 32.3621 51.9353C44.1745 49.2874 52.9971 38.7863 53 26.2807C53 11.8212 41.1035 0 26.5026 0ZM26.5026 5.25615C38.2293 5.25615 47.6995 14.6697 47.6995 26.2807C47.6974 35.1002 42.1241 42.3414 34.4275 45.4831V36.829C34.4275 36.147 33.9886 35.6276 33.8219 34.9914C38.5477 33.0887 42.4093 29.7627 42.4093 24.9821C42.4093 22.411 41.1466 20.1858 39.4381 18.3401C39.657 16.5841 39.8255 14.8136 39.6866 12.9761C39.6563 12.5787 39.5352 12.1933 39.3326 11.8491C39.1299 11.5049 38.851 11.2109 38.5169 10.9894C38.1828 10.7678 37.8022 10.6246 37.404 10.5704C37.0058 10.5162 36.6004 10.5525 36.2185 10.6766C34.2088 11.3294 32.3169 12.4049 30.4832 13.6075C29.2139 13.3701 27.925 13.1404 26.5026 13.1404C25.0815 13.1404 23.7879 13.3695 22.5168 13.6075C20.6817 12.4061 18.7854 11.3352 16.7763 10.6817C16.3948 10.5577 15.9898 10.5212 15.592 10.5752C15.1941 10.6291 14.8138 10.7719 14.4798 10.9929C14.1458 11.2139 13.8668 11.5072 13.6638 11.8508C13.4609 12.1943 13.3393 12.5791 13.3082 12.9761C13.1669 14.8122 13.3383 16.5844 13.5567 18.3401C11.8463 20.1868 10.5855 22.417 10.5855 24.9872C10.5855 29.7404 14.4198 33.0754 19.1316 34.9862C18.9646 35.6239 18.5208 36.1474 18.5208 36.829V36.9008C17.1256 36.8988 16.578 36.1641 14.9646 34.7758C14.499 34.3632 13.9014 34.1269 13.2772 34.1085C12.7278 34.093 12.1871 34.2473 11.73 34.5499C11.2729 34.8525 10.922 35.2886 10.7259 35.7977C10.5297 36.3068 10.498 36.8638 10.6352 37.3916C10.7723 37.9194 11.0715 38.3918 11.4914 38.7436C12.7215 39.8021 14.9249 42.1546 18.5208 42.157V45.4472C10.8506 42.3028 5.30052 35.0645 5.30052 26.2807C5.30052 14.6697 14.7758 5.25615 26.5026 5.25615Z" fill="black"/>
</svg>
