<svg width="27" height="27" viewBox="0 0 27 27" fill="none" xmlns="http://www.w3.org/2000/svg">
<path d="M22.7812 10.9688V11.8125C22.7795 13.2401 22.2612 14.6189 21.3222 15.6942C20.3831 16.7696 19.0867 17.4688 17.6723 17.6629C18.2497 18.4016 18.563 19.3124 18.5625 20.25V24.4688C18.5625 24.6925 18.4736 24.9072 18.3154 25.0654C18.1571 25.2236 17.9425 25.3125 17.7188 25.3125H10.9688C10.745 25.3125 10.5304 25.2236 10.3721 25.0654C10.2139 24.9072 10.125 24.6925 10.125 24.4688V22.7813H7.59375C6.47487 22.7813 5.40181 22.3368 4.61064 21.5456C3.81947 20.7545 3.375 19.6814 3.375 18.5625C3.375 17.8912 3.10832 17.2474 2.63361 16.7726C2.15891 16.2979 1.51508 16.0313 0.84375 16.0313C0.619974 16.0313 0.405362 15.9424 0.247129 15.7841C0.0888949 15.6259 0 15.4113 0 15.1875C0 14.9637 0.0888949 14.7491 0.247129 14.5909C0.405362 14.4327 0.619974 14.3438 0.84375 14.3438C1.39776 14.3438 1.94635 14.4529 2.4582 14.6649C2.97004 14.8769 3.43511 15.1877 3.82686 15.5794C4.2186 15.9712 4.52935 16.4362 4.74137 16.9481C4.95338 17.4599 5.0625 18.0085 5.0625 18.5625C5.0625 19.2338 5.32918 19.8777 5.80389 20.3524C6.27859 20.8271 6.92242 21.0938 7.59375 21.0938H10.125V20.25C10.1245 19.3124 10.4378 18.4016 11.0152 17.6629C9.60078 17.4688 8.30437 16.7696 7.36533 15.6942C6.42628 14.6189 5.90803 13.2401 5.90625 11.8125V10.9688C5.91676 9.92017 6.196 8.89178 6.7173 7.98189C6.4594 7.14995 6.37668 6.27359 6.47434 5.40809C6.572 4.54258 6.84793 3.70669 7.28473 2.95314C7.3588 2.82484 7.46534 2.71831 7.59364 2.64426C7.72194 2.5702 7.86748 2.53123 8.01562 2.53126C8.9984 2.52921 9.96803 2.75703 10.847 3.19654C11.7261 3.63605 12.4901 4.27506 13.0781 5.06251H15.6094C16.1974 4.27506 16.9614 3.63605 17.8405 3.19654C18.7195 2.75703 19.6891 2.52921 20.6719 2.53126C20.82 2.53123 20.9656 2.5702 21.0939 2.64426C21.2222 2.71831 21.3287 2.82484 21.4028 2.95314C21.8396 3.70668 22.1155 4.54261 22.213 5.40815C22.3105 6.2737 22.2275 7.15006 21.9691 7.98189C22.4914 8.89143 22.7711 9.91998 22.7812 10.9688Z" fill="black"/>
</svg>
