<svg width="49" height="49" viewBox="0 0 49 49" fill="none" xmlns="http://www.w3.org/2000/svg">
<g clip-path="url(#clip0_101_6)">
<path fill-rule="evenodd" clip-rule="evenodd" d="M24.427 0.5C10.9195 0.5 0 11.5 0 25.1085C0 35.9865 6.9965 45.1945 16.7025 48.4535C17.916 48.6985 18.3605 47.924 18.3605 47.2725C18.3605 46.702 18.3205 44.7465 18.3205 42.709C11.5255 44.176 10.1105 39.7755 10.1105 39.7755C9.0185 36.9235 7.4005 36.1905 7.4005 36.1905C5.1765 34.683 7.5625 34.683 7.5625 34.683C10.0295 34.846 11.324 37.209 11.324 37.209C13.5075 40.957 17.026 39.898 18.4415 39.246C18.6435 37.657 19.291 36.557 19.9785 35.946C14.559 35.3755 8.857 33.257 8.857 23.8045C8.857 21.1155 9.827 18.9155 11.364 17.2045C11.1215 16.5935 10.272 14.067 11.607 10.6855C11.607 10.6855 13.6695 10.0335 18.32 13.2115C20.311 12.6728 22.3644 12.3988 24.427 12.3965C26.4895 12.3965 28.592 12.682 30.5335 13.2115C35.1845 10.0335 37.247 10.6855 37.247 10.6855C38.582 14.067 37.732 16.5935 37.4895 17.2045C39.067 18.9155 39.997 21.1155 39.997 23.8045C39.997 33.257 34.295 35.3345 28.835 35.946C29.725 36.72 30.493 38.1865 30.493 40.509C30.493 43.809 30.453 46.4575 30.453 47.272C30.453 47.924 30.898 48.6985 32.111 48.454C41.817 45.194 48.8135 35.9865 48.8135 25.1085C48.8535 11.5 37.894 0.5 24.427 0.5Z" fill="white"/>
</g>
<defs>
<clipPath id="clip0_101_6">
<rect width="49" height="48" fill="white" transform="translate(0 0.5)"/>
</clipPath>
</defs>
</svg>
