<svg width="54" height="54" viewBox="0 0 54 54" fill="none" xmlns="http://www.w3.org/2000/svg">
<path d="M6.13636 0C2.78054 0 0 2.78054 0 6.13636V47.8636C0 51.2195 2.78054 54 6.13636 54H47.8636C51.2195 54 54 51.2195 54 47.8636V6.13636C54 2.78054 51.2195 0 47.8636 0H6.13636ZM6.13636 4.90909H47.8636C48.5636 4.90909 49.0909 5.43644 49.0909 6.13636V47.8636C49.0909 48.5636 48.5636 49.0909 47.8636 49.0909H6.13636C5.43644 49.0909 4.90909 48.5636 4.90909 47.8636V6.13636C4.90909 5.43644 5.43644 4.90909 6.13636 4.90909ZM13.3466 9.12784C11.0167 9.12784 9.12784 11.0167 9.12784 13.3466C9.12784 15.6765 11.0167 17.5653 13.3466 17.5653C15.6765 17.5653 17.5653 15.6765 17.5653 13.3466C17.5653 11.0167 15.6765 9.12784 13.3466 9.12784ZM35.5142 20.3267C31.9954 20.3267 29.6559 22.2539 28.6875 24.0852H28.5341V20.8636H21.6307V44.1818H28.8409V32.6761C28.8409 29.6367 29.445 26.6932 33.2131 26.6932C36.9237 26.6932 36.9716 30.1257 36.9716 32.8295V44.1818H44.1818V31.3722C44.1818 25.1016 42.8491 20.3267 35.5142 20.3267ZM9.81818 20.8636V44.1818H17.1051V20.8636H9.81818Z" fill="black"/>
</svg>
