<svg width="27" height="27" viewBox="0 0 27 27" fill="none" xmlns="http://www.w3.org/2000/svg">
<path d="M22.7812 2.53125H4.21875C3.7712 2.53125 3.34197 2.70904 3.02551 3.02551C2.70904 3.34197 2.53125 3.7712 2.53125 4.21875V22.7812C2.53125 23.2288 2.70904 23.658 3.02551 23.9745C3.34197 24.291 3.7712 24.4688 4.21875 24.4688H22.7812C23.2288 24.4688 23.658 24.291 23.9745 23.9745C24.291 23.658 24.4688 23.2288 24.4688 22.7812V4.21875C24.4688 3.7712 24.291 3.34197 23.9745 3.02551C23.658 2.70904 23.2288 2.53125 22.7812 2.53125ZM22.7812 22.7812H4.21875V4.21875H22.7812V22.7812ZM10.125 11.8125V18.5625C10.125 18.7863 10.0361 19.0009 9.87787 19.1591C9.71964 19.3174 9.50503 19.4062 9.28125 19.4062C9.05747 19.4062 8.84286 19.3174 8.68463 19.1591C8.52639 19.0009 8.4375 18.7863 8.4375 18.5625V11.8125C8.4375 11.5887 8.52639 11.3741 8.68463 11.2159C8.84286 11.0576 9.05747 10.9688 9.28125 10.9688C9.50503 10.9688 9.71964 11.0576 9.87787 11.2159C10.0361 11.3741 10.125 11.5887 10.125 11.8125ZM19.4062 14.7656V18.5625C19.4062 18.7863 19.3174 19.0009 19.1591 19.1591C19.0009 19.3174 18.7863 19.4062 18.5625 19.4062C18.3387 19.4062 18.1241 19.3174 17.9659 19.1591C17.8076 19.0009 17.7188 18.7863 17.7188 18.5625V14.7656C17.7188 14.2062 17.4965 13.6697 17.1009 13.2741C16.7053 12.8785 16.1688 12.6562 15.6094 12.6562C15.0499 12.6562 14.5134 12.8785 14.1178 13.2741C13.7222 13.6697 13.5 14.2062 13.5 14.7656V18.5625C13.5 18.7863 13.4111 19.0009 13.2529 19.1591C13.0946 19.3174 12.88 19.4062 12.6562 19.4062C12.4325 19.4062 12.2179 19.3174 12.0596 19.1591C11.9014 19.0009 11.8125 18.7863 11.8125 18.5625V11.8125C11.8135 11.6058 11.8904 11.4067 12.0285 11.253C12.1666 11.0992 12.3563 11.0015 12.5617 10.9783C12.7671 10.9552 12.9738 11.0082 13.1427 11.1274C13.3116 11.2465 13.4308 11.4235 13.4779 11.6248C14.0486 11.2376 14.7141 11.0131 15.4028 10.9756C16.0915 10.9381 16.7774 11.0889 17.3869 11.4118C17.9964 11.7347 18.5064 12.2175 18.8622 12.8084C19.2179 13.3993 19.406 14.0759 19.4062 14.7656ZM10.5469 8.85938C10.5469 9.10969 10.4726 9.35439 10.3336 9.56252C10.1945 9.77065 9.99685 9.93287 9.76558 10.0287C9.53432 10.1245 9.27985 10.1495 9.03434 10.1007C8.78883 10.0518 8.56332 9.93131 8.38632 9.75431C8.20932 9.57731 8.08878 9.35179 8.03994 9.10629C7.99111 8.86078 8.01617 8.6063 8.11196 8.37504C8.20776 8.14378 8.36998 7.94611 8.57811 7.80705C8.78624 7.66798 9.03093 7.59375 9.28125 7.59375C9.61691 7.59375 9.93883 7.72709 10.1762 7.96444C10.4135 8.20179 10.5469 8.52371 10.5469 8.85938Z" fill="black"/>
</svg>
