<svg width="51" height="51" viewBox="0 0 51 51" fill="none" xmlns="http://www.w3.org/2000/svg">
<mask id="path-1-inside-1_32_132" fill="white">
<path fill-rule="evenodd" clip-rule="evenodd" d="M19.1065 0.496924C21.0271 0.168727 22.9719 0.0027023 24.9203 0.00060673C27.0433 -0.0113975 29.1635 0.154746 31.2587 0.497288C32.8568 0.661633 34.345 1.3872 35.4588 2.54509C36.5726 3.70298 37.2399 5.2182 37.342 6.82155V18.4064C37.349 19.2119 37.1971 20.0109 36.8951 20.7576C36.593 21.5044 36.1468 22.1843 35.5818 22.7585C35.0168 23.3327 34.3442 23.7899 33.6024 24.1039C32.8606 24.418 32.0642 24.5827 31.2587 24.5888H19.1063C17.1081 24.6221 15.2005 25.4279 13.7835 26.8371C12.3664 28.2463 11.5501 30.1494 11.5057 32.1474V33.5234C11.5057 35.8337 9.6328 37.7067 7.32242 37.7067V37.7067C3.78678 37.7067 1.72135 35.1402 0.85656 31.5383C-0.28552 27.4958 -0.28552 23.2159 0.85656 19.1734C1.19298 17.4142 2.14016 15.8305 3.53087 14.7018C4.92158 13.5732 6.66636 12.9722 8.45713 13.005H24.4166C24.8437 13.005 25.1899 12.6588 25.1899 12.2318V12.2318C25.1899 11.8047 24.8437 11.4585 24.4166 11.4585H17.6604C15.0993 11.4585 13.0231 9.38231 13.0231 6.82119V6.82119C13.0231 3.31036 13.9578 1.4065 19.1065 0.496924ZM19.6378 4.10313C19.2519 3.853 18.8004 3.72325 18.3406 3.73036C17.7298 3.73714 17.1467 3.98568 16.7188 4.42155C16.2909 4.85741 16.0532 5.44509 16.0577 6.05586C16.0591 6.51569 16.1972 6.96473 16.4544 7.34589C16.7116 7.72706 17.0764 8.02314 17.5023 8.1965C17.9282 8.36986 18.396 8.41267 18.8463 8.3195C19.2966 8.22632 19.7091 8.00136 20.0312 7.67322C20.3533 7.34507 20.5706 6.92855 20.6555 6.47661C20.7403 6.02467 20.6888 5.55771 20.5076 5.13508C20.3264 4.71246 20.0236 4.35325 19.6378 4.10313ZM38.8596 18.408V17.5713C38.8596 15.0494 40.9036 13.0046 43.4256 13.0037V13.0037C46.9662 13.0037 48.6347 15.652 49.509 19.1721C50.7574 23.1992 50.7574 27.5099 49.509 31.537C48.2792 35.2389 46.9616 37.7054 43.4256 37.7054H25.9627C25.5359 37.7054 25.1899 38.0514 25.1899 38.4782V38.4782C25.1899 38.905 25.5359 39.251 25.9627 39.251H32.704C35.2657 39.251 37.3424 41.3277 37.3424 43.8894V43.8894C37.3424 47.4004 34.3221 49.1851 31.2591 50.0719C27.3028 51.3093 23.063 51.3093 19.1067 50.0719C15.8905 49.1259 13.0233 47.186 13.0233 43.8894V32.3043C13.0293 30.6836 13.669 29.1294 14.8058 27.9741C15.9426 26.8188 17.4862 26.154 19.1067 26.1218H31.2591C33.2779 26.0694 35.1978 25.2365 36.6152 23.7979C38.0327 22.3594 38.8372 20.4274 38.8596 18.408ZM33.3234 42.7166C32.9372 42.4659 32.4852 42.3358 32.0248 42.3429C31.7231 42.3446 31.4247 42.4058 31.1466 42.5229C30.8686 42.64 30.6164 42.8108 30.4043 43.0254C30.1923 43.2401 30.0247 43.4944 29.911 43.7739C29.7974 44.0533 29.7399 44.3525 29.7419 44.6542C29.7404 45.1146 29.8761 45.565 30.1316 45.9481C30.3871 46.3311 30.7509 46.6294 31.1766 46.805C31.6022 46.9805 32.0705 47.0254 32.5218 46.9338C32.973 46.8422 33.3868 46.6184 33.7104 46.2908C34.0339 45.9632 34.2526 45.5467 34.3386 45.0944C34.4246 44.642 34.374 44.1743 34.1932 43.7509C34.0124 43.3274 33.7096 42.9674 33.3234 42.7166Z"/>
</mask>
<path d="M24.9203 0.00060673L24.9241 3.5006L24.9321 3.5006L24.9401 3.50055L24.9203 0.00060673ZM19.1065 0.496924L18.5169 -2.95307L18.5073 -2.95141L18.4976 -2.9497L19.1065 0.496924ZM31.2587 0.497288L30.6939 3.95143L30.7969 3.96826L30.9006 3.97893L31.2587 0.497288ZM35.4588 2.54509L32.9364 4.97146L32.9364 4.97146L35.4588 2.54509ZM37.342 6.82155H40.842V6.71015L40.8349 6.59897L37.342 6.82155ZM37.342 18.4064H33.842V18.4215L33.8422 18.4367L37.342 18.4064ZM33.6024 24.1039L34.9669 27.327L34.9669 27.327L33.6024 24.1039ZM31.2587 24.5888V28.0888H31.2718L31.2849 28.0887L31.2587 24.5888ZM19.1063 24.5888V21.0888H19.0771L19.0479 21.0893L19.1063 24.5888ZM13.7835 26.8371L16.2515 29.3188L16.2515 29.3188L13.7835 26.8371ZM11.5057 32.1474L8.0066 32.0696L8.00574 32.1085V32.1474H11.5057ZM0.85656 31.5383L4.25984 30.7212L4.24362 30.6536L4.22472 30.5868L0.85656 31.5383ZM0.85656 19.1734L4.22472 20.1249L4.26585 19.9794L4.29426 19.8308L0.85656 19.1734ZM3.53087 14.7018L5.73641 17.4195L5.73641 17.4195L3.53087 14.7018ZM8.45713 13.005L8.39299 16.5044L8.42506 16.505H8.45713V13.005ZM18.3406 3.73036L18.3794 7.23015L18.3871 7.23006L18.3947 7.22994L18.3406 3.73036ZM19.6378 4.10313L17.734 7.04005L17.734 7.04006L19.6378 4.10313ZM16.7188 4.42155L14.2211 1.96965L14.2211 1.96965L16.7188 4.42155ZM16.0577 6.05586L19.5577 6.04526L19.5577 6.03761L19.5576 6.02996L16.0577 6.05586ZM16.4544 7.34589L13.5532 9.30372L13.5532 9.30372L16.4544 7.34589ZM18.8463 8.3195L19.5555 11.7469L19.5555 11.7469L18.8463 8.3195ZM20.0312 7.67322L17.5336 5.22132L17.5335 5.22133L20.0312 7.67322ZM20.6555 6.47661L24.0954 7.12231L24.0954 7.12231L20.6555 6.47661ZM20.5076 5.13508L23.7244 3.75582L23.7244 3.75581L20.5076 5.13508ZM38.8596 18.408L42.3594 18.447L42.3596 18.4275V18.408H38.8596ZM49.509 19.1721L46.1122 20.0157L46.1363 20.1128L46.1659 20.2084L49.509 19.1721ZM49.509 31.537L52.8305 32.6404L52.8416 32.607L52.852 32.5733L49.509 31.537ZM31.2591 50.0719L30.2857 46.71L30.2499 46.7204L30.2143 46.7315L31.2591 50.0719ZM19.1067 50.0719L20.1514 46.7315L20.123 46.7226L20.0944 46.7142L19.1067 50.0719ZM13.0233 32.3043L9.52334 32.2915V32.3043H13.0233ZM19.1067 26.1218V22.6218H19.072L19.0372 22.6225L19.1067 26.1218ZM31.2591 26.1218V29.6218H31.3044L31.3498 29.6206L31.2591 26.1218ZM36.6152 23.7979L39.1083 26.2545L39.1084 26.2544L36.6152 23.7979ZM32.0248 42.3429L32.045 45.8428L32.0619 45.8427L32.0789 45.8425L32.0248 42.3429ZM33.3234 42.7166L31.4174 45.6521L31.4174 45.6521L33.3234 42.7166ZM31.1466 42.5229L29.788 39.2974L29.7879 39.2974L31.1466 42.5229ZM30.4043 43.0254L27.9142 40.5659L27.9142 40.5659L30.4043 43.0254ZM29.911 43.7739L33.1531 45.0926L33.1531 45.0926L29.911 43.7739ZM29.7419 44.6542L33.2418 44.665L33.2419 44.648L33.2418 44.6311L29.7419 44.6542ZM30.1316 45.9481L27.22 47.8903L27.22 47.8903L30.1316 45.9481ZM31.1766 46.805L29.8422 50.0406L29.8422 50.0406L31.1766 46.805ZM32.5218 46.9338L33.2178 50.3639L33.2179 50.3639L32.5218 46.9338ZM33.7104 46.2908L36.2005 48.7503L36.2005 48.7503L33.7104 46.2908ZM34.3386 45.0944L30.9002 44.4407L30.9002 44.4408L34.3386 45.0944ZM34.1932 43.7509L37.4121 42.3765L37.4121 42.3765L34.1932 43.7509ZM24.9165 -3.49939C22.7718 -3.49708 20.631 -3.31433 18.5169 -2.95307L19.696 3.94691C21.4231 3.65179 23.1719 3.50249 24.9241 3.5006L24.9165 -3.49939ZM31.8234 -2.95685C29.535 -3.33098 27.2192 -3.51245 24.9005 -3.49934L24.9401 3.50055C26.8673 3.48965 28.792 3.64048 30.6939 3.95143L31.8234 -2.95685ZM37.9813 0.118723C36.2935 -1.63585 34.0384 -2.73532 31.6167 -2.98435L30.9006 3.97893C31.6753 4.05858 32.3966 4.41026 32.9364 4.97146L37.9813 0.118723ZM40.8349 6.59897C40.6801 4.16936 39.669 1.87329 37.9813 0.118723L32.9364 4.97146C33.4762 5.53266 33.7996 6.26704 33.8491 7.04413L40.8349 6.59897ZM40.842 18.4064V6.82155H33.842V18.4064H40.842ZM40.1397 22.07C40.6142 20.8968 40.8528 19.6416 40.8419 18.3762L33.8422 18.4367C33.8451 18.7822 33.78 19.125 33.6504 19.4453L40.1397 22.07ZM38.0766 25.2133C38.9641 24.3113 39.6652 23.2431 40.1397 22.07L33.6504 19.4453C33.5209 19.7657 33.3294 20.0574 33.087 20.3037L38.0766 25.2133ZM34.9669 27.327C36.1323 26.8336 37.189 26.1154 38.0766 25.2133L33.087 20.3037C32.8446 20.55 32.5561 20.7461 32.2378 20.8809L34.9669 27.327ZM31.2849 28.0887C32.5504 28.0792 33.8016 27.8203 34.9669 27.327L32.2379 20.8809C31.9196 21.0156 31.5779 21.0863 31.2324 21.0889L31.2849 28.0887ZM19.1063 28.0888H31.2587V21.0888H19.1063V28.0888ZM16.2515 29.3188C17.027 28.5476 18.0711 28.1066 19.1647 28.0883L19.0479 21.0893C16.1452 21.1377 13.374 22.3083 11.3155 24.3554L16.2515 29.3188ZM15.0049 32.2251C15.0292 31.1317 15.4759 30.0901 16.2515 29.3188L11.3155 24.3554C9.25696 26.4025 8.0711 29.1672 8.0066 32.0696L15.0049 32.2251ZM15.0057 33.5234V32.1474H8.00574V33.5234H15.0057ZM-2.54672 32.3554C-2.02094 34.5453 -1.06124 36.7342 0.584046 38.4187C2.30794 40.1838 4.61045 41.2067 7.32242 41.2067V34.2067C6.49875 34.2067 6.00072 33.9464 5.59179 33.5277C5.10425 33.0285 4.59885 32.1332 4.25984 30.7212L-2.54672 32.3554ZM-2.5116 18.2218C-3.82947 22.8865 -3.82947 27.8252 -2.5116 32.4899L4.22472 30.5868C3.25843 27.1664 3.25843 23.5453 4.22472 20.1249L-2.5116 18.2218ZM1.32533 11.9842C-0.706129 13.6328 -2.08973 15.9463 -2.58114 18.516L4.29426 19.8308C4.47568 18.8821 4.98645 18.0281 5.73641 17.4195L1.32533 11.9842ZM8.52127 9.50561C5.90544 9.45767 3.35678 10.3355 1.32533 11.9842L5.73641 17.4195C6.48637 16.8108 7.42727 16.4867 8.39299 16.5044L8.52127 9.50561ZM24.4166 9.50502H8.45713V16.505H24.4166V9.50502ZM17.6604 14.9585H24.4166V7.95852H17.6604V14.9585ZM18.4976 -2.9497C15.6844 -2.45271 13.1546 -1.56142 11.4711 0.412274C9.74559 2.43533 9.52312 4.87981 9.52312 6.82119H16.5231C16.5231 5.25173 16.768 4.98888 16.797 4.9549C16.8681 4.87157 17.38 4.35613 19.7154 3.94355L18.4976 -2.9497ZM18.3947 7.22994C18.1605 7.23357 17.9305 7.16747 17.734 7.04005L21.5416 1.1662C20.5733 0.538528 19.4402 0.212929 18.2865 0.23078L18.3947 7.22994ZM19.2164 6.87344C18.9956 7.09839 18.6946 7.22665 18.3794 7.23015L18.3018 0.230576C16.7651 0.247629 15.2977 0.872966 14.2211 1.96965L19.2164 6.87344ZM19.5576 6.02996C19.5599 6.34519 19.4372 6.64849 19.2164 6.87344L14.2211 1.96965C13.1445 3.06634 12.5464 4.54498 12.5578 6.08175L19.5576 6.02996ZM19.3556 5.38807C19.4866 5.58225 19.557 5.811 19.5577 6.04526L12.5577 6.06645C12.5612 7.22038 12.9077 8.34721 13.5532 9.30372L19.3556 5.38807ZM18.8218 4.95475C19.0387 5.04307 19.2246 5.19389 19.3556 5.38807L13.5532 9.30372C14.1987 10.2602 15.114 11.0032 16.1828 11.4382L18.8218 4.95475ZM18.1371 4.8921C18.3665 4.84464 18.6048 4.86645 18.8218 4.95475L16.1828 11.4382C17.2515 11.8733 18.4255 11.9807 19.5555 11.7469L18.1371 4.8921ZM17.5335 5.22133C17.6977 5.05415 17.9077 4.93956 18.1371 4.8921L19.5555 11.7469C20.6855 11.5131 21.7205 10.9486 22.5288 10.1251L17.5335 5.22133ZM17.2155 5.83091C17.2587 5.60067 17.3694 5.38848 17.5336 5.22132L22.5288 10.1251C23.3372 9.30166 23.8825 8.25644 24.0954 7.12231L17.2155 5.83091ZM17.2908 6.51434C17.1985 6.29905 17.1723 6.06116 17.2155 5.83091L24.0954 7.12231C24.3083 5.98818 24.1791 4.81637 23.7244 3.75582L17.2908 6.51434ZM17.734 7.04006C17.5374 6.91264 17.3832 6.72965 17.2908 6.51435L23.7244 3.75581C23.2697 2.69526 22.5098 1.79387 21.5416 1.1662L17.734 7.04006ZM35.3596 17.5713V18.408H42.3596V17.5713H35.3596ZM52.9058 18.3284C52.4105 16.3344 51.5994 14.1671 50.0957 12.4568C48.4669 10.6044 46.2094 9.50372 43.4256 9.50372V16.5037C44.1824 16.5037 44.5294 16.7272 44.8387 17.0789C45.2729 17.5728 45.7332 18.4897 46.1122 20.0157L52.9058 18.3284ZM52.852 32.5733C54.3097 27.8712 54.3097 22.8379 52.852 18.1357L46.1659 20.2084C47.2051 23.5605 47.2051 27.1486 46.1659 30.5007L52.852 32.5733ZM43.4256 41.2054C46.18 41.2054 48.3768 40.1687 49.9896 38.2871C51.4017 36.6396 52.2107 34.5063 52.8305 32.6404L46.1875 30.4336C45.5775 32.2696 45.1128 33.2205 44.6747 33.7317C44.5002 33.9352 44.3666 34.0216 44.2542 34.0724C44.1361 34.1258 43.8946 34.2054 43.4256 34.2054V41.2054ZM25.9627 41.2054H43.4256V34.2054H25.9627V41.2054ZM32.704 35.751H25.9627V42.751H32.704V35.751ZM32.2324 53.4339C34.0112 52.9189 36.077 52.0665 37.7544 50.5985C39.532 49.0428 40.8424 46.8029 40.8424 43.8894H33.8424C33.8424 44.4869 33.6426 44.8949 33.1444 45.3309C32.5458 45.8548 31.5699 46.3382 30.2857 46.71L32.2324 53.4339ZM18.062 53.4124C22.6985 54.8625 27.6673 54.8625 32.3038 53.4124L30.2143 46.7315C26.9383 47.7561 23.4275 47.7561 20.1514 46.7315L18.062 53.4124ZM9.52334 43.8894C9.52334 49.7056 14.6142 52.3988 18.1191 53.4297L20.0944 46.7142C18.786 46.3293 17.8053 45.8096 17.211 45.2703C16.693 44.8002 16.5233 44.3874 16.5233 43.8894H9.52334ZM9.52334 32.3043V43.8894H16.5233V32.3043H9.52334ZM12.311 25.5193C10.5332 27.3261 9.53269 29.7567 9.52337 32.2915L16.5233 32.3172C16.5259 31.6104 16.8049 30.9327 17.3006 30.4289L12.311 25.5193ZM19.0372 22.6225C16.5029 22.6728 14.0888 23.7125 12.311 25.5193L17.3006 30.4289C17.7964 29.925 18.4695 29.6351 19.1762 29.6211L19.0372 22.6225ZM31.2591 22.6218H19.1067V29.6218H31.2591V22.6218ZM34.1222 21.3414C33.3405 22.1347 32.2817 22.5941 31.1684 22.623L31.3498 29.6206C34.2741 29.5448 37.0552 28.3382 39.1083 26.2545L34.1222 21.3414ZM35.3598 18.3691C35.3475 19.4827 34.9038 20.5481 34.1221 21.3414L39.1084 26.2544C41.1615 24.1707 42.3269 21.3721 42.3594 18.447L35.3598 18.3691ZM32.0789 45.8425C31.8444 45.8461 31.6141 45.7798 31.4174 45.6521L35.2295 39.7811C34.2604 39.1519 33.1259 38.8254 31.9706 38.8433L32.0789 45.8425ZM32.5053 45.7484C32.3595 45.8099 32.2031 45.8419 32.045 45.8428L32.0045 38.8429C31.243 38.8473 30.4898 39.0017 29.788 39.2974L32.5053 45.7484ZM32.8944 45.485C32.7833 45.5975 32.6511 45.687 32.5053 45.7484L29.7879 39.2974C29.0861 39.593 28.4494 40.0241 27.9142 40.5659L32.8944 45.485ZM33.1531 45.0926C33.0935 45.2391 33.0056 45.3725 32.8945 45.485L27.9142 40.5659C27.3791 41.1077 26.9559 41.7497 26.669 42.4552L33.1531 45.0926ZM33.2418 44.6311C33.2428 44.7892 33.2127 44.9461 33.1531 45.0926L26.669 42.4552C26.382 43.1606 26.2369 43.9157 26.2419 44.6773L33.2418 44.6311ZM33.0433 44.0059C33.1734 44.201 33.2426 44.4304 33.2418 44.665L26.2419 44.6433C26.2383 45.7988 26.5788 46.9291 27.22 47.8903L33.0433 44.0059ZM32.511 43.5693C32.7278 43.6588 32.9131 43.8107 33.0433 44.0058L27.22 47.8903C27.8612 48.8516 28.774 49.6001 29.8422 50.0406L32.511 43.5693ZM31.8257 43.5037C32.0556 43.4571 32.2941 43.4799 32.511 43.5693L29.8422 50.0406C30.9104 50.4811 32.0855 50.5937 33.2178 50.3639L31.8257 43.5037ZM31.2203 43.8312C31.3851 43.6644 31.5959 43.5504 31.8257 43.5037L33.2179 50.3639C34.3502 50.1341 35.3885 49.5724 36.2005 48.7503L31.2203 43.8312ZM30.9002 44.4408C30.944 44.2103 31.0554 43.9982 31.2203 43.8313L36.2005 48.7503C37.0125 47.9283 37.5613 46.8831 37.7771 45.748L30.9002 44.4408ZM30.9743 45.1252C30.8822 44.9095 30.8564 44.6712 30.9002 44.4407L37.7771 45.748C37.9928 44.6129 37.8658 43.4392 37.4121 42.3765L30.9743 45.1252ZM31.4174 45.6521C31.2206 45.5243 31.0664 45.3409 30.9743 45.1252L37.4121 42.3765C36.9584 41.3139 36.1985 40.4104 35.2295 39.7811L31.4174 45.6521ZM21.6899 38.4782C21.6899 40.838 23.6029 42.751 25.9627 42.751V35.751C27.4689 35.751 28.6899 36.972 28.6899 38.4782H21.6899ZM25.9627 34.2054C23.6029 34.2054 21.6899 36.1184 21.6899 38.4782H28.6899C28.6899 39.9844 27.4689 41.2054 25.9627 41.2054V34.2054ZM17.6604 7.95852C17.0323 7.95852 16.5231 7.44932 16.5231 6.82119H9.52312C9.52312 11.3153 13.1663 14.9585 17.6604 14.9585V7.95852ZM28.6899 12.2318C28.6899 9.87172 26.7767 7.95852 24.4166 7.95852V14.9585C22.9107 14.9585 21.6899 13.7377 21.6899 12.2318H28.6899ZM32.704 42.751C33.3327 42.751 33.8424 43.2606 33.8424 43.8894H40.8424C40.8424 39.3947 37.1987 35.751 32.704 35.751V42.751ZM24.4166 16.505C26.7767 16.505 28.6899 14.5918 28.6899 12.2318H21.6899C21.6899 10.7258 22.9107 9.50502 24.4166 9.50502V16.505ZM42.3596 17.5713C42.3596 16.9819 42.8374 16.5039 43.4269 16.5037L43.4244 9.50372C38.9699 9.50532 35.3596 13.1168 35.3596 17.5713H42.3596ZM8.00574 33.5234C8.00574 33.9007 7.6998 34.2067 7.32242 34.2067V41.2067C11.5658 41.2067 15.0057 37.7667 15.0057 33.5234H8.00574Z" fill="black" mask="url(#path-1-inside-1_32_132)"/>
</svg>
