<svg width="52" height="39" viewBox="0 0 52 39" fill="none" xmlns="http://www.w3.org/2000/svg">
<path d="M30.8749 38.4999C26.4622 38.4999 22.5886 35.4195 17.2234 31.1564C13.6134 28.2874 5.33418 27.3065 4.03743 28.3206L0.695801 24.9458C5.57168 20.0675 8.51668 17.1249 14.2499 17.1249C21.4177 17.1249 26.6332 21.1339 30.8251 24.3591C32.1408 25.3685 33.3829 26.3233 34.4517 26.9526C35.2639 27.43 37 27.981 38.4535 27.5535C39.3822 27.2804 40.0899 26.6273 40.6243 25.5633L44.98 27.4371C42.4625 34.365 37.1901 38.4999 30.8749 38.4999ZM5.5 24.4999C7.5 23.9999 17 26.4999 19.5 28.3206C25 31.9999 28.8733 34.9999 31.5 34.9999C35.5 34.9999 38.3681 31.4309 39.8097 30.4999C38.3586 30.2695 35 31.4999 32.0553 29.4999C30.7324 28.7209 29.4345 28.0546 28 26.9526C24.1858 24.0219 20.5504 20.4999 15 20.4999C13.1332 20.4999 8 20.9999 5.5 24.4999Z" fill="black"/>
<path d="M30.8749 38.4999C26.4622 38.4999 22.5886 35.4195 17.2234 31.1564C13.6134 28.2874 5.33418 27.3065 4.03743 28.3206L0.695801 24.9458C5.57168 20.0675 8.51668 17.1249 14.2499 17.1249C21.4177 17.1249 26.6332 21.1339 30.8251 24.3591C32.1408 25.3685 33.3829 26.3233 34.4517 26.9526C35.2639 27.43 37 27.981 38.4535 27.5535C39.3822 27.2804 40.0899 26.6273 40.6243 25.5633L44.98 27.4371C42.4625 34.365 37.1901 38.4999 30.8749 38.4999ZM5.5 24.4999C7.5 23.9999 17 26.4999 19.5 28.3206C25 31.9999 28.8733 34.9999 31.5 34.9999C35.5 34.9999 38.3681 31.4309 39.8097 30.4999C38.3586 30.2695 35 31.4999 32.0553 29.4999C30.7324 28.7209 29.4345 28.0546 28 26.9526C24.1858 24.0219 20.5504 20.4999 15 20.4999C13.1332 20.4999 8 20.9999 5.5 24.4999Z" fill="black"/>
<path d="M37.3949 21.5C32.9821 21.5 29.1085 18.4196 23.7434 14.1565C20.1334 11.2875 11.8541 10.3066 10.5574 11.3207L7.21575 7.94587C12.0916 3.06762 15.0366 0.125 20.7699 0.125C27.9376 0.125 33.1531 4.134 37.345 7.35925C38.6608 8.36862 39.9029 9.32337 40.9716 9.95275C41.7839 10.4301 43.52 10.9811 44.9735 10.5536C45.9021 10.2805 46.6099 9.62737 47.1443 8.56337L51.5 10.4372C48.9825 17.3651 43.71 21.5 37.3949 21.5ZM12.02 7.5C14.02 7 23.52 9.5 26.02 11.3207C31.52 15 35.3932 18 38.02 18C42.02 18 44.888 14.431 46.3296 13.5C44.8785 13.2696 41.5199 14.5 38.5752 12.5C37.2524 11.721 35.9545 11.0547 34.52 9.95275C30.7057 7.022 27.0703 3.5 21.52 3.5C19.6532 3.5 14.52 4 12.02 7.5Z" fill="black"/>
<path d="M37.3949 21.5C32.9821 21.5 29.1085 18.4196 23.7434 14.1565C20.1334 11.2875 11.8541 10.3066 10.5574 11.3207L7.21575 7.94587C12.0916 3.06762 15.0366 0.125 20.7699 0.125C27.9376 0.125 33.1531 4.134 37.345 7.35925C38.6608 8.36862 39.9029 9.32337 40.9716 9.95275C41.7839 10.4301 43.52 10.9811 44.9735 10.5536C45.9021 10.2805 46.6099 9.62737 47.1443 8.56337L51.5 10.4372C48.9825 17.3651 43.71 21.5 37.3949 21.5ZM12.02 7.5C14.02 7 23.52 9.5 26.02 11.3207C31.52 15 35.3932 18 38.02 18C42.02 18 44.888 14.431 46.3296 13.5C44.8785 13.2696 41.5199 14.5 38.5752 12.5C37.2524 11.721 35.9545 11.0547 34.52 9.95275C30.7057 7.022 27.0703 3.5 21.52 3.5C19.6532 3.5 14.52 4 12.02 7.5Z" fill="black"/>
</svg>
