<svg width="1028" height="294" viewBox="0 0 1028 294" fill="none" xmlns="http://www.w3.org/2000/svg">
<rect x="1" y="1" width="1026" height="292" rx="9" fill="white" stroke="black" stroke-width="2"/>
<path d="M102.068 265.144C101.004 265.144 100.176 264.784 99.584 264.064C98.992 263.336 98.696 262.268 98.696 260.86C98.696 259.452 98.992 258.372 99.584 257.62C100.176 256.86 101.004 256.48 102.068 256.48C102.772 256.48 103.36 256.64 103.832 256.96C104.312 257.28 104.684 257.732 104.948 258.316L104.132 258.808C103.964 258.376 103.708 258.032 103.364 257.776C103.02 257.512 102.588 257.38 102.068 257.38C101.708 257.38 101.384 257.448 101.096 257.584C100.816 257.72 100.576 257.916 100.376 258.172C100.184 258.42 100.036 258.72 99.932 259.072C99.828 259.416 99.776 259.804 99.776 260.236V261.484C99.776 262.348 99.976 263.024 100.376 263.512C100.776 264 101.34 264.244 102.068 264.244C102.604 264.244 103.052 264.108 103.412 263.836C103.772 263.556 104.036 263.188 104.204 262.732L105.008 263.236C104.744 263.828 104.364 264.296 103.868 264.64C103.372 264.976 102.772 265.144 102.068 265.144ZM110.289 263.992H110.241C110.177 264.136 110.097 264.28 110.001 264.424C109.913 264.56 109.801 264.684 109.665 264.796C109.529 264.9 109.365 264.984 109.173 265.048C108.981 265.112 108.757 265.144 108.501 265.144C107.861 265.144 107.353 264.94 106.977 264.532C106.601 264.116 106.413 263.532 106.413 262.78V258.808H107.373V262.612C107.373 263.724 107.845 264.28 108.789 264.28C108.981 264.28 109.165 264.256 109.341 264.208C109.525 264.16 109.685 264.088 109.821 263.992C109.965 263.896 110.077 263.776 110.157 263.632C110.245 263.48 110.289 263.3 110.289 263.092V258.808H111.249V265H110.289V263.992ZM115.153 265.144C114.577 265.144 114.093 265.036 113.701 264.82C113.317 264.596 112.985 264.3 112.705 263.932L113.389 263.38C113.629 263.684 113.897 263.92 114.193 264.088C114.489 264.248 114.833 264.328 115.225 264.328C115.633 264.328 115.949 264.24 116.173 264.064C116.405 263.888 116.521 263.64 116.521 263.32C116.521 263.08 116.441 262.876 116.281 262.708C116.129 262.532 115.849 262.412 115.441 262.348L114.949 262.276C114.661 262.236 114.397 262.176 114.157 262.096C113.917 262.008 113.705 261.896 113.521 261.76C113.345 261.616 113.205 261.44 113.101 261.232C113.005 261.024 112.957 260.776 112.957 260.488C112.957 260.184 113.013 259.92 113.125 259.696C113.237 259.464 113.389 259.272 113.581 259.12C113.781 258.968 114.017 258.856 114.289 258.784C114.561 258.704 114.853 258.664 115.165 258.664C115.669 258.664 116.089 258.752 116.425 258.928C116.769 259.104 117.069 259.348 117.325 259.66L116.689 260.236C116.553 260.044 116.353 259.872 116.089 259.72C115.825 259.56 115.493 259.48 115.093 259.48C114.693 259.48 114.389 259.568 114.181 259.744C113.981 259.912 113.881 260.144 113.881 260.44C113.881 260.744 113.981 260.964 114.181 261.1C114.389 261.236 114.685 261.336 115.069 261.4L115.549 261.472C116.237 261.576 116.725 261.776 117.013 262.072C117.301 262.36 117.445 262.74 117.445 263.212C117.445 263.812 117.241 264.284 116.833 264.628C116.425 264.972 115.865 265.144 115.153 265.144ZM120.427 265C120.091 265 119.835 264.908 119.659 264.724C119.491 264.532 119.407 264.284 119.407 263.98V259.648H118.387V258.808H118.963C119.171 258.808 119.311 258.768 119.383 258.688C119.463 258.6 119.503 258.452 119.503 258.244V257.092H120.367V258.808H121.723V259.648H120.367V264.16H121.627V265H120.427ZM125.559 265.144C125.143 265.144 124.763 265.068 124.419 264.916C124.075 264.764 123.779 264.548 123.531 264.268C123.291 263.98 123.103 263.64 122.967 263.248C122.831 262.848 122.763 262.4 122.763 261.904C122.763 261.416 122.831 260.972 122.967 260.572C123.103 260.172 123.291 259.832 123.531 259.552C123.779 259.264 124.075 259.044 124.419 258.892C124.763 258.74 125.143 258.664 125.559 258.664C125.975 258.664 126.351 258.74 126.687 258.892C127.031 259.044 127.327 259.264 127.575 259.552C127.823 259.832 128.015 260.172 128.151 260.572C128.287 260.972 128.355 261.416 128.355 261.904C128.355 262.4 128.287 262.848 128.151 263.248C128.015 263.64 127.823 263.98 127.575 264.268C127.327 264.548 127.031 264.764 126.687 264.916C126.351 265.068 125.975 265.144 125.559 265.144ZM125.559 264.292C126.079 264.292 126.503 264.132 126.831 263.812C127.159 263.492 127.323 263.004 127.323 262.348V261.46C127.323 260.804 127.159 260.316 126.831 259.996C126.503 259.676 126.079 259.516 125.559 259.516C125.039 259.516 124.615 259.676 124.287 259.996C123.959 260.316 123.795 260.804 123.795 261.46V262.348C123.795 263.004 123.959 263.492 124.287 263.812C124.615 264.132 125.039 264.292 125.559 264.292ZM129.934 265V258.808H130.894V259.816H130.942C131.014 259.656 131.094 259.508 131.182 259.372C131.278 259.228 131.39 259.104 131.518 259C131.654 258.896 131.81 258.816 131.986 258.76C132.162 258.696 132.37 258.664 132.61 258.664C133.018 258.664 133.394 258.764 133.738 258.964C134.082 259.156 134.338 259.476 134.506 259.924H134.53C134.642 259.588 134.85 259.296 135.154 259.048C135.466 258.792 135.886 258.664 136.414 258.664C137.046 258.664 137.538 258.872 137.89 259.288C138.25 259.696 138.43 260.276 138.43 261.028V265H137.47V261.196C137.47 260.644 137.362 260.228 137.146 259.948C136.93 259.668 136.586 259.528 136.114 259.528C135.922 259.528 135.738 259.552 135.562 259.6C135.394 259.648 135.242 259.72 135.106 259.816C134.97 259.912 134.862 260.036 134.782 260.188C134.702 260.332 134.662 260.504 134.662 260.704V265H133.702V261.196C133.702 260.644 133.594 260.228 133.378 259.948C133.162 259.668 132.826 259.528 132.37 259.528C132.178 259.528 131.994 259.552 131.818 259.6C131.642 259.648 131.486 259.72 131.35 259.816C131.214 259.912 131.102 260.036 131.014 260.188C130.934 260.332 130.894 260.504 130.894 260.704V265H129.934ZM145.107 265.144C144.531 265.144 144.047 265.036 143.655 264.82C143.271 264.596 142.939 264.3 142.659 263.932L143.343 263.38C143.583 263.684 143.851 263.92 144.147 264.088C144.443 264.248 144.787 264.328 145.179 264.328C145.587 264.328 145.903 264.24 146.127 264.064C146.359 263.888 146.475 263.64 146.475 263.32C146.475 263.08 146.395 262.876 146.235 262.708C146.083 262.532 145.803 262.412 145.395 262.348L144.903 262.276C144.615 262.236 144.351 262.176 144.111 262.096C143.871 262.008 143.659 261.896 143.475 261.76C143.299 261.616 143.159 261.44 143.055 261.232C142.959 261.024 142.911 260.776 142.911 260.488C142.911 260.184 142.967 259.92 143.079 259.696C143.191 259.464 143.343 259.272 143.535 259.12C143.735 258.968 143.971 258.856 144.243 258.784C144.515 258.704 144.807 258.664 145.119 258.664C145.623 258.664 146.043 258.752 146.379 258.928C146.723 259.104 147.023 259.348 147.279 259.66L146.643 260.236C146.507 260.044 146.307 259.872 146.043 259.72C145.779 259.56 145.447 259.48 145.047 259.48C144.647 259.48 144.343 259.568 144.135 259.744C143.935 259.912 143.835 260.144 143.835 260.44C143.835 260.744 143.935 260.964 144.135 261.1C144.343 261.236 144.639 261.336 145.023 261.4L145.503 261.472C146.191 261.576 146.679 261.776 146.967 262.072C147.255 262.36 147.399 262.74 147.399 263.212C147.399 263.812 147.195 264.284 146.787 264.628C146.379 264.972 145.819 265.144 145.107 265.144ZM150.38 265C150.044 265 149.788 264.908 149.612 264.724C149.444 264.532 149.36 264.284 149.36 263.98V259.648H148.34V258.808H148.916C149.124 258.808 149.264 258.768 149.336 258.688C149.416 258.6 149.456 258.452 149.456 258.244V257.092H150.32V258.808H151.676V259.648H150.32V264.16H151.58V265H150.38ZM157.035 258.808H157.983L155.211 266.44C155.139 266.624 155.067 266.776 154.995 266.896C154.923 267.024 154.835 267.124 154.731 267.196C154.627 267.268 154.495 267.32 154.335 267.352C154.183 267.384 153.995 267.4 153.771 267.4H153.279V266.56H154.251L154.719 265.24L152.403 258.808H153.363L154.851 263.02L155.139 264.028H155.199L155.535 263.02L157.035 258.808ZM160.228 265C159.892 265 159.636 264.908 159.46 264.724C159.292 264.532 159.208 264.292 159.208 264.004V256.12H160.168V264.16H161.08V265H160.228ZM162.957 257.356C162.749 257.356 162.597 257.308 162.501 257.212C162.413 257.108 162.369 256.976 162.369 256.816V256.66C162.369 256.5 162.413 256.372 162.501 256.276C162.597 256.172 162.749 256.12 162.957 256.12C163.165 256.12 163.313 256.172 163.401 256.276C163.497 256.372 163.545 256.5 163.545 256.66V256.816C163.545 256.976 163.497 257.108 163.401 257.212C163.313 257.308 163.165 257.356 162.957 257.356ZM162.477 258.808H163.437V265H162.477V258.808ZM165.477 265V258.808H166.437V259.816H166.485C166.637 259.464 166.849 259.184 167.121 258.976C167.401 258.768 167.773 258.664 168.237 258.664C168.877 258.664 169.381 258.872 169.749 259.288C170.125 259.696 170.313 260.276 170.313 261.028V265H169.353V261.196C169.353 260.084 168.885 259.528 167.949 259.528C167.757 259.528 167.569 259.552 167.385 259.6C167.209 259.648 167.049 259.72 166.905 259.816C166.761 259.912 166.645 260.036 166.557 260.188C166.477 260.332 166.437 260.504 166.437 260.704V265H165.477ZM177.517 265.684C177.517 266.324 177.265 266.792 176.761 267.088C176.265 267.392 175.517 267.544 174.517 267.544C173.549 267.544 172.853 267.412 172.429 267.148C172.005 266.884 171.793 266.508 171.793 266.02C171.793 265.684 171.881 265.42 172.057 265.228C172.233 265.044 172.473 264.908 172.777 264.82V264.688C172.409 264.512 172.225 264.224 172.225 263.824C172.225 263.512 172.325 263.276 172.525 263.116C172.725 262.948 172.981 262.824 173.293 262.744V262.696C172.925 262.52 172.637 262.268 172.429 261.94C172.229 261.612 172.129 261.232 172.129 260.8C172.129 260.488 172.185 260.2 172.297 259.936C172.409 259.672 172.565 259.448 172.765 259.264C172.973 259.072 173.217 258.924 173.497 258.82C173.785 258.716 174.105 258.664 174.457 258.664C174.897 258.664 175.289 258.744 175.633 258.904V258.796C175.633 258.556 175.689 258.36 175.801 258.208C175.913 258.048 176.097 257.968 176.353 257.968H177.277V258.808H176.101V259.204C176.325 259.396 176.497 259.628 176.617 259.9C176.745 260.164 176.809 260.464 176.809 260.8C176.809 261.112 176.753 261.4 176.641 261.664C176.529 261.928 176.369 262.156 176.161 262.348C175.961 262.532 175.717 262.676 175.429 262.78C175.141 262.884 174.821 262.936 174.469 262.936C174.269 262.936 174.069 262.916 173.869 262.876C173.661 262.932 173.473 263.016 173.305 263.128C173.137 263.232 173.053 263.38 173.053 263.572C173.053 263.756 173.141 263.88 173.317 263.944C173.493 264.008 173.721 264.04 174.001 264.04H175.321C176.089 264.04 176.645 264.188 176.989 264.484C177.341 264.772 177.517 265.172 177.517 265.684ZM176.617 265.756C176.617 265.508 176.521 265.308 176.329 265.156C176.145 265.012 175.813 264.94 175.333 264.94H173.269C172.885 265.116 172.693 265.396 172.693 265.78C172.693 266.052 172.793 266.284 172.993 266.476C173.201 266.668 173.549 266.764 174.037 266.764H174.925C175.461 266.764 175.877 266.68 176.173 266.512C176.469 266.344 176.617 266.092 176.617 265.756ZM174.469 262.168C174.877 262.168 175.201 262.072 175.441 261.88C175.681 261.68 175.801 261.376 175.801 260.968V260.632C175.801 260.224 175.681 259.924 175.441 259.732C175.201 259.532 174.877 259.432 174.469 259.432C174.061 259.432 173.737 259.532 173.497 259.732C173.257 259.924 173.137 260.224 173.137 260.632V260.968C173.137 261.376 173.257 261.68 173.497 261.88C173.737 262.072 174.061 262.168 174.469 262.168ZM183.813 265.144C183.397 265.144 183.017 265.068 182.673 264.916C182.329 264.764 182.033 264.548 181.785 264.268C181.545 263.98 181.357 263.64 181.221 263.248C181.085 262.848 181.017 262.4 181.017 261.904C181.017 261.416 181.085 260.972 181.221 260.572C181.357 260.172 181.545 259.832 181.785 259.552C182.033 259.264 182.329 259.044 182.673 258.892C183.017 258.74 183.397 258.664 183.813 258.664C184.229 258.664 184.605 258.74 184.941 258.892C185.285 259.044 185.581 259.264 185.829 259.552C186.077 259.832 186.269 260.172 186.405 260.572C186.541 260.972 186.609 261.416 186.609 261.904C186.609 262.4 186.541 262.848 186.405 263.248C186.269 263.64 186.077 263.98 185.829 264.268C185.581 264.548 185.285 264.764 184.941 264.916C184.605 265.068 184.229 265.144 183.813 265.144ZM183.813 264.292C184.333 264.292 184.757 264.132 185.085 263.812C185.413 263.492 185.577 263.004 185.577 262.348V261.46C185.577 260.804 185.413 260.316 185.085 259.996C184.757 259.676 184.333 259.516 183.813 259.516C183.293 259.516 182.869 259.676 182.541 259.996C182.213 260.316 182.049 260.804 182.049 261.46V262.348C182.049 263.004 182.213 263.492 182.541 263.812C182.869 264.132 183.293 264.292 183.813 264.292ZM188.188 258.808H189.148V259.816H189.196C189.356 259.424 189.588 259.136 189.892 258.952C190.204 258.76 190.576 258.664 191.008 258.664C191.392 258.664 191.74 258.74 192.052 258.892C192.364 259.044 192.628 259.26 192.844 259.54C193.068 259.82 193.236 260.16 193.348 260.56C193.468 260.96 193.528 261.408 193.528 261.904C193.528 262.4 193.468 262.848 193.348 263.248C193.236 263.648 193.068 263.988 192.844 264.268C192.628 264.548 192.364 264.764 192.052 264.916C191.74 265.068 191.392 265.144 191.008 265.144C190.168 265.144 189.564 264.76 189.196 263.992H189.148V267.4H188.188V258.808ZM190.744 264.28C191.288 264.28 191.716 264.112 192.028 263.776C192.34 263.432 192.496 262.984 192.496 262.432V261.376C192.496 260.824 192.34 260.38 192.028 260.044C191.716 259.7 191.288 259.528 190.744 259.528C190.528 259.528 190.32 259.56 190.12 259.624C189.928 259.68 189.76 259.76 189.616 259.864C189.472 259.968 189.356 260.096 189.268 260.248C189.188 260.392 189.148 260.548 189.148 260.716V263.02C189.148 263.22 189.188 263.4 189.268 263.56C189.356 263.712 189.472 263.844 189.616 263.956C189.76 264.06 189.928 264.14 190.12 264.196C190.32 264.252 190.528 264.28 190.744 264.28ZM196.447 265C196.111 265 195.855 264.908 195.679 264.724C195.511 264.532 195.427 264.284 195.427 263.98V259.648H194.407V258.808H194.983C195.191 258.808 195.331 258.768 195.403 258.688C195.483 258.6 195.523 258.452 195.523 258.244V257.092H196.387V258.808H197.743V259.648H196.387V264.16H197.647V265H196.447ZM199.766 257.356C199.558 257.356 199.406 257.308 199.31 257.212C199.222 257.108 199.178 256.976 199.178 256.816V256.66C199.178 256.5 199.222 256.372 199.31 256.276C199.406 256.172 199.558 256.12 199.766 256.12C199.974 256.12 200.122 256.172 200.21 256.276C200.306 256.372 200.354 256.5 200.354 256.66V256.816C200.354 256.976 200.306 257.108 200.21 257.212C200.122 257.308 199.974 257.356 199.766 257.356ZM199.286 258.808H200.246V265H199.286V258.808ZM204.626 265.144C204.21 265.144 203.83 265.068 203.486 264.916C203.142 264.764 202.846 264.548 202.598 264.268C202.358 263.98 202.17 263.64 202.034 263.248C201.898 262.848 201.83 262.4 201.83 261.904C201.83 261.416 201.898 260.972 202.034 260.572C202.17 260.172 202.358 259.832 202.598 259.552C202.846 259.264 203.142 259.044 203.486 258.892C203.83 258.74 204.21 258.664 204.626 258.664C205.042 258.664 205.418 258.74 205.754 258.892C206.098 259.044 206.394 259.264 206.642 259.552C206.89 259.832 207.082 260.172 207.218 260.572C207.354 260.972 207.422 261.416 207.422 261.904C207.422 262.4 207.354 262.848 207.218 263.248C207.082 263.64 206.89 263.98 206.642 264.268C206.394 264.548 206.098 264.764 205.754 264.916C205.418 265.068 205.042 265.144 204.626 265.144ZM204.626 264.292C205.146 264.292 205.57 264.132 205.898 263.812C206.226 263.492 206.39 263.004 206.39 262.348V261.46C206.39 260.804 206.226 260.316 205.898 259.996C205.57 259.676 205.146 259.516 204.626 259.516C204.106 259.516 203.682 259.676 203.354 259.996C203.026 260.316 202.862 260.804 202.862 261.46V262.348C202.862 263.004 203.026 263.492 203.354 263.812C203.682 264.132 204.106 264.292 204.626 264.292ZM209 265V258.808H209.96V259.816H210.008C210.16 259.464 210.372 259.184 210.644 258.976C210.924 258.768 211.296 258.664 211.76 258.664C212.4 258.664 212.904 258.872 213.272 259.288C213.648 259.696 213.836 260.276 213.836 261.028V265H212.876V261.196C212.876 260.084 212.408 259.528 211.472 259.528C211.28 259.528 211.092 259.552 210.908 259.6C210.732 259.648 210.572 259.72 210.428 259.816C210.284 259.912 210.168 260.036 210.08 260.188C210 260.332 209.96 260.504 209.96 260.704V265H209ZM217.681 265.144C217.105 265.144 216.621 265.036 216.229 264.82C215.845 264.596 215.513 264.3 215.233 263.932L215.917 263.38C216.157 263.684 216.425 263.92 216.721 264.088C217.017 264.248 217.361 264.328 217.753 264.328C218.161 264.328 218.477 264.24 218.701 264.064C218.933 263.888 219.049 263.64 219.049 263.32C219.049 263.08 218.969 262.876 218.809 262.708C218.657 262.532 218.377 262.412 217.969 262.348L217.477 262.276C217.189 262.236 216.925 262.176 216.685 262.096C216.445 262.008 216.233 261.896 216.049 261.76C215.873 261.616 215.733 261.44 215.629 261.232C215.533 261.024 215.485 260.776 215.485 260.488C215.485 260.184 215.541 259.92 215.653 259.696C215.765 259.464 215.917 259.272 216.109 259.12C216.309 258.968 216.545 258.856 216.817 258.784C217.089 258.704 217.381 258.664 217.693 258.664C218.197 258.664 218.617 258.752 218.953 258.928C219.297 259.104 219.597 259.348 219.853 259.66L219.217 260.236C219.081 260.044 218.881 259.872 218.617 259.72C218.353 259.56 218.021 259.48 217.621 259.48C217.221 259.48 216.917 259.568 216.709 259.744C216.509 259.912 216.409 260.144 216.409 260.44C216.409 260.744 216.509 260.964 216.709 261.1C216.917 261.236 217.213 261.336 217.597 261.4L218.077 261.472C218.765 261.576 219.253 261.776 219.541 262.072C219.829 262.36 219.973 262.74 219.973 263.212C219.973 263.812 219.769 264.284 219.361 264.628C218.953 264.972 218.393 265.144 217.681 265.144Z" fill="black"/>
<path d="M846.116 265V256.624H849.452C850.204 256.624 850.78 256.84 851.18 257.272C851.588 257.696 851.792 258.28 851.792 259.024C851.792 259.768 851.588 260.356 851.18 260.788C850.78 261.212 850.204 261.424 849.452 261.424H847.124V265H846.116ZM847.124 260.536H849.452C849.852 260.536 850.16 260.432 850.376 260.224C850.6 260.016 850.712 259.72 850.712 259.336V258.712C850.712 258.328 850.6 258.032 850.376 257.824C850.16 257.616 849.852 257.512 849.452 257.512H847.124V260.536ZM855.391 265.144C854.967 265.144 854.583 265.068 854.239 264.916C853.903 264.764 853.611 264.548 853.363 264.268C853.123 263.98 852.935 263.64 852.799 263.248C852.671 262.848 852.607 262.4 852.607 261.904C852.607 261.416 852.671 260.972 852.799 260.572C852.935 260.172 853.123 259.832 853.363 259.552C853.611 259.264 853.903 259.044 854.239 258.892C854.583 258.74 854.967 258.664 855.391 258.664C855.807 258.664 856.179 258.74 856.507 258.892C856.835 259.044 857.115 259.256 857.347 259.528C857.579 259.792 857.755 260.108 857.875 260.476C858.003 260.844 858.067 261.248 858.067 261.688V262.144H853.615V262.432C853.615 262.696 853.655 262.944 853.735 263.176C853.823 263.4 853.943 263.596 854.095 263.764C854.255 263.932 854.447 264.064 854.671 264.16C854.903 264.256 855.163 264.304 855.451 264.304C855.843 264.304 856.183 264.212 856.471 264.028C856.767 263.844 856.995 263.58 857.155 263.236L857.839 263.728C857.639 264.152 857.327 264.496 856.903 264.76C856.479 265.016 855.975 265.144 855.391 265.144ZM855.391 259.468C855.127 259.468 854.887 259.516 854.671 259.612C854.455 259.7 854.267 259.828 854.107 259.996C853.955 260.164 853.835 260.364 853.747 260.596C853.659 260.82 853.615 261.068 853.615 261.34V261.424H857.035V261.292C857.035 260.74 856.883 260.3 856.579 259.972C856.283 259.636 855.887 259.468 855.391 259.468ZM859.649 265V258.808H860.609V259.948H860.669C860.781 259.652 860.981 259.388 861.269 259.156C861.557 258.924 861.953 258.808 862.457 258.808H862.829V259.768H862.265C861.745 259.768 861.337 259.868 861.041 260.068C860.753 260.26 860.609 260.504 860.609 260.8V265H859.649ZM863.629 261.868V260.836H866.761V261.868H863.629ZM867.919 258.808H868.855L869.515 261.484L870.175 264.196H870.199L870.955 261.484L871.735 258.808H872.587L873.391 261.484L874.159 264.196H874.183L874.819 261.484L875.491 258.808H876.391L874.747 265H873.559L872.695 262.024L872.155 260.14H872.131L871.603 262.024L870.739 265H869.575L867.919 258.808ZM878.258 257.356C878.05 257.356 877.898 257.308 877.802 257.212C877.714 257.108 877.67 256.976 877.67 256.816V256.66C877.67 256.5 877.714 256.372 877.802 256.276C877.898 256.172 878.05 256.12 878.258 256.12C878.466 256.12 878.614 256.172 878.702 256.276C878.798 256.372 878.846 256.5 878.846 256.66V256.816C878.846 256.976 878.798 257.108 878.702 257.212C878.614 257.308 878.466 257.356 878.258 257.356ZM877.778 258.808H878.738V265H877.778V258.808ZM884.738 263.992H884.69C884.314 264.76 883.71 265.144 882.878 265.144C882.494 265.144 882.146 265.068 881.834 264.916C881.522 264.764 881.254 264.548 881.03 264.268C880.814 263.988 880.646 263.648 880.526 263.248C880.414 262.848 880.358 262.4 880.358 261.904C880.358 261.408 880.414 260.96 880.526 260.56C880.646 260.16 880.814 259.82 881.03 259.54C881.254 259.26 881.522 259.044 881.834 258.892C882.146 258.74 882.494 258.664 882.878 258.664C883.31 258.664 883.678 258.76 883.982 258.952C884.294 259.136 884.53 259.424 884.69 259.816H884.738V256.12H885.698V265H884.738V263.992ZM883.142 264.28C883.358 264.28 883.562 264.252 883.754 264.196C883.954 264.14 884.126 264.06 884.27 263.956C884.414 263.844 884.526 263.712 884.606 263.56C884.694 263.4 884.738 263.22 884.738 263.02V260.716C884.738 260.548 884.694 260.392 884.606 260.248C884.526 260.096 884.414 259.968 884.27 259.864C884.126 259.76 883.954 259.68 883.754 259.624C883.562 259.56 883.358 259.528 883.142 259.528C882.598 259.528 882.17 259.7 881.858 260.044C881.546 260.38 881.39 260.824 881.39 261.376V262.432C881.39 262.984 881.546 263.432 881.858 263.776C882.17 264.112 882.598 264.28 883.142 264.28ZM892.959 265.684C892.959 266.324 892.707 266.792 892.203 267.088C891.707 267.392 890.959 267.544 889.959 267.544C888.991 267.544 888.295 267.412 887.871 267.148C887.447 266.884 887.235 266.508 887.235 266.02C887.235 265.684 887.323 265.42 887.499 265.228C887.675 265.044 887.915 264.908 888.219 264.82V264.688C887.851 264.512 887.667 264.224 887.667 263.824C887.667 263.512 887.767 263.276 887.967 263.116C888.167 262.948 888.423 262.824 888.735 262.744V262.696C888.367 262.52 888.079 262.268 887.871 261.94C887.671 261.612 887.571 261.232 887.571 260.8C887.571 260.488 887.627 260.2 887.739 259.936C887.851 259.672 888.007 259.448 888.207 259.264C888.415 259.072 888.659 258.924 888.939 258.82C889.227 258.716 889.547 258.664 889.899 258.664C890.339 258.664 890.731 258.744 891.075 258.904V258.796C891.075 258.556 891.131 258.36 891.243 258.208C891.355 258.048 891.539 257.968 891.795 257.968H892.719V258.808H891.543V259.204C891.767 259.396 891.939 259.628 892.059 259.9C892.187 260.164 892.251 260.464 892.251 260.8C892.251 261.112 892.195 261.4 892.083 261.664C891.971 261.928 891.811 262.156 891.603 262.348C891.403 262.532 891.159 262.676 890.871 262.78C890.583 262.884 890.263 262.936 889.911 262.936C889.711 262.936 889.511 262.916 889.311 262.876C889.103 262.932 888.915 263.016 888.747 263.128C888.579 263.232 888.495 263.38 888.495 263.572C888.495 263.756 888.583 263.88 888.759 263.944C888.935 264.008 889.163 264.04 889.443 264.04H890.763C891.531 264.04 892.087 264.188 892.431 264.484C892.783 264.772 892.959 265.172 892.959 265.684ZM892.059 265.756C892.059 265.508 891.963 265.308 891.771 265.156C891.587 265.012 891.255 264.94 890.775 264.94H888.711C888.327 265.116 888.135 265.396 888.135 265.78C888.135 266.052 888.235 266.284 888.435 266.476C888.643 266.668 888.991 266.764 889.479 266.764H890.367C890.903 266.764 891.319 266.68 891.615 266.512C891.911 266.344 892.059 266.092 892.059 265.756ZM889.911 262.168C890.319 262.168 890.643 262.072 890.883 261.88C891.123 261.68 891.243 261.376 891.243 260.968V260.632C891.243 260.224 891.123 259.924 890.883 259.732C890.643 259.532 890.319 259.432 889.911 259.432C889.503 259.432 889.179 259.532 888.939 259.732C888.699 259.924 888.579 260.224 888.579 260.632V260.968C888.579 261.376 888.699 261.68 888.939 261.88C889.179 262.072 889.503 262.168 889.911 262.168ZM896.336 265.144C895.912 265.144 895.528 265.068 895.184 264.916C894.848 264.764 894.556 264.548 894.308 264.268C894.068 263.98 893.88 263.64 893.744 263.248C893.616 262.848 893.552 262.4 893.552 261.904C893.552 261.416 893.616 260.972 893.744 260.572C893.88 260.172 894.068 259.832 894.308 259.552C894.556 259.264 894.848 259.044 895.184 258.892C895.528 258.74 895.912 258.664 896.336 258.664C896.752 258.664 897.124 258.74 897.452 258.892C897.78 259.044 898.06 259.256 898.292 259.528C898.524 259.792 898.7 260.108 898.82 260.476C898.948 260.844 899.012 261.248 899.012 261.688V262.144H894.56V262.432C894.56 262.696 894.6 262.944 894.68 263.176C894.768 263.4 894.888 263.596 895.04 263.764C895.2 263.932 895.392 264.064 895.616 264.16C895.848 264.256 896.108 264.304 896.396 264.304C896.788 264.304 897.128 264.212 897.416 264.028C897.712 263.844 897.94 263.58 898.1 263.236L898.784 263.728C898.584 264.152 898.272 264.496 897.848 264.76C897.424 265.016 896.92 265.144 896.336 265.144ZM896.336 259.468C896.072 259.468 895.832 259.516 895.616 259.612C895.4 259.7 895.212 259.828 895.052 259.996C894.9 260.164 894.78 260.364 894.692 260.596C894.604 260.82 894.56 261.068 894.56 261.34V261.424H897.98V261.292C897.98 260.74 897.828 260.3 897.524 259.972C897.228 259.636 896.832 259.468 896.336 259.468ZM901.962 265C901.626 265 901.37 264.908 901.194 264.724C901.026 264.532 900.942 264.284 900.942 263.98V259.648H899.922V258.808H900.498C900.706 258.808 900.846 258.768 900.918 258.688C900.998 258.6 901.038 258.452 901.038 258.244V257.092H901.902V258.808H903.258V259.648H901.902V264.16H903.162V265H901.962ZM909.965 265.144C909.541 265.144 909.157 265.068 908.813 264.916C908.477 264.764 908.185 264.548 907.937 264.268C907.697 263.98 907.509 263.64 907.373 263.248C907.245 262.848 907.181 262.4 907.181 261.904C907.181 261.416 907.245 260.972 907.373 260.572C907.509 260.172 907.697 259.832 907.937 259.552C908.185 259.264 908.477 259.044 908.813 258.892C909.157 258.74 909.541 258.664 909.965 258.664C910.381 258.664 910.753 258.74 911.081 258.892C911.409 259.044 911.689 259.256 911.921 259.528C912.153 259.792 912.329 260.108 912.449 260.476C912.577 260.844 912.641 261.248 912.641 261.688V262.144H908.189V262.432C908.189 262.696 908.229 262.944 908.309 263.176C908.397 263.4 908.517 263.596 908.669 263.764C908.829 263.932 909.021 264.064 909.245 264.16C909.477 264.256 909.737 264.304 910.025 264.304C910.417 264.304 910.757 264.212 911.045 264.028C911.341 263.844 911.569 263.58 911.729 263.236L912.413 263.728C912.213 264.152 911.901 264.496 911.477 264.76C911.053 265.016 910.549 265.144 909.965 265.144ZM909.965 259.468C909.701 259.468 909.461 259.516 909.245 259.612C909.029 259.7 908.841 259.828 908.681 259.996C908.529 260.164 908.409 260.364 908.321 260.596C908.233 260.82 908.189 261.068 908.189 261.34V261.424H911.609V261.292C911.609 260.74 911.457 260.3 911.153 259.972C910.857 259.636 910.461 259.468 909.965 259.468ZM918.183 263.992H918.135C917.759 264.76 917.155 265.144 916.323 265.144C915.939 265.144 915.591 265.068 915.279 264.916C914.967 264.764 914.699 264.548 914.475 264.268C914.259 263.988 914.091 263.648 913.971 263.248C913.859 262.848 913.803 262.4 913.803 261.904C913.803 261.408 913.859 260.96 913.971 260.56C914.091 260.16 914.259 259.82 914.475 259.54C914.699 259.26 914.967 259.044 915.279 258.892C915.591 258.74 915.939 258.664 916.323 258.664C916.755 258.664 917.123 258.76 917.427 258.952C917.739 259.136 917.975 259.424 918.135 259.816H918.183V256.12H919.143V265H918.183V263.992ZM916.587 264.28C916.803 264.28 917.007 264.252 917.199 264.196C917.399 264.14 917.571 264.06 917.715 263.956C917.859 263.844 917.971 263.712 918.051 263.56C918.139 263.4 918.183 263.22 918.183 263.02V260.716C918.183 260.548 918.139 260.392 918.051 260.248C917.971 260.096 917.859 259.968 917.715 259.864C917.571 259.76 917.399 259.68 917.199 259.624C917.007 259.56 916.803 259.528 916.587 259.528C916.043 259.528 915.615 259.7 915.303 260.044C914.991 260.38 914.835 260.824 914.835 261.376V262.432C914.835 262.984 914.991 263.432 915.303 263.776C915.615 264.112 916.043 264.28 916.587 264.28ZM921.664 257.356C921.456 257.356 921.304 257.308 921.208 257.212C921.12 257.108 921.076 256.976 921.076 256.816V256.66C921.076 256.5 921.12 256.372 921.208 256.276C921.304 256.172 921.456 256.12 921.664 256.12C921.872 256.12 922.02 256.172 922.108 256.276C922.204 256.372 922.252 256.5 922.252 256.66V256.816C922.252 256.976 922.204 257.108 922.108 257.212C922.02 257.308 921.872 257.356 921.664 257.356ZM921.184 258.808H922.144V265H921.184V258.808ZM925.552 265C925.216 265 924.96 264.908 924.784 264.724C924.616 264.532 924.532 264.284 924.532 263.98V259.648H923.512V258.808H924.088C924.296 258.808 924.436 258.768 924.508 258.688C924.588 258.6 924.628 258.452 924.628 258.244V257.092H925.492V258.808H926.848V259.648H925.492V264.16H926.752V265H925.552ZM931.227 265V258.808H932.187V259.816H932.235C932.307 259.656 932.387 259.508 932.475 259.372C932.571 259.228 932.683 259.104 932.811 259C932.947 258.896 933.103 258.816 933.279 258.76C933.455 258.696 933.663 258.664 933.903 258.664C934.311 258.664 934.687 258.764 935.031 258.964C935.375 259.156 935.631 259.476 935.799 259.924H935.823C935.935 259.588 936.143 259.296 936.447 259.048C936.759 258.792 937.179 258.664 937.707 258.664C938.339 258.664 938.831 258.872 939.183 259.288C939.543 259.696 939.723 260.276 939.723 261.028V265H938.763V261.196C938.763 260.644 938.655 260.228 938.439 259.948C938.223 259.668 937.879 259.528 937.407 259.528C937.215 259.528 937.031 259.552 936.855 259.6C936.687 259.648 936.535 259.72 936.399 259.816C936.263 259.912 936.155 260.036 936.075 260.188C935.995 260.332 935.955 260.504 935.955 260.704V265H934.995V261.196C934.995 260.644 934.887 260.228 934.671 259.948C934.455 259.668 934.119 259.528 933.663 259.528C933.471 259.528 933.287 259.552 933.111 259.6C932.935 259.648 932.779 259.72 932.643 259.816C932.507 259.912 932.395 260.036 932.307 260.188C932.227 260.332 932.187 260.504 932.187 260.704V265H931.227ZM944.032 265.144C943.608 265.144 943.224 265.068 942.88 264.916C942.544 264.764 942.252 264.548 942.004 264.268C941.764 263.98 941.576 263.64 941.44 263.248C941.312 262.848 941.248 262.4 941.248 261.904C941.248 261.416 941.312 260.972 941.44 260.572C941.576 260.172 941.764 259.832 942.004 259.552C942.252 259.264 942.544 259.044 942.88 258.892C943.224 258.74 943.608 258.664 944.032 258.664C944.448 258.664 944.82 258.74 945.148 258.892C945.476 259.044 945.756 259.256 945.988 259.528C946.22 259.792 946.396 260.108 946.516 260.476C946.644 260.844 946.708 261.248 946.708 261.688V262.144H942.256V262.432C942.256 262.696 942.296 262.944 942.376 263.176C942.464 263.4 942.584 263.596 942.736 263.764C942.896 263.932 943.088 264.064 943.312 264.16C943.544 264.256 943.804 264.304 944.092 264.304C944.484 264.304 944.824 264.212 945.112 264.028C945.408 263.844 945.636 263.58 945.796 263.236L946.48 263.728C946.28 264.152 945.968 264.496 945.544 264.76C945.12 265.016 944.616 265.144 944.032 265.144ZM944.032 259.468C943.768 259.468 943.528 259.516 943.312 259.612C943.096 259.7 942.908 259.828 942.748 259.996C942.596 260.164 942.476 260.364 942.388 260.596C942.3 260.82 942.256 261.068 942.256 261.34V261.424H945.676V261.292C945.676 260.74 945.524 260.3 945.22 259.972C944.924 259.636 944.528 259.468 944.032 259.468ZM948.29 265V258.808H949.25V259.816H949.298C949.45 259.464 949.662 259.184 949.934 258.976C950.214 258.768 950.586 258.664 951.05 258.664C951.69 258.664 952.194 258.872 952.562 259.288C952.938 259.696 953.126 260.276 953.126 261.028V265H952.166V261.196C952.166 260.084 951.698 259.528 950.762 259.528C950.57 259.528 950.382 259.552 950.198 259.6C950.022 259.648 949.862 259.72 949.718 259.816C949.574 259.912 949.458 260.036 949.37 260.188C949.29 260.332 949.25 260.504 949.25 260.704V265H948.29ZM958.926 263.992H958.878C958.814 264.136 958.734 264.28 958.638 264.424C958.55 264.56 958.438 264.684 958.302 264.796C958.166 264.9 958.002 264.984 957.81 265.048C957.618 265.112 957.394 265.144 957.138 265.144C956.498 265.144 955.99 264.94 955.614 264.532C955.238 264.116 955.05 263.532 955.05 262.78V258.808H956.01V262.612C956.01 263.724 956.482 264.28 957.426 264.28C957.618 264.28 957.802 264.256 957.978 264.208C958.162 264.16 958.322 264.088 958.458 263.992C958.602 263.896 958.714 263.776 958.794 263.632C958.882 263.48 958.926 263.3 958.926 263.092V258.808H959.886V265H958.926V263.992ZM963.79 265.144C963.214 265.144 962.73 265.036 962.338 264.82C961.954 264.596 961.622 264.3 961.342 263.932L962.026 263.38C962.266 263.684 962.534 263.92 962.83 264.088C963.126 264.248 963.47 264.328 963.862 264.328C964.27 264.328 964.586 264.24 964.81 264.064C965.042 263.888 965.158 263.64 965.158 263.32C965.158 263.08 965.078 262.876 964.918 262.708C964.766 262.532 964.486 262.412 964.078 262.348L963.586 262.276C963.298 262.236 963.034 262.176 962.794 262.096C962.554 262.008 962.342 261.896 962.158 261.76C961.982 261.616 961.842 261.44 961.738 261.232C961.642 261.024 961.594 260.776 961.594 260.488C961.594 260.184 961.65 259.92 961.762 259.696C961.874 259.464 962.026 259.272 962.218 259.12C962.418 258.968 962.654 258.856 962.926 258.784C963.198 258.704 963.49 258.664 963.802 258.664C964.306 258.664 964.726 258.752 965.062 258.928C965.406 259.104 965.706 259.348 965.962 259.66L965.326 260.236C965.19 260.044 964.99 259.872 964.726 259.72C964.462 259.56 964.13 259.48 963.73 259.48C963.33 259.48 963.026 259.568 962.818 259.744C962.618 259.912 962.518 260.144 962.518 260.44C962.518 260.744 962.618 260.964 962.818 261.1C963.026 261.236 963.322 261.336 963.706 261.4L964.186 261.472C964.874 261.576 965.362 261.776 965.65 262.072C965.938 262.36 966.082 262.74 966.082 263.212C966.082 263.812 965.878 264.284 965.47 264.628C965.062 264.972 964.502 265.144 963.79 265.144Z" fill="black"/>
<rect x="34.5" y="32.5" width="78" height="94" rx="5.5" fill="#E4E4E4" stroke="black"/>
<rect x="35" y="33" width="77" height="93" rx="5" fill="white"/>
<rect x="40" y="38" width="67" height="53" rx="3" fill="#E4E4E4"/>
<rect x="69" y="63" width="33" height="23" rx="3" fill="#055180"/>
<path d="M46.82 103.12H49.1L54.58 118H52.34L50.86 113.66H45L43.48 118H41.38L46.82 103.12ZM45.56 112.06H50.32L48.9 107.9C48.7667 107.54 48.6467 107.173 48.54 106.8C48.4333 106.427 48.34 106.087 48.26 105.78C48.1667 105.433 48.08 105.087 48 104.74H47.94C47.8467 105.087 47.7533 105.44 47.66 105.8C47.5667 106.107 47.4667 106.447 47.36 106.82C47.2533 107.193 47.14 107.553 47.02 107.9L45.56 112.06ZM58.8448 118.22C58.3382 118.22 57.8582 118.153 57.4048 118.02C56.9648 117.9 56.5782 117.713 56.2448 117.46C55.9248 117.207 55.6715 116.893 55.4848 116.52C55.2982 116.133 55.2048 115.68 55.2048 115.16C55.2048 114.533 55.3115 114.02 55.5248 113.62C55.7515 113.22 56.0648 112.9 56.4648 112.66C56.8782 112.42 57.3648 112.233 57.9248 112.1C58.4982 111.967 59.1315 111.86 59.8248 111.78C60.2248 111.74 60.5848 111.687 60.9048 111.62C61.2248 111.553 61.4982 111.467 61.7248 111.36C61.9515 111.24 62.1248 111.093 62.2448 110.92C62.3648 110.747 62.4248 110.52 62.4248 110.24C62.4248 109.653 62.2248 109.193 61.8248 108.86C61.4382 108.527 60.8715 108.36 60.1248 108.36C59.2715 108.36 58.6315 108.547 58.2048 108.92C57.7915 109.293 57.5715 109.8 57.5448 110.44H55.7448C55.7582 109.987 55.8582 109.553 56.0448 109.14C56.2315 108.727 56.5048 108.36 56.8648 108.04C57.2248 107.72 57.6715 107.467 58.2048 107.28C58.7515 107.093 59.3848 107 60.1048 107C60.6115 107 61.0848 107.047 61.5248 107.14C61.9648 107.233 62.3582 107.38 62.7048 107.58C63.1582 107.847 63.5115 108.22 63.7648 108.7C64.0182 109.18 64.1448 109.78 64.1448 110.5V115.52C64.1448 115.947 64.2182 116.267 64.3648 116.48C64.5115 116.693 64.8182 116.747 65.2848 116.64H65.3648V117.94C65.2315 117.98 65.0848 118.013 64.9248 118.04C64.7782 118.08 64.5915 118.1 64.3648 118.1C63.7915 118.1 63.3582 117.967 63.0648 117.7C62.7715 117.42 62.5715 116.993 62.4648 116.42H62.4448C62.2715 116.66 62.0715 116.887 61.8448 117.1C61.6182 117.313 61.3582 117.507 61.0648 117.68C60.7715 117.84 60.4382 117.967 60.0648 118.06C59.7048 118.167 59.2982 118.22 58.8448 118.22ZM59.3048 116.86C59.8382 116.86 60.2982 116.773 60.6848 116.6C61.0848 116.413 61.4115 116.187 61.6648 115.92C61.9315 115.64 62.1248 115.333 62.2448 115C62.3782 114.667 62.4448 114.347 62.4448 114.04V112.28C62.1782 112.453 61.8248 112.607 61.3848 112.74C60.9582 112.86 60.5248 112.96 60.0848 113.04C59.6448 113.12 59.2448 113.207 58.8848 113.3C58.5248 113.38 58.2182 113.5 57.9648 113.66C57.7115 113.807 57.5115 114 57.3648 114.24C57.2315 114.467 57.1648 114.767 57.1648 115.14C57.1648 115.487 57.2248 115.773 57.3448 116C57.4648 116.213 57.6248 116.387 57.8248 116.52C58.0248 116.653 58.2515 116.747 58.5048 116.8C58.7715 116.84 59.0382 116.86 59.3048 116.86Z" fill="black"/>
<rect x="121.5" y="32.5" width="78" height="94" rx="5.5" fill="#E4E4E4" stroke="black"/>
<rect x="122" y="33" width="77" height="93" rx="5" fill="white"/>
<rect x="127" y="38" width="67" height="53" rx="3" fill="#E4E4E4"/>
<rect x="156" y="63" width="33" height="23" rx="3" fill="#E02D27"/>
<path d="M133.82 103.12H136.1L141.58 118H139.34L137.86 113.66H132L130.48 118H128.38L133.82 103.12ZM132.56 112.06H137.32L135.9 107.9C135.767 107.54 135.647 107.173 135.54 106.8C135.433 106.427 135.34 106.087 135.26 105.78C135.167 105.433 135.08 105.087 135 104.74H134.94C134.847 105.087 134.753 105.44 134.66 105.8C134.567 106.107 134.467 106.447 134.36 106.82C134.253 107.193 134.14 107.553 134.02 107.9L132.56 112.06ZM145.845 118.22C145.338 118.22 144.858 118.153 144.405 118.02C143.965 117.9 143.578 117.713 143.245 117.46C142.925 117.207 142.672 116.893 142.485 116.52C142.298 116.133 142.205 115.68 142.205 115.16C142.205 114.533 142.312 114.02 142.525 113.62C142.752 113.22 143.065 112.9 143.465 112.66C143.878 112.42 144.365 112.233 144.925 112.1C145.498 111.967 146.132 111.86 146.825 111.78C147.225 111.74 147.585 111.687 147.905 111.62C148.225 111.553 148.498 111.467 148.725 111.36C148.952 111.24 149.125 111.093 149.245 110.92C149.365 110.747 149.425 110.52 149.425 110.24C149.425 109.653 149.225 109.193 148.825 108.86C148.438 108.527 147.872 108.36 147.125 108.36C146.272 108.36 145.632 108.547 145.205 108.92C144.792 109.293 144.572 109.8 144.545 110.44H142.745C142.758 109.987 142.858 109.553 143.045 109.14C143.232 108.727 143.505 108.36 143.865 108.04C144.225 107.72 144.672 107.467 145.205 107.28C145.752 107.093 146.385 107 147.105 107C147.612 107 148.085 107.047 148.525 107.14C148.965 107.233 149.358 107.38 149.705 107.58C150.158 107.847 150.512 108.22 150.765 108.7C151.018 109.18 151.145 109.78 151.145 110.5V115.52C151.145 115.947 151.218 116.267 151.365 116.48C151.512 116.693 151.818 116.747 152.285 116.64H152.365V117.94C152.232 117.98 152.085 118.013 151.925 118.04C151.778 118.08 151.592 118.1 151.365 118.1C150.792 118.1 150.358 117.967 150.065 117.7C149.772 117.42 149.572 116.993 149.465 116.42H149.445C149.272 116.66 149.072 116.887 148.845 117.1C148.618 117.313 148.358 117.507 148.065 117.68C147.772 117.84 147.438 117.967 147.065 118.06C146.705 118.167 146.298 118.22 145.845 118.22ZM146.305 116.86C146.838 116.86 147.298 116.773 147.685 116.6C148.085 116.413 148.412 116.187 148.665 115.92C148.932 115.64 149.125 115.333 149.245 115C149.378 114.667 149.445 114.347 149.445 114.04V112.28C149.178 112.453 148.825 112.607 148.385 112.74C147.958 112.86 147.525 112.96 147.085 113.04C146.645 113.12 146.245 113.207 145.885 113.3C145.525 113.38 145.218 113.5 144.965 113.66C144.712 113.807 144.512 114 144.365 114.24C144.232 114.467 144.165 114.767 144.165 115.14C144.165 115.487 144.225 115.773 144.345 116C144.465 116.213 144.625 116.387 144.825 116.52C145.025 116.653 145.252 116.747 145.505 116.8C145.772 116.84 146.038 116.86 146.305 116.86Z" fill="black"/>
<rect x="208.5" y="32.5" width="78" height="94" rx="5.5" fill="#E4E4E4" stroke="black"/>
<rect x="209" y="33" width="77" height="93" rx="5" fill="white"/>
<rect x="214" y="38" width="67" height="53" rx="3" fill="#E4E4E4"/>
<rect x="243" y="63" width="33" height="23" rx="3" fill="#B8509A"/>
<path d="M220.82 103.12H223.1L228.58 118H226.34L224.86 113.66H219L217.48 118H215.38L220.82 103.12ZM219.56 112.06H224.32L222.9 107.9C222.767 107.54 222.647 107.173 222.54 106.8C222.433 106.427 222.34 106.087 222.26 105.78C222.167 105.433 222.08 105.087 222 104.74H221.94C221.847 105.087 221.753 105.44 221.66 105.8C221.567 106.107 221.467 106.447 221.36 106.82C221.253 107.193 221.14 107.553 221.02 107.9L219.56 112.06ZM232.845 118.22C232.338 118.22 231.858 118.153 231.405 118.02C230.965 117.9 230.578 117.713 230.245 117.46C229.925 117.207 229.672 116.893 229.485 116.52C229.298 116.133 229.205 115.68 229.205 115.16C229.205 114.533 229.312 114.02 229.525 113.62C229.752 113.22 230.065 112.9 230.465 112.66C230.878 112.42 231.365 112.233 231.925 112.1C232.498 111.967 233.132 111.86 233.825 111.78C234.225 111.74 234.585 111.687 234.905 111.62C235.225 111.553 235.498 111.467 235.725 111.36C235.952 111.24 236.125 111.093 236.245 110.92C236.365 110.747 236.425 110.52 236.425 110.24C236.425 109.653 236.225 109.193 235.825 108.86C235.438 108.527 234.872 108.36 234.125 108.36C233.272 108.36 232.632 108.547 232.205 108.92C231.792 109.293 231.572 109.8 231.545 110.44H229.745C229.758 109.987 229.858 109.553 230.045 109.14C230.232 108.727 230.505 108.36 230.865 108.04C231.225 107.72 231.672 107.467 232.205 107.28C232.752 107.093 233.385 107 234.105 107C234.612 107 235.085 107.047 235.525 107.14C235.965 107.233 236.358 107.38 236.705 107.58C237.158 107.847 237.512 108.22 237.765 108.7C238.018 109.18 238.145 109.78 238.145 110.5V115.52C238.145 115.947 238.218 116.267 238.365 116.48C238.512 116.693 238.818 116.747 239.285 116.64H239.365V117.94C239.232 117.98 239.085 118.013 238.925 118.04C238.778 118.08 238.592 118.1 238.365 118.1C237.792 118.1 237.358 117.967 237.065 117.7C236.772 117.42 236.572 116.993 236.465 116.42H236.445C236.272 116.66 236.072 116.887 235.845 117.1C235.618 117.313 235.358 117.507 235.065 117.68C234.772 117.84 234.438 117.967 234.065 118.06C233.705 118.167 233.298 118.22 232.845 118.22ZM233.305 116.86C233.838 116.86 234.298 116.773 234.685 116.6C235.085 116.413 235.412 116.187 235.665 115.92C235.932 115.64 236.125 115.333 236.245 115C236.378 114.667 236.445 114.347 236.445 114.04V112.28C236.178 112.453 235.825 112.607 235.385 112.74C234.958 112.86 234.525 112.96 234.085 113.04C233.645 113.12 233.245 113.207 232.885 113.3C232.525 113.38 232.218 113.5 231.965 113.66C231.712 113.807 231.512 114 231.365 114.24C231.232 114.467 231.165 114.767 231.165 115.14C231.165 115.487 231.225 115.773 231.345 116C231.465 116.213 231.625 116.387 231.825 116.52C232.025 116.653 232.252 116.747 232.505 116.8C232.772 116.84 233.038 116.86 233.305 116.86Z" fill="black"/>
<rect x="34.5" y="135.5" width="78" height="94" rx="5.5" fill="#E4E4E4" stroke="black"/>
<rect x="35" y="136" width="77" height="93" rx="5" fill="white"/>
<rect x="40" y="141" width="67" height="53" rx="3" fill="#E4E4E4"/>
<rect x="69" y="166" width="33" height="23" rx="3" fill="black"/>
<path d="M46.82 206.12H49.1L54.58 221H52.34L50.86 216.66H45L43.48 221H41.38L46.82 206.12ZM45.56 215.06H50.32L48.9 210.9C48.7667 210.54 48.6467 210.173 48.54 209.8C48.4333 209.427 48.34 209.087 48.26 208.78C48.1667 208.433 48.08 208.087 48 207.74H47.94C47.8467 208.087 47.7533 208.44 47.66 208.8C47.5667 209.107 47.4667 209.447 47.36 209.82C47.2533 210.193 47.14 210.553 47.02 210.9L45.56 215.06ZM58.8448 221.22C58.3382 221.22 57.8582 221.153 57.4048 221.02C56.9648 220.9 56.5782 220.713 56.2448 220.46C55.9248 220.207 55.6715 219.893 55.4848 219.52C55.2982 219.133 55.2048 218.68 55.2048 218.16C55.2048 217.533 55.3115 217.02 55.5248 216.62C55.7515 216.22 56.0648 215.9 56.4648 215.66C56.8782 215.42 57.3648 215.233 57.9248 215.1C58.4982 214.967 59.1315 214.86 59.8248 214.78C60.2248 214.74 60.5848 214.687 60.9048 214.62C61.2248 214.553 61.4982 214.467 61.7248 214.36C61.9515 214.24 62.1248 214.093 62.2448 213.92C62.3648 213.747 62.4248 213.52 62.4248 213.24C62.4248 212.653 62.2248 212.193 61.8248 211.86C61.4382 211.527 60.8715 211.36 60.1248 211.36C59.2715 211.36 58.6315 211.547 58.2048 211.92C57.7915 212.293 57.5715 212.8 57.5448 213.44H55.7448C55.7582 212.987 55.8582 212.553 56.0448 212.14C56.2315 211.727 56.5048 211.36 56.8648 211.04C57.2248 210.72 57.6715 210.467 58.2048 210.28C58.7515 210.093 59.3848 210 60.1048 210C60.6115 210 61.0848 210.047 61.5248 210.14C61.9648 210.233 62.3582 210.38 62.7048 210.58C63.1582 210.847 63.5115 211.22 63.7648 211.7C64.0182 212.18 64.1448 212.78 64.1448 213.5V218.52C64.1448 218.947 64.2182 219.267 64.3648 219.48C64.5115 219.693 64.8182 219.747 65.2848 219.64H65.3648V220.94C65.2315 220.98 65.0848 221.013 64.9248 221.04C64.7782 221.08 64.5915 221.1 64.3648 221.1C63.7915 221.1 63.3582 220.967 63.0648 220.7C62.7715 220.42 62.5715 219.993 62.4648 219.42H62.4448C62.2715 219.66 62.0715 219.887 61.8448 220.1C61.6182 220.313 61.3582 220.507 61.0648 220.68C60.7715 220.84 60.4382 220.967 60.0648 221.06C59.7048 221.167 59.2982 221.22 58.8448 221.22ZM59.3048 219.86C59.8382 219.86 60.2982 219.773 60.6848 219.6C61.0848 219.413 61.4115 219.187 61.6648 218.92C61.9315 218.64 62.1248 218.333 62.2448 218C62.3782 217.667 62.4448 217.347 62.4448 217.04V215.28C62.1782 215.453 61.8248 215.607 61.3848 215.74C60.9582 215.86 60.5248 215.96 60.0848 216.04C59.6448 216.12 59.2448 216.207 58.8848 216.3C58.5248 216.38 58.2182 216.5 57.9648 216.66C57.7115 216.807 57.5115 217 57.3648 217.24C57.2315 217.467 57.1648 217.767 57.1648 218.14C57.1648 218.487 57.2248 218.773 57.3448 219C57.4648 219.213 57.6248 219.387 57.8248 219.52C58.0248 219.653 58.2515 219.747 58.5048 219.8C58.7715 219.84 59.0382 219.86 59.3048 219.86Z" fill="black"/>
<rect x="121.5" y="135.5" width="78" height="94" rx="5.5" fill="#E4E4E4" stroke="black"/>
<rect x="122" y="136" width="77" height="93" rx="5" fill="white"/>
<rect x="127" y="141" width="67" height="53" rx="3" fill="#E4E4E4"/>
<rect x="156" y="166" width="33" height="23" rx="3" fill="#0AA947"/>
<path d="M133.82 206.12H136.1L141.58 221H139.34L137.86 216.66H132L130.48 221H128.38L133.82 206.12ZM132.56 215.06H137.32L135.9 210.9C135.767 210.54 135.647 210.173 135.54 209.8C135.433 209.427 135.34 209.087 135.26 208.78C135.167 208.433 135.08 208.087 135 207.74H134.94C134.847 208.087 134.753 208.44 134.66 208.8C134.567 209.107 134.467 209.447 134.36 209.82C134.253 210.193 134.14 210.553 134.02 210.9L132.56 215.06ZM145.845 221.22C145.338 221.22 144.858 221.153 144.405 221.02C143.965 220.9 143.578 220.713 143.245 220.46C142.925 220.207 142.672 219.893 142.485 219.52C142.298 219.133 142.205 218.68 142.205 218.16C142.205 217.533 142.312 217.02 142.525 216.62C142.752 216.22 143.065 215.9 143.465 215.66C143.878 215.42 144.365 215.233 144.925 215.1C145.498 214.967 146.132 214.86 146.825 214.78C147.225 214.74 147.585 214.687 147.905 214.62C148.225 214.553 148.498 214.467 148.725 214.36C148.952 214.24 149.125 214.093 149.245 213.92C149.365 213.747 149.425 213.52 149.425 213.24C149.425 212.653 149.225 212.193 148.825 211.86C148.438 211.527 147.872 211.36 147.125 211.36C146.272 211.36 145.632 211.547 145.205 211.92C144.792 212.293 144.572 212.8 144.545 213.44H142.745C142.758 212.987 142.858 212.553 143.045 212.14C143.232 211.727 143.505 211.36 143.865 211.04C144.225 210.72 144.672 210.467 145.205 210.28C145.752 210.093 146.385 210 147.105 210C147.612 210 148.085 210.047 148.525 210.14C148.965 210.233 149.358 210.38 149.705 210.58C150.158 210.847 150.512 211.22 150.765 211.7C151.018 212.18 151.145 212.78 151.145 213.5V218.52C151.145 218.947 151.218 219.267 151.365 219.48C151.512 219.693 151.818 219.747 152.285 219.64H152.365V220.94C152.232 220.98 152.085 221.013 151.925 221.04C151.778 221.08 151.592 221.1 151.365 221.1C150.792 221.1 150.358 220.967 150.065 220.7C149.772 220.42 149.572 219.993 149.465 219.42H149.445C149.272 219.66 149.072 219.887 148.845 220.1C148.618 220.313 148.358 220.507 148.065 220.68C147.772 220.84 147.438 220.967 147.065 221.06C146.705 221.167 146.298 221.22 145.845 221.22ZM146.305 219.86C146.838 219.86 147.298 219.773 147.685 219.6C148.085 219.413 148.412 219.187 148.665 218.92C148.932 218.64 149.125 218.333 149.245 218C149.378 217.667 149.445 217.347 149.445 217.04V215.28C149.178 215.453 148.825 215.607 148.385 215.74C147.958 215.86 147.525 215.96 147.085 216.04C146.645 216.12 146.245 216.207 145.885 216.3C145.525 216.38 145.218 216.5 144.965 216.66C144.712 216.807 144.512 217 144.365 217.24C144.232 217.467 144.165 217.767 144.165 218.14C144.165 218.487 144.225 218.773 144.345 219C144.465 219.213 144.625 219.387 144.825 219.52C145.025 219.653 145.252 219.747 145.505 219.8C145.772 219.84 146.038 219.86 146.305 219.86Z" fill="black"/>
<rect x="208.5" y="135.5" width="78" height="94" rx="5.5" fill="#E4E4E4" stroke="black"/>
<rect x="209" y="136" width="77" height="93" rx="5" fill="white"/>
<rect x="214" y="141" width="67" height="53" rx="3" fill="#E4E4E4"/>
<rect x="243" y="166" width="33" height="23" rx="3" fill="#A2A506"/>
<path d="M220.82 206.12H223.1L228.58 221H226.34L224.86 216.66H219L217.48 221H215.38L220.82 206.12ZM219.56 215.06H224.32L222.9 210.9C222.767 210.54 222.647 210.173 222.54 209.8C222.433 209.427 222.34 209.087 222.26 208.78C222.167 208.433 222.08 208.087 222 207.74H221.94C221.847 208.087 221.753 208.44 221.66 208.8C221.567 209.107 221.467 209.447 221.36 209.82C221.253 210.193 221.14 210.553 221.02 210.9L219.56 215.06ZM232.845 221.22C232.338 221.22 231.858 221.153 231.405 221.02C230.965 220.9 230.578 220.713 230.245 220.46C229.925 220.207 229.672 219.893 229.485 219.52C229.298 219.133 229.205 218.68 229.205 218.16C229.205 217.533 229.312 217.02 229.525 216.62C229.752 216.22 230.065 215.9 230.465 215.66C230.878 215.42 231.365 215.233 231.925 215.1C232.498 214.967 233.132 214.86 233.825 214.78C234.225 214.74 234.585 214.687 234.905 214.62C235.225 214.553 235.498 214.467 235.725 214.36C235.952 214.24 236.125 214.093 236.245 213.92C236.365 213.747 236.425 213.52 236.425 213.24C236.425 212.653 236.225 212.193 235.825 211.86C235.438 211.527 234.872 211.36 234.125 211.36C233.272 211.36 232.632 211.547 232.205 211.92C231.792 212.293 231.572 212.8 231.545 213.44H229.745C229.758 212.987 229.858 212.553 230.045 212.14C230.232 211.727 230.505 211.36 230.865 211.04C231.225 210.72 231.672 210.467 232.205 210.28C232.752 210.093 233.385 210 234.105 210C234.612 210 235.085 210.047 235.525 210.14C235.965 210.233 236.358 210.38 236.705 210.58C237.158 210.847 237.512 211.22 237.765 211.7C238.018 212.18 238.145 212.78 238.145 213.5V218.52C238.145 218.947 238.218 219.267 238.365 219.48C238.512 219.693 238.818 219.747 239.285 219.64H239.365V220.94C239.232 220.98 239.085 221.013 238.925 221.04C238.778 221.08 238.592 221.1 238.365 221.1C237.792 221.1 237.358 220.967 237.065 220.7C236.772 220.42 236.572 219.993 236.465 219.42H236.445C236.272 219.66 236.072 219.887 235.845 220.1C235.618 220.313 235.358 220.507 235.065 220.68C234.772 220.84 234.438 220.967 234.065 221.06C233.705 221.167 233.298 221.22 232.845 221.22ZM233.305 219.86C233.838 219.86 234.298 219.773 234.685 219.6C235.085 219.413 235.412 219.187 235.665 218.92C235.932 218.64 236.125 218.333 236.245 218C236.378 217.667 236.445 217.347 236.445 217.04V215.28C236.178 215.453 235.825 215.607 235.385 215.74C234.958 215.86 234.525 215.96 234.085 216.04C233.645 216.12 233.245 216.207 232.885 216.3C232.525 216.38 232.218 216.5 231.965 216.66C231.712 216.807 231.512 217 231.365 217.24C231.232 217.467 231.165 217.767 231.165 218.14C231.165 218.487 231.225 218.773 231.345 219C231.465 219.213 231.625 219.387 231.825 219.52C232.025 219.653 232.252 219.747 232.505 219.8C232.772 219.84 233.038 219.86 233.305 219.86Z" fill="black"/>
<path d="M472.28 265L470.24 256.624H471.308L472.208 260.656L472.904 263.788H472.928L473.708 260.656L474.764 256.624H475.916L476.936 260.656L477.716 263.776H477.752L478.472 260.656L479.42 256.624H480.452L478.304 265H477.188L476.096 260.824L475.328 257.752H475.304L474.512 260.824L473.396 265H472.28ZM482.188 257.356C481.98 257.356 481.828 257.308 481.732 257.212C481.644 257.108 481.6 256.976 481.6 256.816V256.66C481.6 256.5 481.644 256.372 481.732 256.276C481.828 256.172 481.98 256.12 482.188 256.12C482.396 256.12 482.544 256.172 482.632 256.276C482.728 256.372 482.776 256.5 482.776 256.66V256.816C482.776 256.976 482.728 257.108 482.632 257.212C482.544 257.308 482.396 257.356 482.188 257.356ZM481.708 258.808H482.668V265H481.708V258.808ZM488.668 263.992H488.62C488.244 264.76 487.64 265.144 486.808 265.144C486.424 265.144 486.076 265.068 485.764 264.916C485.452 264.764 485.184 264.548 484.96 264.268C484.744 263.988 484.576 263.648 484.456 263.248C484.344 262.848 484.288 262.4 484.288 261.904C484.288 261.408 484.344 260.96 484.456 260.56C484.576 260.16 484.744 259.82 484.96 259.54C485.184 259.26 485.452 259.044 485.764 258.892C486.076 258.74 486.424 258.664 486.808 258.664C487.24 258.664 487.608 258.76 487.912 258.952C488.224 259.136 488.46 259.424 488.62 259.816H488.668V256.12H489.628V265H488.668V263.992ZM487.072 264.28C487.288 264.28 487.492 264.252 487.684 264.196C487.884 264.14 488.056 264.06 488.2 263.956C488.344 263.844 488.456 263.712 488.536 263.56C488.624 263.4 488.668 263.22 488.668 263.02V260.716C488.668 260.548 488.624 260.392 488.536 260.248C488.456 260.096 488.344 259.968 488.2 259.864C488.056 259.76 487.884 259.68 487.684 259.624C487.492 259.56 487.288 259.528 487.072 259.528C486.528 259.528 486.1 259.7 485.788 260.044C485.476 260.38 485.32 260.824 485.32 261.376V262.432C485.32 262.984 485.476 263.432 485.788 263.776C486.1 264.112 486.528 264.28 487.072 264.28ZM496.888 265.684C496.888 266.324 496.636 266.792 496.132 267.088C495.636 267.392 494.888 267.544 493.888 267.544C492.92 267.544 492.224 267.412 491.8 267.148C491.376 266.884 491.164 266.508 491.164 266.02C491.164 265.684 491.252 265.42 491.428 265.228C491.604 265.044 491.844 264.908 492.148 264.82V264.688C491.78 264.512 491.596 264.224 491.596 263.824C491.596 263.512 491.696 263.276 491.896 263.116C492.096 262.948 492.352 262.824 492.664 262.744V262.696C492.296 262.52 492.008 262.268 491.8 261.94C491.6 261.612 491.5 261.232 491.5 260.8C491.5 260.488 491.556 260.2 491.668 259.936C491.78 259.672 491.936 259.448 492.136 259.264C492.344 259.072 492.588 258.924 492.868 258.82C493.156 258.716 493.476 258.664 493.828 258.664C494.268 258.664 494.66 258.744 495.004 258.904V258.796C495.004 258.556 495.06 258.36 495.172 258.208C495.284 258.048 495.468 257.968 495.724 257.968H496.648V258.808H495.472V259.204C495.696 259.396 495.868 259.628 495.988 259.9C496.116 260.164 496.18 260.464 496.18 260.8C496.18 261.112 496.124 261.4 496.012 261.664C495.9 261.928 495.74 262.156 495.532 262.348C495.332 262.532 495.088 262.676 494.8 262.78C494.512 262.884 494.192 262.936 493.84 262.936C493.64 262.936 493.44 262.916 493.24 262.876C493.032 262.932 492.844 263.016 492.676 263.128C492.508 263.232 492.424 263.38 492.424 263.572C492.424 263.756 492.512 263.88 492.688 263.944C492.864 264.008 493.092 264.04 493.372 264.04H494.692C495.46 264.04 496.016 264.188 496.36 264.484C496.712 264.772 496.888 265.172 496.888 265.684ZM495.988 265.756C495.988 265.508 495.892 265.308 495.7 265.156C495.516 265.012 495.184 264.94 494.704 264.94H492.64C492.256 265.116 492.064 265.396 492.064 265.78C492.064 266.052 492.164 266.284 492.364 266.476C492.572 266.668 492.92 266.764 493.408 266.764H494.296C494.832 266.764 495.248 266.68 495.544 266.512C495.84 266.344 495.988 266.092 495.988 265.756ZM493.84 262.168C494.248 262.168 494.572 262.072 494.812 261.88C495.052 261.68 495.172 261.376 495.172 260.968V260.632C495.172 260.224 495.052 259.924 494.812 259.732C494.572 259.532 494.248 259.432 493.84 259.432C493.432 259.432 493.108 259.532 492.868 259.732C492.628 259.924 492.508 260.224 492.508 260.632V260.968C492.508 261.376 492.628 261.68 492.868 261.88C493.108 262.072 493.432 262.168 493.84 262.168ZM500.266 265.144C499.842 265.144 499.458 265.068 499.114 264.916C498.778 264.764 498.486 264.548 498.238 264.268C497.998 263.98 497.81 263.64 497.674 263.248C497.546 262.848 497.482 262.4 497.482 261.904C497.482 261.416 497.546 260.972 497.674 260.572C497.81 260.172 497.998 259.832 498.238 259.552C498.486 259.264 498.778 259.044 499.114 258.892C499.458 258.74 499.842 258.664 500.266 258.664C500.682 258.664 501.054 258.74 501.382 258.892C501.71 259.044 501.99 259.256 502.222 259.528C502.454 259.792 502.63 260.108 502.75 260.476C502.878 260.844 502.942 261.248 502.942 261.688V262.144H498.49V262.432C498.49 262.696 498.53 262.944 498.61 263.176C498.698 263.4 498.818 263.596 498.97 263.764C499.13 263.932 499.322 264.064 499.546 264.16C499.778 264.256 500.038 264.304 500.326 264.304C500.718 264.304 501.058 264.212 501.346 264.028C501.642 263.844 501.87 263.58 502.03 263.236L502.714 263.728C502.514 264.152 502.202 264.496 501.778 264.76C501.354 265.016 500.85 265.144 500.266 265.144ZM500.266 259.468C500.002 259.468 499.762 259.516 499.546 259.612C499.33 259.7 499.142 259.828 498.982 259.996C498.83 260.164 498.71 260.364 498.622 260.596C498.534 260.82 498.49 261.068 498.49 261.34V261.424H501.91V261.292C501.91 260.74 501.758 260.3 501.454 259.972C501.158 259.636 500.762 259.468 500.266 259.468ZM505.892 265C505.556 265 505.3 264.908 505.124 264.724C504.956 264.532 504.872 264.284 504.872 263.98V259.648H503.852V258.808H504.428C504.636 258.808 504.776 258.768 504.848 258.688C504.928 258.6 504.968 258.452 504.968 258.244V257.092H505.832V258.808H507.188V259.648H505.832V264.16H507.092V265H505.892ZM516.067 265C515.707 265 515.447 264.904 515.287 264.712C515.135 264.52 515.039 264.28 514.999 263.992H514.939C514.803 264.376 514.579 264.664 514.267 264.856C513.955 265.048 513.583 265.144 513.151 265.144C512.495 265.144 511.983 264.976 511.615 264.64C511.255 264.304 511.075 263.848 511.075 263.272C511.075 262.688 511.287 262.24 511.711 261.928C512.143 261.616 512.811 261.46 513.715 261.46H514.939V260.848C514.939 260.408 514.819 260.072 514.579 259.84C514.339 259.608 513.971 259.492 513.475 259.492C513.099 259.492 512.783 259.576 512.527 259.744C512.279 259.912 512.071 260.136 511.903 260.416L511.327 259.876C511.495 259.54 511.763 259.256 512.131 259.024C512.499 258.784 512.963 258.664 513.523 258.664C514.275 258.664 514.859 258.848 515.275 259.216C515.691 259.584 515.899 260.096 515.899 260.752V264.16H516.607V265H516.067ZM513.307 264.328C513.547 264.328 513.767 264.3 513.967 264.244C514.167 264.188 514.339 264.108 514.483 264.004C514.627 263.9 514.739 263.78 514.819 263.644C514.899 263.508 514.939 263.36 514.939 263.2V262.18H513.667C513.115 262.18 512.711 262.26 512.455 262.42C512.207 262.58 512.083 262.812 512.083 263.116V263.368C512.083 263.672 512.191 263.908 512.407 264.076C512.631 264.244 512.931 264.328 513.307 264.328ZM517.977 265V258.808H518.937V259.948H518.997C519.109 259.652 519.309 259.388 519.597 259.156C519.885 258.924 520.281 258.808 520.785 258.808H521.157V259.768H520.593C520.073 259.768 519.665 259.868 519.369 260.068C519.081 260.26 518.937 260.504 518.937 260.8V265H517.977ZM522.383 265V258.808H523.343V259.948H523.403C523.515 259.652 523.715 259.388 524.003 259.156C524.291 258.924 524.687 258.808 525.191 258.808H525.563V259.768H524.999C524.479 259.768 524.071 259.868 523.775 260.068C523.487 260.26 523.343 260.504 523.343 260.8V265H522.383ZM531.243 265C530.883 265 530.623 264.904 530.463 264.712C530.311 264.52 530.215 264.28 530.175 263.992H530.115C529.979 264.376 529.755 264.664 529.443 264.856C529.131 265.048 528.759 265.144 528.327 265.144C527.671 265.144 527.159 264.976 526.791 264.64C526.431 264.304 526.251 263.848 526.251 263.272C526.251 262.688 526.463 262.24 526.887 261.928C527.319 261.616 527.987 261.46 528.891 261.46H530.115V260.848C530.115 260.408 529.995 260.072 529.755 259.84C529.515 259.608 529.147 259.492 528.651 259.492C528.275 259.492 527.959 259.576 527.703 259.744C527.455 259.912 527.247 260.136 527.079 260.416L526.503 259.876C526.671 259.54 526.939 259.256 527.307 259.024C527.675 258.784 528.139 258.664 528.699 258.664C529.451 258.664 530.035 258.848 530.451 259.216C530.867 259.584 531.075 260.096 531.075 260.752V264.16H531.783V265H531.243ZM528.483 264.328C528.723 264.328 528.943 264.3 529.143 264.244C529.343 264.188 529.515 264.108 529.659 264.004C529.803 263.9 529.915 263.78 529.995 263.644C530.075 263.508 530.115 263.36 530.115 263.2V262.18H528.843C528.291 262.18 527.887 262.26 527.631 262.42C527.383 262.58 527.259 262.812 527.259 263.116V263.368C527.259 263.672 527.367 263.908 527.583 264.076C527.807 264.244 528.107 264.328 528.483 264.328ZM533.153 265V258.808H534.113V259.816H534.161C534.313 259.464 534.525 259.184 534.797 258.976C535.077 258.768 535.449 258.664 535.913 258.664C536.553 258.664 537.057 258.872 537.425 259.288C537.801 259.696 537.989 260.276 537.989 261.028V265H537.029V261.196C537.029 260.084 536.561 259.528 535.625 259.528C535.433 259.528 535.245 259.552 535.061 259.6C534.885 259.648 534.725 259.72 534.581 259.816C534.437 259.912 534.321 260.036 534.233 260.188C534.153 260.332 534.113 260.504 534.113 260.704V265H533.153ZM545.193 265.684C545.193 266.324 544.941 266.792 544.437 267.088C543.941 267.392 543.193 267.544 542.193 267.544C541.225 267.544 540.529 267.412 540.105 267.148C539.681 266.884 539.469 266.508 539.469 266.02C539.469 265.684 539.557 265.42 539.733 265.228C539.909 265.044 540.149 264.908 540.453 264.82V264.688C540.085 264.512 539.901 264.224 539.901 263.824C539.901 263.512 540.001 263.276 540.201 263.116C540.401 262.948 540.657 262.824 540.969 262.744V262.696C540.601 262.52 540.313 262.268 540.105 261.94C539.905 261.612 539.805 261.232 539.805 260.8C539.805 260.488 539.861 260.2 539.973 259.936C540.085 259.672 540.241 259.448 540.441 259.264C540.649 259.072 540.893 258.924 541.173 258.82C541.461 258.716 541.781 258.664 542.133 258.664C542.573 258.664 542.965 258.744 543.309 258.904V258.796C543.309 258.556 543.365 258.36 543.477 258.208C543.589 258.048 543.773 257.968 544.029 257.968H544.953V258.808H543.777V259.204C544.001 259.396 544.173 259.628 544.293 259.9C544.421 260.164 544.485 260.464 544.485 260.8C544.485 261.112 544.429 261.4 544.317 261.664C544.205 261.928 544.045 262.156 543.837 262.348C543.637 262.532 543.393 262.676 543.105 262.78C542.817 262.884 542.497 262.936 542.145 262.936C541.945 262.936 541.745 262.916 541.545 262.876C541.337 262.932 541.149 263.016 540.981 263.128C540.813 263.232 540.729 263.38 540.729 263.572C540.729 263.756 540.817 263.88 540.993 263.944C541.169 264.008 541.397 264.04 541.677 264.04H542.997C543.765 264.04 544.321 264.188 544.665 264.484C545.017 264.772 545.193 265.172 545.193 265.684ZM544.293 265.756C544.293 265.508 544.197 265.308 544.005 265.156C543.821 265.012 543.489 264.94 543.009 264.94H540.945C540.561 265.116 540.369 265.396 540.369 265.78C540.369 266.052 540.469 266.284 540.669 266.476C540.877 266.668 541.225 266.764 541.713 266.764H542.601C543.137 266.764 543.553 266.68 543.849 266.512C544.145 266.344 544.293 266.092 544.293 265.756ZM542.145 262.168C542.553 262.168 542.877 262.072 543.117 261.88C543.357 261.68 543.477 261.376 543.477 260.968V260.632C543.477 260.224 543.357 259.924 543.117 259.732C542.877 259.532 542.553 259.432 542.145 259.432C541.737 259.432 541.413 259.532 541.173 259.732C540.933 259.924 540.813 260.224 540.813 260.632V260.968C540.813 261.376 540.933 261.68 541.173 261.88C541.413 262.072 541.737 262.168 542.145 262.168ZM548.571 265.144C548.147 265.144 547.763 265.068 547.419 264.916C547.083 264.764 546.791 264.548 546.543 264.268C546.303 263.98 546.115 263.64 545.979 263.248C545.851 262.848 545.787 262.4 545.787 261.904C545.787 261.416 545.851 260.972 545.979 260.572C546.115 260.172 546.303 259.832 546.543 259.552C546.791 259.264 547.083 259.044 547.419 258.892C547.763 258.74 548.147 258.664 548.571 258.664C548.987 258.664 549.359 258.74 549.687 258.892C550.015 259.044 550.295 259.256 550.527 259.528C550.759 259.792 550.935 260.108 551.055 260.476C551.183 260.844 551.247 261.248 551.247 261.688V262.144H546.795V262.432C546.795 262.696 546.835 262.944 546.915 263.176C547.003 263.4 547.123 263.596 547.275 263.764C547.435 263.932 547.627 264.064 547.851 264.16C548.083 264.256 548.343 264.304 548.631 264.304C549.023 264.304 549.363 264.212 549.651 264.028C549.947 263.844 550.175 263.58 550.335 263.236L551.019 263.728C550.819 264.152 550.507 264.496 550.083 264.76C549.659 265.016 549.155 265.144 548.571 265.144ZM548.571 259.468C548.307 259.468 548.067 259.516 547.851 259.612C547.635 259.7 547.447 259.828 547.287 259.996C547.135 260.164 547.015 260.364 546.927 260.596C546.839 260.82 546.795 261.068 546.795 261.34V261.424H550.215V261.292C550.215 260.74 550.063 260.3 549.759 259.972C549.463 259.636 549.067 259.468 548.571 259.468ZM552.829 265V258.808H553.789V259.816H553.837C553.909 259.656 553.989 259.508 554.077 259.372C554.173 259.228 554.285 259.104 554.413 259C554.549 258.896 554.705 258.816 554.881 258.76C555.057 258.696 555.265 258.664 555.505 258.664C555.913 258.664 556.289 258.764 556.633 258.964C556.977 259.156 557.233 259.476 557.401 259.924H557.425C557.537 259.588 557.745 259.296 558.049 259.048C558.361 258.792 558.781 258.664 559.309 258.664C559.941 258.664 560.433 258.872 560.785 259.288C561.145 259.696 561.325 260.276 561.325 261.028V265H560.365V261.196C560.365 260.644 560.257 260.228 560.041 259.948C559.825 259.668 559.481 259.528 559.009 259.528C558.817 259.528 558.633 259.552 558.457 259.6C558.289 259.648 558.137 259.72 558.001 259.816C557.865 259.912 557.757 260.036 557.677 260.188C557.597 260.332 557.557 260.504 557.557 260.704V265H556.597V261.196C556.597 260.644 556.489 260.228 556.273 259.948C556.057 259.668 555.721 259.528 555.265 259.528C555.073 259.528 554.889 259.552 554.713 259.6C554.537 259.648 554.381 259.72 554.245 259.816C554.109 259.912 553.997 260.036 553.909 260.188C553.829 260.332 553.789 260.504 553.789 260.704V265H552.829ZM565.633 265.144C565.209 265.144 564.825 265.068 564.481 264.916C564.145 264.764 563.853 264.548 563.605 264.268C563.365 263.98 563.177 263.64 563.041 263.248C562.913 262.848 562.849 262.4 562.849 261.904C562.849 261.416 562.913 260.972 563.041 260.572C563.177 260.172 563.365 259.832 563.605 259.552C563.853 259.264 564.145 259.044 564.481 258.892C564.825 258.74 565.209 258.664 565.633 258.664C566.049 258.664 566.421 258.74 566.749 258.892C567.077 259.044 567.357 259.256 567.589 259.528C567.821 259.792 567.997 260.108 568.117 260.476C568.245 260.844 568.309 261.248 568.309 261.688V262.144H563.857V262.432C563.857 262.696 563.897 262.944 563.977 263.176C564.065 263.4 564.185 263.596 564.337 263.764C564.497 263.932 564.689 264.064 564.913 264.16C565.145 264.256 565.405 264.304 565.693 264.304C566.085 264.304 566.425 264.212 566.713 264.028C567.009 263.844 567.237 263.58 567.397 263.236L568.081 263.728C567.881 264.152 567.569 264.496 567.145 264.76C566.721 265.016 566.217 265.144 565.633 265.144ZM565.633 259.468C565.369 259.468 565.129 259.516 564.913 259.612C564.697 259.7 564.509 259.828 564.349 259.996C564.197 260.164 564.077 260.364 563.989 260.596C563.901 260.82 563.857 261.068 563.857 261.34V261.424H567.277V261.292C567.277 260.74 567.125 260.3 566.821 259.972C566.525 259.636 566.129 259.468 565.633 259.468ZM569.891 265V258.808H570.851V259.816H570.899C571.051 259.464 571.263 259.184 571.535 258.976C571.815 258.768 572.187 258.664 572.651 258.664C573.291 258.664 573.795 258.872 574.163 259.288C574.539 259.696 574.727 260.276 574.727 261.028V265H573.767V261.196C573.767 260.084 573.299 259.528 572.363 259.528C572.171 259.528 571.983 259.552 571.799 259.6C571.623 259.648 571.463 259.72 571.319 259.816C571.175 259.912 571.059 260.036 570.971 260.188C570.891 260.332 570.851 260.504 570.851 260.704V265H569.891ZM578.079 265C577.743 265 577.487 264.908 577.311 264.724C577.143 264.532 577.059 264.284 577.059 263.98V259.648H576.039V258.808H576.615C576.823 258.808 576.963 258.768 577.035 258.688C577.115 258.6 577.155 258.452 577.155 258.244V257.092H578.019V258.808H579.375V259.648H578.019V264.16H579.279V265H578.079ZM588.602 264.016C588.514 264.12 588.402 264.24 588.266 264.376C588.13 264.504 587.962 264.624 587.762 264.736C587.57 264.848 587.338 264.944 587.066 265.024C586.802 265.104 586.502 265.144 586.166 265.144C585.75 265.144 585.382 265.084 585.062 264.964C584.742 264.844 584.474 264.68 584.258 264.472C584.042 264.256 583.878 264.008 583.766 263.728C583.654 263.448 583.598 263.148 583.598 262.828C583.598 262.516 583.646 262.24 583.742 262C583.838 261.76 583.966 261.548 584.126 261.364C584.294 261.172 584.478 261.004 584.678 260.86C584.886 260.716 585.098 260.584 585.314 260.464C585.026 260.16 584.794 259.852 584.618 259.54C584.45 259.22 584.366 258.872 584.366 258.496C584.366 258.216 584.418 257.952 584.522 257.704C584.626 257.456 584.77 257.244 584.954 257.068C585.146 256.884 585.374 256.74 585.638 256.636C585.91 256.532 586.21 256.48 586.538 256.48C586.834 256.48 587.106 256.524 587.354 256.612C587.602 256.7 587.814 256.824 587.99 256.984C588.166 257.136 588.302 257.324 588.398 257.548C588.502 257.772 588.554 258.016 588.554 258.28C588.554 258.56 588.502 258.812 588.398 259.036C588.302 259.252 588.166 259.452 587.99 259.636C587.814 259.82 587.61 259.992 587.378 260.152C587.146 260.304 586.898 260.452 586.634 260.596L588.518 262.624C588.638 262.32 588.73 261.996 588.794 261.652C588.858 261.308 588.898 260.956 588.914 260.596H590.546V261.412H589.694C589.638 261.764 589.562 262.096 589.466 262.408C589.37 262.712 589.254 262.996 589.118 263.26L590.75 265H589.502L588.602 264.016ZM586.49 257.284C586.146 257.284 585.862 257.392 585.638 257.608C585.422 257.824 585.314 258.092 585.314 258.412V258.556C585.314 258.796 585.386 259.04 585.53 259.288C585.682 259.528 585.878 259.784 586.118 260.056C586.31 259.952 586.494 259.844 586.67 259.732C586.854 259.612 587.014 259.484 587.15 259.348C587.294 259.212 587.41 259.072 587.498 258.928C587.586 258.776 587.63 258.616 587.63 258.448V258.304C587.63 257.976 587.514 257.724 587.282 257.548C587.058 257.372 586.794 257.284 586.49 257.284ZM586.25 264.304C586.658 264.304 587.01 264.228 587.306 264.076C587.602 263.916 587.854 263.704 588.062 263.44L585.818 261.016C585.658 261.104 585.502 261.196 585.35 261.292C585.206 261.388 585.078 261.504 584.966 261.64C584.854 261.768 584.762 261.92 584.69 262.096C584.626 262.264 584.594 262.464 584.594 262.696V262.876C584.594 263.316 584.742 263.664 585.038 263.92C585.342 264.176 585.746 264.304 586.25 264.304ZM596.782 265.144C596.206 265.144 595.722 265.036 595.33 264.82C594.946 264.596 594.614 264.3 594.334 263.932L595.018 263.38C595.258 263.684 595.526 263.92 595.822 264.088C596.118 264.248 596.462 264.328 596.854 264.328C597.262 264.328 597.578 264.24 597.802 264.064C598.034 263.888 598.15 263.64 598.15 263.32C598.15 263.08 598.07 262.876 597.91 262.708C597.758 262.532 597.478 262.412 597.07 262.348L596.578 262.276C596.29 262.236 596.026 262.176 595.786 262.096C595.546 262.008 595.334 261.896 595.15 261.76C594.974 261.616 594.834 261.44 594.73 261.232C594.634 261.024 594.586 260.776 594.586 260.488C594.586 260.184 594.642 259.92 594.754 259.696C594.866 259.464 595.018 259.272 595.21 259.12C595.41 258.968 595.646 258.856 595.918 258.784C596.19 258.704 596.482 258.664 596.794 258.664C597.298 258.664 597.718 258.752 598.054 258.928C598.398 259.104 598.698 259.348 598.954 259.66L598.318 260.236C598.182 260.044 597.982 259.872 597.718 259.72C597.454 259.56 597.122 259.48 596.722 259.48C596.322 259.48 596.018 259.568 595.81 259.744C595.61 259.912 595.51 260.144 595.51 260.44C595.51 260.744 595.61 260.964 595.81 261.1C596.018 261.236 596.314 261.336 596.698 261.4L597.178 261.472C597.866 261.576 598.354 261.776 598.642 262.072C598.93 262.36 599.074 262.74 599.074 263.212C599.074 263.812 598.87 264.284 598.462 264.628C598.054 264.972 597.494 265.144 596.782 265.144ZM601.25 257.356C601.042 257.356 600.89 257.308 600.794 257.212C600.706 257.108 600.662 256.976 600.662 256.816V256.66C600.662 256.5 600.706 256.372 600.794 256.276C600.89 256.172 601.042 256.12 601.25 256.12C601.458 256.12 601.606 256.172 601.694 256.276C601.79 256.372 601.838 256.5 601.838 256.66V256.816C601.838 256.976 601.79 257.108 601.694 257.212C601.606 257.308 601.458 257.356 601.25 257.356ZM600.77 258.808H601.73V265H600.77V258.808ZM603.146 265V264.196L606.662 259.648H603.254V258.808H607.826V259.528L604.238 264.16H607.922V265H603.146ZM609.816 257.356C609.608 257.356 609.456 257.308 609.36 257.212C609.272 257.108 609.228 256.976 609.228 256.816V256.66C609.228 256.5 609.272 256.372 609.36 256.276C609.456 256.172 609.608 256.12 609.816 256.12C610.024 256.12 610.172 256.172 610.26 256.276C610.356 256.372 610.404 256.5 610.404 256.66V256.816C610.404 256.976 610.356 257.108 610.26 257.212C610.172 257.308 610.024 257.356 609.816 257.356ZM609.336 258.808H610.296V265H609.336V258.808ZM612.336 265V258.808H613.296V259.816H613.344C613.496 259.464 613.708 259.184 613.98 258.976C614.26 258.768 614.632 258.664 615.096 258.664C615.736 258.664 616.24 258.872 616.608 259.288C616.984 259.696 617.172 260.276 617.172 261.028V265H616.212V261.196C616.212 260.084 615.744 259.528 614.808 259.528C614.616 259.528 614.428 259.552 614.244 259.6C614.068 259.648 613.908 259.72 613.764 259.816C613.62 259.912 613.504 260.036 613.416 260.188C613.336 260.332 613.296 260.504 613.296 260.704V265H612.336ZM624.377 265.684C624.377 266.324 624.125 266.792 623.621 267.088C623.125 267.392 622.377 267.544 621.377 267.544C620.409 267.544 619.713 267.412 619.289 267.148C618.865 266.884 618.653 266.508 618.653 266.02C618.653 265.684 618.741 265.42 618.917 265.228C619.093 265.044 619.333 264.908 619.637 264.82V264.688C619.269 264.512 619.085 264.224 619.085 263.824C619.085 263.512 619.185 263.276 619.385 263.116C619.585 262.948 619.841 262.824 620.153 262.744V262.696C619.785 262.52 619.497 262.268 619.289 261.94C619.089 261.612 618.989 261.232 618.989 260.8C618.989 260.488 619.045 260.2 619.157 259.936C619.269 259.672 619.425 259.448 619.625 259.264C619.833 259.072 620.077 258.924 620.357 258.82C620.645 258.716 620.965 258.664 621.317 258.664C621.757 258.664 622.149 258.744 622.493 258.904V258.796C622.493 258.556 622.549 258.36 622.661 258.208C622.773 258.048 622.957 257.968 623.213 257.968H624.137V258.808H622.961V259.204C623.185 259.396 623.357 259.628 623.477 259.9C623.605 260.164 623.669 260.464 623.669 260.8C623.669 261.112 623.613 261.4 623.501 261.664C623.389 261.928 623.229 262.156 623.021 262.348C622.821 262.532 622.577 262.676 622.289 262.78C622.001 262.884 621.681 262.936 621.329 262.936C621.129 262.936 620.929 262.916 620.729 262.876C620.521 262.932 620.333 263.016 620.165 263.128C619.997 263.232 619.913 263.38 619.913 263.572C619.913 263.756 620.001 263.88 620.177 263.944C620.353 264.008 620.581 264.04 620.861 264.04H622.181C622.949 264.04 623.505 264.188 623.849 264.484C624.201 264.772 624.377 265.172 624.377 265.684ZM623.477 265.756C623.477 265.508 623.381 265.308 623.189 265.156C623.005 265.012 622.673 264.94 622.193 264.94H620.129C619.745 265.116 619.553 265.396 619.553 265.78C619.553 266.052 619.653 266.284 619.853 266.476C620.061 266.668 620.409 266.764 620.897 266.764H621.785C622.321 266.764 622.737 266.68 623.033 266.512C623.329 266.344 623.477 266.092 623.477 265.756ZM621.329 262.168C621.737 262.168 622.061 262.072 622.301 261.88C622.541 261.68 622.661 261.376 622.661 260.968V260.632C622.661 260.224 622.541 259.924 622.301 259.732C622.061 259.532 621.737 259.432 621.329 259.432C620.921 259.432 620.597 259.532 620.357 259.732C620.117 259.924 619.997 260.224 619.997 260.632V260.968C619.997 261.376 620.117 261.68 620.357 261.88C620.597 262.072 620.921 262.168 621.329 262.168Z" fill="black"/>
<rect x="563" y="33" width="83" height="93" rx="5" fill="#F0F0F0"/>
<rect x="562.5" y="32.5" width="84" height="94" rx="5.5" stroke="black" stroke-opacity="0.5" stroke-dasharray="5 5"/>
<rect x="563" y="136" width="166" height="93" rx="5" fill="#F0F0F0"/>
<rect x="562.5" y="135.5" width="167" height="94" rx="5.5" stroke="black" stroke-opacity="0.5" stroke-dasharray="5 5"/>
<rect x="384" y="33" width="166" height="196" rx="5" fill="#F0F0F0"/>
<rect x="383.5" y="32.5" width="167" height="197" rx="5.5" stroke="black" stroke-opacity="0.5" stroke-dasharray="5 5"/>
<path d="M536 223.5H539.5C542.261 223.5 544.5 221.261 544.5 218.5V216" stroke="black"/>
<path d="M715 223.5H718.5C721.261 223.5 723.5 221.261 723.5 218.5V216" stroke="black"/>
<path d="M632 120.5H635.5C638.261 120.5 640.5 118.261 640.5 115.5V113" stroke="black"/>
<rect x="825" y="33" width="166" height="196" rx="5" fill="#F0F0F0"/>
<path opacity="0.5" d="M838.1 52.07C837.647 52.07 837.281 51.9347 837.001 51.664C836.726 51.3887 836.588 51.0107 836.588 50.53V49.62C836.588 49.1393 836.726 48.7637 837.001 48.493C837.281 48.2177 837.647 48.08 838.1 48.08C838.403 48.08 838.667 48.1407 838.891 48.262C839.12 48.3833 839.297 48.5537 839.423 48.773C839.549 48.9923 839.612 49.2513 839.612 49.55V50.236H837.204V50.6C837.204 50.8847 837.286 51.111 837.449 51.279C837.612 51.4423 837.829 51.524 838.1 51.524C838.333 51.524 838.525 51.4797 838.674 51.391C838.828 51.2977 838.921 51.174 838.954 51.02H839.584C839.542 51.342 839.386 51.5987 839.115 51.79C838.844 51.9767 838.506 52.07 838.1 52.07ZM837.204 49.746H838.996V49.55C838.996 49.2467 838.917 49.0133 838.758 48.85C838.604 48.682 838.385 48.598 838.1 48.598C837.815 48.598 837.594 48.682 837.435 48.85C837.281 49.0133 837.204 49.2467 837.204 49.55V49.746ZM841.863 52.07C841.481 52.07 841.173 51.9417 840.939 51.685C840.711 51.4283 840.596 51.0807 840.596 50.642V49.515C840.596 49.0717 840.711 48.7217 840.939 48.465C841.168 48.2083 841.476 48.08 841.863 48.08C842.153 48.08 842.391 48.1523 842.577 48.297C842.769 48.4417 842.883 48.6377 842.92 48.885H842.927L842.913 48.01V46.89H843.543V52H842.913V51.265H842.906C842.874 51.517 842.764 51.7153 842.577 51.86C842.391 52 842.153 52.07 841.863 52.07ZM842.073 51.524C842.335 51.524 842.54 51.4423 842.689 51.279C842.839 51.1157 842.913 50.8893 842.913 50.6V49.55C842.913 49.2607 842.839 49.0343 842.689 48.871C842.54 48.7077 842.335 48.626 842.073 48.626C841.807 48.626 841.6 48.696 841.45 48.836C841.301 48.9713 841.226 49.1977 841.226 49.515V50.635C841.226 50.9477 841.301 51.174 841.45 51.314C841.6 51.454 841.807 51.524 842.073 51.524ZM844.57 52V51.426H845.935V48.724H844.71V48.15H846.565V51.426H847.86V52H844.57ZM846.18 47.457C846.026 47.457 845.904 47.4173 845.816 47.338C845.727 47.2587 845.683 47.1513 845.683 47.016C845.683 46.876 845.727 46.7663 845.816 46.687C845.904 46.603 846.026 46.561 846.18 46.561C846.334 46.561 846.455 46.603 846.544 46.687C846.632 46.7663 846.677 46.876 846.677 47.016C846.677 47.1513 846.632 47.2587 846.544 47.338C846.455 47.4173 846.334 47.457 846.18 47.457ZM850.447 52C850.129 52 849.875 51.909 849.684 51.727C849.492 51.5403 849.397 51.293 849.397 50.985V48.724H848.291V48.15H849.397V47.065H850.027V48.15H851.602V48.724H850.027V50.985C850.027 51.1157 850.064 51.223 850.139 51.307C850.218 51.3863 850.321 51.426 850.447 51.426H851.567V52H850.447Z" fill="black"/>
<rect x="834" y="65" width="147" height="34" rx="3" fill="black" fill-opacity="0.05"/>
<path d="M908.27 75.0004C910.031 75.0729 911.702 75.8046 912.948 77.0512C914.195 78.2979 914.927 79.9683 915 81.7299C915.036 82.6715 914.882 83.611 914.547 84.4916C914.211 85.3722 913.701 86.1761 913.048 86.8549C912.394 87.5338 911.61 88.0742 910.742 88.4428C909.875 88.8112 908.942 89.0011 908 89.0004C907.602 89.0004 907.221 88.8421 906.939 88.5609C906.658 88.2797 906.5 87.8981 906.5 87.5004V85.6195C906.5 85.3889 906.448 85.1614 906.346 84.9545C906.244 84.7474 906.095 84.5665 905.911 84.4262C905.728 84.2859 905.515 84.1893 905.288 84.1449C905.062 84.1006 904.828 84.1096 904.605 84.1703L904.045 84.3246C903.687 84.4223 903.312 84.4366 902.948 84.3656C902.584 84.2946 902.242 84.1404 901.947 83.9154C901.653 83.6906 901.414 83.4008 901.25 83.0688C901.086 82.7366 901 82.3709 901 82.0004C900.999 81.058 901.189 80.1246 901.558 79.2572C901.926 78.39 902.466 77.6061 903.145 76.9525C903.823 76.299 904.627 75.789 905.508 75.4535C906.388 75.1181 907.328 74.9641 908.27 75.0004ZM908.235 76.0004C907.428 75.9687 906.622 76.0998 905.866 76.3871C905.111 76.6744 904.422 77.112 903.84 77.6723C903.258 78.2325 902.795 78.9044 902.479 79.6479C902.162 80.3916 901.999 81.1923 902 82.0004C902 82.2168 902.049 82.4302 902.145 82.6244C902.24 82.8188 902.379 82.9885 902.551 83.1205C902.722 83.2524 902.922 83.3438 903.134 83.3861C903.346 83.4285 903.566 83.4207 903.775 83.3647L904.335 83.2104C904.552 83.151 904.775 83.1199 905 83.1195C905.663 83.1195 906.299 83.3833 906.768 83.852C907.236 84.3207 907.5 84.9567 907.5 85.6195V87.5004C907.5 87.6329 907.553 87.7602 907.646 87.8539C907.74 87.9476 907.867 88.0004 908 88.0004C908.808 88.0019 909.608 87.8389 910.352 87.5219C911.095 87.2047 911.767 86.7392 912.325 86.1547V86.1596C912.888 85.5795 913.327 84.8907 913.615 84.1352C913.903 83.3795 914.034 82.573 914 81.765C913.922 80.2615 913.289 78.8404 912.225 77.7758C911.16 76.7112 909.739 76.0788 908.235 76.0004ZM909.5 84.5004C910.052 84.5004 910.5 84.9481 910.5 85.5004C910.5 86.0525 910.052 86.5004 909.5 86.5004C908.948 86.5004 908.5 86.0525 908.5 85.5004C908.5 84.9481 908.948 84.5004 909.5 84.5004ZM911.5 82.0004C912.052 82.0004 912.5 82.4481 912.5 83.0004C912.5 83.5525 912.052 84.0004 911.5 84.0004C910.948 84.0004 910.5 83.5525 910.5 83.0004C910.5 82.4481 910.948 82.0004 911.5 82.0004ZM905 79.0004C905.552 79.0004 906 79.4481 906 80.0004C906 80.5525 905.552 81.0004 905 81.0004C904.448 81.0004 904 80.5525 904 80.0004C904 79.4481 904.448 79.0004 905 79.0004ZM911 79.0004C911.552 79.0004 912 79.4481 912 80.0004C912 80.5525 911.552 81.0004 911 81.0004C910.448 81.0004 910 80.5525 910 80.0004C910 79.4481 910.448 79.0004 911 79.0004ZM908 77.5004C908.552 77.5004 909 77.9481 909 78.5004C909 79.0525 908.552 79.5004 908 79.5004C907.448 79.5004 907 79.0525 907 78.5004C907 77.9481 907.448 77.5004 908 77.5004Z" fill="black" fill-opacity="0.25"/>
<rect x="834" y="104" width="147" height="34" rx="3" fill="black" fill-opacity="0.05"/>
<path d="M914 116.5C914.265 116.5 914.52 116.606 914.707 116.793C914.894 116.98 915 117.235 915 117.5V127C915 127.265 914.894 127.52 914.707 127.707C914.52 127.894 914.265 128 914 128H904.5C904.235 128 903.98 127.894 903.793 127.707C903.606 127.52 903.5 127.265 903.5 127V117.5C903.5 117.235 903.606 116.98 903.793 116.793C903.98 116.606 904.235 116.5 904.5 116.5H914ZM904.5 124V127H914V126.5L911.5 124.002L910.707 124.795C910.52 124.982 910.265 125.087 910 125.087C909.735 125.087 909.48 124.982 909.293 124.795L906.5 122.001L904.5 124ZM904.5 117.5V122.586L905.793 121.293C905.981 121.105 906.235 121 906.5 121C906.765 121 907.019 121.105 907.207 121.293L910 124.086L910.793 123.293C910.981 123.105 911.235 123 911.5 123C911.765 123 912.019 123.105 912.207 123.293L914 125.086V117.5H904.5ZM911 115H902V124H901V115C901 114.735 901.105 114.48 901.293 114.293C901.48 114.105 901.735 114 902 114H911V115ZM909.926 118.614C910.2 118.501 910.502 118.471 910.793 118.529C911.084 118.587 911.351 118.73 911.561 118.939C911.77 119.149 911.913 119.416 911.971 119.707C912.029 119.998 911.999 120.3 911.886 120.574C911.772 120.848 911.58 121.082 911.333 121.247C911.086 121.412 910.797 121.5 910.5 121.5C910.102 121.5 909.721 121.342 909.439 121.061C909.158 120.779 909 120.398 909 120C909 119.703 909.088 119.414 909.253 119.167C909.418 118.92 909.652 118.728 909.926 118.614ZM910.5 119.5C910.367 119.5 910.24 119.553 910.146 119.646C910.053 119.74 910 119.867 910 120C910 120.099 910.029 120.195 910.084 120.277C910.139 120.36 910.217 120.424 910.309 120.462C910.4 120.5 910.501 120.51 910.598 120.49C910.695 120.471 910.784 120.423 910.854 120.354C910.923 120.284 910.971 120.195 910.99 120.098C911.01 120.001 911 119.9 910.962 119.809C910.924 119.717 910.86 119.639 910.777 119.584C910.695 119.529 910.599 119.5 910.5 119.5Z" fill="black" fill-opacity="0.25"/>
<rect x="834" y="144" width="147" height="34" rx="3" fill="black" fill-opacity="0.05"/>
<path d="M908 154C909.459 154 910.857 154.58 911.889 155.611C912.92 156.643 913.5 158.041 913.5 159.5C913.502 160.691 913.113 161.85 912.393 162.799L912.392 162.8C912.389 162.804 912.242 162.996 912.22 163.023L908 168L903.782 163.025C903.758 162.997 903.611 162.804 903.608 162.8C902.888 161.851 902.498 160.692 902.5 159.5C902.5 158.041 903.08 156.643 904.111 155.611C905.143 154.58 906.541 154 908 154ZM908 155C906.807 155 905.662 155.474 904.818 156.318C903.974 157.162 903.5 158.307 903.5 159.5C903.499 160.474 903.817 161.421 904.406 162.197C904.407 162.198 904.523 162.352 904.55 162.385L908 166.454L911.455 162.379C911.477 162.351 911.594 162.197 911.595 162.196C912.183 161.421 912.501 160.474 912.5 159.5C912.5 158.307 912.026 157.162 911.182 156.318C910.338 155.474 909.193 155 908 155ZM907.513 157.048C907.998 156.952 908.5 157.001 908.957 157.19C909.414 157.38 909.804 157.7 910.079 158.111C910.354 158.522 910.5 159.006 910.5 159.5C910.499 160.163 910.235 160.798 909.767 161.267C909.298 161.735 908.663 161.999 908 162C907.506 162 907.022 161.854 906.611 161.579C906.2 161.304 905.88 160.914 905.69 160.457C905.501 160 905.452 159.498 905.548 159.013C905.644 158.528 905.883 158.082 906.232 157.732C906.582 157.383 907.028 157.144 907.513 157.048ZM908 158C907.703 158 907.414 158.088 907.167 158.253C906.92 158.418 906.728 158.652 906.614 158.926C906.501 159.2 906.471 159.502 906.529 159.793C906.587 160.084 906.73 160.351 906.939 160.561C907.149 160.77 907.416 160.913 907.707 160.971C907.998 161.029 908.3 160.999 908.574 160.886C908.848 160.772 909.082 160.58 909.247 160.333C909.412 160.086 909.5 159.797 909.5 159.5C909.5 159.102 909.342 158.721 909.061 158.439C908.779 158.158 908.398 158 908 158Z" fill="black" fill-opacity="0.25"/>
<rect x="834" y="184" width="147" height="34" rx="3" fill="black" fill-opacity="0.05"/>
<path d="M913 195H911V194H910V195H906V194H905V195H903C902.45 195 902 195.45 902 196V206C902 206.55 902.45 207 903 207H913C913.55 207 914 206.55 914 206V196C914 195.45 913.55 195 913 195ZM913 206H903V199H913V206ZM913 198H903V196H905V197H906V196H910V197H911V196H913V198Z" fill="black" fill-opacity="0.25"/>
<path d="M975.062 52.5L972.25 49.6875L972.692 49.2456L975.062 51.6159L979.308 47.3706L979.75 47.8125L975.062 52.5Z" fill="black" fill-opacity="0.5"/>
</svg>
