<svg width="124" height="79" viewBox="0 0 124 79" fill="none" xmlns="http://www.w3.org/2000/svg">
<path d="M33.625 8.375H7C5.89543 8.375 5 9.27043 5 10.375V32.625C5 33.7296 5.89543 34.625 7 34.625H33.625C34.7296 34.625 35.625 33.7296 35.625 32.625V10.375C35.625 9.27043 34.7296 8.375 33.625 8.375Z" stroke="black" stroke-width="10"/>
<path d="M77.375 47.75H7C5.89543 47.75 5 48.6454 5 49.75V72C5 73.1046 5.89543 74 7 74H77.375C78.4796 74 79.375 73.1046 79.375 72V49.75C79.375 48.6454 78.4796 47.75 77.375 47.75Z" stroke="black" stroke-width="10"/>
<path d="M116.75 8.375H94.5C93.3954 8.375 92.5 9.27043 92.5 10.375V72C92.5 73.1046 93.3954 74 94.5 74H116.75C117.855 74 118.75 73.1046 118.75 72V10.375C118.75 9.27043 117.855 8.375 116.75 8.375Z" stroke="black" stroke-width="10"/>
<path d="M63.1965 5.5C63.5814 4.83333 64.5436 4.83333 64.9285 5.5L80.2463 32.0312C80.6312 32.6979 80.1501 33.5312 79.3803 33.5312H48.7447C47.9749 33.5312 47.4937 32.6979 47.8787 32.0313L63.1965 5.5Z" stroke="black" stroke-width="10"/>
</svg>
