<svg width="182" height="88" viewBox="0 0 182 88" fill="none" xmlns="http://www.w3.org/2000/svg">
<path d="M91 5C73.9908 5 57.3636 7.28731 43.221 11.5727C29.0784 15.8581 18.0555 21.949 11.5464 29.0753C5.03726 36.2017 3.33418 44.0433 6.6525 51.6085C9.97083 59.1738 18.1615 66.1229 30.1888 71.5771C42.2162 77.0314 57.5399 80.7458 74.2223 82.2506C90.9046 83.7554 108.196 82.9831 123.911 80.0313C139.625 77.0795 153.057 72.0807 162.506 65.6672C171.956 59.2537 177 51.7135 177 44C177 33.6565 167.939 23.7367 151.811 16.4228C135.683 9.10891 113.809 5 91 5ZM91 5C75.1378 5 62.3334 22.3333 62.3334 44C62.3334 65.6667 75.1378 83 91 83C106.862 83 119.667 65.6667 119.667 44C119.667 22.3333 106.862 5 91 5ZM159.8 67.4C147.668 62.7796 133.127 59.6466 117.564 58.3C100.062 56.5625 81.938 56.5625 64.4356 58.3C48.8735 59.6466 34.3322 62.7796 22.2 67.4M159.8 20.6C147.668 25.2204 133.127 28.3534 117.564 29.7C108.844 30.5814 99.934 31.0175 91 31C82.066 31.0175 73.1557 30.5814 64.4356 29.7C48.8735 28.3534 34.3322 25.2204 22.2 20.6" stroke="black" stroke-width="10" stroke-linecap="round" stroke-linejoin="round"/>
</svg>
