<svg width="79" height="79" viewBox="0 0 79 79" fill="none" xmlns="http://www.w3.org/2000/svg">
<path d="M29.625 69.125H24.6875V57.8037L8.42871 74.0625L4.9375 70.5713L21.1963 54.3125H9.875V49.375H29.625V69.125ZM66.6562 7.40625C67.9652 7.40801 69.2199 7.92891 70.1455 8.85449C71.0711 9.78007 71.592 11.0348 71.5938 12.3438V66.6562C71.592 67.9652 71.0711 69.2199 70.1455 70.1455C69.2199 71.0711 67.9652 71.592 66.6562 71.5938H39.5V66.6562H66.6562V27.1562H12.3438V39.5H7.40625V12.3438C7.40801 11.0348 7.92891 9.78007 8.85449 8.85449C9.78007 7.92891 11.0348 7.40801 12.3438 7.40625H66.6562ZM59.25 59.25H49.375V54.3125H59.25V59.25ZM49.375 49.375H39.5V44.4375H49.375V49.375ZM29.625 39.5H19.75V34.5625H29.625V39.5ZM59.25 39.5H49.375V34.5625H59.25V39.5ZM12.3438 12.3438V22.2188H66.6562V12.3438H12.3438Z" fill="black"/>
</svg>
